<svg xmlns="http://www.w3.org/2000/svg" width="712.438" height="658.286" viewBox="0 0 712.438 658.286">
  <g id="Astronaut" transform="translate(-235.218 -1674.811)">
    <g id="Group_28" data-name="Group 28" transform="translate(235.218 1674.811)">
      <path id="Path_190" data-name="Path 190" d="M540.4,476.538c140.549,0,255.182-14.181,255.182-31.572S680.946,413.4,540.4,413.4s-255.18,14.181-255.18,31.572S399.851,476.538,540.4,476.538Z" transform="translate(-285.218 181.747)" fill="#f78154" fill-rule="evenodd"/>
      <g id="Group_141" data-name="Group 141" transform="translate(2.445)">
        <g id="Group_139" data-name="Group 139">
          <g id="Group_132" data-name="Group 132" transform="translate(9.127 264.41)">
            <path id="Path_191" data-name="Path 191" d="M494.02,553.139c-13.235,22.054-19.327,43.476-18.9,69.19l-77.242.48-3.6-21.273c-38.668-47.721-47.893-103.233-42.989-162.479-43.06-37.916-63.344-85.19-61-140.059,1.036-24.246,36.218-39.347,49.411-6.825,9.8,24.17,16.388,35.112,32.685,56.139H615.648c23.884,11.582,72.889,40.657,122.016,42.036,34.93.981,29.609,50.036,6.054,55.356-37.4,8.449-61.1,8.191-106.167,5.481,2.7,54.692-7.773,105.9-43.793,150.35l-3.594,21.273-77.242-.48C513.347,596.615,507.255,575.193,494.02,553.139Z" transform="translate(-290.112 -273.535)" fill="#fff" fill-rule="evenodd"/>
            <path id="Path_192" data-name="Path 192" d="M448.879,411.7a128.01,128.01,0,0,0-8.1,19.63C397.5,430.3,358.947,424.3,331.569,415.26a191.369,191.369,0,0,1-12.23-31.153c23.517,15.865,72.47,26.949,129.541,27.592Zm140.047-27.589A191.868,191.868,0,0,1,576.7,415.26c-27.379,9.043-65.934,15.037-109.211,16.068a127.786,127.786,0,0,0-8.1-19.63C516.456,411.056,565.411,399.972,588.926,384.109Z" transform="translate(-250.225 -122.633)" fill="#b2abb9" fill-rule="evenodd"/>
            <path id="Path_193" data-name="Path 193" d="M468.507,320.814q3.405.851,6.844,1.582a141.332,141.332,0,0,0-5.919,40.551,133.007,133.007,0,0,0,2.192,24.326c-2.407.218-4.81.4-7.224.549a133.024,133.024,0,0,1-2.3-24.875A141.17,141.17,0,0,1,468.507,320.814Z" transform="translate(-55.388 -209.012)" fill="#b2abb9" fill-rule="evenodd"/>
            <path id="Path_194" data-name="Path 194" d="M471.121,321.483a154.235,154.235,0,0,0,27.589,3.429c34.93.981,29.609,50.036,6.054,55.356a281.731,281.731,0,0,1-37.372,6.092,133.226,133.226,0,0,1-2.19-24.326A141.332,141.332,0,0,1,471.121,321.483Z" transform="translate(-51.158 -208.099)" fill="#fff" fill-rule="evenodd"/>
            <path id="Path_195" data-name="Path 195" d="M293.481,325.339q-.9-3.416-1.667-6.879c25.615-2.05,47.643-11.928,58.939-25.066,1.289,2.237,2.632,4.439,4.056,6.659C343.186,313.615,320.125,323.715,293.481,325.339Z" transform="translate(-287.789 -246.433)" fill="#b2abb9" fill-rule="evenodd"/>
            <path id="Path_196" data-name="Path 196" d="M294.137,345.562A180.556,180.556,0,0,1,290.294,299c1.036-24.246,36.218-39.347,49.411-6.825a222.4,222.4,0,0,0,13.37,28.323C341.779,333.635,319.752,343.512,294.137,345.562Z" transform="translate(-290.112 -273.535)" fill="#fff" fill-rule="evenodd"/>
            <path id="Path_197" data-name="Path 197" d="M374.316,443.979c21.278,0,38.633-6.479,38.633-14.42s-17.355-14.42-38.633-14.42-38.633,6.477-38.633,14.42S353.038,443.979,374.316,443.979Z" transform="translate(-227.919 -80.284)" fill="#b2abb9" fill-rule="evenodd"/>
            <path id="Path_198" data-name="Path 198" d="M332.6,289.3a76.869,76.869,0,0,0-7.65,37.5c70.434,31.233,172.823,31.233,243.256,0a76.869,76.869,0,0,0-7.65-37.5l-82.546,1-31.432,24.712L415.142,290.3Z" transform="translate(-242.666 -252.019)" fill="#cd1a01" fill-rule="evenodd"/>
            <path id="Path_199" data-name="Path 199" d="M362.8,309.057c-6.711,29.488-22.8,57.9-46.136,81.522l-1.182,24.234c35.4-25.05,56.856-59.074,67.452-100.083Z" transform="translate(-255.486 -225.057)" fill="#b2abb9" fill-rule="evenodd"/>
            <path id="Path_200" data-name="Path 200" d="M428.8,309.057c9.736,42.771,31.04,62.843,57.206,94.242l-10-.83.114,12.344c-35.4-25.05-56.856-59.074-67.452-100.083Z" transform="translate(-128.306 -225.057)" fill="#b2abb9" fill-rule="evenodd"/>
            <path id="Path_201" data-name="Path 201" d="M422.957,443.979c21.276,0,38.63-6.479,38.63-14.42s-17.355-14.42-38.63-14.42-38.633,6.477-38.633,14.42S401.679,443.979,422.957,443.979Z" transform="translate(-161.536 -80.284)" fill="#b2abb9" fill-rule="evenodd"/>
            <path id="Path_202" data-name="Path 202" d="M442.119,329.853c62.777,0,113.978-11.549,113.978-25.712s-51.2-25.714-113.978-25.714-113.978,11.552-113.978,25.714S379.342,329.853,442.119,329.853Z" transform="translate(-238.212 -266.86)" fill="#af1302" fill-rule="evenodd"/>
            <path id="Path_203" data-name="Path 203" d="M366.545,335.225H442.96a11.085,11.085,0,0,1,11.024,11.081v29.216A11.086,11.086,0,0,1,442.96,386.6H366.545a11.086,11.086,0,0,1-11.024-11.081V346.306A11.085,11.085,0,0,1,366.545,335.225Z" transform="translate(-200.845 -176.345)" fill="#b2abb9" fill-rule="evenodd"/>
            <g id="Group_131" data-name="Group 131" transform="translate(168.843 170.099)">
              <path id="Path_204" data-name="Path 204" d="M363.931,339.969h65.291a2.433,2.433,0,0,1,2.419,2.433v6.411a2.433,2.433,0,0,1-2.419,2.433H363.931a2.433,2.433,0,0,1-2.419-2.433V342.4A2.433,2.433,0,0,1,363.931,339.969Z" transform="translate(-361.512 -339.969)" fill="#403c52" fill-rule="evenodd"/>
              <path id="Path_205" data-name="Path 205" d="M363.931,347.44h65.291a2.431,2.431,0,0,1,2.419,2.431v6.413a2.432,2.432,0,0,1-2.419,2.431H363.931a2.432,2.432,0,0,1-2.419-2.431v-6.413A2.431,2.431,0,0,1,363.931,347.44Z" transform="translate(-361.512 -329.773)" fill="#403c52" fill-rule="evenodd"/>
            </g>
            <path id="Path_206" data-name="Path 206" d="M598.835,399.282c-29.176,13.744-80.742,22.874-139.494,22.874s-110.318-9.13-139.494-22.874a246.922,246.922,0,0,1-4.323-40.333l0-.066c18.043,20.4,75.6,35.315,143.819,35.315s125.767-14.914,143.814-35.313l-.042,1.471A245.835,245.835,0,0,1,598.835,399.282Z" transform="translate(-255.433 -157.058)" fill="#d9d7e3" fill-rule="evenodd"/>
          </g>
          <g id="Group_138" data-name="Group 138">
            <g id="Group_136" data-name="Group 136" transform="translate(0 101.511)">
              <path id="Path_207" data-name="Path 207" d="M311.9,204.649H686.743A25.793,25.793,0,0,1,712.4,230.434v57.227a25.792,25.792,0,0,1-25.653,25.783H311.9a25.792,25.792,0,0,1-25.653-25.783V230.434A25.793,25.793,0,0,1,311.9,204.649Z" transform="translate(-286.252 -204.649)" fill="#b6aaba" fill-rule="evenodd"/>
              <g id="Group_135" data-name="Group 135" transform="translate(15.955 25.487)">
                <g id="Group_133" data-name="Group 133">
                  <path id="Path_208" data-name="Path 208" d="M302.576,234.676A9.625,9.625,0,1,0,293,225.052,9.617,9.617,0,0,0,302.576,234.676Z" transform="translate(-292.999 -215.427)" fill="#fff" fill-rule="evenodd"/>
                  <path id="Path_209" data-name="Path 209" d="M302.576,250.987A9.625,9.625,0,1,0,293,241.363,9.617,9.617,0,0,0,302.576,250.987Z" transform="translate(-292.999 -193.167)" fill="#fff" fill-rule="evenodd"/>
                </g>
                <g id="Group_134" data-name="Group 134" transform="translate(375.084)">
                  <path id="Path_210" data-name="Path 210" d="M461.189,234.676a9.625,9.625,0,1,0-9.575-9.625A9.62,9.62,0,0,0,461.189,234.676Z" transform="translate(-451.614 -215.427)" fill="#fff" fill-rule="evenodd"/>
                  <path id="Path_211" data-name="Path 211" d="M461.189,250.987a9.625,9.625,0,1,0-9.575-9.625A9.62,9.62,0,0,0,461.189,250.987Z" transform="translate(-451.614 -193.167)" fill="#fff" fill-rule="evenodd"/>
                </g>
              </g>
            </g>
            <g id="Group_137" data-name="Group 137" transform="translate(42.246)">
              <ellipse id="Ellipse_33" data-name="Ellipse 33" cx="170.792" cy="161.405" rx="170.792" ry="161.405" fill="#fff"/>
              <path id="Path_212" data-name="Path 212" d="M462.452,174.679c169.221,0,226.777,248.322,0,250.523C237.52,427.387,291.306,174.679,462.452,174.679Z" transform="translate(-291.661 -144.039)" fill="#262b35" fill-rule="evenodd"/>
              <path id="Path_213" data-name="Path 213" d="M462.441,174.679c50.185,0,90.546,21.838,116.584,52.623,39.891,72.82,6.749,169.368-143.8,170.737-41.894.383-74.7-7.011-99.4-19.455C276.643,306.114,339.009,174.679,462.441,174.679Z" transform="translate(-291.65 -144.039)" fill="#181c26" fill-rule="evenodd"/>
            </g>
            <path id="Path_214" data-name="Path 214" d="M411.379,230.761c33.44,0,60.712-10.161,60.712-22.624s-27.273-22.621-60.712-22.621-60.712,10.161-60.712,22.621S377.94,230.761,411.379,230.761Z" transform="translate(-198.342 -129.249)" fill="#262b35" fill-rule="evenodd"/>
          </g>
        </g>
        <g id="Group_140" data-name="Group 140" transform="translate(450.321 36.516)">
          <path id="Path_215" data-name="Path 215" d="M483.345,177.164h0a6.7,6.7,0,0,1,6.661,6.695V768.75H476.683V183.859A6.7,6.7,0,0,1,483.345,177.164Z" transform="translate(-476.683 -177.164)" fill="#7d8cae" fill-rule="evenodd"/>
          <path id="Path_216" data-name="Path 216" d="M482.317,207.009c102.029-53.034,119.857,47.186,246.35,45.048L720.7,355c-141.476,39.5-135.029-84.549-238.385-20.457Z" transform="translate(-468.994 -157.591)" fill="#f78154" fill-rule="evenodd"/>
        </g>
      </g>
    </g>
    <text id="Martin" transform="translate(387 2038)" font-size="42" font-family="HelveticaNeue-Bold, Helvetica Neue" font-weight="700"><tspan x="0" y="41">Martin</tspan></text>
  </g>
</svg>
