<svg id="copyright" xmlns="http://www.w3.org/2000/svg" width="512" height="512" viewBox="0 0 512 512">
  <g id="Group_2616" data-name="Group 2616">
    <g id="Group_2615" data-name="Group 2615">
      <path id="Path_1783" data-name="Path 1783" d="M206.848,226.944a67.435,67.435,0,0,1,7.68-22.272,44.514,44.514,0,0,1,15.1-15.744c6.016-3.712,13.568-5.76,22.912-5.888a42.851,42.851,0,0,1,16.64,3.328,40.415,40.415,0,0,1,21.888,22.784,49.914,49.914,0,0,1,3.456,16.384h45.824a91.585,91.585,0,0,0-7.04-33.024,76.616,76.616,0,0,0-18.048-25.856,79.32,79.32,0,0,0-27.648-16.768,102.467,102.467,0,0,0-35.712-6.016c-16.64,0-31.1,2.816-43.392,8.576A86.544,86.544,0,0,0,177.792,176a99.012,99.012,0,0,0-18.3,34.688,144.469,144.469,0,0,0-5.888,41.856v7.04a144.732,144.732,0,0,0,6.016,41.984,97.325,97.325,0,0,0,18.3,34.56,87.043,87.043,0,0,0,30.848,23.424c12.416,5.76,26.88,8.576,43.52,8.576a94.74,94.74,0,0,0,33.792-5.888,90.1,90.1,0,0,0,27.648-16.256,78.141,78.141,0,0,0,18.944-24.064,70.79,70.79,0,0,0,7.68-29.44H294.528a36.45,36.45,0,0,1-3.84,14.848,35.773,35.773,0,0,1-9.216,11.648,43.048,43.048,0,0,1-13.44,7.552,47.358,47.358,0,0,1-15.488,2.56c-9.216-.256-16.768-2.176-22.912-6.016A45.2,45.2,0,0,1,214.4,307.2a67.153,67.153,0,0,1-7.68-22.4,151.065,151.065,0,0,1-1.92-25.216v-7.04A153.556,153.556,0,0,1,206.848,226.944Z" fill="#fff"/>
      <path id="Path_1784" data-name="Path 1784" d="M256,0C114.56,0,0,114.56,0,256S114.56,512,256,512,512,397.44,512,256,397.44,0,256,0Zm0,460.8C143.1,460.8,51.2,368.9,51.2,256S143.1,51.2,256,51.2,460.8,143.1,460.8,256,368.9,460.8,256,460.8Z" fill="#fff"/>
    </g>
  </g>
</svg>
