<svg xmlns="http://www.w3.org/2000/svg" width="34" height="42.5" viewBox="0 0 34 42.5">
  <g id="download" transform="translate(-48)">
    <g id="Group_2481" data-name="Group 2481" transform="translate(52.381)">
      <g id="Group_2480" data-name="Group 2480" transform="translate(0)">
        <path id="Path_1690" data-name="Path 1690" d="M122.366,19.009,120.5,16.884a1.419,1.419,0,0,0-2-.13l-5.567,4.879V1.417A1.417,1.417,0,0,0,111.517,0h-2.833a1.417,1.417,0,0,0-1.417,1.417V21.632L101.7,16.753a1.419,1.419,0,0,0-2,.13l-1.867,2.122a1.418,1.418,0,0,0,.13,2l11.2,9.806a1.418,1.418,0,0,0,1.867,0l11.2-9.806A1.415,1.415,0,0,0,122.366,19.009Z" transform="translate(-97.482)" fill="#f78154"/>
      </g>
    </g>
    <g id="Group_2483" data-name="Group 2483" transform="translate(48 36.833)">
      <g id="Group_2482" data-name="Group 2482">
        <path id="Path_1691" data-name="Path 1691" d="M80.583,416H49.417A1.417,1.417,0,0,0,48,417.417v2.833a1.417,1.417,0,0,0,1.417,1.417H80.583A1.417,1.417,0,0,0,82,420.25v-2.833A1.417,1.417,0,0,0,80.583,416Z" transform="translate(-48 -416)" fill="#f78154"/>
      </g>
    </g>
  </g>
</svg>
