<svg xmlns="http://www.w3.org/2000/svg" width="87.641" height="43.665" viewBox="0 0 87.641 43.665">
  <g id="Group_51" data-name="Group 51" transform="translate(-168.288 -40.291)">
    <path id="Path_223" data-name="Path 223" d="M199.817,83.956s2.537-7.012-2.4-11.041c0,0-13.33-7.019-15.359-8.53,0,0-6.765-7.938-7.4-9.893,0,0-6.525-8.352-6.366-8.945,0,0,1.67-2.251,5.49,1.066a52.441,52.441,0,0,1,4.457,4.977s-1.671-6.339-3.261-10.6c0,0,2.148-2.488,5.092,1.955,0,0,4.3-1.067,5.332,5.331,0,0,2.865.178,4.138,3.731,0,0,2.945,4.8,3.264,7.287,0,0,13.051,3.437,17.191,9.657,0,0,1.353,1.243,2.069,4.621,0,0,.292,8.848.452,10.389Z" fill="#e4e4e4"/>
    <path id="Path_224" data-name="Path 224" d="M189.938,69.646a10.819,10.819,0,0,0-5.332-4.562s-6.208-2.87-7.8-4.721c0,0-1.513-1.2-.557-2.506,0,0-1.593,1.022.2,2.887a29.622,29.622,0,0,0,8.118,5.738A11.9,11.9,0,0,1,189.938,69.646Z" transform="translate(0 -4.491)" fill="#c7c6c6"/>
    <path id="Path_225" data-name="Path 225" d="M175.484,43.134s2.588,2.126,5.252,10.65c0,0-1.591-.372-1.959-.406a3.78,3.78,0,0,0-.737-1.24S176.391,45.3,175.484,43.134Z" transform="translate(0 -0.727)" fill="#c7c6c6"/>
    <path id="Path_226" data-name="Path 226" d="M180.328,44.606s4.656,4.326,6.029,12.707l-1.632-.889S181.642,46.516,180.328,44.606Z" transform="translate(0 -1.103)" fill="#c7c6c6"/>
    <path id="Path_227" data-name="Path 227" d="M185.551,51.59s3.07,6.678,3.607,9.077c0,0,1.258.652,1.615.875C190.773,61.542,187.819,52.974,185.551,51.59Z" transform="translate(0 -2.888)" fill="#c7c6c6"/>
    <path id="Path_228" data-name="Path 228" d="M192.565,65.775s11.9,3.88,17.012,9.109C209.577,74.884,204.145,67.553,192.565,65.775Z" transform="translate(0 -6.515)" fill="#c7c6c6"/>
    <path id="Path_229" data-name="Path 229" d="M179.682,68.81s1.925,2.462,2.3,2.776c0,0,3.3,2.489,13.639,7.669l-12.853-8.149Z" transform="translate(0 -7.291)" fill="#c7c6c6"/>
    <path id="Path_230" data-name="Path 230" d="M211.977,82.284l.8,11.99h-2.785l.955-13.622.813,1.17Z" transform="translate(0 -10.318)" fill="#c7c6c6"/>
    <path id="Path_231" data-name="Path 231" d="M178.18,56.875s4.023-.138,9.326,4.343c0,0,3.881,1.859,5.635,2.479a54.183,54.183,0,0,1-10.373-4.136s-5.326-2.547-6.518-1.955A4.437,4.437,0,0,1,178.18,56.875Z" transform="translate(0 -4.239)" fill="#c7c6c6"/>
    <path id="Path_232" data-name="Path 232" d="M230.707,83.906s-3.844-6.962,1.09-10.991c0,0,13.33-7.019,15.359-8.53,0,0,6.766-7.938,7.4-9.893,0,0,6.525-8.352,6.367-8.945,0,0-1.672-2.251-5.492,1.066a52.579,52.579,0,0,0-4.457,4.977s1.671-6.339,3.263-10.6c0,0-2.148-2.488-5.093,1.955,0,0-4.3-1.067-5.332,5.331,0,0-2.866.178-4.139,3.731,0,0-2.944,4.8-3.264,7.287,0,0-13.051,3.437-17.19,9.657,0,0-1.353,1.243-2.07,4.621,0,0,.159,8.8,0,10.339Z" transform="translate(-5)" fill="#e4e4e4"/>
    <path id="Path_233" data-name="Path 233" d="M239.277,69.646a10.831,10.831,0,0,1,5.332-4.562s6.209-2.87,7.8-4.721c0,0,1.512-1.2.555-2.506,0,0,1.594,1.022-.2,2.887a29.641,29.641,0,0,1-8.118,5.738A11.9,11.9,0,0,0,239.277,69.646Z" transform="translate(-5 -4.491)" fill="#c7c6c6"/>
    <path id="Path_234" data-name="Path 234" d="M253.731,43.134s-2.586,2.126-5.252,10.65c0,0,1.591-.372,1.961-.406a3.789,3.789,0,0,1,.736-1.24S252.826,45.3,253.731,43.134Z" transform="translate(-5 -0.727)" fill="#c7c6c6"/>
    <path id="Path_235" data-name="Path 235" d="M248.887,44.606s-4.655,4.326-6.028,12.707l1.631-.889S247.574,46.516,248.887,44.606Z" transform="translate(-5 -1.103)" fill="#c7c6c6"/>
    <path id="Path_236" data-name="Path 236" d="M243.666,51.59s-3.072,6.678-3.607,9.077c0,0-1.26.652-1.618.875C238.441,61.542,241.4,52.974,243.666,51.59Z" transform="translate(-5 -2.888)" fill="#c7c6c6"/>
    <path id="Path_237" data-name="Path 237" d="M236.651,65.775s-11.9,3.88-17.012,9.109C219.639,74.884,225.071,67.553,236.651,65.775Z" transform="translate(-5 -6.515)" fill="#c7c6c6"/>
    <path id="Path_238" data-name="Path 238" d="M249.535,68.81s-1.926,2.462-2.3,2.776c0,0-3.3,2.489-13.638,7.669l12.853-8.149Z" transform="translate(-5 -7.291)" fill="#c7c6c6"/>
    <path id="Path_239" data-name="Path 239" d="M217.239,82.278l-.8,11.946h2.785l-.955-13.572-.814,1.165Z" transform="translate(-5 -10.318)" fill="#c7c6c6"/>
    <path id="Path_240" data-name="Path 240" d="M251.035,56.875s-4.023-.138-9.324,4.343c0,0-3.883,1.859-5.635,2.479a54.165,54.165,0,0,0,10.371-4.136s5.326-2.547,6.518-1.955A4.422,4.422,0,0,0,251.035,56.875Z" transform="translate(-5 -4.239)" fill="#c7c6c6"/>
  </g>
</svg>
