<svg id="instagram_1_" data-name="instagram (1)" xmlns="http://www.w3.org/2000/svg" width="52.774" height="52.774" viewBox="0 0 52.774 52.774">
  <path id="Path_1768" data-name="Path 1768" d="M217.1,212.051A5.051,5.051,0,1,1,212.051,207,5.051,5.051,0,0,1,217.1,212.051Zm0,0" transform="translate(-185.664 -185.664)" fill="#e9e9e9"/>
  <path id="Path_1769" data-name="Path 1769" d="M159.718,138.974a5.018,5.018,0,0,0-2.876-2.876,8.383,8.383,0,0,0-2.813-.521c-1.6-.073-2.077-.089-6.123-.089s-4.525.015-6.123.088a8.388,8.388,0,0,0-2.813.522,5.02,5.02,0,0,0-2.876,2.876,8.387,8.387,0,0,0-.521,2.814c-.073,1.6-.089,2.077-.089,6.123s.016,4.525.089,6.123a8.384,8.384,0,0,0,.521,2.813,5.018,5.018,0,0,0,2.876,2.876,8.373,8.373,0,0,0,2.814.522c1.6.073,2.076.088,6.122.088s4.526-.015,6.123-.088a8.373,8.373,0,0,0,2.814-.522,5.018,5.018,0,0,0,2.876-2.876,8.391,8.391,0,0,0,.522-2.813c.073-1.6.088-2.077.088-6.123s-.015-4.525-.088-6.123A8.373,8.373,0,0,0,159.718,138.974ZM147.906,155.69a7.78,7.78,0,1,1,7.78-7.78A7.78,7.78,0,0,1,147.906,155.69Zm8.088-14.05a1.818,1.818,0,1,1,1.818-1.818A1.818,1.818,0,0,1,155.995,141.64Zm0,0" transform="translate(-121.519 -121.523)" fill="#e9e9e9"/>
  <path id="Path_1770" data-name="Path 1770" d="M26.387,0A26.387,26.387,0,1,0,52.774,26.387,26.39,26.39,0,0,0,26.387,0Zm15.06,32.634a11.117,11.117,0,0,1-.7,3.678,7.747,7.747,0,0,1-4.431,4.431,11.124,11.124,0,0,1-3.678.7c-1.616.074-2.132.091-6.247.091s-4.631-.018-6.247-.091a11.124,11.124,0,0,1-3.678-.7,7.747,7.747,0,0,1-4.431-4.431,11.114,11.114,0,0,1-.7-3.678c-.074-1.616-.092-2.132-.092-6.247s.017-4.631.091-6.247a11.118,11.118,0,0,1,.7-3.678,7.753,7.753,0,0,1,4.432-4.431,11.127,11.127,0,0,1,3.678-.7c1.616-.074,2.132-.091,6.247-.091s4.631.018,6.247.092a11.129,11.129,0,0,1,3.678.7,7.75,7.75,0,0,1,4.431,4.432,11.116,11.116,0,0,1,.7,3.678c.074,1.616.091,2.132.091,6.247S41.522,31.018,41.447,32.634Zm0,0" fill="#e9e9e9"/>
</svg>
