<svg xmlns="http://www.w3.org/2000/svg" width="79.521" height="100.424" viewBox="0 0 79.521 100.424">
  <g id="Group_2330" data-name="Group 2330" transform="translate(-204.216 -1327.115)">
    <path id="Path_233" data-name="Path 233" d="M341.92,1463.129a29.477,29.477,0,1,0-45.637,24.655,7.459,7.459,0,0,1,3.352,6.239v3.387a2.835,2.835,0,0,0,2.835,2.835h19.945a2.835,2.835,0,0,0,2.835-2.835v-3.386a7.519,7.519,0,0,1,3.4-6.271A29.449,29.449,0,0,0,341.92,1463.129Z" transform="translate(-74.715 -85.148)" fill="#fcce1a"/>
    <path id="Path_234" data-name="Path 234" d="M303.418,1482.348H283.473a3.942,3.942,0,0,1-3.937-3.938v-3.387a6.337,6.337,0,0,0-2.855-5.318,30.579,30.579,0,1,1,33.58-.033,6.4,6.4,0,0,0-2.9,5.35v3.386A3.942,3.942,0,0,1,303.418,1482.348Zm-9.97-66.593-.407,0a28.591,28.591,0,0,0-27.964,27.808,28.261,28.261,0,0,0,12.814,24.3,8.536,8.536,0,0,1,3.85,7.161v3.387a1.735,1.735,0,0,0,1.733,1.733h19.945a1.735,1.735,0,0,0,1.733-1.733v-3.386a8.6,8.6,0,0,1,3.9-7.19,28.376,28.376,0,0,0-15.6-52.078Z" transform="translate(-58.65 -69.082)" fill="#fff"/>
    <path id="Path_235" data-name="Path 235" d="M369.793,1765.339a1.485,1.485,0,0,0-1.467,1.689,12.443,12.443,0,0,0,24.655,0,1.484,1.484,0,0,0-1.467-1.689Z" transform="translate(-142.925 -350.242)" fill="#414042"/>
    <path id="Path_236" data-name="Path 236" d="M361.657,1759.884a13.584,13.584,0,0,1-13.42-11.707,2.587,2.587,0,0,1,2.559-2.94h21.722a2.587,2.587,0,0,1,2.559,2.939A13.584,13.584,0,0,1,361.657,1759.884ZM350.8,1747.443a.372.372,0,0,0-.283.128.387.387,0,0,0-.092.31,11.341,11.341,0,0,0,22.471,0,.386.386,0,0,0-.092-.31.372.372,0,0,0-.282-.128Z" transform="translate(-126.862 -334.176)" fill="#fff"/>
    <g id="Group_38" data-name="Group 38" transform="translate(236.45 1327.115)">
      <path id="Path_237" data-name="Path 237" d="M424.516,1339.683a1.1,1.1,0,0,1-1.1-1.1v-10.364a1.1,1.1,0,0,1,2.2,0v10.364A1.1,1.1,0,0,1,424.516,1339.683Z" transform="translate(-423.414 -1327.115)" fill="#fff"/>
      <path id="Path_238" data-name="Path 238" d="M477.416,1351.172a1.1,1.1,0,0,1-1.047-1.448l3.246-9.842a1.1,1.1,0,1,1,2.094.69l-3.246,9.842A1.1,1.1,0,0,1,477.416,1351.172Z" transform="translate(-465.693 -1336.713)" fill="#fff"/>
      <path id="Path_239" data-name="Path 239" d="M524.672,1378.571a1.1,1.1,0,0,1-.926-1.7l5.609-8.715a1.1,1.1,0,0,1,1.854,1.193l-5.609,8.715A1.1,1.1,0,0,1,524.672,1378.571Z" transform="translate(-503.462 -1359.513)" fill="#fff"/>
      <path id="Path_240" data-name="Path 240" d="M560.4,1420.939a1.1,1.1,0,0,1-.74-1.919l7.681-6.957a1.1,1.1,0,1,1,1.48,1.634l-7.682,6.957A1.1,1.1,0,0,1,560.4,1420.939Z" transform="translate(-532.013 -1394.78)" fill="#fff"/>
      <path id="Path_241" data-name="Path 241" d="M585.589,1468.312a1.1,1.1,0,0,1-.488-2.092l9.3-4.578a1.1,1.1,0,1,1,.974,1.978l-9.3,4.578A1.1,1.1,0,0,1,585.589,1468.312Z" transform="translate(-552.147 -1434.543)" fill="#fff"/>
      <path id="Path_242" data-name="Path 242" d="M598.552,1530.307a1.1,1.1,0,0,1-.226-2.181l10.141-2.137a1.1,1.1,0,0,1,.455,2.157l-10.141,2.136A1.094,1.094,0,0,1,598.552,1530.307Z" transform="translate(-562.51 -1486.042)" fill="#fff"/>
    </g>
    <path id="Path_244" data-name="Path 244" d="M429.481,1708.823a2.443,2.443,0,1,1,2.443-2.443A2.446,2.446,0,0,1,429.481,1708.823Zm0-3.783a1.34,1.34,0,1,0,1.341,1.34A1.342,1.342,0,0,0,429.481,1705.04Z" transform="translate(-189.861 -301.168)" fill="#231f20"/>
    <path id="Path_247" data-name="Path 247" d="M472.879,1609.117a.551.551,0,0,1-.319-1c11.173-7.9,13.031-17.592,13.048-17.689a.551.551,0,0,1,1.085.194c-.073.413-1.932,10.219-13.5,18.4A.547.547,0,0,1,472.879,1609.117Z" transform="translate(-226.057 -210.084)" fill="#fff"/>
    <path id="Path_248" data-name="Path 248" d="M540.629,1565.827a.551.551,0,0,1-.537-.677,9.393,9.393,0,0,0,.227-3.5.551.551,0,0,1,1.06-.3,10.328,10.328,0,0,1-.213,4.054A.551.551,0,0,1,540.629,1565.827Z" transform="translate(-280.205 -186.886)" fill="#fff"/>
    <path id="Path_267" data-name="Path 267" d="M451.783,1454.337a1.179,1.179,0,0,1-1.175-1.177v-5.555a1.175,1.175,0,0,1,1.762-1.017l4.81,2.777a1.175,1.175,0,0,1,0,2.035l-4.81,2.777A1.172,1.172,0,0,1,451.783,1454.337Zm0-6.8a.074.074,0,0,0-.037.011.066.066,0,0,0-.036.063v5.555a.066.066,0,0,0,.036.063.065.065,0,0,0,.072,0l4.81-2.777a.073.073,0,0,0,0-.125h0l-4.81-2.777A.07.07,0,0,0,451.783,1447.533Z" transform="translate(-208.699 -95.36)" fill="#fff"/>
    <path id="Path_274" data-name="Path 274" d="M595.617,1580.2a4.925,4.925,0,1,1,4.925-4.925A4.931,4.931,0,0,1,595.617,1580.2Zm0-8.748a3.823,3.823,0,1,0,3.823,3.823A3.828,3.828,0,0,0,595.617,1571.456Z" transform="translate(-320.658 -194.404)" fill="#fff"/>
  </g>
</svg>
