<svg xmlns="http://www.w3.org/2000/svg" width="50.099" height="50.099" viewBox="0 0 50.099 50.099">
  <path id="tiktok" d="M25.049,0A25.049,25.049,0,1,0,50.1,25.049,25.052,25.052,0,0,0,25.049,0ZM37.616,19.166v3.392A11.836,11.836,0,0,1,30.374,20.1l.024,10.44a8.745,8.745,0,0,1-2.623,6.223,8.928,8.928,0,0,1-4.987,2.494,9.193,9.193,0,0,1-1.347.1A8.957,8.957,0,0,1,15.95,37.5a9.108,9.108,0,0,1-.844-.737,8.777,8.777,0,0,1-.4-12.1,8.957,8.957,0,0,1,6.73-3.01,9.193,9.193,0,0,1,1.347.1v4.743a4.223,4.223,0,1,0,2.9,4.012l.006-6.991V10.746h4.671A7.23,7.23,0,0,0,37.6,17.909s.015,0,.013,0v1.258Z" fill="#e9e9e9"/>
</svg>
