<svg id="youtube" xmlns="http://www.w3.org/2000/svg" width="50.574" height="50.574" viewBox="0 0 50.574 50.574">
  <path id="Path_1766" data-name="Path 1766" d="M224.113,217.514l8.226-4.737-8.226-4.737Zm0,0" transform="translate(-201.976 -187.489)" fill="#e9e9e9"/>
  <path id="Path_1767" data-name="Path 1767" d="M25.287,0A25.287,25.287,0,1,0,50.574,25.287,25.29,25.29,0,0,0,25.287,0Zm15.8,25.313a41.736,41.736,0,0,1-.651,7.6A3.959,3.959,0,0,1,37.652,35.7c-2.473.651-12.365.651-12.365.651s-9.866,0-12.365-.677a3.96,3.96,0,0,1-2.785-2.785,41.552,41.552,0,0,1-.651-7.6,41.708,41.708,0,0,1,.651-7.6,4.04,4.04,0,0,1,2.785-2.811c2.473-.651,12.365-.651,12.365-.651s9.892,0,12.365.677a3.96,3.96,0,0,1,2.785,2.785A39.606,39.606,0,0,1,41.088,25.313Zm0,0" fill="#e9e9e9"/>
</svg>
