<svg height="113.078" viewBox="0 0 109.668 113.078" width="109.668" xmlns="http://www.w3.org/2000/svg"><g transform="translate(-38.505 -64.663)"><path d="m147.913 119.487c-.059-.6-.126-1.2-.21-1.795a50.488 50.488 0 0 0 -.982-5.31c-.159-.7-.344-1.385-.537-2.072q-.641-2.278-1.484-4.472-.793-2.076-1.745-4.052c-.12-.249-.254-.49-.377-.737 1.106-2.928.384-6.005-1.846-7.22a4.18 4.18 0 0 0 -2.094-.5 5.074 5.074 0 0 0 -.733.069c-.094-.125-.184-.255-.277-.38-.261-.353-.521-.7-.789-1.032-.025-.026-.042-.059-.067-.084-.16-.21-.336-.411-.5-.621s-.318-.411-.5-.612l-.151-.177a.008.008 0 0 0 -.008-.008c-.227-.269-.462-.537-.7-.805a3.019 3.019 0 0 0 -.226-.252c-.243-.285-.5-.562-.764-.839a.221.221 0 0 0 -.075-.084c-.235-.26-.478-.512-.73-.763-.042-.051-.092-.1-.142-.151-.361-.369-.73-.738-1.108-1.091-.31-.31-.629-.6-.956-.9-.285-.261-.571-.521-.864-.772s-.571-.5-.864-.739c-.353-.3-.713-.6-1.083-.889h-.008c-1.015-.814-2.064-1.585-3.137-2.307-.269-.184-.529-.361-.8-.537s-.546-.352-.814-.52-.545-.344-.822-.5c-.277-.176-.554-.336-.831-.495-.226-.134-.444-.26-.671-.378-.025-.016-.042-.025-.067-.042-.092-.058-.185-.1-.277-.151-.478-.268-.965-.528-1.451-.771-.244-.126-.487-.252-.738-.37-.311-.159-.63-.31-.948-.453a.783.783 0 0 0 -.143-.067c-.285-.134-.571-.268-.864-.394-.352-.151-.705-.3-1.057-.445-.009 0-.017-.008-.025-.008a1.317 1.317 0 0 0 -.151-.067c-.47-.193-.94-.386-1.418-.562-.529-.2-1.057-.394-1.594-.571s-1.082-.36-1.628-.528-1.09-.319-1.644-.47c-1.09-.294-2.2-.554-3.314-.78-.016-.009-.042-.009-.058-.017-.288-.056-.577-.107-.865-.158-.813-2.264-3.835-3.947-7.449-3.947-3.268 0-6.051 1.376-7.157 3.312-.258.022-.516.042-.771.072-.377.042-.755.084-1.132.134s-.755.1-1.124.159-.747.118-1.124.185c-.319.05-.646.109-.965.176q-1.184.227-2.341.5-.54.126-1.082.277c-.361.092-.721.193-1.074.294s-.676.205-1.012.31c-.246.077-.5.149-.741.227h-.009c-.469.159-.948.319-1.409.478a.059.059 0 0 0 -.033.017 2.316 2.316 0 0 0 -.227.084c-.4.142-.788.293-1.183.444l-.075.025c-.428.168-.856.344-1.275.52-.529.219-1.049.453-1.561.688-.436.2-.864.4-1.283.613-.4.2-.8.4-1.192.6-.05.025-.109.058-.159.084l-.05.025c-.428.226-.856.461-1.275.705-.437.243-.865.494-1.292.763h-.009c-.4.243-.8.487-1.191.738-.151.093-.294.193-.445.294-.419.268-.822.545-1.233.83-.5.344-.99.705-1.476 1.066-.319.235-.63.478-.94.721-.109.084-.21.168-.319.252-.495.394-.973.788-1.451 1.208-.671.57-1.325 1.158-1.972 1.762-1.065 1.015-2.088 2.063-3.062 3.162-.041.042-.075.076-.109.118-.713.788-1.384 1.594-2.038 2.416q-.894 1.132-1.712 2.315-1.32 1.849-2.466 3.826c-.436.746-.856 1.5-1.25 2.273a51.942 51.942 0 0 0 -3.347 7.978c-.109.336-.218.663-.319 1-.143.486-.285.981-.42 1.476-.1.386-.2.778-.293 1.168a7.409 7.409 0 0 0 -4.221 3.625c-1.751 3.212-1.142 6.923 1.361 8.287a4.113 4.113 0 0 0 1.306.439c0 .142-.007.281-.007.424 0 .646.009 1.283.034 1.921a52.625 52.625 0 0 0 1.057 8.809q.164.818.352 1.61c.135.562.277 1.124.428 1.678.168.612.344 1.217.537 1.821.3.981.638 1.946 1 2.9a1 1 0 0 0 .058.143 50.127 50.127 0 0 0 3.18 6.8c.008.017.016.026.025.042.512.948 1.074 1.888 1.661 2.8.629.982 1.284 1.947 1.988 2.878.109.159.235.319.353.478.505.681 1.039 1.346 1.586 2a2.5 2.5 0 0 0 -.3.306c-1.233 1.689-.2 4.543 2.314 6.375 2.04 1.489 4.41 1.823 5.894 1 .661.522 1.321 1.046 2.009 1.536.159.118.327.235.487.336.453.327.914.646 1.375.939.269.185.537.361.814.529a52.688 52.688 0 0 0 28.154 8.1c.2 0 .392-.016.59-.018l-.013.009c.3 0 .59-.028.886-.036.75-.02 1.5-.041 2.241-.092.328-.023.651-.063.977-.092.757-.066 1.513-.132 2.26-.23.317-.042.628-.1.943-.148.748-.112 1.5-.223 2.232-.365.315-.061.623-.14.937-.207.726-.154 1.453-.307 2.168-.49.328-.084.647-.188.972-.278.691-.192 1.383-.38 2.062-.6.352-.114.695-.248 1.044-.368.641-.222 1.285-.437 1.915-.682.376-.147.74-.315 1.112-.47.592-.246 1.188-.483 1.768-.75.325-.149.637-.319.958-.474.61-.3 1.225-.584 1.822-.9h.008q2.265-1.208 4.4-2.634c.1-.059.193-.126.294-.193a52.318 52.318 0 0 0 6.585-5.235c.285-.268.562-.537.839-.805q1.674-1.623 3.188-3.4c.824-.952 1.6-1.937 2.356-2.943a4.386 4.386 0 0 0 .874.062 6.9 6.9 0 0 0 5.555-3.843c1.411-2.589 1.287-5.5-.124-7.247.381-.88.73-1.768 1.045-2.673.218-.6.42-1.2.613-1.8s.386-1.234.562-1.863a52.464 52.464 0 0 0 1.459-7.122 49.426 49.426 0 0 0 .454-5.839c.016-.419.025-.847.025-1.275v-.109c0-.21 0-.411-.017-.621-.016-1.519-.1-3.021-.251-4.514z" fill="#251d33"/><path d="m148.154 120.009c-.009-1.527-.093-3.029-.244-4.522-.058-.6-.126-1.2-.209-1.795a50.749 50.749 0 0 0 -.982-5.31c-.159-.7-.344-1.385-.537-2.072q-.642-2.278-1.485-4.472-.792-2.076-1.745-4.052c-.119-.249-.253-.49-.377-.736 1.106-2.929.384-6.006-1.846-7.221a4.33 4.33 0 0 0 -2.829-.429c-.093-.125-.183-.255-.277-.38-.26-.353-.52-.7-.788-1.032-.026-.026-.042-.059-.067-.084-.16-.21-.336-.411-.5-.621s-.319-.411-.5-.612l-.151-.177a.008.008 0 0 0 -.009-.008c-.226-.269-.461-.537-.7-.805a3.206 3.206 0 0 0 -.226-.252c-.244-.285-.5-.562-.764-.839a.239.239 0 0 0 -.075-.084c-.235-.26-.478-.512-.73-.763a1.993 1.993 0 0 0 -.143-.151c-.361-.369-.73-.738-1.107-1.091-.311-.31-.629-.6-.956-.9-.286-.261-.571-.521-.865-.772s-.57-.5-.864-.739c-.352-.3-.713-.6-1.082-.889h-.008q-1.523-1.22-3.138-2.307c-.268-.184-.528-.361-.8-.537s-.545-.352-.814-.52-.545-.344-.822-.5c-.276-.176-.553-.336-.83-.495-.227-.134-.445-.26-.671-.378-.025-.016-.042-.025-.067-.042-.093-.058-.185-.1-.277-.151-.478-.268-.965-.528-1.452-.771-.243-.126-.486-.252-.738-.37-.31-.159-.629-.31-.948-.453a.773.773 0 0 0 -.142-.067c-.286-.134-.571-.268-.864-.394-.353-.151-.705-.3-1.058-.445-.008 0-.016-.008-.025-.008a1.18 1.18 0 0 0 -.151-.067c-.47-.193-.939-.386-1.417-.562-.529-.2-1.057-.394-1.594-.571s-1.083-.36-1.628-.528-1.09-.319-1.644-.47c-1.091-.294-2.2-.554-3.314-.78-.017-.009-.042-.009-.059-.017-.288-.056-.576-.107-.864-.158-.813-2.264-3.835-3.947-7.45-3.947-3.267 0-6.05 1.376-7.156 3.312-.258.022-.516.042-.771.072-.377.042-.755.084-1.132.134s-.756.1-1.125.159-.746.118-1.124.185c-.318.05-.646.109-.964.176q-1.184.227-2.341.5-.542.126-1.082.277c-.361.093-.722.193-1.074.294-.6.168-1.175.352-1.753.537h-.009c-.47.159-.948.319-1.409.478a.061.061 0 0 0 -.034.017 2.3 2.3 0 0 0 -.226.084c-.4.142-.789.293-1.183.444l-.076.025c-.427.168-.855.344-1.275.521-.528.218-1.048.452-1.56.687-.436.2-.864.4-1.284.613-.4.2-.8.4-1.191.6-.05.025-.109.059-.159.084l-.051.025c-.427.226-.855.461-1.275.705-.436.243-.864.494-1.292.763h-.008c-.4.243-.8.487-1.191.738-.151.093-.294.193-.445.294-.42.268-.822.545-1.233.83-.5.344-.99.705-1.477 1.066-.318.235-.629.478-.939.721-.109.084-.21.168-.319.252-.5.394-.973.788-1.451 1.208-.672.57-1.326 1.158-1.972 1.762-1.065 1.015-2.089 2.063-3.062 3.162a1.464 1.464 0 0 0 -.109.118c-.713.788-1.384 1.594-2.038 2.416q-.894 1.132-1.712 2.315-1.319 1.856-2.464 3.833c-.437.746-.856 1.5-1.25 2.273a51.846 51.846 0 0 0 -3.348 7.978c-.109.336-.218.663-.318 1-.143.486-.286.981-.42 1.476-.106.386-.2.778-.294 1.168a7.415 7.415 0 0 0 -4.221 3.625c-1.751 3.212-1.141 6.923 1.362 8.287a4.116 4.116 0 0 0 1.305.439c0 .142-.006.281-.006.424 0 .646.009 1.283.034 1.921a52.521 52.521 0 0 0 1.057 8.809q.164.818.352 1.61c.134.562.277 1.124.428 1.678.168.612.344 1.217.537 1.821.3.981.638 1.946 1 2.9a1.08 1.08 0 0 0 .059.143 50.243 50.243 0 0 0 3.179 6.8c.009.017.017.026.026.042.511.948 1.073 1.888 1.661 2.8.629.982 1.283 1.947 1.988 2.878.109.159.235.319.352.478.506.681 1.04 1.346 1.586 2a2.569 2.569 0 0 0 -.3.306c-1.232 1.689-.2 4.543 2.314 6.375 2.041 1.489 4.411 1.823 5.894 1 .661.522 1.322 1.046 2.01 1.536.159.118.327.235.486.336.453.327.915.646 1.376.939.269.185.537.361.814.529a53.033 53.033 0 0 0 53.028 1.9h.008q2.265-1.208 4.4-2.634c.1-.059.193-.126.293-.193a52.256 52.256 0 0 0 6.586-5.235c.285-.268.562-.537.839-.805q1.674-1.623 3.188-3.4c.824-.952 1.6-1.937 2.355-2.943 2.3.4 4.961-1.085 6.43-3.781 1.411-2.589 1.287-5.5-.124-7.247.381-.88.73-1.768 1.045-2.673.218-.6.419-1.2.612-1.8s.386-1.234.562-1.863a52.464 52.464 0 0 0 1.46-7.122 49.43 49.43 0 0 0 .453-5.839c.017-.419.025-.847.025-1.275v-.109c-.008-.202-.008-.403-.024-.613z" fill="#edecda"/><g fill="#d1cfb1"><path d="m107.4 96.877c0-.352-.022-.7-.056-1.041-.014-.139-.029-.276-.049-.414a11.537 11.537 0 0 0 -.226-1.222c-.036-.161-.079-.319-.123-.478-.1-.349-.213-.693-.342-1.029-.122-.319-.255-.63-.4-.933a11.754 11.754 0 0 0 -.583-1.07c-.066-.108-.134-.215-.2-.319l-.052-.081c-.054-.081-.111-.164-.167-.244-.071-.1-.146-.2-.222-.305-.06-.081-.119-.16-.181-.237-.043-.055-.087-.109-.132-.163s-.073-.094-.116-.141l-.034-.04c-.052-.062-.106-.124-.161-.186a.662.662 0 0 0 -.052-.058c-.056-.065-.116-.129-.176-.193a.044.044 0 0 0 -.017-.019c-.054-.06-.11-.118-.168-.176l-.033-.035c-.083-.085-.168-.17-.255-.251-.071-.071-.145-.139-.22-.206s-.131-.12-.2-.178-.131-.114-.2-.17-.164-.137-.249-.2c-.234-.187-.475-.365-.723-.531-.061-.043-.121-.083-.183-.124s-.126-.081-.187-.119-.126-.08-.19-.116-.127-.078-.191-.114-.1-.06-.155-.087l-.015-.01c-.021-.013-.042-.023-.064-.035-.11-.062-.222-.121-.334-.178-.056-.028-.112-.057-.17-.084s-.145-.072-.218-.105a.166.166 0 0 0 -.033-.015c-.066-.031-.131-.062-.2-.091s-.166-.071-.249-.1a.272.272 0 0 0 -.035-.016c-.108-.044-.216-.089-.326-.129s-.244-.091-.367-.132-.25-.083-.375-.121-.251-.074-.379-.109c-.251-.067-.506-.127-.763-.179h-.013c-.1-.019-.2-.039-.3-.054a.081.081 0 0 0 -.019 0q-.064-.012-.132-.021c-.183-.031-.369-.056-.556-.077a.669.669 0 0 0 -.068-.008c-.054-.008-.108-.012-.164-.018-.123-.011-.247-.021-.373-.028s-.26-.016-.392-.02-.274-.008-.411-.008c-.3 0-.587.01-.877.033-.068 0-.134.01-.2.016-.085.006-.168.013-.251.023s-.174.019-.261.031-.174.023-.259.037-.172.027-.259.042-.148.025-.222.041c-.181.034-.361.073-.539.115-.083.02-.166.041-.249.064l-.247.068c-.137.039-.271.081-.4.123l-.325.111h-.007a.466.466 0 0 0 -.052.02c-.093.033-.182.067-.273.1l-.017.006q-.149.058-.294.12c-.121.05-.241.1-.359.158-.1.046-.2.093-.3.141l-.274.139-.037.019-.011.006c-.1.052-.2.107-.294.163s-.2.114-.3.175c-.093.056-.184.112-.275.17l-.1.068c-.1.062-.189.125-.284.191-.116.079-.228.163-.34.245s-.195.149-.29.225c-.114.09-.224.181-.334.278q-.231.2-.454.4c-.245.234-.481.476-.705.729a.321.321 0 0 0 -.025.027c-.1.108-.187.219-.278.33.054-.046.108-.093.165-.137.094-.076.191-.151.289-.225s.224-.166.34-.245c.1-.066.188-.129.284-.191.035-.023.068-.047.1-.068.09-.058.181-.114.274-.17.1-.062.2-.119.3-.176s.195-.11.294-.162l.012-.006.036-.019.274-.139c.1-.048.2-.1.3-.141.118-.054.238-.108.359-.158q.146-.062.294-.12l.017-.006c.091-.035.18-.07.273-.1a.554.554 0 0 1 .052-.02h.008l.324-.11c.133-.042.267-.085.4-.123.081-.024.164-.047.247-.068s.166-.044.249-.064q.267-.063.539-.116c.074-.015.149-.028.222-.04s.172-.029.259-.043.172-.025.259-.036.174-.022.261-.031.166-.018.251-.023c.068-.006.133-.012.2-.016.29-.023.581-.033.877-.033.137 0 .274 0 .411.008s.263.01.393.019.249.018.372.029c.056.006.11.01.165.018l.067.007c.188.022.373.047.556.078.045.005.089.013.132.021a.081.081 0 0 1 .019 0c.1.015.2.035.3.054h.013c.257.052.512.112.763.179.128.035.253.07.379.109s.251.079.375.121.245.085.367.132.218.085.326.129a.271.271 0 0 1 .035.016c.083.032.166.069.249.1s.133.06.2.091a.166.166 0 0 1 .033.015c.073.033.147.068.218.1s.114.056.17.085c.112.056.224.116.335.178.021.012.042.021.063.035l.016.009c.052.028.1.057.154.088s.128.073.191.113.126.078.19.116.125.078.187.12.122.081.184.124c.247.166.488.344.722.531.085.068.168.135.249.205s.133.112.2.17.133.118.2.178.149.135.22.206c.087.081.172.166.255.251.012.012.023.023.033.035.058.058.114.116.168.176a.054.054 0 0 1 .018.019c.059.064.119.128.175.193.02.02.037.039.053.058.054.062.108.124.16.186l.035.04c.042.047.079.093.115.141s.089.108.132.163c.062.077.122.156.181.237.076.1.151.2.223.305.056.079.112.163.166.244l.052.081c.069.1.137.21.2.319a11.751 11.751 0 0 1 .583 1.07c.147.3.28.614.4.933.129.336.243.68.342 1.029.044.159.087.317.123.478a11.492 11.492 0 0 1 .226 1.222c.02.137.035.275.049.414.035.344.054.689.056 1.041v.143.025c0 .1 0 .2-.006.294a11.656 11.656 0 0 1 -.1 1.344 12.16 12.16 0 0 1 -.337 1.64q-.06.217-.129.429c-.044.139-.091.278-.141.415-.073.211-.155.418-.243.622-.122.3-.259.586-.406.868-.114.222-.238.438-.365.653-.114.193-.236.38-.361.566-.087.133-.18.262-.275.392l-.015.021c-.136.182-.28.356-.424.531.19-.158.38-.316.561-.484l.193-.186q.385-.374.734-.782c.2-.23.386-.467.568-.711l.015-.021c.1-.129.188-.259.275-.392.125-.186.247-.373.361-.566.127-.215.251-.431.365-.653.147-.282.284-.572.4-.868q.134-.306.244-.622c.05-.137.1-.276.141-.415s.089-.284.129-.429a12 12 0 0 0 .336-1.64 11.42 11.42 0 0 0 .105-1.344q.006-.146.006-.294v-.022c.009-.048.009-.095.002-.143z"/><path d="m66.688 111q-.336-.12-.675-.2c-.092-.024-.183-.045-.275-.065a7.9 7.9 0 0 0 -.83-.139c-.11-.014-.221-.023-.332-.032q-.367-.027-.734-.02-.346 0-.687.04a7.7 7.7 0 0 0 -.815.123c-.084.017-.168.035-.25.055l-.064.015c-.064.016-.13.032-.193.049-.083.022-.164.046-.246.071-.065.019-.129.039-.193.061-.044.014-.088.03-.133.046a1.168 1.168 0 0 0 -.117.041l-.034.012-.155.059c-.016.006-.032.012-.049.02-.055.021-.109.044-.164.067a.033.033 0 0 0 -.016.007c-.051.02-.1.043-.151.066l-.03.013c-.073.033-.147.067-.218.1s-.122.06-.183.092-.106.056-.159.086-.1.057-.154.087-.125.073-.188.111q-.261.159-.5.337l-.121.088c-.042.03-.081.061-.12.092s-.08.061-.118.093-.078.064-.116.1-.062.051-.091.078l-.01.008a.387.387 0 0 0 -.037.032c-.065.056-.129.113-.19.172-.032.028-.063.057-.094.088s-.079.076-.117.115l-.017.017c-.035.035-.07.069-.1.106s-.084.089-.124.134a.162.162 0 0 0 -.018.019c-.053.058-.106.117-.157.177s-.115.134-.169.2-.11.139-.164.21-.1.143-.157.216q-.152.216-.29.443l-.006.008c-.035.058-.07.117-.1.176l-.007.011c-.014.025-.029.052-.043.079-.062.109-.121.221-.178.336a.392.392 0 0 0 -.021.041c-.017.033-.032.066-.049.1-.036.076-.071.153-.1.231s-.071.162-.1.245-.069.173-.1.26q-.1.282-.182.565c-.013.044-.024.087-.036.132s-.031.11-.044.165-.028.115-.04.173-.026.116-.037.173l-.033.175c-.009.049-.018.1-.025.15-.02.124-.037.247-.051.37-.007.057-.013.115-.017.173s-.01.116-.014.173c-.008.1-.011.191-.015.286 0 .077 0 .156-.005.232v.006.037.2.013c0 .071.005.143.008.214 0 .089.011.178.018.265s.013.148.021.221.017.138.025.207v.028.008c.011.075.022.15.036.225s.026.152.043.229c.014.072.029.142.045.213.005.027.012.054.019.081.017.076.036.15.056.225.024.092.051.183.078.273s.049.159.075.236c.031.094.064.185.1.277.048.129.1.256.153.383.092.21.191.416.3.617l.011.022c.046.087.1.17.146.254-.016-.046-.034-.091-.049-.137-.026-.078-.052-.156-.076-.236s-.054-.181-.077-.273c-.02-.076-.039-.149-.056-.225-.007-.028-.014-.054-.019-.081-.016-.071-.031-.142-.045-.214-.016-.077-.03-.153-.043-.23s-.025-.15-.035-.224v-.009-.028c-.008-.068-.017-.137-.025-.206s-.015-.146-.021-.221-.014-.176-.018-.265c0-.071-.006-.143-.008-.215v-.012c0-.066 0-.131 0-.2a.241.241 0 0 1 0-.038v-.006c0-.076 0-.154.005-.231 0-.094.008-.189.015-.285 0-.057.009-.115.015-.173s.01-.116.017-.173c.014-.123.031-.246.05-.37.008-.05.017-.1.026-.151s.021-.116.033-.174.024-.116.036-.173.027-.116.041-.173.028-.11.043-.166.024-.087.037-.131c.052-.19.114-.377.182-.565.032-.088.065-.175.1-.261s.067-.164.1-.245.069-.154.1-.23c.016-.034.031-.068.049-.1a.409.409 0 0 1 .02-.042c.057-.114.116-.226.178-.336.014-.027.029-.053.044-.078l.007-.012c.033-.059.068-.117.1-.175l.005-.008c.093-.151.19-.3.291-.444.052-.073.1-.145.157-.216s.108-.141.164-.21.111-.136.168-.2.1-.119.158-.178l.018-.018c.04-.046.083-.09.124-.135s.069-.071.1-.105a.1.1 0 0 1 .017-.018q.057-.059.117-.114c.031-.031.062-.06.093-.089.062-.058.126-.116.191-.171.012-.011.023-.022.037-.033l.009-.007.091-.079c.038-.032.077-.064.117-.1s.078-.062.118-.093.078-.063.119-.092l.121-.088c.163-.119.332-.232.5-.337.062-.039.125-.076.188-.111l.154-.088c.052-.029.106-.057.159-.085s.12-.063.182-.092.146-.071.219-.1l.03-.012c.05-.024.1-.046.151-.067a.031.031 0 0 1 .016-.006c.054-.023.109-.047.163-.067a.462.462 0 0 1 .049-.02l.155-.059.034-.013c.039-.016.077-.029.116-.041l.134-.046c.063-.021.128-.041.193-.06.081-.025.163-.05.246-.071l.193-.05.064-.014c.082-.02.165-.038.249-.055a8.034 8.034 0 0 1 .816-.124q.34-.035.687-.04c.243 0 .489 0 .734.021.111.008.221.018.332.032a7.9 7.9 0 0 1 .83.139c.092.019.183.041.274.065.227.057.451.125.676.205.031.009.061.019.091.03l.016.006q.094.034.186.072a7.63 7.63 0 0 1 .831.377 8.265 8.265 0 0 1 .966.593c.082.06.163.12.242.182s.156.122.232.186c.117.1.23.195.339.3.16.146.313.3.459.459.114.124.223.253.33.384.1.117.188.238.276.36.065.087.126.175.186.266l.01.014c.085.129.162.261.24.393-.056-.158-.113-.315-.178-.469-.024-.056-.049-.111-.073-.165q-.15-.333-.328-.649c-.1-.179-.208-.353-.321-.525l-.01-.015c-.061-.09-.122-.179-.186-.265-.089-.123-.18-.244-.277-.361-.107-.131-.216-.259-.331-.383-.146-.159-.3-.313-.458-.459-.11-.1-.223-.2-.34-.3-.075-.064-.153-.125-.231-.186s-.16-.122-.243-.181a8.131 8.131 0 0 0 -.966-.593 7.831 7.831 0 0 0 -.831-.378c-.06-.025-.123-.048-.185-.071l-.016-.006c-.03-.012-.059-.023-.091-.036z"/><path d="m136.844 119.568c.049-.2.088-.4.117-.6.012-.081.023-.161.031-.242a6.838 6.838 0 0 0 .046-.727c0-.1 0-.193 0-.289q-.009-.319-.048-.634c-.023-.2-.055-.394-.1-.588-.048-.233-.108-.464-.179-.691-.022-.071-.045-.141-.07-.21l-.018-.054c-.019-.054-.039-.109-.06-.162-.026-.069-.054-.137-.083-.205s-.045-.108-.069-.161c-.016-.037-.034-.074-.052-.111s-.028-.064-.045-.1l-.014-.028c-.021-.043-.043-.086-.065-.128a.4.4 0 0 0 -.021-.041c-.023-.045-.048-.09-.073-.135a.024.024 0 0 0 -.007-.013c-.022-.042-.046-.083-.07-.124l-.014-.024c-.035-.061-.071-.121-.109-.18s-.063-.1-.1-.148-.057-.087-.088-.13-.058-.083-.089-.125-.073-.1-.112-.152q-.159-.21-.335-.4c-.029-.033-.057-.065-.087-.1s-.06-.064-.089-.094-.06-.063-.091-.093-.062-.062-.093-.092-.049-.049-.075-.072l-.008-.007a.281.281 0 0 0 -.031-.029c-.054-.051-.109-.1-.165-.149-.027-.024-.055-.049-.084-.072s-.072-.062-.109-.091l-.017-.013c-.033-.027-.066-.054-.1-.08s-.084-.065-.127-.1l-.017-.014c-.055-.041-.111-.081-.167-.12s-.126-.086-.19-.127-.13-.083-.2-.123-.132-.077-.2-.115c-.133-.074-.269-.145-.408-.211h-.007c-.053-.025-.107-.05-.16-.073h-.011l-.072-.031c-.1-.043-.2-.084-.305-.123l-.037-.014c-.03-.012-.06-.022-.091-.033-.069-.024-.138-.048-.208-.07s-.146-.046-.22-.067-.155-.043-.233-.063c-.168-.042-.335-.078-.5-.106-.039-.008-.077-.014-.116-.02s-.1-.016-.146-.023l-.153-.019c-.051-.006-.1-.012-.153-.016s-.1-.01-.153-.013-.088-.007-.132-.009c-.108-.006-.216-.01-.323-.011h-.15c-.051 0-.1 0-.151 0-.083 0-.165.008-.247.013l-.2.016h-.005-.032c-.058 0-.113.012-.17.019h-.011l-.184.026c-.076.011-.152.025-.226.039s-.127.024-.189.038l-.175.04-.024.006h-.007c-.064.016-.128.033-.19.051s-.13.036-.195.057l-.18.057-.068.024-.188.068c-.078.029-.153.06-.229.091s-.132.057-.2.087-.154.071-.23.11c-.107.053-.211.108-.316.166-.173.1-.341.2-.5.314l-.019.011c-.07.048-.137.1-.205.148.038-.018.075-.037.113-.054.065-.03.131-.059.2-.086s.151-.063.228-.091.125-.047.189-.069l.068-.024.18-.057c.065-.021.129-.04.194-.057s.127-.035.19-.051h.008l.023-.006.176-.04c.062-.014.125-.026.188-.038s.151-.028.227-.039l.184-.026h.011c.056-.007.112-.014.169-.019h.033l.2-.016c.082-.005.164-.01.247-.013h.15s.1 0 .151 0c.107 0 .215.005.323.011.044 0 .089.005.132.009l.153.013c.05 0 .1.01.153.016l.152.019c.049.007.1.014.146.023s.078.012.117.02c.168.028.335.064.5.106.078.02.156.04.233.063s.148.043.22.067.139.045.208.07c.031.011.061.021.091.033l.037.014c.1.039.2.08.3.123l.072.031h.01c.054.023.107.048.161.073h.007c.138.066.275.137.408.211.067.038.134.076.2.115s.131.081.195.123.128.083.19.127.112.079.167.12l.018.014c.042.03.084.063.127.1s.067.053.1.08l.016.013c.037.029.074.06.11.091s.056.048.084.072c.056.048.111.1.165.149a.412.412 0 0 1 .031.029l.007.007c.026.023.051.047.076.072s.062.06.092.092.061.062.091.093.061.062.09.1.058.063.087.1q.174.195.335.4c.038.051.076.1.112.152s.06.083.089.125.059.086.088.13.065.1.1.149.074.119.109.179l.013.024c.025.041.049.082.071.124l.007.013c.025.045.05.09.072.135a.332.332 0 0 1 .022.041c.022.042.044.085.064.128l.014.028a1.065 1.065 0 0 1 .046.1c.018.037.035.074.052.111.024.053.046.106.069.161s.057.136.083.205c.02.053.04.108.059.162l.019.054c.024.069.048.139.069.21a6.875 6.875 0 0 1 .18.691c.04.194.071.39.1.588s.041.421.048.634v.289a6.838 6.838 0 0 1 -.046.727c-.009.081-.019.161-.032.242-.029.2-.067.4-.116.6-.005.028-.011.055-.018.082v.014c-.014.056-.029.112-.045.166a6.6 6.6 0 0 1 -.251.75 7.053 7.053 0 0 1 -.425.884c-.044.077-.088.152-.135.226s-.091.145-.139.216c-.072.109-.147.215-.227.318-.111.151-.231.3-.354.436-.1.11-.2.215-.3.319-.092.094-.188.183-.286.271-.069.063-.14.124-.212.184l-.012.009c-.1.084-.209.163-.316.242.13-.063.261-.125.387-.195l.137-.078c.181-.105.358-.219.528-.34.146-.1.287-.211.425-.323l.011-.01c.073-.06.144-.121.212-.184.1-.088.194-.177.286-.27.1-.1.2-.209.3-.319.124-.14.243-.285.354-.436.08-.1.156-.209.227-.319.048-.07.1-.143.14-.215s.091-.149.134-.226a6.983 6.983 0 0 0 .425-.884 6.6 6.6 0 0 0 .251-.75c.016-.054.031-.11.045-.166v-.014a.75.75 0 0 0 .029-.089z"/><path d="m77.515 157c.111-.078.217-.16.319-.247.041-.034.081-.07.121-.106a4.725 4.725 0 0 0 .339-.34c.043-.047.084-.095.125-.144.089-.108.174-.22.253-.335s.144-.219.208-.333c.078-.136.149-.277.213-.42q.03-.067.057-.135l.014-.034c.014-.035.028-.071.041-.106s.033-.092.048-.138.025-.073.036-.11.015-.051.023-.077.014-.045.019-.068l.006-.02.024-.092.007-.029c.008-.033.015-.066.023-.1v-.01c.007-.03.013-.06.019-.091v-.019c.009-.045.017-.09.024-.136s.012-.076.017-.115.009-.068.013-.1.007-.066.01-.1.008-.083.011-.124c.009-.116.012-.231.011-.347 0-.029 0-.057 0-.085s0-.058 0-.086 0-.057-.005-.086 0-.057-.006-.086 0-.045-.006-.068v-.013-.028c0-.048-.01-.1-.017-.145 0-.024-.006-.049-.01-.073s-.009-.062-.015-.092v-.014c0-.028-.009-.056-.015-.083l-.021-.1v-.014c-.01-.044-.019-.088-.03-.132s-.025-.1-.039-.146-.029-.1-.044-.146-.032-.1-.048-.144q-.051-.143-.111-.282v-.006c-.015-.035-.03-.071-.047-.106v-.006c-.007-.016-.014-.031-.022-.047-.031-.065-.064-.13-.1-.194l-.012-.023-.031-.056c-.023-.042-.047-.084-.072-.125s-.053-.087-.08-.129-.058-.089-.088-.133c-.065-.094-.132-.185-.2-.272l-.049-.06c-.021-.026-.041-.051-.063-.075s-.044-.051-.067-.076l-.068-.075-.071-.073c-.019-.02-.04-.041-.061-.061-.051-.051-.1-.1-.155-.146l-.075-.066-.076-.064c-.043-.035-.085-.068-.128-.1l-.106-.079-.017-.013-.093-.064-.1-.067c-.043-.028-.086-.054-.129-.08s-.073-.043-.11-.063l-.1-.057-.015-.007c-.038-.02-.077-.039-.116-.057s-.08-.039-.121-.057l-.114-.05c-.014-.007-.029-.012-.044-.018l-.123-.048c-.051-.02-.1-.037-.153-.054s-.09-.03-.135-.044-.107-.031-.162-.045c-.075-.02-.151-.038-.228-.055-.129-.027-.257-.049-.387-.065h-.014c-.056-.007-.111-.011-.166-.016l.08.022.135.043c.051.018.1.035.152.055s.083.031.124.048c.015.006.029.011.043.018l.115.05c.041.018.081.037.121.057s.078.037.116.057l.014.007.105.057.109.063c.043.026.087.052.13.08s.068.044.1.067h.006l.092.064.018.013.106.079c.043.033.086.066.128.1l.076.064c.026.021.051.043.075.065.053.048.1.1.155.146l.062.062.07.073.069.075c.023.025.045.05.067.076s.042.049.062.075l.049.06c.071.087.139.178.2.272.03.044.06.088.088.133s.055.085.08.129.049.083.073.125c.01.019.021.037.03.056l.013.023c.034.064.067.129.1.194.008.015.015.031.022.046v.007c.017.035.032.071.048.106v.005c.039.094.076.188.11.283.017.048.033.1.049.144s.03.1.043.146.027.1.039.146.021.088.03.132v.014c.008.034.014.068.022.1l.015.083v.014c.005.03.011.061.015.092s.007.049.01.073c.007.048.012.1.017.145v.028.007c0 .023 0 .045.006.068s0 .057.006.086 0 .057 0 .086 0 .057 0 .086 0 .056 0 .085c0 .115 0 .231-.01.347 0 .042-.006.084-.01.125s-.007.067-.011.1-.008.069-.012.1-.011.077-.018.115-.015.091-.024.136v.018a.879.879 0 0 1 -.019.092v.01c-.007.033-.014.066-.023.1l-.007.029-.024.092v.02c-.006.023-.012.045-.02.067s-.015.053-.022.078-.023.073-.036.11-.031.092-.048.137-.028.072-.041.107l-.015.034q-.027.068-.057.135a4.462 4.462 0 0 1 -.212.42c-.065.114-.134.224-.209.333s-.163.227-.253.335c-.04.049-.081.1-.124.144a4.544 4.544 0 0 1 -.34.34c-.039.036-.079.071-.121.106a3.919 3.919 0 0 1 -.319.247l-.044.032-.008.006-.1.062a4.188 4.188 0 0 1 -.451.262 4.6 4.6 0 0 1 -.6.253c-.055.019-.11.037-.165.053s-.109.032-.164.046c-.083.023-.166.043-.251.06-.121.026-.243.046-.365.061q-.144.018-.288.027c-.087.007-.173.009-.26.01-.061 0-.123 0-.185 0h-.01c-.087 0-.174-.011-.262-.018.092.026.184.052.277.072l.1.021c.135.027.272.048.41.062.117.012.233.02.351.024h.01.185c.086 0 .173 0 .259-.01.1-.006.192-.014.288-.027.122-.015.244-.035.365-.061.084-.017.168-.037.251-.059.055-.014.109-.03.163-.047s.11-.034.165-.053a4.61 4.61 0 0 0 .6-.253 4.175 4.175 0 0 0 .45-.262l.1-.062.008-.006c.005-.009.02-.019.035-.029z"/><path d="m112.328 153.236c.12-.03.236-.065.351-.106.046-.016.092-.033.137-.051a3.988 3.988 0 0 0 .4-.178c.052-.026.1-.054.153-.082.111-.063.219-.13.324-.2s.194-.14.286-.215c.11-.091.217-.187.317-.288.032-.032.063-.064.092-.1l.024-.025c.023-.025.047-.051.069-.077s.058-.067.086-.1.045-.054.067-.082l.044-.058c.014-.017.026-.033.039-.051l.011-.016c.017-.023.034-.047.05-.071l.016-.022c.018-.025.035-.051.051-.076l.006-.008c.016-.023.031-.047.046-.072l.009-.014c.022-.036.044-.072.065-.108s.035-.061.052-.093.03-.054.044-.082.029-.055.042-.082.033-.068.05-.1c.045-.1.086-.193.122-.291.01-.025.019-.049.027-.074s.018-.049.026-.073l.024-.075c.008-.025.016-.05.023-.075s.012-.04.017-.06v-.006l.006-.024c.012-.043.024-.087.033-.13.006-.021.011-.043.015-.065s.013-.055.018-.083v-.013c0-.025.01-.05.014-.075s.011-.063.015-.094v-.013c.006-.041.012-.082.017-.123s.011-.09.014-.136.008-.092.011-.138 0-.092.006-.139c0-.091 0-.183 0-.276v-.005c0-.035 0-.07-.006-.1v-.011c0-.015 0-.031 0-.047 0-.065-.011-.131-.02-.2v-.024c0-.019 0-.038-.007-.058-.007-.043-.013-.086-.021-.13s-.017-.09-.026-.135-.02-.1-.032-.142c-.024-.1-.052-.2-.083-.3-.007-.023-.015-.045-.022-.068s-.019-.056-.029-.083l-.032-.087c-.012-.029-.023-.058-.034-.086l-.036-.085q-.015-.036-.033-.072c-.027-.06-.055-.118-.084-.175-.013-.027-.028-.053-.042-.08l-.044-.079c-.025-.044-.05-.086-.076-.128l-.064-.1-.011-.016c-.019-.029-.038-.056-.058-.085v-.005q-.033-.047-.066-.09c-.027-.038-.055-.074-.084-.11s-.048-.061-.072-.09l-.071-.082-.009-.011c-.026-.03-.053-.059-.08-.087s-.055-.059-.085-.088c-.027-.027-.053-.054-.081-.08l-.031-.029-.089-.082c-.037-.033-.075-.064-.112-.1l-.1-.08c-.041-.032-.081-.062-.123-.091-.058-.042-.116-.083-.176-.122-.1-.065-.2-.125-.308-.181l-.011-.006c-.045-.025-.091-.046-.136-.068.02.015.041.029.061.045l.1.08c.038.032.076.063.112.1s.06.054.089.082l.032.029.081.08c.029.028.057.057.085.087s.053.057.079.087l.01.011.07.082c.025.03.049.059.073.09s.057.072.084.11.044.06.065.09v.006c.019.028.038.055.057.084l.011.016c.022.033.043.068.065.1.025.042.051.084.076.128l.043.079.043.08c.029.057.057.116.084.175.011.024.022.048.032.072s.024.057.036.085.023.057.034.086.022.058.032.087.02.055.029.084.015.044.022.067q.048.146.084.3c.011.047.022.094.032.142s.018.09.025.135.015.087.021.13c0 .02.006.039.008.058v.024c.008.066.015.131.02.2v.047.007l.006.1v.006.275.139s-.007.092-.011.138-.009.091-.015.137-.011.081-.017.122v.013l-.015.094c0 .025-.01.051-.015.075v.013c-.006.028-.011.056-.018.083s-.01.044-.015.065q-.015.066-.033.129l-.007.025v.006c-.005.02-.01.04-.017.06s-.014.05-.023.075-.016.05-.024.075-.016.049-.025.074l-.027.073c-.037.1-.077.2-.122.291-.016.035-.032.069-.049.1l-.042.082c-.014.028-.029.055-.044.082s-.034.063-.053.093-.042.072-.064.108l-.01.014c-.015.025-.03.049-.046.072v.008l-.051.076-.016.022c-.017.024-.033.048-.05.071l-.011.016c-.012.018-.025.034-.038.051l-.045.058c-.021.028-.043.055-.066.082s-.056.068-.086.1-.046.052-.07.077l-.023.025-.092.1a4.126 4.126 0 0 1 -.318.288c-.091.075-.187.147-.286.215s-.212.139-.324.2c-.05.028-.1.056-.152.082a4.229 4.229 0 0 1 -.4.179c-.045.018-.091.034-.137.05-.115.041-.232.076-.352.106l-.048.013h-.009c-.034.008-.068.016-.1.022a3.829 3.829 0 0 1 -.468.076 4.164 4.164 0 0 1 -.589.021c-.053 0-.106-.005-.158-.009s-.1-.008-.153-.014c-.078-.007-.156-.018-.233-.031-.111-.017-.222-.04-.331-.067-.085-.021-.169-.045-.253-.071-.076-.023-.15-.049-.224-.076-.053-.019-.105-.04-.157-.062h-.008c-.074-.031-.145-.066-.217-.1.07.052.14.1.212.152l.08.05a3.542 3.542 0 0 0 .328.186c.1.049.192.094.29.136h.009c.052.022.1.043.157.062.073.027.148.053.223.076.084.026.168.05.254.071.108.027.219.049.33.067.077.013.155.024.233.031.051.006.1.011.154.014s.1.007.157.009a4.159 4.159 0 0 0 .589-.021 4 4 0 0 0 .468-.076c.034-.006.068-.014.1-.022h.009z"/></g><g fill="#e5e4d3"><path d="m136.77 87.9a4.9 4.9 0 0 1 -1.813.327c-1.644-.034-3.229-.889-4.857-.663-2.2.311-3.725 2.483-5.889 3-1.56.378-3.515-.059-4.53 1.183-.663.805-.571 1.971-.755 2.995s-1.049 2.164-2.039 1.846c-.805-.261-1.04-1.259-1.149-2.1a17.117 17.117 0 0 1 -.1-5.193c.571-2.986 2.752-5.713 2.341-8.716-.277-2.047-1.712-3.733-2.4-5.679a4.857 4.857 0 0 1 -.11-3.13c.353.143.705.294 1.058.445.293.126.578.26.864.394a.773.773 0 0 1 .142.067c.319.143.638.294.948.453.252.118.495.244.738.37.487.243.974.5 1.452.771.092.051.184.093.277.151.025.017.042.026.067.042.226.118.444.244.671.378.277.159.554.319.83.495.277.159.546.335.822.5s.546.336.814.52.529.353.8.537q1.611 1.083 3.138 2.307h.008c.369.294.73.587 1.082.889.294.244.579.487.864.739s.579.511.865.772c.327.293.645.587.956.9.377.353.746.722 1.107 1.091a1.993 1.993 0 0 1 .143.151c.252.251.495.5.73.763a.239.239 0 0 1 .075.084c.26.277.52.554.764.839a3.206 3.206 0 0 1 .226.252c.235.268.47.536.7.805a.008.008 0 0 1 .009.008l.151.177c.184.2.344.4.5.612s.34.412.5.618z"/><path d="m76.93 100.211c-1.368 1.015-3.264.654-4.958.52-4.614-.353-9.136 1.384-13.289 3.439a27.71 27.71 0 0 1 -5.377 2.282 12.293 12.293 0 0 1 -6.544-.134 10.742 10.742 0 0 1 -2.323-1c.1-.336.209-.663.318-1a51.846 51.846 0 0 1 3.343-7.975c.394-.772.813-1.527 1.25-2.273q1.145-1.976 2.466-3.826.818-1.182 1.712-2.315c.654-.822 1.325-1.628 2.038-2.416a1.464 1.464 0 0 1 .109-.118c.973-1.1 2-2.147 3.062-3.162.646-.6 1.3-1.192 1.972-1.762.478-.42.956-.814 1.451-1.208.109-.084.21-.168.319-.252a8.692 8.692 0 0 0 3.7.084 20.738 20.738 0 0 1 3.3-.746 5.539 5.539 0 0 1 5.58 6.051c-.143.94-.529 1.837-.612 2.777-.218 2.382 1.468 4.438 2.659 6.51s1.736 5.089-.176 6.524z"/><path d="m88.429 133.051a21.544 21.544 0 0 0 1.384 6.009c.591 1.977.982 4.152.215 6.068-1.074 2.685-4.3 4.675-3.859 7.533.408 2.633 3.992 3.688 6.4 2.539s3.827-3.639 5.053-6 2.529-4.888 4.837-6.22c2.152-1.241 4.771-1.21 7.236-1.52a24.793 24.793 0 0 0 7.7-2.285 2.055 2.055 0 0 0 .731-.5 2.021 2.021 0 0 0 .328-1.239 16.361 16.361 0 0 0 -2.164-8.59 5.159 5.159 0 0 0 -2.784-2.609c-2.42-.7-4.572 1.663-6.991 2.365-2.387.693-4.894-.28-7.345-.695-4.341-.744-10.753-.707-10.741 5.144z"/><path d="m66.25 142.735c-1.661.663-3.817.8-4.622 2.383-.243.5-.31 1.057-.512 1.577-.956 2.424-4.177 2.726-6.476 3.943a13.837 13.837 0 0 0 -2.156 1.51c-.705-.931-1.359-1.9-1.988-2.878-.588-.914-1.15-1.854-1.661-2.8-.009-.016-.017-.025-.026-.042a50.243 50.243 0 0 1 -3.179-6.8 1.08 1.08 0 0 1 -.059-.143c-.36-.956-.7-1.921-1-2.9-.193-.6-.369-1.209-.537-1.821 1.1-.092 2.282.059 3.448-.084 3.079-.377 5.931-1.837 9.06-1.946 4.17-.143 8.565 2.039 12.332.252a6.612 6.612 0 0 1 -2.624 9.749z"/></g><circle cx="86.128" cy="116.949" fill="#d1cfb1" r="4.917"/><circle cx="86.128" cy="116.525" fill="#edecda" r="4.493"/><path d="m133.827 136.678a3.471 3.471 0 1 1 -4.608-1.693 3.471 3.471 0 0 1 4.608 1.693z" fill="#d1cfb1"/><path d="m133.43 136.532a3.172 3.172 0 1 1 -4.211-1.547 3.173 3.173 0 0 1 4.211 1.547z" fill="#edecda"/><path d="m95.417 165.523a2.857 2.857 0 1 1 -3.793-1.394 2.856 2.856 0 0 1 3.793 1.394z" fill="#d1cfb1"/><path d="m95.09 165.4a2.611 2.611 0 1 1 -3.466-1.274 2.609 2.609 0 0 1 3.466 1.274z" fill="#edecda"/><path d="m148.151 120.009c-.008-1.527-.092-3.029-.243-4.522-.059-.6-.126-1.2-.21-1.795a50.492 50.492 0 0 0 -.982-5.31c-.159-.7-.344-1.385-.537-2.072q-.641-2.278-1.484-4.472-.794-2.076-1.745-4.052c-.12-.249-.254-.49-.377-.736 1.106-2.929.384-6.006-1.846-7.221a4.332 4.332 0 0 0 -2.827-.429c-.094-.125-.183-.255-.277-.38-.261-.353-.521-.7-.789-1.032-.025-.026-.042-.059-.067-.084-.159-.21-.336-.411-.5-.621s-.319-.411-.5-.612l-.151-.177a.008.008 0 0 0 -.008-.008c-.227-.269-.462-.537-.7-.805a3.019 3.019 0 0 0 -.226-.252c-.243-.285-.5-.562-.763-.839a.233.233 0 0 0 -.076-.084c-.235-.26-.478-.512-.73-.763-.042-.051-.092-.1-.142-.151-.361-.369-.73-.738-1.108-1.091-.31-.31-.629-.6-.956-.9-.285-.261-.571-.521-.864-.772s-.571-.5-.864-.739c-.111-.094-.227-.185-.339-.278 5.7 20.008 3.254 69.53-33.092 93.917a52.742 52.742 0 0 0 24.295-6.182h.008q2.265-1.208 4.4-2.634c.1-.059.193-.126.294-.193a52.319 52.319 0 0 0 6.585-5.235c.286-.268.562-.537.839-.805q1.674-1.623 3.188-3.4c.824-.952 1.6-1.937 2.356-2.943 2.3.4 4.96-1.085 6.429-3.781 1.411-2.589 1.287-5.5-.124-7.247.381-.88.73-1.768 1.045-2.673.218-.6.42-1.2.613-1.8s.386-1.234.562-1.863a52.618 52.618 0 0 0 1.46-7.122 49.645 49.645 0 0 0 .453-5.839c.016-.419.025-.847.025-1.275v-.109c-.008-.208-.008-.409-.025-.619z" opacity=".05"/><path d="m79.542 70.085c-.246.077-.5.149-.741.227h-.009c-.47.159-.948.319-1.409.478a.061.061 0 0 0 -.034.017 2.3 2.3 0 0 0 -.226.084c-.4.142-.789.293-1.183.444l-.076.025c-.427.168-.855.344-1.275.521-.528.218-1.048.452-1.56.687-.436.2-.864.4-1.284.613-.4.2-.8.4-1.191.6-.05.025-.109.059-.159.084l-.051.025c-.427.226-.855.461-1.275.705-.436.243-.864.494-1.292.763h-.008c-.4.243-.8.487-1.191.738-.151.093-.294.193-.445.294-.42.268-.822.545-1.233.83-.5.344-.99.705-1.477 1.066-.318.235-.629.478-.939.721-.109.084-.21.168-.319.252-.5.394-.973.788-1.451 1.208-.672.57-1.326 1.158-1.972 1.762-1.065 1.015-2.089 2.063-3.062 3.162a1.464 1.464 0 0 0 -.109.118c-.713.788-1.384 1.594-2.038 2.416q-.894 1.132-1.712 2.315-1.321 1.853-2.466 3.83c-.437.746-.856 1.5-1.25 2.273a51.846 51.846 0 0 0 -3.348 7.978c-.109.336-.218.663-.318 1-.143.486-.286.981-.42 1.476-.106.386-.2.778-.294 1.168a7.415 7.415 0 0 0 -4.221 3.625c-1.751 3.212-1.141 6.923 1.362 8.287a4.116 4.116 0 0 0 1.305.439c0 .142-.006.281-.006.424 0 .646.009 1.283.034 1.921a52.521 52.521 0 0 0 1.057 8.809q.164.818.352 1.61c.134.562.277 1.124.428 1.678.168.612.344 1.217.537 1.821.3.981.638 1.946 1 2.9a1.08 1.08 0 0 0 .059.143 50.243 50.243 0 0 0 3.179 6.8c.009.017.017.026.026.042.511.948 1.073 1.888 1.661 2.8.629.982 1.283 1.947 1.988 2.878.109.159.235.319.352.478.506.681 1.04 1.346 1.586 2a2.569 2.569 0 0 0 -.3.306c-1.232 1.689-.2 4.543 2.314 6.375 2.041 1.489 4.411 1.823 5.894 1 .661.522 1.322 1.046 2.01 1.536.159.118.327.235.486.336.453.327.915.646 1.376.939.269.185.537.361.814.529.66.415 1.333.811 2.012 1.2-30.709-42.976-4.915-80.301 10.512-96.756z" fill="#fff" opacity=".2"/><path d="m84 104.62c-3.967 7.49-11.006 11.538-15.723 9.04s-5.326-10.6-1.359-18.086 11.006-11.538 15.723-9.04 5.32 10.595 1.359 18.086z" fill="#fff" opacity=".3"/><ellipse cx="6.962" cy="4.384" fill="#fff" opacity=".3" rx="6.962" ry="4.384" transform="matrix(.46796066 -.8837493 .8837493 .46796066 73.4 125.486)"/></g></svg>