<svg xmlns="http://www.w3.org/2000/svg" width="33" height="37.406" viewBox="0 0 33 37.406">
  <g id="Achivements" transform="translate(-30.16 0)">
    <g id="XMLID_339_" transform="translate(30.16 0)">
      <path id="XMLID_349_" d="M63.062,33l-5.494-9.516a1.467,1.467,0,0,1,.778-.474A2.931,2.931,0,0,0,60.324,18.9a1.466,1.466,0,0,1,.4-1.772,2.931,2.931,0,0,0,0-4.558,1.466,1.466,0,0,1-.4-1.772,2.931,2.931,0,0,0-1.978-4.107,1.466,1.466,0,0,1-1.133-1.421A2.931,2.931,0,0,0,53.65,2.43a1.467,1.467,0,0,1-1.637-.789A2.931,2.931,0,0,0,47.569.628a1.466,1.466,0,0,1-1.817,0,2.931,2.931,0,0,0-4.444,1.014,1.466,1.466,0,0,1-1.637.789,2.931,2.931,0,0,0-3.564,2.842,1.467,1.467,0,0,1-1.133,1.421A2.931,2.931,0,0,0,33,10.8a1.466,1.466,0,0,1-.4,1.772,2.931,2.931,0,0,0,0,4.558A1.466,1.466,0,0,1,33,18.9a2.931,2.931,0,0,0,1.978,4.107,1.466,1.466,0,0,1,.778.474L30.258,33a.731.731,0,0,0,.824,1.07l3.827-1.038,1.014,3.833a.731.731,0,0,0,1.339.178l4.688-8.12a2.932,2.932,0,0,0,3.8.152,1.466,1.466,0,0,1,1.817,0,2.918,2.918,0,0,0,1.807.628,2.942,2.942,0,0,0,1.995-.78l4.688,8.12a.731.731,0,0,0,1.339-.178l1.014-3.833,3.827,1.038A.731.731,0,0,0,63.062,33Zm-26.18,1.779-.749-2.831a.731.731,0,0,0-.9-.518l-2.826.767L36.3,25.455a2.932,2.932,0,0,0,3.371,1.815A1.466,1.466,0,0,1,41,27.642ZM49.708,28.2a1.464,1.464,0,0,1-1.236-.277,2.924,2.924,0,0,0-3.623,0,1.47,1.47,0,0,1-2.229-.509,2.924,2.924,0,0,0-3.264-1.572,1.47,1.47,0,0,1-1.787-1.425,2.924,2.924,0,0,0-2.259-2.833,1.47,1.47,0,0,1-.992-2.06,2.924,2.924,0,0,0-.806-3.532,1.47,1.47,0,0,1,0-2.286,2.924,2.924,0,0,0,.806-3.532,1.47,1.47,0,0,1,.992-2.06,2.924,2.924,0,0,0,2.259-2.833,1.47,1.47,0,0,1,1.787-1.425A2.924,2.924,0,0,0,42.62,2.285a1.47,1.47,0,0,1,2.229-.509,2.924,2.924,0,0,0,3.623,0,1.47,1.47,0,0,1,2.229.509,2.924,2.924,0,0,0,3.264,1.572,1.47,1.47,0,0,1,1.787,1.425,2.924,2.924,0,0,0,2.259,2.833A1.47,1.47,0,0,1,59,10.175a2.924,2.924,0,0,0,.806,3.532,1.47,1.47,0,0,1,0,2.286A2.924,2.924,0,0,0,59,19.526a1.47,1.47,0,0,1-.992,2.06,2.924,2.924,0,0,0-2.259,2.833,1.47,1.47,0,0,1-1.787,1.425A2.924,2.924,0,0,0,50.7,27.416,1.464,1.464,0,0,1,49.708,28.2Zm8.377,3.225a.731.731,0,0,0-.9.518l-.749,2.831-4.119-7.135a1.465,1.465,0,0,1,1.331-.371,2.932,2.932,0,0,0,3.371-1.815l3.891,6.739Z" transform="translate(-30.16 0)" fill="#acacac"/>
      <path id="XMLID_358_" d="M136.464,73.5a10.228,10.228,0,1,0-13.716,9.618.731.731,0,0,0,.5-1.374,8.767,8.767,0,1,1,5.978,0,.731.731,0,1,0,.5,1.374A10.26,10.26,0,0,0,136.464,73.5Z" transform="translate(-109.736 -58.65)" fill="#acacac"/>
      <path id="XMLID_676_" d="M246.739,323.27a.731.731,0,1,0,.517.214A.736.736,0,0,0,246.739,323.27Z" transform="translate(-230.239 -299.653)" fill="#acacac"/>
    </g>
  </g>
</svg>
