<svg xmlns="http://www.w3.org/2000/svg" width="88.573" height="86.18" viewBox="0 0 88.573 86.18">
  <g id="Admissions_Management" data-name="Admissions Management" transform="translate(-359.999 -271.32)">
    <g id="Group_296" data-name="Group 296" transform="translate(360.502 271.841)">
      <g id="Group_278" data-name="Group 278">
        <path id="Path_410" data-name="Path 410" d="M381.338,354.8a.776.776,0,0,1-.173-.021l-20.115-4.938a.72.72,0,0,1-.527-.87l18.809-76.578a.719.719,0,0,1,.87-.527l20.119,4.94a.719.719,0,0,1,.526.87l-18.811,76.576A.719.719,0,0,1,381.338,354.8Zm-19.246-6.186,18.718,4.6,18.468-75.178-18.721-4.6Z" transform="translate(-360.502 -271.841)" fill="#ddd" stroke="#ddd" stroke-width="1"/>
      </g>
      <g id="Group_279" data-name="Group 279" transform="translate(7.644 64.301)">
        <path id="Path_411" data-name="Path 411" d="M372.972,341.058a5.632,5.632,0,0,1-1.324-.158,5.565,5.565,0,0,1,1.326-10.97,5.677,5.677,0,0,1,1.328.159,5.565,5.565,0,0,1-1.331,10.969Zm0-9.689a4.122,4.122,0,1,0,.984.118A4.207,4.207,0,0,0,372.974,331.369Z" transform="translate(-367.407 -329.93)" fill="#ddd" stroke="#ddd" stroke-width="1"/>
      </g>
      <g id="Group_280" data-name="Group 280" transform="translate(11.451 48.807)">
        <path id="Path_412" data-name="Path 412" d="M376.408,327.061a5.565,5.565,0,1,1,5.407-4.237A5.593,5.593,0,0,1,376.408,327.061Zm.007-9.69a4.126,4.126,0,0,0-.991,8.132,4.17,4.17,0,0,0,.984.118,4.125,4.125,0,0,0,.985-8.132A4.167,4.167,0,0,0,376.415,317.371Z" transform="translate(-370.847 -315.933)" fill="#ddd" stroke="#ddd" stroke-width="1"/>
      </g>
      <g id="Group_281" data-name="Group 281" transform="translate(21.13 7.367)">
        <path id="Path_413" data-name="Path 413" d="M392.642,282.96a.708.708,0,0,1-.173-.021l-12.33-3.026a.719.719,0,1,1,.343-1.4l12.33,3.025a.719.719,0,0,1-.17,1.418Z" transform="translate(-379.591 -278.496)" fill="#ddd" stroke="#ddd" stroke-width="1"/>
      </g>
      <g id="Group_282" data-name="Group 282" transform="translate(18.7 17.255)">
        <path id="Path_414" data-name="Path 414" d="M390.44,291.9a.718.718,0,0,1-.174-.022l-12.324-3.035a.719.719,0,0,1,.343-1.4l12.325,3.035a.72.72,0,0,1-.171,1.419Z" transform="translate(-377.395 -287.43)" fill="#ddd" stroke="#ddd" stroke-width="1"/>
      </g>
      <g id="Group_283" data-name="Group 283" transform="translate(16.274 27.155)">
        <path id="Path_415" data-name="Path 415" d="M388.248,300.847a.71.71,0,0,1-.173-.022l-12.325-3.036a.719.719,0,1,1,.344-1.4l12.325,3.036a.72.72,0,0,1-.172,1.418Z" transform="translate(-375.204 -296.373)" fill="#ddd" stroke="#ddd" stroke-width="1"/>
      </g>
      <g id="Group_284" data-name="Group 284" transform="translate(42.024 4.874)">
        <path id="Path_416" data-name="Path 416" d="M419.9,356.529H399.186a.72.72,0,0,1-.72-.72V276.965a.72.72,0,0,1,.72-.721H419.9a.72.72,0,0,1,.72.721V355.81A.72.72,0,0,1,419.9,356.529Zm-19.994-1.439H419.18V277.684H399.906Z" transform="translate(-398.466 -276.244)" fill="#ddd" stroke="#ddd" stroke-width="1"/>
      </g>
      <g id="Group_285" data-name="Group 285" transform="translate(47.541 68.691)">
        <path id="Path_417" data-name="Path 417" d="M409.01,345.024a5.564,5.564,0,1,1,5.566-5.57A5.572,5.572,0,0,1,409.01,345.024Zm0-9.688a4.124,4.124,0,1,0,4.126,4.118A4.123,4.123,0,0,0,409.01,335.336Z" transform="translate(-403.45 -333.896)" fill="#ddd" stroke="#ddd" stroke-width="1"/>
      </g>
      <g id="Group_286" data-name="Group 286" transform="translate(47.541 52.729)">
        <path id="Path_418" data-name="Path 418" d="M409.01,330.6a5.563,5.563,0,1,1,5.566-5.558A5.566,5.566,0,0,1,409.01,330.6Zm0-9.688a4.124,4.124,0,1,0,4.126,4.13A4.129,4.129,0,0,0,409.01,320.915Z" transform="translate(-403.45 -319.476)" fill="#ddd" stroke="#ddd" stroke-width="1"/>
      </g>
      <g id="Group_287" data-name="Group 287" transform="translate(46.035 11.47)">
        <path id="Path_419" data-name="Path 419" d="M415.507,283.643h-12.7a.72.72,0,0,1,0-1.44h12.7a.72.72,0,0,1,0,1.44Z" transform="translate(-402.089 -282.203)" fill="#ddd" stroke="#ddd" stroke-width="1"/>
      </g>
      <g id="Group_288" data-name="Group 288" transform="translate(46.035 21.658)">
        <path id="Path_420" data-name="Path 420" d="M415.507,292.847h-12.7a.72.72,0,0,1,0-1.44h12.7a.72.72,0,0,1,0,1.44Z" transform="translate(-402.089 -291.407)" fill="#ddd" stroke="#ddd" stroke-width="1"/>
      </g>
      <g id="Group_289" data-name="Group 289" transform="translate(46.035 31.848)">
        <path id="Path_421" data-name="Path 421" d="M415.507,302.052h-12.7a.72.72,0,0,1,0-1.44h12.7a.72.72,0,0,1,0,1.44Z" transform="translate(-402.089 -300.612)" fill="#ddd" stroke="#ddd" stroke-width="1"/>
      </g>
      <g id="Group_290" data-name="Group 290" transform="translate(65.412 4.874)">
        <path id="Path_422" data-name="Path 422" d="M441.033,356.529h-20.72a.72.72,0,0,1-.719-.72V276.965a.72.72,0,0,1,.719-.721h20.72a.72.72,0,0,1,.719.721V355.81A.719.719,0,0,1,441.033,356.529Zm-20-1.439h19.28V277.684h-19.28Z" transform="translate(-419.594 -276.244)" fill="#ddd" stroke="#ddd" stroke-width="1"/>
      </g>
      <g id="Group_291" data-name="Group 291" transform="translate(70.925 68.691)">
        <path id="Path_423" data-name="Path 423" d="M430.138,345.024a5.564,5.564,0,1,1,5.565-5.57A5.574,5.574,0,0,1,430.138,345.024Zm0-9.688a4.124,4.124,0,1,0,4.124,4.118A4.125,4.125,0,0,0,430.138,335.336Z" transform="translate(-424.575 -333.896)" fill="#ddd" stroke="#ddd" stroke-width="1"/>
      </g>
      <g id="Group_292" data-name="Group 292" transform="translate(70.925 52.729)">
        <path id="Path_424" data-name="Path 424" d="M430.138,330.6a5.563,5.563,0,1,1,5.565-5.558A5.568,5.568,0,0,1,430.138,330.6Zm0-9.688a4.124,4.124,0,1,0,4.124,4.13A4.131,4.131,0,0,0,430.138,320.915Z" transform="translate(-424.575 -319.476)" fill="#ddd" stroke="#ddd" stroke-width="1"/>
      </g>
      <g id="Group_293" data-name="Group 293" transform="translate(69.422 11.47)">
        <path id="Path_425" data-name="Path 425" d="M436.63,283.643H423.937a.72.72,0,0,1,0-1.44H436.63a.72.72,0,0,1,0,1.44Z" transform="translate(-423.217 -282.203)" fill="#ddd" stroke="#ddd" stroke-width="1"/>
      </g>
      <g id="Group_294" data-name="Group 294" transform="translate(69.422 21.658)">
        <path id="Path_426" data-name="Path 426" d="M436.63,292.847H423.937a.72.72,0,0,1,0-1.44H436.63a.72.72,0,0,1,0,1.44Z" transform="translate(-423.217 -291.407)" fill="#ddd" stroke="#ddd" stroke-width="1"/>
      </g>
      <g id="Group_295" data-name="Group 295" transform="translate(69.422 31.848)">
        <path id="Path_427" data-name="Path 427" d="M436.63,302.052H423.937a.72.72,0,0,1,0-1.44H436.63a.72.72,0,0,1,0,1.44Z" transform="translate(-423.217 -300.612)" fill="#ddd" stroke="#ddd" stroke-width="1"/>
      </g>
    </g>
  </g>
</svg>
