<svg xmlns="http://www.w3.org/2000/svg" width="108.689" height="105.854" viewBox="0 0 108.689 105.854">
  <g id="Annual_Planning" data-name="Annual Planning" transform="translate(-707.311 -502.088)">
    <path id="Path_40" data-name="Path 40" d="M792.729,503.235a1.794,1.794,0,0,0-3.346,1.3l5.191,13.4c.02.05.055.087.077.135l-3.818,3.82-4.69-12.49a1.794,1.794,0,1,0-3.359,1.261l5.188,13.822a1.743,1.743,0,0,0,.1.17l-9.057,9.058a42.831,42.831,0,1,0,2.537,2.537l8.051-8.05a1.78,1.78,0,0,0,1.26.749l16.85,1.852a1.857,1.857,0,0,0,.2.011,1.795,1.795,0,0,0,.192-3.579l-15.8-1.736,4.631-4.631a1.787,1.787,0,0,0,.23.049l16.848,1.852a1.867,1.867,0,0,0,.2.011,1.795,1.795,0,0,0,.195-3.579l-14.239-1.565,8.649-8.648a1.794,1.794,0,0,0-2.537-2.538l-8.869,8.869Zm-3.468,61.94a39.228,39.228,0,1,1-12.787-28.931l-8.466,8.466a27.274,27.274,0,1,0,2.537,2.537l8.467-8.466A39.034,39.034,0,0,1,789.261,565.174Zm-40.45,1.268a1.791,1.791,0,0,0,2.537,0l5.527-5.526a8.062,8.062,0,1,1-2.538-2.535l-5.526,5.525A1.794,1.794,0,0,0,748.811,566.442Zm8.1-10.641a11.667,11.667,0,1,0,2.537,2.537l8.55-8.549a23.687,23.687,0,1,1-2.538-2.537Z" transform="translate(0 0)" fill="#ddd"/>
  </g>
</svg>
