<svg xmlns="http://www.w3.org/2000/svg" width="279.858" height="253.731" viewBox="0 0 279.858 253.731">
  <g id="Benchmark_Chancing" data-name="Benchmark &amp; Chancing" transform="translate(-1350.911 -436.484)">
    <path id="Path_1892" data-name="Path 1892" d="M310.769,613.158H30.911V359.427h6.154V607.579h273.7Z" transform="translate(1320 77.057)" fill="#e2e2e2"/>
    <g id="Group_2576" data-name="Group 2576" transform="translate(834 115.185)">
      <path id="Path_9" data-name="Path 9" d="M356.034,409.566a11.58,11.58,0,1,1,23.16,0,11.765,11.765,0,0,1-3.385,8.181,11.32,11.32,0,0,1-8.192,3.392A11.571,11.571,0,0,1,356.034,409.566Z" transform="translate(197 97.786)" fill="#53a548"/>
      <path id="Path_10" data-name="Path 10" d="M364.227,395.889a10.208,10.208,0,1,1,10.206,10.21A10.2,10.2,0,0,1,364.227,395.889Z" transform="translate(223.793 57.592)" fill="#d6d6d6"/>
      <path id="Path_11" data-name="Path 11" d="M392.906,395.889a10.208,10.208,0,1,1,10.21,10.21A10.2,10.2,0,0,1,392.906,395.889Z" transform="translate(317.579 57.592)" fill="#d6d6d6"/>
      <path id="Path_12" data-name="Path 12" d="M368.324,379.5a10.206,10.206,0,1,1,10.21,10.21A10.206,10.206,0,0,1,368.324,379.5Z" transform="translate(237.191 4)" fill="#f78154"/>
      <path id="Path_13" data-name="Path 13" d="M372.422,404.091a10.2,10.2,0,1,1,10.206,10.2A10.2,10.2,0,0,1,372.422,404.091Z" transform="translate(250.592 84.385)" fill="#d6d6d6"/>
      <path id="Path_14" data-name="Path 14" d="M384.712,399.987a10.206,10.206,0,1,1,10.21,10.206A10.2,10.2,0,0,1,384.712,399.987Z" transform="translate(290.783 70.993)" fill="#53a548"/>
      <path id="Path_15" data-name="Path 15" d="M388.81,412.286a10.2,10.2,0,1,1,10.206,10.2A10.2,10.2,0,0,1,388.81,412.286Z" transform="translate(304.184 111.184)" fill="#f78154"/>
      <path id="Path_16" data-name="Path 16" d="M376.517,387.7a10.206,10.206,0,1,1,10.21,10.2A10.213,10.213,0,0,1,376.517,387.7Z" transform="translate(263.984 30.793)" fill="#53a548"/>
      <path id="Path_17" data-name="Path 17" d="M392.906,383.606a10.208,10.208,0,1,1,10.21,10.206A10.207,10.207,0,0,1,392.906,383.606Z" transform="translate(317.579 17.395)" fill="#f78154"/>
    </g>
  </g>
</svg>
