<svg xmlns="http://www.w3.org/2000/svg" width="98.22" height="96.37" viewBox="0 0 98.22 96.37">
  <g id="College_Search" data-name="College Search" transform="translate(-916.468 -293.63)">
    <path id="Path_5" data-name="Path 5" d="M1008.932,351.334H985.9v-9.057a7.461,7.461,0,0,0-.982-3.74,1.517,1.517,0,0,0,.795-2.28l-17.361-26.225v-4.189l10.728-4.418a1.516,1.516,0,0,0,0-2.805l-11.83-4.875a1.519,1.519,0,0,0-2.1,1.4V304.9a1.525,1.525,0,0,0,.163.672v4.595l-17.277,26.094a1.518,1.518,0,0,0,.795,2.28,7.462,7.462,0,0,0-.983,3.74v9.057H922.222a5.762,5.762,0,0,0-5.754,5.757v27.153A5.762,5.762,0,0,0,922.222,390h86.71a5.763,5.763,0,0,0,5.756-5.757V357.09A5.764,5.764,0,0,0,1008.932,351.334Zm-40.749-53.92,6.332,2.608-6.332,2.608ZM966.873,313.3l14.748,22.274h-29.5Zm3.538,73.436H961.94V369.9h8.471Zm41.243-2.5a2.725,2.725,0,0,1-2.721,2.722H973.445V368.382a1.519,1.519,0,0,0-1.518-1.518H960.422a1.518,1.518,0,0,0-1.517,1.518v18.583H922.222a2.723,2.723,0,0,1-2.72-2.722V357.09a2.723,2.723,0,0,1,2.72-2.721h27.161a1.518,1.518,0,0,0,1.514-1.624c-.008-.122-.015-.244-.015-.37v-10.1c0-1.985,1.245-3.664,2.72-3.664h26.54c1.474,0,2.719,1.679,2.719,3.664v10.1c0,.124-.005.246-.015.367a1.519,1.519,0,0,0,1.513,1.627h24.572a2.724,2.724,0,0,1,2.721,2.721Z" fill="#ddd"/>
    <path id="Path_6" data-name="Path 6" d="M970.322,352.925h-7.584a.758.758,0,0,0-.759.758v7.583a.759.759,0,0,0,.759.759h7.584a.76.76,0,0,0,.758-.759v-7.583A.758.758,0,0,0,970.322,352.925Zm-.759,7.584H963.5v-6.066h6.067Z" transform="translate(-6.107 -7.957)" fill="#ddd"/>
    <path id="Path_7" data-name="Path 7" d="M984.365,352.925h-7.584a.758.758,0,0,0-.758.758v7.583a.759.759,0,0,0,.758.759h7.584a.758.758,0,0,0,.758-.759v-7.583A.757.757,0,0,0,984.365,352.925Zm-.759,7.584H977.54v-6.066h6.066Z" transform="translate(-7.992 -7.957)" fill="#ddd"/>
    <path id="Path_8" data-name="Path 8" d="M937.465,377.675H929.88a.758.758,0,0,0-.759.758v7.583a.76.76,0,0,0,.759.759h7.585a.759.759,0,0,0,.758-.759v-7.583A.757.757,0,0,0,937.465,377.675Zm-.759,7.584h-6.067v-6.066h6.067Z" transform="translate(-1.698 -11.278)" fill="#ddd"/>
    <path id="Path_9" data-name="Path 9" d="M951.508,377.675h-7.583a.758.758,0,0,0-.758.758v7.583a.759.759,0,0,0,.758.759h7.583a.76.76,0,0,0,.759-.759v-7.583A.758.758,0,0,0,951.508,377.675Zm-.758,7.584h-6.066v-6.066h6.066Z" transform="translate(-3.583 -11.278)" fill="#ddd"/>
    <path id="Path_10" data-name="Path 10" d="M1002.609,377.675h-7.584a.758.758,0,0,0-.759.758v7.583a.76.76,0,0,0,.759.759h7.584a.76.76,0,0,0,.759-.759v-7.583A.759.759,0,0,0,1002.609,377.675Zm-.758,7.584h-6.068v-6.066h6.068Z" transform="translate(-10.44 -11.278)" fill="#ddd"/>
    <path id="Path_11" data-name="Path 11" d="M1016.652,377.675h-7.582a.758.758,0,0,0-.759.758v7.583a.759.759,0,0,0,.759.759h7.582a.759.759,0,0,0,.759-.759v-7.583A.758.758,0,0,0,1016.652,377.675Zm-.758,7.584h-6.065v-6.066h6.065Z" transform="translate(-12.324 -11.278)" fill="#ddd"/>
  </g>
</svg>
