<svg xmlns="http://www.w3.org/2000/svg" width="78.601" height="114.649" viewBox="0 0 78.601 114.649">
  <g id="Courses" transform="translate(-101.81 -489.024)">
    <path id="Path_25" data-name="Path 25" d="M152.531,506.565a4.918,4.918,0,1,0,4.919,4.918A4.924,4.924,0,0,0,152.531,506.565Zm0,6.7a1.785,1.785,0,1,1,1.785-1.785A1.787,1.787,0,0,1,152.531,513.268Z" transform="translate(-9.919 -3.799)" fill="#ddd"/>
    <path id="Path_26" data-name="Path 26" d="M175.28,497.462a8.437,8.437,0,1,0-8.437,8.438A8.447,8.447,0,0,0,175.28,497.462Zm-8.437,5.3a5.3,5.3,0,1,1,5.3-5.3A5.31,5.31,0,0,1,166.844,502.766Z" transform="translate(-12.256)" fill="#ddd"/>
    <path id="Path_27" data-name="Path 27" d="M161.384,516.581a5.739,5.739,0,1,0,5.739-5.74A5.746,5.746,0,0,0,161.384,516.581Zm8.345,0a2.606,2.606,0,1,1-2.606-2.606A2.61,2.61,0,0,1,169.729,516.581Z" transform="translate(-12.901 -4.725)" fill="#ddd"/>
    <path id="Path_28" data-name="Path 28" d="M102.747,608.573a6.843,6.843,0,0,0,5.986,3.457H174.4a6,6,0,0,0,5.2-9l-19.846-34.375a2.724,2.724,0,0,1-.9-1.441l-9.136-15.823V538.1a5.418,5.418,0,0,0-1.9-10.493H133.74a5.417,5.417,0,0,0-1.9,10.491v13.285L122.7,567.211a2.79,2.79,0,0,1-.866,1.388l-19.088,33.062A6.844,6.844,0,0,0,102.747,608.573Zm28.707-75.541a2.289,2.289,0,0,1,2.286-2.288h14.078a2.288,2.288,0,1,1,0,4.575H133.74A2.289,2.289,0,0,1,131.454,533.032Zm3.308,19.557a1.561,1.561,0,0,0,.21-.783V538.454h11.613v13.352a1.569,1.569,0,0,0,.21.783l8.818,15.274-29.644-.042Zm-29.3,50.639L124.1,570.952l33.394.05,19.394,33.591a2.868,2.868,0,0,1-2.483,4.3H108.733a3.779,3.779,0,0,1-3.272-5.667Z" transform="translate(0 -8.357)" fill="#ddd"/>
  </g>
</svg>
