<svg xmlns="http://www.w3.org/2000/svg" width="75.443" height="77.327" viewBox="0 0 75.443 77.327">
  <g id="ECA" transform="translate(-927.608 -514.364)">
    <path id="Path_35" data-name="Path 35" d="M943.714,591.461a21.894,21.894,0,0,0,3.271.23,40.785,40.785,0,0,0,9.456-1.285c7.579-1.836,9.268-2.5,10.356-3.068a45.394,45.394,0,0,0,11.3-5.8l.005,0c12.318-8.656,18.7-21.749,21.4-28.781v0c.937-2.431,1.361-3.957,1.38-4.024.608-2.23,1.092-4.414,1.477-6.682h0c1.717-10.083.234-17.568-4.4-22.251-5.988-6.042-15.629-5.964-22.667-4.835h0a44.285,44.285,0,0,0-5.9,1.324c-1.432.526-2.935,1.13-4.594,1.841h0c-12.322,5.3-21.772,12.718-28.092,22.046l0,0a51.807,51.807,0,0,0-5.829,11.386,53.729,53.729,0,0,0-2.588,26.894C929.172,585.378,934.794,590.118,943.714,591.461ZM995.6,522.125c3.364,3.4,4.683,8.809,3.938,16.118l-20.419-20.418C984.35,517.393,991.337,517.818,995.6,522.125Zm-25.119-2.718a42.4,42.4,0,0,1,4.5-1.039l23.962,23.962c-.342,1.863-.755,3.68-1.257,5.522,0,.008-.132.475-.406,1.294l-28.92-28.921C969.093,519.933,969.791,519.663,970.486,519.407Zm-5.411,2.21L980.863,537.4l15.157,15.159c-2.674,6.628-8.368,17.706-18.7,25.45l-18.546-18.547-18.556-18.555C945.987,532.891,954.339,526.408,965.075,521.617Zm-26.731,22.1,36.21,36.21a41.876,41.876,0,0,1-8,3.986l-32.206-32.207A48.549,48.549,0,0,1,938.343,543.717Zm-6.808,34.126a50.694,50.694,0,0,1,1.615-22.656c3.139,3.139,9.7,9.7,16.058,16.059l1.267,1.267c.749.748,1.489,1.49,2.22,2.22,2.916,2.916,5.635,5.634,7.765,7.766l1.484,1.482,1.226,1.227c-1.374.43-3.617,1.038-7.509,1.98a30.8,30.8,0,0,1-11.454,1c-3.488-.525-11.7-2.571-12.65-10.209C931.553,577.934,931.545,577.888,931.536,577.843Z" fill="#ddd"/>
  </g>
</svg>
