<svg xmlns="http://www.w3.org/2000/svg" width="97.071" height="78.601" viewBox="0 0 97.071 78.601">
  <g id="Essays" transform="translate(-508.633 -517.399)">
    <path id="Path_70" data-name="Path 70" d="M562.432,517.4H510.174a1.643,1.643,0,0,0-1.541,1.687v63.737a1.642,1.642,0,0,0,1.541,1.687h38.6v9.708c0,1.172,1.349,2.247,2.318,1.457l3.263-2.659q1.2-.977,2.4-1.958c.2-.165.5-.351.76-.526a2.815,2.815,0,0,1,.417.327,29.719,29.719,0,0,0,2.316,1.9l3.555,2.916a1.148,1.148,0,0,0,1.733-.156,1.58,1.58,0,0,0,.585-1.3V584.51h38.042a1.363,1.363,0,0,0,1.042-.451c.018-.016.035-.038.053-.055s.019-.022.026-.031a1.633,1.633,0,0,0,.418-1.15V519.086a1.642,1.642,0,0,0-1.539-1.687H562.432Zm-13.658,63.737h-37.06V520.773h37.06Zm14.268,9.724-4.791-3.931a1.371,1.371,0,0,0-1.555,0q-2.421,1.972-4.841,3.944v-70.1h11.186Zm3.081-70.088h36.5v60.364h-36.5Z" fill="#ddd"/>
    <path id="Path_71" data-name="Path 71" d="M519.731,538.51H541.5c1.322,0,1.324-2.249,0-2.249H519.731C518.41,536.261,518.407,538.51,519.731,538.51Z" transform="translate(-1.014 -1.893)" fill="#ddd"/>
    <path id="Path_72" data-name="Path 72" d="M519.731,549.022H541.5c1.322,0,1.324-2.249,0-2.249H519.731C518.41,546.773,518.407,549.022,519.731,549.022Z" transform="translate(-1.014 -2.947)" fill="#ddd"/>
    <path id="Path_73" data-name="Path 73" d="M519.731,559.533H541.5c1.322,0,1.324-2.249,0-2.249H519.731C518.41,557.284,518.407,559.533,519.731,559.533Z" transform="translate(-1.014 -4.002)" fill="#ddd"/>
    <path id="Path_74" data-name="Path 74" d="M519.731,570.045H541.5c1.322,0,1.324-2.249,0-2.249H519.731C518.41,567.8,518.407,570.045,519.731,570.045Z" transform="translate(-1.014 -5.057)" fill="#ddd"/>
    <path id="Path_75" data-name="Path 75" d="M602.915,536.261H581.143c-1.322,0-1.323,2.249,0,2.249h21.772C604.237,538.51,604.239,536.261,602.915,536.261Z" transform="translate(-7.176 -1.893)" fill="#ddd"/>
    <path id="Path_76" data-name="Path 76" d="M602.915,546.773H581.143c-1.322,0-1.323,2.249,0,2.249h21.772C604.237,549.022,604.239,546.773,602.915,546.773Z" transform="translate(-7.176 -2.947)" fill="#ddd"/>
    <path id="Path_77" data-name="Path 77" d="M602.915,557.284H581.143c-1.322,0-1.323,2.249,0,2.249h21.772C604.237,559.533,604.239,557.284,602.915,557.284Z" transform="translate(-7.176 -4.002)" fill="#ddd"/>
    <path id="Path_78" data-name="Path 78" d="M602.915,567.8H581.143c-1.322,0-1.323,2.249,0,2.249h21.772C604.237,570.045,604.239,567.8,602.915,567.8Z" transform="translate(-7.176 -5.057)" fill="#ddd"/>
  </g>
</svg>
