<svg xmlns="http://www.w3.org/2000/svg" width="67.562" height="85.609" viewBox="0 0 67.562 85.609">
  <g id="Financial_AID" data-name="Financial AID" transform="translate(-930.502 -83.391)">
    <path id="Path_12" data-name="Path 12" d="M937.054,83.391a6.56,6.56,0,0,0-6.552,6.552v72.505A6.56,6.56,0,0,0,937.054,169h54.458a6.56,6.56,0,0,0,6.552-6.552V89.943a6.56,6.56,0,0,0-6.552-6.552Zm58.7,6.552v72.505a4.244,4.244,0,0,1-4.239,4.239H937.054a4.244,4.244,0,0,1-4.239-4.239V89.943a4.245,4.245,0,0,1,4.239-4.239h54.458A4.245,4.245,0,0,1,995.751,89.943Z" fill="#ddd"/>
    <path id="Path_13" data-name="Path 13" d="M991.785,95.97H940.306a1.583,1.583,0,0,0-1.583,1.583v15.882a1.583,1.583,0,0,0,1.583,1.583h51.479a1.583,1.583,0,0,0,1.583-1.583V97.553A1.583,1.583,0,0,0,991.785,95.97ZM990.2,111.852H941.888V99.135H990.2Z" transform="translate(-1.715 -2.625)" fill="#ddd"/>
    <path id="Path_14" data-name="Path 14" d="M997.222,156.871h-9.856a1.582,1.582,0,0,0-1.583,1.583v17.658a1.583,1.583,0,0,0,1.583,1.583h9.856a1.582,1.582,0,0,0,1.583-1.583V158.454A1.582,1.582,0,0,0,997.222,156.871Zm-1.583,17.658h-6.691V160.036h6.691Z" transform="translate(-11.534 -15.331)" fill="#ddd"/>
    <path id="Path_15" data-name="Path 15" d="M989.594,134.4h5.674a3.742,3.742,0,0,0,0-7.392h-5.674a3.742,3.742,0,0,0,0,7.392Zm0-5.809h5.674c.853,0,1.573.968,1.573,2.113s-.72,2.114-1.573,2.114h-5.674c-.853,0-1.573-.968-1.573-2.114S988.741,128.589,989.594,128.589Z" transform="translate(-11.671 -9.1)" fill="#ddd"/>
    <path id="Path_16" data-name="Path 16" d="M989.594,149.364h5.674a3.742,3.742,0,0,0,0-7.392h-5.674a3.742,3.742,0,0,0,0,7.392Zm0-5.809h5.674c.853,0,1.573.968,1.573,2.114s-.72,2.113-1.573,2.113h-5.674c-.853,0-1.573-.968-1.573-2.113S988.741,143.555,989.594,143.555Z" transform="translate(-11.671 -12.223)" fill="#ddd"/>
    <path id="Path_17" data-name="Path 17" d="M975,127.006H969.32a3.742,3.742,0,0,0,0,7.392H975a3.743,3.743,0,0,0,0-7.392Zm0,5.809H969.32c-.853,0-1.573-.968-1.573-2.114s.72-2.113,1.573-2.113H975c.852,0,1.572.968,1.572,2.113S975.847,132.815,975,132.815Z" transform="translate(-7.441 -9.1)" fill="#ddd"/>
    <path id="Path_18" data-name="Path 18" d="M975,141.715H969.32a3.742,3.742,0,0,0,0,7.391H975a3.742,3.742,0,0,0,0-7.391Zm0,5.809H969.32c-.853,0-1.573-.967-1.573-2.112s.72-2.114,1.573-2.114H975c.852,0,1.572.968,1.572,2.114S975.847,147.524,975,147.524Z" transform="translate(-7.441 -12.169)" fill="#ddd"/>
    <path id="Path_19" data-name="Path 19" d="M954.721,127.006h-5.674a3.742,3.742,0,0,0,0,7.392h5.674a3.742,3.742,0,0,0,0-7.392Zm0,5.809h-5.674c-.853,0-1.573-.968-1.573-2.114s.72-2.113,1.573-2.113h5.674c.853,0,1.573.968,1.573,2.113S955.574,132.815,954.721,132.815Z" transform="translate(-3.211 -9.1)" fill="#ddd"/>
    <path id="Path_20" data-name="Path 20" d="M954.721,141.715h-5.674a3.742,3.742,0,0,0,0,7.391h5.674a3.742,3.742,0,0,0,0-7.391Zm0,5.809h-5.674c-.853,0-1.573-.967-1.573-2.112s.72-2.114,1.573-2.114h5.674c.853,0,1.573.968,1.573,2.114S955.574,147.524,954.721,147.524Z" transform="translate(-3.211 -12.169)" fill="#ddd"/>
    <path id="Path_21" data-name="Path 21" d="M954.721,156.422h-5.674a3.742,3.742,0,0,0,0,7.392h5.674a3.742,3.742,0,0,0,0-7.392Zm0,5.809h-5.674c-.853,0-1.573-.968-1.573-2.114s.72-2.113,1.573-2.113h5.674c.853,0,1.573.968,1.573,2.113S955.574,162.231,954.721,162.231Z" transform="translate(-3.211 -15.238)" fill="#ddd"/>
    <path id="Path_22" data-name="Path 22" d="M954.721,171.129h-5.674a3.743,3.743,0,0,0,0,7.393h5.674a3.743,3.743,0,0,0,0-7.393Zm0,5.81h-5.674c-.853,0-1.573-.968-1.573-2.112s.72-2.115,1.573-2.115h5.674c.853,0,1.573.969,1.573,2.115S955.574,176.939,954.721,176.939Z" transform="translate(-3.211 -18.306)" fill="#ddd"/>
    <path id="Path_23" data-name="Path 23" d="M974.508,156.422h-5.676a3.742,3.742,0,0,0,0,7.392h5.676a3.743,3.743,0,0,0,0-7.392Zm0,5.809h-5.676c-.853,0-1.573-.968-1.573-2.114s.72-2.113,1.573-2.113h5.676c.851,0,1.572.968,1.572,2.113S975.359,162.231,974.508,162.231Z" transform="translate(-7.339 -15.238)" fill="#ddd"/>
    <path id="Path_24" data-name="Path 24" d="M974.508,171.129h-5.676a3.743,3.743,0,0,0,0,7.393h5.676a3.743,3.743,0,0,0,0-7.393Zm0,5.81h-5.676c-.853,0-1.573-.968-1.573-2.112s.72-2.115,1.573-2.115h5.676c.851,0,1.572.969,1.572,2.115S975.359,176.939,974.508,176.939Z" transform="translate(-7.339 -18.306)" fill="#ddd"/>
  </g>
</svg>
