<svg xmlns="http://www.w3.org/2000/svg" width="67.104" height="74.953" viewBox="0 0 67.104 74.953">
  <g id="Group_6" data-name="Group 6" transform="translate(-435.246 -635.553)">
    <path id="Path_89" data-name="Path 89" d="M435.246,697.02l37.132,37.134Z" transform="translate(0 -23.648)" fill="#299371"/>
    <path id="Path_1927" data-name="Path 1927" d="M0,0H25.92V37.819H0Z" transform="translate(439.327 635.553)" fill="#4073c8"/>
    <rect id="Rectangle_24" data-name="Rectangle 24" width="28.023" height="37.819" transform="translate(463.27 635.553)" fill="#4073c8"/>
    <path id="Path_1926" data-name="Path 1926" d="M0,0H25.947V34.543H0Z" transform="translate(441.405 637.191)" fill="#eeefee"/>
    <path id="Path_1925" data-name="Path 1925" d="M0,0H24.6V34.543H0Z" transform="translate(465.248 637.191)" fill="#fff"/>
    <path id="Path_93" data-name="Path 93" d="M501.885,683.649c-5.353,1.591-9.2,5.95-9.2,11.084l0,6.518H511.2v-9.612Z" transform="translate(-22.098 -18.504)" fill="#f78154"/>
    <path id="Path_94" data-name="Path 94" d="M513.914,682.6h-4.368a11.888,11.888,0,0,0-4.034.7l8.4,8.74Z" transform="translate(-26.823 -18.101)" fill="#fff"/>
    <path id="Path_95" data-name="Path 95" d="M534.379,694.733a11.732,11.732,0,0,0-7.894-11.082L518.5,691.64v9.612l15.882,0Z" transform="translate(-32.029 -18.505)" fill="#f78154"/>
    <path id="Path_96" data-name="Path 96" d="M526.485,683.248a11.719,11.719,0,0,0-3.834-.645H518.5v8.634Z" transform="translate(-32.029 -18.101)" fill="#fff"/>
    <path id="Path_97" data-name="Path 97" d="M510.572,642.579c-.066,0-.133-.009-.2-.009a9.411,9.411,0,0,0-9.531,8.833,18.244,18.244,0,0,0-.308,3.652,12.515,12.515,0,0,1-2.638,7.111h10.479c0-2.793-.7-8.8-2.134-12.043a16.48,16.48,0,0,1,4.33-1.7Z" transform="translate(-24.103 -2.7)" fill="#1c1c1c"/>
    <path id="Path_98" data-name="Path 98" d="M520.389,662.171h10.767a12.34,12.34,0,0,1-2.71-7.111,17,17,0,0,0-.372-3.906,8.806,8.806,0,0,0-.608-2.619,9.305,9.305,0,0,0-2.932-3.848,10.152,10.152,0,0,0-6.036-2.1v5.846a19,19,0,0,1,4.266-.482c.529,0,1.052.022,1.566.062C521.669,648.961,520.389,658.44,520.389,662.171Z" transform="translate(-32.369 -2.705)" fill="#1c1c1c"/>
    <path id="Path_99" data-name="Path 99" d="M504.427,657.56a14.623,14.623,0,0,0,.317,2.756c1.026,4.736,4.369,8.21,8.34,8.215V652.085A14.82,14.82,0,0,0,504.427,657.56Z" transform="translate(-26.616 -6.36)" fill="#ffcab9"/>
    <path id="Path_100" data-name="Path 100" d="M527.375,658.9c.061-.426.1-.862.12-1.3a10.656,10.656,0,0,1-3.1-6.236c-.519-.041-1.048-.062-1.583-.062a19.42,19.42,0,0,0-4.314.482v16.446C522.949,668.228,526.638,664.2,527.375,658.9Z" transform="translate(-32.369 -6.059)" fill="#ffcab9"/>
    <path id="Path_101" data-name="Path 101" d="M444.9,675.658l25.689,16.791.479-.756-25.947-16.385Z" transform="translate(-2.713 -16.295)" fill="#f78154"/>
    <path id="Path_102" data-name="Path 102" d="M445.574,674.489l-.318.5L471.2,691.378l.476-.755Z" transform="translate(-2.851 -15.98)" fill="#f78154"/>
  </g>
</svg>
