<svg xmlns="http://www.w3.org/2000/svg" width="270.764" height="199.279" viewBox="0 0 270.764 199.279">
  <g id="Mission_Tracking" data-name="Mission Tracking" transform="translate(-102.63 -469.931)">
    <g id="Group_20" data-name="Group 20" transform="translate(7 380)">
      <path id="Path_64" data-name="Path 64" d="M306.594,185.055a58.6,58.6,0,1,1-66.329-49.669A58.612,58.612,0,0,1,306.594,185.055Z" fill="#e2e2e2"/>
    </g>
    <g id="Group_26" data-name="Group 26" transform="translate(7 380)">
      <path id="Path_69" data-name="Path 69" d="M154.588,248.055c-7.193,1.032-12.116.393-13.63-2.568-4.2-8.2,20.954-26.394,42.8-40.231a1.992,1.992,0,0,1,2.145,3.358c-36.763,23.281-42.347,33.21-41.4,35.051.023.058,2.756,4.575,33.449-5.927,20.986-7.187,47.777-18.937,75.44-33.11s52.855-29.043,70.933-41.879c26.463-18.774,24.39-23.645,24.361-23.685-.863-1.707-11.038-3.059-47.163,10.953a1.99,1.99,0,0,1-1.445-3.709c31.447-12.194,48.991-15.247,52.159-9.065,6.314,12.335-54.572,49.168-97.029,70.924C222.936,224.709,177.375,244.784,154.588,248.055Z" fill="#53a548"/>
    </g>
    <g id="Group_27" data-name="Group 27" transform="translate(7 380)">
      <path id="Path_70" data-name="Path 70" d="M347.541,221.389a.827.827,0,0,1-.09.01c-.667.055-1.337.132-2.034.165a1.993,1.993,0,0,1-2.131-1.836,1.97,1.97,0,0,1,1.844-2.134c.666-.036,1.316-.093,1.947-.154a1.989,1.989,0,0,1,.464,3.949Zm7.87-1.206a1.991,1.991,0,0,1-.744-3.908c.627-.148,1.221-.323,1.768-.49a1.991,1.991,0,0,1,1.223,3.789c-.628.207-1.327.4-2.062.572A.933.933,0,0,1,355.411,220.183Zm-17.817,1.7a.883.883,0,0,1-.247.025c-.664.022-1.33.023-2.017.033a1.994,1.994,0,0,1-.021-3.988c.66,0,1.317-.015,1.966-.027a2,2,0,0,1,2.03,1.961A1.977,1.977,0,0,1,337.594,221.886Zm-9.959-.064a1.458,1.458,0,0,1-.334.026l-2.013-.051a1.99,1.99,0,1,1,.137-3.977l1.975.054a1.985,1.985,0,0,1,.235,3.948Zm-9.952-.4a1.711,1.711,0,0,1-.4.012l-1.989-.116a1.993,1.993,0,0,1,.231-3.979l1.979.12a1.993,1.993,0,0,1,.184,3.963Zm44.325-7.013a2,2,0,0,1-2.15-1.261,3.688,3.688,0,0,0-.7-1.07,2,2,0,0,1,3.04-2.589,7.848,7.848,0,0,1,1.385,2.241,1.976,1.976,0,0,1-1.145,2.561A1.573,1.573,0,0,1,362.008,214.408Zm-54.272,6.332a2.174,2.174,0,0,1-.437.013l-1.84-.149a1.994,1.994,0,1,1,.345-3.973l1.817.159a1.966,1.966,0,0,1,1.816,2.131A2,2,0,0,1,307.736,220.74Zm46.846-12.684a1.945,1.945,0,0,1-1.243-.238c-.556-.3-1.116-.611-1.714-.91a1.992,1.992,0,0,1,1.822-3.543c.643.329,1.245.654,1.83.974a2,2,0,0,1-.7,3.717Zm-9-4.282a2.239,2.239,0,0,1-1.053-.124c-.592-.257-1.2-.514-1.816-.75a2,2,0,1,1,1.485-3.7c.631.264,1.259.5,1.869.765a2.007,2.007,0,0,1,1.073,2.618A2.033,2.033,0,0,1,345.586,203.774Zm-9.318-3.559a1.906,1.906,0,0,1-.945-.1c-.6-.218-1.231-.425-1.856-.645a1.994,1.994,0,0,1,1.292-3.773c.637.225,1.278.444,1.9.664a1.992,1.992,0,0,1-.391,3.852Zm-9.447-3.157a1.888,1.888,0,0,1-.874-.067l-1.891-.579a1.995,1.995,0,1,1,1.166-3.815l1.917.585a2,2,0,0,1,1.3,2.5A1.954,1.954,0,0,1,326.821,197.058Zm-9.553-2.864a1.838,1.838,0,0,1-.827-.048l-1.912-.546a1.992,1.992,0,0,1,1.081-3.834l1.928.544a1.988,1.988,0,0,1-.27,3.884Zm-9.6-2.628a2.24,2.24,0,0,1-.8-.06l-1.92-.5a1.99,1.99,0,0,1,1-3.852l1.921.51a1.982,1.982,0,0,1,1.431,2.419A2,2,0,0,1,307.671,191.566Zm-9.657-2.464a2.028,2.028,0,0,1-.773-.037l-1.928-.472a2.013,2.013,0,0,1-1.47-2.4,1.992,1.992,0,0,1,2.407-1.469l1.959.479a1.992,1.992,0,0,1-.2,3.9Zm-9.705-2.309a1.563,1.563,0,0,1-.724-.027l-1.943-.436a1.99,1.99,0,1,1,.88-3.882l1.947.442a2,2,0,0,1,1.5,2.393A1.978,1.978,0,0,1,288.309,186.793Zm-9.731-2.139a2.113,2.113,0,0,1-.7-.022l-1.947-.427a1.989,1.989,0,1,1,.832-3.889l1.942.413a1.984,1.984,0,0,1,1.54,2.358A2.007,2.007,0,0,1,278.578,184.654Zm-100.626,12.89a2.027,2.027,0,0,1-.825-.057l-1.926-.55a2,2,0,1,1,1.112-3.833l1.9.539a2,2,0,0,1-.262,3.9Zm90.864-14.922a1.972,1.972,0,0,1-.676-.01l-1.946-.384a1.992,1.992,0,0,1,.762-3.91l1.966.389a1.986,1.986,0,0,1-.106,3.915ZM168.4,194.7a1.927,1.927,0,0,1-.877-.075l-1.907-.6a1.989,1.989,0,1,1,1.207-3.79l1.893.6a1.993,1.993,0,0,1-.316,3.871Zm90.629-13.969a1.7,1.7,0,0,1-.654-.006l-1.95-.362a2,2,0,0,1,.724-3.925l1.96.372a1.986,1.986,0,0,1-.08,3.921Zm-9.808-1.762a2.189,2.189,0,0,1-.62-.012l-1.961-.342a1.99,1.99,0,0,1,.681-3.922l1.957.335a1.994,1.994,0,0,1-.057,3.941Zm-90.281,12.6a2,2,0,0,1-.946-.1l-1.887-.661a1.993,1.993,0,1,1,1.338-3.754l1.873.67a1.983,1.983,0,0,1,1.221,2.532A2.015,2.015,0,0,1,158.944,191.569Zm80.462-14.257a1.71,1.71,0,0,1-.6-.013l-1.969-.311a1.989,1.989,0,0,1,.625-3.928l1.973.306a2,2,0,0,1-.029,3.946Zm-89.789,10.739a1.95,1.95,0,0,1-1.036-.132c-.637-.268-1.258-.521-1.864-.781a1.993,1.993,0,1,1,1.571-3.664c.585.254,1.192.516,1.809.763a1.981,1.981,0,0,1,1.088,2.6A2,2,0,0,1,149.617,188.051Zm79.946-12.262a2.446,2.446,0,0,1-.58-.011l-1.972-.283a1.994,1.994,0,0,1,.578-3.945l1.975.295a1.988,1.988,0,0,1,1.685,2.26A2.03,2.03,0,0,1,229.563,175.789Zm-9.868-1.412a1.454,1.454,0,0,1-.55,0l-1.973-.252a2,2,0,0,1-1.713-2.242,1.978,1.978,0,0,1,2.231-1.707l1.984.257a1.993,1.993,0,0,1,.021,3.948Zm-79.1,9.477a1.965,1.965,0,0,1-1.231-.22c-.634-.338-1.238-.679-1.808-1.035a1.988,1.988,0,0,1-.694-2.725,2.011,2.011,0,0,1,2.735-.686c.526.314,1.076.623,1.666.94a1.994,1.994,0,0,1-.668,3.726ZM209.8,173.122a2.077,2.077,0,0,1-.522-.008l-1.967-.229a1.992,1.992,0,1,1,.46-3.958l1.991.242a1.994,1.994,0,0,1,1.739,2.214A2.02,2.02,0,0,1,209.8,173.122Zm-9.892-1.127a2.2,2.2,0,0,1-.489.022l-1.986-.212a1.994,1.994,0,0,1,.4-3.967l1.989.205a1.992,1.992,0,0,1,.086,3.952Zm-9.926-.941a1.686,1.686,0,0,1-.454.011l-1.979-.161a2,2,0,1,1,.331-3.978l1.993.172a1.992,1.992,0,0,1,.109,3.956Zm-57.171,6.737a1.977,1.977,0,0,1-1.993-.961,5.957,5.957,0,0,1-.782-2.119,4.928,4.928,0,0,1-.05-.845,1.995,1.995,0,0,1,3.987.148,1.687,1.687,0,0,0,.276.8,1.99,1.99,0,0,1-1.438,2.98Zm47.232-7.49a3.273,3.273,0,0,1-.413.018l-1.98-.122a2,2,0,0,1,.243-3.987l2,.125a2,2,0,0,1,.148,3.966Zm-9.953-.51a1.741,1.741,0,0,1-.348.014l-1.986-.054a1.993,1.993,0,0,1,.121-3.985l2,.067a1.989,1.989,0,0,1,.215,3.958Zm-9.956-.187a2.019,2.019,0,0,1-.283.018c-.67,0-1.324.01-1.974.017a1.994,1.994,0,1,1-.041-3.988c.651-.01,1.331-.019,2.017-.014a1.994,1.994,0,0,1,.281,3.967Zm-9.961.288a1.011,1.011,0,0,0-.165.018c-.662.032-1.319.087-1.943.132a1.991,1.991,0,1,1-.325-3.969c.655-.052,1.329-.1,2.025-.149a2,2,0,0,1,.408,3.968Zm-11.828,1.645a2,2,0,0,1-.794-3.9c.644-.166,1.319-.334,2.049-.478a2,2,0,0,1,.8,3.908c-.656.126-1.261.277-1.824.421A1.306,1.306,0,0,1,138.349,171.537Z" fill="#f78154"/>
    </g>
    <path id="Path_46" data-name="Path 46" d="M326.314,84.9a1.343,1.343,0,0,0-1.712-.807l-5.128,1.852-1.849-5.127a1.338,1.338,0,1,0-2.519.906l1.847,5.131L311.828,88.7a1.34,1.34,0,0,0,.341,2.593,1.32,1.32,0,0,0,.57-.076l5.123-1.848,1.852,5.127a1.33,1.33,0,0,0,1.145.88,1.293,1.293,0,0,0,.567-.073,1.338,1.338,0,0,0,.8-1.715l-1.845-5.129,5.122-1.847A1.341,1.341,0,0,0,326.314,84.9Z" transform="translate(-13 390)" fill="#f78154"/>
    <path id="Path_47" data-name="Path 47" d="M118,192.931a1.344,1.344,0,0,0-1.713-.807l-5.128,1.852-1.849-5.127a1.338,1.338,0,1,0-2.518.906l1.846,5.131-5.125,1.849a1.34,1.34,0,0,0,.341,2.593,1.351,1.351,0,0,0,.57-.076l5.123-1.849,1.852,5.128a1.332,1.332,0,0,0,1.145.88,1.293,1.293,0,0,0,.567-.073,1.339,1.339,0,0,0,.806-1.715l-1.846-5.129,5.122-1.847A1.342,1.342,0,0,0,118,192.931Z" transform="translate(0 393)" fill="#f78154"/>
    <path id="Path_48" data-name="Path 48" d="M216.495,109.09a1.291,1.291,0,0,0-1.653-.776L209.9,110.1l-1.784-4.948a1.292,1.292,0,1,0-2.431.876l1.783,4.949-4.945,1.782a1.292,1.292,0,1,0,.876,2.432l4.946-1.783,1.785,4.947a1.284,1.284,0,0,0,1.108.848,1.244,1.244,0,0,0,.544-.069,1.294,1.294,0,0,0,.779-1.656l-1.784-4.948,4.948-1.783A1.3,1.3,0,0,0,216.495,109.09Z" transform="translate(-13 390)" fill="#f78154"/>
    <path id="Path_52" data-name="Path 52" d="M375.225,169.17a.766.766,0,0,0-.981-.46l-2.934,1.06-1.058-2.935a.766.766,0,1,0-1.442.519l1.058,2.936-2.934,1.058a.766.766,0,1,0,.519,1.442l2.933-1.057,1.06,2.934a.768.768,0,0,0,1.445-.521l-1.061-2.935,2.935-1.059A.766.766,0,0,0,375.225,169.17Z" transform="translate(-13 390)" fill="#f78154"/>
    <path id="Path_1893" data-name="Path 1893" d="M326.314,84.9a1.343,1.343,0,0,0-1.712-.807l-5.128,1.852-1.849-5.127a1.338,1.338,0,1,0-2.519.906l1.847,5.131L311.828,88.7a1.34,1.34,0,0,0,.341,2.593,1.32,1.32,0,0,0,.57-.076l5.123-1.848,1.852,5.127a1.33,1.33,0,0,0,1.145.88,1.293,1.293,0,0,0,.567-.073,1.338,1.338,0,0,0,.8-1.715l-1.845-5.129,5.122-1.847A1.341,1.341,0,0,0,326.314,84.9Z" transform="translate(47 550)" fill="#f78154"/>
    <path id="Path_1894" data-name="Path 1894" d="M216.495,109.09a1.291,1.291,0,0,0-1.653-.776L209.9,110.1l-1.784-4.948a1.292,1.292,0,1,0-2.431.876l1.783,4.949-4.945,1.782a1.292,1.292,0,1,0,.876,2.432l4.946-1.783,1.785,4.947a1.284,1.284,0,0,0,1.108.848,1.244,1.244,0,0,0,.544-.069,1.294,1.294,0,0,0,.779-1.656l-1.784-4.948,4.948-1.783A1.3,1.3,0,0,0,216.495,109.09Z" transform="translate(47 550)" fill="#f78154"/>
  </g>
</svg>
