<svg xmlns="http://www.w3.org/2000/svg" width="47.181" height="52.459" viewBox="0 0 47.181 52.459">
  <g id="My_Calendar" data-name="My Calendar" transform="translate(-25)">
    <path id="Path_1728" data-name="Path 1728" d="M72.181,53.167v8.127H25V53.167A3.167,3.167,0,0,1,28.167,50H69.015a3.167,3.167,0,0,1,3.167,3.167Z" transform="translate(0 -44.722)" fill="#53a548"/>
    <path id="Path_1729" data-name="Path 1729" d="M85.966,50v5.911a1.056,1.056,0,0,1-1.056,1.056H80.056A1.056,1.056,0,0,1,79,55.911V50Z" transform="translate(-48.3 -44.722)" fill="#53a548"/>
    <path id="Path_1730" data-name="Path 1730" d="M342.966,50v5.911a1.056,1.056,0,0,1-1.056,1.056h-4.855A1.056,1.056,0,0,1,336,55.911V50Z" transform="translate(-278.174 -44.722)" fill="#53a548"/>
    <path id="Path_1731" data-name="Path 1731" d="M26.689,53.47V64.4H25V56.27A3.163,3.163,0,0,1,26.689,53.47Z" transform="translate(0 -47.826)" fill="#53a548"/>
    <g id="Group_2485" data-name="Group 2485" transform="translate(33.127 22.886)">
      <path id="Path_1732" data-name="Path 1732" d="M102.528,216.82h5.431a.528.528,0,0,1,.528.528v5.431a.528.528,0,0,1-.528.528h-5.431a.528.528,0,0,1-.528-.528v-5.431A.528.528,0,0,1,102.528,216.82Z" transform="translate(-102 -216.82)" fill="#e6e6e6"/>
      <path id="Path_1733" data-name="Path 1733" d="M102.528,293.27h5.431a.528.528,0,0,1,.528.528v5.432a.528.528,0,0,1-.528.528h-5.431a.528.528,0,0,1-.528-.528V293.8A.528.528,0,0,1,102.528,293.27Z" transform="translate(-102 -285.201)" fill="#e6e6e6"/>
      <path id="Path_1734" data-name="Path 1734" d="M102.528,369.73h5.431a.528.528,0,0,1,.528.528v5.431a.528.528,0,0,1-.528.528h-5.431a.528.528,0,0,1-.528-.528v-5.431A.528.528,0,0,1,102.528,369.73Z" transform="translate(-102 -353.59)" fill="#e6e6e6"/>
      <path id="Path_1735" data-name="Path 1735" d="M178.978,216.82h5.547a.528.528,0,0,1,.528.528v5.431a.528.528,0,0,1-.528.528h-5.547a.528.528,0,0,1-.528-.528v-5.431A.528.528,0,0,1,178.978,216.82Z" transform="translate(-170.381 -216.82)" fill="#e6e6e6"/>
      <path id="Path_1736" data-name="Path 1736" d="M178.978,293.27h5.547a.528.528,0,0,1,.528.528v5.432a.528.528,0,0,1-.528.528h-5.547a.528.528,0,0,1-.528-.528V293.8A.528.528,0,0,1,178.978,293.27Z" transform="translate(-170.381 -285.201)" fill="#e6e6e6"/>
      <path id="Path_1737" data-name="Path 1737" d="M178.978,369.73h5.547a.528.528,0,0,1,.528.528v5.431a.528.528,0,0,1-.528.528h-5.547a.528.528,0,0,1-.528-.528v-5.431A.528.528,0,0,1,178.978,369.73Z" transform="translate(-170.381 -353.59)" fill="#e6e6e6"/>
      <path id="Path_1738" data-name="Path 1738" d="M256.528,216.82h5.547a.528.528,0,0,1,.528.528v5.431a.528.528,0,0,1-.528.528h-5.547a.528.528,0,0,1-.528-.528v-5.431A.528.528,0,0,1,256.528,216.82Z" transform="translate(-239.745 -216.82)" fill="#e6e6e6"/>
      <path id="Path_1739" data-name="Path 1739" d="M256.528,293.27h5.547a.528.528,0,0,1,.528.528v5.432a.528.528,0,0,1-.528.528h-5.547a.528.528,0,0,1-.528-.528V293.8A.528.528,0,0,1,256.528,293.27Z" transform="translate(-239.745 -285.201)" fill="#e6e6e6"/>
      <path id="Path_1740" data-name="Path 1740" d="M256.528,369.73h5.547a.528.528,0,0,1,.528.528v5.431a.528.528,0,0,1-.528.528h-5.547a.528.528,0,0,1-.528-.528v-5.431A.528.528,0,0,1,256.528,369.73Z" transform="translate(-239.745 -353.59)" fill="#e6e6e6"/>
      <path id="Path_1741" data-name="Path 1741" d="M340.036,217.348v5.431a.528.528,0,0,1-.528.528h-5.431a.528.528,0,0,1-.528-.528v-5.431a.528.528,0,0,1,.528-.528h5.431A.528.528,0,0,1,340.036,217.348Z" transform="translate(-309.11 -216.82)" fill="#e6e6e6"/>
      <path id="Path_1742" data-name="Path 1742" d="M334.078,293.27h5.431a.528.528,0,0,1,.528.528v5.432a.528.528,0,0,1-.528.528h-5.431a.528.528,0,0,1-.528-.528V293.8A.528.528,0,0,1,334.078,293.27Z" transform="translate(-309.11 -285.201)" fill="#e6e6e6"/>
      <path id="Path_1743" data-name="Path 1743" d="M334.078,369.73h5.431a.528.528,0,0,1,.528.528v5.431a.528.528,0,0,1-.528.528h-5.431a.528.528,0,0,1-.528-.528v-5.431A.528.528,0,0,1,334.078,369.73Z" transform="translate(-309.11 -353.59)" fill="#e6e6e6"/>
    </g>
    <path id="Path_1744" data-name="Path 1744" d="M25,150v33.46a3.166,3.166,0,0,0,3.167,3.167H69.015a3.166,3.166,0,0,0,3.167-3.167V150Z" transform="translate(0 -134.167)" fill="#f5f5f5"/>
    <path id="Path_1745" data-name="Path 1745" d="M100.278,1.056V9.5a1.056,1.056,0,0,1-1.056,1.056H96.056A1.056,1.056,0,0,1,95,9.5V1.056A1.056,1.056,0,0,1,96.056,0h3.167A1.056,1.056,0,0,1,100.278,1.056Z" transform="translate(-62.611)" fill="#50758d"/>
    <path id="Path_1746" data-name="Path 1746" d="M102,216.82h6.486v6.486H102Z" transform="translate(-68.873 -193.934)" fill="#f78154"/>
    <path id="Path_1747" data-name="Path 1747" d="M333.55,216.82h6.486v6.486H333.55Z" transform="translate(-275.982 -193.934)" fill="#f78154"/>
    <path id="Path_1748" data-name="Path 1748" d="M178.45,216.82h6.6v6.486h-6.6Z" transform="translate(-137.253 -193.934)" fill="#f78154"/>
    <path id="Path_1749" data-name="Path 1749" d="M102,293.27h6.486v6.487H102Z" transform="translate(-68.873 -262.315)" fill="#f78154"/>
    <path id="Path_1750" data-name="Path 1750" d="M333.55,293.27h6.486v6.487H333.55Z" transform="translate(-275.982 -262.315)" fill="#e6e6e6"/>
    <path id="Path_1751" data-name="Path 1751" d="M178.45,293.27h6.6v6.487h-6.6Z" transform="translate(-137.253 -262.315)" fill="#f78154"/>
    <path id="Path_1752" data-name="Path 1752" d="M102,369.73h6.486v6.486H102Z" transform="translate(-68.873 -330.705)" fill="#e6e6e6"/>
    <path id="Path_1753" data-name="Path 1753" d="M333.55,369.73h6.486v6.486H333.55Z" transform="translate(-275.982 -330.705)" fill="#e6e6e6"/>
    <path id="Path_1754" data-name="Path 1754" d="M178.45,369.73h6.6v6.486h-6.6Z" transform="translate(-137.253 -330.705)" fill="#e6e6e6"/>
    <path id="Path_1755" data-name="Path 1755" d="M256,216.82h6.6v6.486H256Z" transform="translate(-206.618 -193.934)" fill="#f78154"/>
    <path id="Path_1756" data-name="Path 1756" d="M256,293.27h6.6v6.487H256Z" transform="translate(-206.618 -262.315)" fill="#f78154"/>
    <path id="Path_1757" data-name="Path 1757" d="M256,369.73h6.6v6.486H256Z" transform="translate(-206.618 -330.705)" fill="#e6e6e6"/>
    <path id="Path_1758" data-name="Path 1758" d="M357.278,1.056V9.5a1.056,1.056,0,0,1-1.056,1.056h-3.167A1.056,1.056,0,0,1,352,9.5V1.056A1.056,1.056,0,0,1,353.056,0h3.167A1.056,1.056,0,0,1,357.278,1.056Z" transform="translate(-292.485)" fill="#50758d"/>
    <path id="Path_1759" data-name="Path 1759" d="M25,150v33.46a3.166,3.166,0,0,0,3.167,3.167h1.17a3.164,3.164,0,0,1-2.594-3.114V152.24a.844.844,0,0,1,.792-.551H72.181V150Z" transform="translate(0 -134.167)" fill="#e6e6e6"/>
    <path id="Path_1760" data-name="Path 1760" d="M97.744,10.555H96.056A1.056,1.056,0,0,1,95,9.5V1.056A1.056,1.056,0,0,1,96.056,0h.633V9.5A1.056,1.056,0,0,0,97.744,10.555Z" transform="translate(-62.611)" fill="#2b597f"/>
    <path id="Path_1761" data-name="Path 1761" d="M354.744,10.555h-1.689A1.056,1.056,0,0,1,352,9.5V1.056A1.056,1.056,0,0,1,353.056,0h.633V9.5A1.056,1.056,0,0,0,354.744,10.555Z" transform="translate(-292.485)" fill="#2b597f"/>
  </g>
</svg>
