<svg xmlns="http://www.w3.org/2000/svg" width="54.704" height="54.405" viewBox="0 0 54.704 54.405">
  <g id="My_events" data-name="My events" transform="translate(-17.749 -18.597)">
    <g id="Group_2550" data-name="Group 2550" transform="translate(17.749 18.597)">
      <g id="Group_2535" data-name="Group 2535" transform="translate(27.352 0)">
        <g id="Group_2534" data-name="Group 2534" transform="translate(0 5.637)">
          <g id="Group_2533" data-name="Group 2533">
            <path id="Path_1834" data-name="Path 1834" d="M274.248,222.627H256V203.8a6.974,6.974,0,0,1,6.974-6.974h4.3a6.974,6.974,0,0,1,6.974,6.974v18.832Z" transform="translate(-256 -188.663)" fill="#f78154"/>
            <path id="Path_1835" data-name="Path 1835" d="M285.933,153.158v4.851a5.637,5.637,0,0,1-5.637,5.637h0a5.637,5.637,0,0,1-5.637-5.637v-4.851Z" transform="translate(-271.171 -153.158)" fill="#ffcab9"/>
          </g>
        </g>
        <path id="Path_1836" data-name="Path 1836" d="M274.658,131.053v-2.394a5.638,5.638,0,1,1,11.275,0Z" transform="translate(-271.171 -122.99)" fill="#cc8b66"/>
      </g>
      <g id="Group_2538" data-name="Group 2538" transform="translate(9.104 0)">
        <g id="Group_2537" data-name="Group 2537" transform="translate(0 5.637)">
          <g id="Group_2536" data-name="Group 2536">
            <path id="Path_1837" data-name="Path 1837" d="M176.592,222.627H158.344V203.8a6.974,6.974,0,0,1,6.974-6.974h4.3a6.974,6.974,0,0,1,6.974,6.974v18.832Z" transform="translate(-158.344 -188.663)" fill="#eeefee"/>
            <path id="Path_1838" data-name="Path 1838" d="M188.277,153.158v4.851a5.637,5.637,0,0,1-5.637,5.637h0A5.637,5.637,0,0,1,177,158.009v-4.851Z" transform="translate(-173.515 -153.158)" fill="#ffcab9"/>
          </g>
        </g>
        <path id="Path_1839" data-name="Path 1839" d="M177,131.053v-2.394a5.638,5.638,0,1,1,11.275,0Z" transform="translate(-173.515 -122.99)" fill="#cc8b66"/>
      </g>
      <g id="Group_2540" data-name="Group 2540" transform="translate(0 31.454)">
        <path id="Path_1840" data-name="Path 1840" d="M127.853,312.9V298.308a6.974,6.974,0,0,0-6.954-6.993h-4.34a6.969,6.969,0,0,0-6.934,6.484A31.329,31.329,0,0,0,127.853,312.9Z" transform="translate(-109.625 -291.315)" fill="#f78154"/>
        <path id="Path_1841" data-name="Path 1841" d="M144.247,291.316h-4.34a6.931,6.931,0,0,0-1.568.18,6.986,6.986,0,0,1,5.388,6.813v11.113A30.514,30.514,0,0,0,151.2,312.9V298.309A6.973,6.973,0,0,0,144.247,291.316Z" transform="translate(-132.973 -291.316)" fill="#f78154"/>
        <path id="Path_1842" data-name="Path 1842" d="M218.466,291.316h-4.34a6.974,6.974,0,0,0-6.954,6.993V312.9a31.179,31.179,0,0,0,18.248,0V298.309A6.974,6.974,0,0,0,218.466,291.316Z" transform="translate(-188.944 -291.316)" fill="#4073c8"/>
        <path id="Path_1843" data-name="Path 1843" d="M241.907,291.316h-4.34A6.933,6.933,0,0,0,236,291.5a6.986,6.986,0,0,1,5.387,6.812v15.914a30.925,30.925,0,0,0,7.475-1.321V298.309A6.974,6.974,0,0,0,241.907,291.316Z" transform="translate(-212.385 -291.316)" fill="#4073c8"/>
        <path id="Path_1844" data-name="Path 1844" d="M316.122,291.316h-4.34a6.974,6.974,0,0,0-6.954,6.993V312.9a31.329,31.329,0,0,0,18.228-15.1A6.969,6.969,0,0,0,316.122,291.316Z" transform="translate(-268.352 -291.316)" fill="#53a548"/>
        <g id="Group_2539" data-name="Group 2539" transform="translate(41.864 0)">
          <path id="Path_1845" data-name="Path 1845" d="M339.568,291.316h-4.34a6.933,6.933,0,0,0-1.566.18,6.984,6.984,0,0,1,5.366,6.3l.06,9.153A31.349,31.349,0,0,0,346.5,297.8,6.969,6.969,0,0,0,339.568,291.316Z" transform="translate(-333.662 -291.316)" fill="#53a548"/>
        </g>
      </g>
      <g id="Group_2543" data-name="Group 2543" transform="translate(3.466)">
        <g id="Group_2542" data-name="Group 2542" transform="translate(0 23.295)">
          <g id="Group_2541" data-name="Group 2541">
            <path id="Path_1846" data-name="Path 1846" d="M139.449,247.652V252.5a5.637,5.637,0,0,1-5.637,5.637h0a5.637,5.637,0,0,1-5.637-5.637v-4.851Z" transform="translate(-128.174 -247.652)" fill="#ffcab9"/>
          </g>
        </g>
        <path id="Path_1847" data-name="Path 1847" d="M146.179,247.652V252.5a5.634,5.634,0,0,1-2.835,4.891,5.61,5.61,0,0,0,2.8.747h0a5.637,5.637,0,0,0,5.637-5.637v-4.851h-5.606Z" transform="translate(-140.509 -224.357)" fill="#fabba7"/>
        <path id="Path_1848" data-name="Path 1848" d="M128.174,225.546v-2.394a5.638,5.638,0,1,1,11.275,0Z" transform="translate(-128.174 -199.826)" fill="#cc8b66"/>
        <path id="Path_1849" data-name="Path 1849" d="M146.179,223.152v1.19l5.606-1.19a5.654,5.654,0,0,0-5.638-5.669,5.585,5.585,0,0,0-2.8.751A5.671,5.671,0,0,1,146.179,223.152Z" transform="translate(-140.509 -199.826)" fill="#bf7950"/>
        <path id="Path_1850" data-name="Path 1850" d="M195.007,153.158v4.851a5.634,5.634,0,0,1-2.835,4.891,5.609,5.609,0,0,0,2.8.747h0a5.637,5.637,0,0,0,5.637-5.637v-4.851h-5.606Z" transform="translate(-180.213 -147.521)" fill="#fabba7"/>
        <path id="Path_1851" data-name="Path 1851" d="M195.007,128.659v1.19l5.606-1.19a5.654,5.654,0,0,0-5.638-5.669,5.585,5.585,0,0,0-2.8.751A5.671,5.671,0,0,1,195.007,128.659Z" transform="translate(-180.213 -122.99)" fill="#bf7950"/>
        <path id="Path_1852" data-name="Path 1852" d="M292.663,153.158v4.851a5.634,5.634,0,0,1-2.835,4.891,5.609,5.609,0,0,0,2.8.747h0a5.637,5.637,0,0,0,5.637-5.637v-4.851h-5.606Z" transform="translate(-259.621 -147.521)" fill="#fabba7"/>
        <path id="Path_1853" data-name="Path 1853" d="M292.663,128.659v1.19l5.606-1.19a5.654,5.654,0,0,0-5.638-5.669,5.585,5.585,0,0,0-2.8.751A5.671,5.671,0,0,1,292.663,128.659Z" transform="translate(-259.621 -122.99)" fill="#bf7950"/>
      </g>
      <g id="Group_2546" data-name="Group 2546" transform="translate(21.714 17.657)">
        <g id="Group_2545" data-name="Group 2545" transform="translate(0 5.637)">
          <g id="Group_2544" data-name="Group 2544">
            <path id="Path_1854" data-name="Path 1854" d="M237.105,247.652V252.5a5.637,5.637,0,0,1-5.637,5.637h0a5.637,5.637,0,0,1-5.637-5.637v-4.851Z" transform="translate(-225.83 -247.652)" fill="#ffcab9"/>
          </g>
        </g>
        <path id="Path_1855" data-name="Path 1855" d="M243.835,247.652V252.5A5.634,5.634,0,0,1,241,257.394a5.61,5.61,0,0,0,2.8.747h0a5.637,5.637,0,0,0,5.637-5.637v-4.851h-5.606Z" transform="translate(-238.165 -242.014)" fill="#fabba7"/>
        <path id="Path_1856" data-name="Path 1856" d="M225.83,225.546v-2.394a5.638,5.638,0,1,1,11.275,0Z" transform="translate(-225.83 -217.483)" fill="#cc8b66"/>
        <path id="Path_1857" data-name="Path 1857" d="M243.835,223.152v1.19l5.606-1.19a5.654,5.654,0,0,0-5.638-5.669,5.585,5.585,0,0,0-2.8.751A5.671,5.671,0,0,1,243.835,223.152Z" transform="translate(-238.165 -217.483)" fill="#bf7950"/>
      </g>
      <g id="Group_2549" data-name="Group 2549" transform="translate(39.963 17.657)">
        <g id="Group_2548" data-name="Group 2548" transform="translate(0 5.637)">
          <g id="Group_2547" data-name="Group 2547">
            <path id="Path_1858" data-name="Path 1858" d="M334.761,247.652V252.5a5.637,5.637,0,0,1-5.637,5.637h0a5.637,5.637,0,0,1-5.637-5.637v-4.851Z" transform="translate(-323.486 -247.652)" fill="#ffcab9"/>
          </g>
        </g>
        <path id="Path_1859" data-name="Path 1859" d="M341.491,247.652V252.5a5.634,5.634,0,0,1-2.835,4.891,5.61,5.61,0,0,0,2.8.747h0A5.637,5.637,0,0,0,347.1,252.5v-4.851h-5.606Z" transform="translate(-335.821 -242.014)" fill="#fabba7"/>
        <path id="Path_1860" data-name="Path 1860" d="M323.486,225.546v-2.394a5.638,5.638,0,1,1,11.275,0Z" transform="translate(-323.486 -217.483)" fill="#cc8b66"/>
        <path id="Path_1861" data-name="Path 1861" d="M341.491,223.152l-.007,1.192,5.613-1.192a5.654,5.654,0,0,0-5.638-5.669,5.585,5.585,0,0,0-2.8.751A5.671,5.671,0,0,1,341.491,223.152Z" transform="translate(-335.821 -217.483)" fill="#bf7950"/>
      </g>
    </g>
  </g>
</svg>
