<svg xmlns="http://www.w3.org/2000/svg" width="47.795" height="47.793" viewBox="0 0 47.795 47.793">
  <g id="My_homework" data-name="My homework" transform="translate(-16.554 -4.666)">
    <path id="Path_1762" data-name="Path 1762" d="M99.412,96.834V134.65a3.414,3.414,0,0,0,3.414,3.414h32.431a3.414,3.414,0,0,0,3.414-3.414V96.834Z" transform="translate(-74.321 -85.605)" fill="#f9f5f3"/>
    <g id="Group_2488" data-name="Group 2488" transform="translate(16.553 25.146)">
      <path id="Path_1764" data-name="Path 1764" d="M59.9,270.432,46.582,257.11l-4.828,4.828L55.076,275.26a.825.825,0,0,0,.3.19c.091.034.191-.047.29-.047l.734.1,3.751-3.751-.335-.671C59.811,270.861,60.059,270.587,59.9,270.432Z" transform="translate(-39.158 -254.513)" fill="#a0c8ff"/>
      <path id="Path_1765" data-name="Path 1765" d="M91.641,270.432,78.318,257.11l-1.182,1.182,13.786,13.786a.823.823,0,0,1,.222.409l.737-.737-.122-.721c0-.1.1-.213.07-.3A.821.821,0,0,0,91.641,270.432Z" transform="translate(-70.894 -254.513)" fill="#91b2fa"/>
      <g id="Group_2487" data-name="Group 2487" transform="translate(18.664 18.663)">
        <g id="Group_2486" data-name="Group 2486">
          <path id="Path_1766" data-name="Path 1766" d="M201.23,417.356a.77.77,0,0,1-.546-.226l-2.759-2.759a.773.773,0,0,1,1.093-1.093l2.759,2.759a.773.773,0,0,1-.546,1.319Z" transform="translate(-197.698 -413.052)" fill="#868eaf"/>
        </g>
      </g>
      <path id="Path_1767" data-name="Path 1767" d="M0,0H1.545V18.733H0Z" transform="translate(4.777 5.873) rotate(-45)" fill="#91b2fa"/>
      <path id="Path_1768" data-name="Path 1768" d="M178.69,393.219v-3.662a.823.823,0,0,0-.053-.288l-4.722,4.722a.823.823,0,0,0,.288.053h3.662A.824.824,0,0,0,178.69,393.219Z" transform="translate(-157.702 -373.056)" fill="#f9eae0"/>
      <path id="Path_1769" data-name="Path 1769" d="M19.467,232.408l-2.414,2.414a1.707,1.707,0,0,0,0,2.414l2.414,2.414,4.828-4.828-2.414-2.414A1.707,1.707,0,0,0,19.467,232.408Z" transform="translate(-16.553 -231.909)" fill="#f78154"/>
      <path id="Path_1770" data-name="Path 1770" d="M45.073,232.391l.025.022,3.6,3.6,1.182-1.182-2.414-2.414a1.706,1.706,0,0,0-2.389-.022Z" transform="translate(-42.135 -231.913)" fill="#f78154"/>
    </g>
    <g id="Group_2490" data-name="Group 2490" transform="translate(30.292 17.548)">
      <g id="Group_2489" data-name="Group 2489" transform="translate(0)">
        <path id="Path_1771" data-name="Path 1771" d="M177.979,159.712h-27.31a.773.773,0,1,1,0-1.545h27.31a.773.773,0,0,1,0,1.545Z" transform="translate(-149.896 -158.167)" fill="#868eaf"/>
      </g>
    </g>
    <g id="Group_2492" data-name="Group 2492" transform="translate(30.292 22.669)">
      <g id="Group_2491" data-name="Group 2491" transform="translate(0)">
        <path id="Path_1772" data-name="Path 1772" d="M177.979,209.412h-27.31a.773.773,0,1,1,0-1.545h27.31a.773.773,0,1,1,0,1.545Z" transform="translate(-149.896 -207.867)" fill="#868eaf"/>
      </g>
    </g>
    <g id="Group_2494" data-name="Group 2494" transform="translate(30.292 27.79)">
      <g id="Group_2493" data-name="Group 2493" transform="translate(0)">
        <path id="Path_1773" data-name="Path 1773" d="M177.979,259.112h-27.31a.773.773,0,0,1,0-1.545h27.31a.773.773,0,0,1,0,1.545Z" transform="translate(-149.896 -257.567)" fill="#868eaf"/>
      </g>
    </g>
    <g id="Group_2496" data-name="Group 2496" transform="translate(30.292 32.91)">
      <g id="Group_2495" data-name="Group 2495" transform="translate(0)">
        <path id="Path_1774" data-name="Path 1774" d="M177.979,308.812h-27.31a.773.773,0,1,1,0-1.545h27.31a.773.773,0,1,1,0,1.545Z" transform="translate(-149.896 -307.267)" fill="#868eaf"/>
      </g>
    </g>
    <g id="Group_2498" data-name="Group 2498" transform="translate(39.68 38.031)">
      <g id="Group_2497" data-name="Group 2497">
        <path id="Path_1775" data-name="Path 1775" d="M259.708,358.512H241.786a.773.773,0,1,1,0-1.545h17.922a.773.773,0,1,1,0,1.545Z" transform="translate(-241.013 -356.967)" fill="#868eaf"/>
      </g>
    </g>
    <path id="Path_1776" data-name="Path 1776" d="M135.257,33.134H102.826a3.414,3.414,0,0,0-3.414,3.414v5.121H138.67V36.548A3.414,3.414,0,0,0,135.257,33.134Z" transform="translate(-74.321 -28.468)" fill="#f78154"/>
    <path id="Path_1777" data-name="Path 1777" d="M426.684,33.134h-2.37a3.414,3.414,0,0,1,3.414,3.414v5.121h2.37V36.548A3.414,3.414,0,0,0,426.684,33.134Z" transform="translate(-365.748 -28.468)" fill="#f78154"/>
  </g>
</svg>
