<svg xmlns="http://www.w3.org/2000/svg" width="156.309" height="189.001" viewBox="0 0 156.309 189.001">
  <g id="My_Portfolio" data-name="My Portfolio" transform="translate(-47.691 -46.48)">
    <g id="Group_1" data-name="Group 1" transform="translate(72.985 46.48)">
      <path id="Path_1" data-name="Path 1" d="M186.523,46.48H55.507v177.4H162.356l24.167-24.166Z" transform="translate(-55.507 -46.48)" fill="#ebebeb"/>
    </g>
    <g id="Group_2" data-name="Group 2" transform="translate(179.833 199.714)">
      <path id="Path_2" data-name="Path 2" d="M88.525,118l24.167-24.166H88.525Z" transform="translate(-88.525 -93.831)" fill="#c3c3c3"/>
    </g>
    <g id="Group_3" data-name="Group 3" transform="translate(89.26 63.569)">
      <rect id="Rectangle_1" data-name="Rectangle 1" width="36.62" height="36.62" fill="#53a548"/>
    </g>
    <g id="Group_4" data-name="Group 4" transform="translate(89.26 63.569)">
      <rect id="Rectangle_2" data-name="Rectangle 2" width="18.309" height="36.62" fill="#53a548"/>
    </g>
    <g id="Group_9" data-name="Group 9" transform="translate(98.41 68.741)">
      <g id="Group_5" data-name="Group 5" transform="translate(9.158)">
        <path id="Path_3" data-name="Path 3" d="M66.194,71.271a8.956,8.956,0,1,0,0-17.912Z" transform="translate(-66.194 -53.359)" fill="#6cc460"/>
      </g>
      <g id="Group_6" data-name="Group 6" transform="translate(0.204)">
        <path id="Path_4" data-name="Path 4" d="M72.381,71.271a8.956,8.956,0,0,1,0-17.912Z" transform="translate(-63.427 -53.359)" fill="#6cc460"/>
      </g>
      <g id="Group_7" data-name="Group 7" transform="translate(0 18.019)">
        <path id="Path_5" data-name="Path 5" d="M72.522,67.946V58.927h0a9.161,9.161,0,0,0-9.158,9.019Z" transform="translate(-63.364 -58.927)" fill="#6cc460"/>
      </g>
      <g id="Group_8" data-name="Group 8" transform="translate(9.158 18.019)">
        <path id="Path_6" data-name="Path 6" d="M75.355,67.946a9.159,9.159,0,0,0-9.161-9.019v9.019Z" transform="translate(-66.194 -58.927)" fill="#6cc460"/>
      </g>
    </g>
    <g id="Group_10" data-name="Group 10" transform="translate(146.707 66.282)">
      <rect id="Rectangle_3" data-name="Rectangle 3" width="43.051" height="3.41" fill="#c3c3c3"/>
    </g>
    <g id="Group_11" data-name="Group 11" transform="translate(146.707 75.232)">
      <rect id="Rectangle_4" data-name="Rectangle 4" width="43.051" height="3.41" fill="#c3c3c3"/>
    </g>
    <g id="Group_12" data-name="Group 12" transform="translate(146.707 84.182)">
      <rect id="Rectangle_5" data-name="Rectangle 5" width="43.051" height="3.41" fill="#c3c3c3"/>
    </g>
    <g id="Group_13" data-name="Group 13" transform="translate(146.707 93.132)">
      <rect id="Rectangle_6" data-name="Rectangle 6" width="43.051" height="3.41" fill="#c3c3c3"/>
    </g>
    <g id="Group_14" data-name="Group 14" transform="translate(89.26 114.015)">
      <rect id="Rectangle_7" data-name="Rectangle 7" width="101.04" height="3.412" fill="#c3c3c3"/>
    </g>
    <g id="Group_15" data-name="Group 15" transform="translate(89.26 122.965)">
      <rect id="Rectangle_8" data-name="Rectangle 8" width="101.04" height="3.412" fill="#c3c3c3"/>
    </g>
    <g id="Group_16" data-name="Group 16" transform="translate(89.26 131.915)">
      <rect id="Rectangle_9" data-name="Rectangle 9" width="101.04" height="3.412" fill="#c3c3c3"/>
    </g>
    <g id="Group_17" data-name="Group 17" transform="translate(89.26 140.866)">
      <rect id="Rectangle_10" data-name="Rectangle 10" width="101.04" height="3.41" fill="#c3c3c3"/>
    </g>
    <g id="Group_18" data-name="Group 18" transform="translate(89.157 155.212)">
      <rect id="Rectangle_11" data-name="Rectangle 11" width="101.143" height="3.412" fill="#c3c3c3"/>
    </g>
    <g id="Group_19" data-name="Group 19" transform="translate(89.157 164.162)">
      <rect id="Rectangle_12" data-name="Rectangle 12" width="101.143" height="3.412" fill="#c3c3c3"/>
    </g>
    <g id="Group_20" data-name="Group 20" transform="translate(89.157 173.113)">
      <rect id="Rectangle_13" data-name="Rectangle 13" width="101.143" height="3.41" fill="#c3c3c3"/>
    </g>
    <g id="Group_21" data-name="Group 21" transform="translate(89.157 182.064)">
      <rect id="Rectangle_14" data-name="Rectangle 14" width="101.143" height="3.41" fill="#c3c3c3"/>
    </g>
    <g id="Group_22" data-name="Group 22" transform="translate(138.075 66.282)">
      <path id="Path_7" data-name="Path 7" d="M79.032,54.3A1.705,1.705,0,1,1,77.326,52.6,1.706,1.706,0,0,1,79.032,54.3Z" transform="translate(-75.621 -52.599)" fill="#aaa"/>
    </g>
    <g id="Group_23" data-name="Group 23" transform="translate(138.075 75.233)">
      <path id="Path_8" data-name="Path 8" d="M79.032,57.07a1.705,1.705,0,1,1-1.705-1.705A1.7,1.7,0,0,1,79.032,57.07Z" transform="translate(-75.621 -55.365)" fill="#aaa"/>
    </g>
    <g id="Group_24" data-name="Group 24" transform="translate(138.075 84.181)">
      <path id="Path_9" data-name="Path 9" d="M79.032,59.835a1.705,1.705,0,1,1-1.705-1.705A1.706,1.706,0,0,1,79.032,59.835Z" transform="translate(-75.621 -58.13)" fill="#aaa"/>
    </g>
    <g id="Group_25" data-name="Group 25" transform="translate(138.075 93.132)">
      <path id="Path_10" data-name="Path 10" d="M79.032,62.6A1.705,1.705,0,1,1,77.326,60.9,1.706,1.706,0,0,1,79.032,62.6Z" transform="translate(-75.621 -60.896)" fill="#aaa"/>
    </g>
    <g id="Group_26" data-name="Group 26" transform="translate(47.691 167.574)">
      <path id="Path_11" data-name="Path 11" d="M83.393,83.9l11.031,22.354,24.669,3.584-17.851,17.4,4.214,24.57-22.064-11.6-22.065,11.6,4.214-24.57-17.851-17.4,24.669-3.584Z" transform="translate(-47.691 -83.899)" fill="#f78154"/>
    </g>
    <g id="Group_27" data-name="Group 27" transform="translate(83.393 167.574)">
      <path id="Path_12" data-name="Path 12" d="M94.424,109.838l-24.669-3.584L58.724,83.9v56.306l22.064,11.6-4.214-24.57Z" transform="translate(-58.724 -83.899)" fill="#f78154"/>
    </g>
  </g>
</svg>
