<svg xmlns="http://www.w3.org/2000/svg" width="47.289" height="48.002" viewBox="0 0 47.289 48.002">
  <g id="My_progress" data-name="My progress" transform="translate(-3.805 0)">
    <g id="Group_2503" data-name="Group 2503" transform="translate(32.26 0.714)">
      <path id="Path_1809" data-name="Path 1809" d="M308.078,17.222h12.112V7.611H308.078a.761.761,0,0,0-.653,1.153l1.957,3.261a.761.761,0,0,1,0,.783l-1.957,3.261A.761.761,0,0,0,308.078,17.222Z" transform="translate(-307.315 -7.611)" fill="#eeefee"/>
    </g>
    <g id="Group_2504" data-name="Group 2504" transform="translate(44.421 0)">
      <path id="Path_1810" data-name="Path 1810" d="M437.735,21.227a.714.714,0,0,1-.714-.714V.714a.714.714,0,0,1,1.427,0v19.8A.714.714,0,0,1,437.735,21.227Z" transform="translate(-437.021 0)" fill="#eeefee"/>
    </g>
    <g id="Group_2517" data-name="Group 2517" transform="translate(3.805 32.047)">
      <path id="Path_1820" data-name="Path 1820" d="M15.627,357.775H4.757a.952.952,0,0,1-.952-.952V342.772a.952.952,0,0,1,.952-.952H15.627v15.955Z" transform="translate(-3.805 -341.82)" fill="#f78154"/>
    </g>
    <g id="Group_2518" data-name="Group 2518" transform="translate(13.32 32.047)">
      <path id="Path_1821" data-name="Path 1821" d="M105.3,341.82h2.307v15.955H105.3Z" transform="translate(-105.299 -341.82)" fill="#f78154"/>
    </g>
    <g id="Group_2519" data-name="Group 2519" transform="translate(15.627 28.203)">
      <path id="Path_1822" data-name="Path 1822" d="M141.725,320.613H129.9V301.765a.952.952,0,0,1,.952-.952h10.871Z" transform="translate(-129.903 -300.813)" fill="#eeefee"/>
    </g>
    <g id="Group_2520" data-name="Group 2520" transform="translate(25.143 28.203)">
      <path id="Path_1823" data-name="Path 1823" d="M231.4,300.813H233.7v19.8H231.4Z" transform="translate(-231.396 -300.813)" fill="#eeefee"/>
    </g>
    <g id="Group_2521" data-name="Group 2521" transform="translate(27.449 24.358)">
      <path id="Path_1824" data-name="Path 1824" d="M267.822,283.449H256V260.757a.952.952,0,0,1,.951-.952h10.871Z" transform="translate(-256 -259.805)" fill="#53a548"/>
    </g>
    <g id="Group_2522" data-name="Group 2522" transform="translate(36.965 24.358)">
      <path id="Path_1825" data-name="Path 1825" d="M357.493,259.806H359.8V283.45h-2.307Z" transform="translate(-357.493 -259.806)" fill="#53a548"/>
    </g>
    <g id="Group_2523" data-name="Group 2523" transform="translate(39.271 20.513)">
      <path id="Path_1826" data-name="Path 1826" d="M392.968,246.287H382.1V219.749a.952.952,0,0,1,.952-.952h9.919a.952.952,0,0,1,.952.952v25.586a.952.952,0,0,1-.952.952Z" transform="translate(-382.097 -218.798)" fill="#4073c8"/>
    </g>
    <g id="Group_2524" data-name="Group 2524" transform="translate(48.787 20.513)">
      <path id="Path_1827" data-name="Path 1827" d="M484.945,246.288H483.59V218.8h1.355a.952.952,0,0,1,.952.952v25.586A.952.952,0,0,1,484.945,246.288Z" transform="translate(-483.59 -218.799)" fill="#30579d"/>
    </g>
  </g>
</svg>
