<svg xmlns="http://www.w3.org/2000/svg" width="58.294" height="84.156" viewBox="0 0 58.294 84.156">
  <g id="Podcasts_Articles" data-name="Podcasts &amp; Articles" transform="translate(-460.322 -369.844)">
    <g id="Group_103" data-name="Group 103" transform="translate(488.166 433)">
      <path id="Path_218" data-name="Path 218" d="M481.48,430.232a1.3,1.3,0,0,1-1.3-1.3V416.611a1.3,1.3,0,1,1,2.607,0v12.316A1.3,1.3,0,0,1,481.48,430.232Z" transform="translate(-480.176 -415.307)" fill="#ddd"/>
    </g>
    <g id="Group_104" data-name="Group 104" transform="translate(469.295 446.62)">
      <path id="Path_219" data-name="Path 219" d="M505.766,427.628H468.023a1.3,1.3,0,0,1,0-2.609h37.743a1.3,1.3,0,0,1,0,2.609Z" transform="translate(-466.72 -425.019)" fill="#ddd"/>
    </g>
    <g id="Group_105" data-name="Group 105" transform="translate(498.572 392.583)">
      <path id="Path_220" data-name="Path 220" d="M495.934,389.1H488.9a1.3,1.3,0,1,1,0-2.607h7.033a1.3,1.3,0,1,1,0,2.607Z" transform="translate(-487.596 -386.488)" fill="#ddd"/>
    </g>
    <g id="Group_106" data-name="Group 106" transform="translate(498.572 401.689)">
      <path id="Path_221" data-name="Path 221" d="M495.934,395.59H488.9a1.3,1.3,0,0,1,0-2.609h7.033a1.3,1.3,0,1,1,0,2.609Z" transform="translate(-487.596 -392.981)" fill="#ddd"/>
    </g>
    <g id="Group_107" data-name="Group 107" transform="translate(498.572 410.457)">
      <path id="Path_222" data-name="Path 222" d="M495.934,401.842H488.9a1.3,1.3,0,0,1,0-2.609h7.033a1.3,1.3,0,1,1,0,2.609Z" transform="translate(-487.596 -399.233)" fill="#ddd"/>
    </g>
    <g id="Group_108" data-name="Group 108" transform="translate(470.724 392.583)">
      <path id="Path_223" data-name="Path 223" d="M476.077,389.1h-7.033a1.3,1.3,0,1,1,0-2.607h7.033a1.3,1.3,0,1,1,0,2.607Z" transform="translate(-467.739 -386.488)" fill="#ddd"/>
    </g>
    <g id="Group_109" data-name="Group 109" transform="translate(470.724 401.689)">
      <path id="Path_224" data-name="Path 224" d="M476.077,395.59h-7.033a1.3,1.3,0,0,1,0-2.609h7.033a1.3,1.3,0,1,1,0,2.609Z" transform="translate(-467.739 -392.981)" fill="#dcdcdc"/>
    </g>
    <g id="Group_110" data-name="Group 110" transform="translate(470.724 410.457)">
      <path id="Path_225" data-name="Path 225" d="M476.077,401.842h-7.033a1.3,1.3,0,0,1,0-2.609h7.033a1.3,1.3,0,1,1,0,2.609Z" transform="translate(-467.739 -399.233)" fill="#ddd"/>
    </g>
    <path id="Path_226" data-name="Path 226" d="M486.216,434.3h0A17.814,17.814,0,0,1,468.4,416.49V389.158a17.814,17.814,0,0,1,17.813-17.814h0a17.814,17.814,0,0,1,17.814,17.814V416.49A17.814,17.814,0,0,1,486.216,434.3Z" transform="translate(3.253 0)" fill="none" stroke="#ddd" stroke-linecap="round" stroke-linejoin="round" stroke-width="3"/>
    <g id="Group_111" data-name="Group 111" transform="translate(465.287 417.102)">
      <path id="Path_227" data-name="Path 227" d="M488.842,428.66h-1.6a23.413,23.413,0,0,1-23.384-23.384,1.3,1.3,0,1,1,2.608,0,20.8,20.8,0,0,0,20.776,20.776h1.6a20.8,20.8,0,0,0,20.777-20.776,1.3,1.3,0,1,1,2.607,0A23.412,23.412,0,0,1,488.842,428.66Z" transform="translate(-463.862 -403.971)" fill="#ddd" stroke="#ddd" stroke-width="1"/>
    </g>
    <g id="Group_112" data-name="Group 112" transform="translate(460.322 451.391)">
      <path id="Path_228" data-name="Path 228" d="M517.312,431.03H461.626a1.3,1.3,0,1,1,0-2.609h55.685a1.3,1.3,0,0,1,0,2.609Z" transform="translate(-460.322 -428.421)" fill="#ddd"/>
    </g>
  </g>
</svg>
