<svg xmlns="http://www.w3.org/2000/svg" width="73.771" height="99.317" viewBox="0 0 73.771 99.317">
  <g id="Test_Prep" data-name="Test Prep" transform="translate(-240.296 -530.252)">
    <g id="Group_157" data-name="Group 157" transform="translate(241.446 531.402)">
      <g id="Group_156" data-name="Group 156">
        <g id="Group_154" data-name="Group 154" transform="translate(0)">
          <path id="Path_297" data-name="Path 297" d="M302.113,594.866l-17.746,17.805h-.022V594.841h17.746Z" transform="translate(-231.119 -516.131)" fill="none" stroke="#ddd" stroke-linecap="round" stroke-linejoin="round" stroke-width="2.3"/>
          <path id="Path_298" data-name="Path 298" d="M265.31,607.46l27.157-16.45,2.751-8.248-8.286-.885-27.171,16.45-2.534,1.537a2.878,2.878,0,0,0-.967,3.938l2.555,4.238a2.889,2.889,0,0,0,3.951.969l2.024-1.235.506-.315ZM312.418,531.4v78.711H294.673v17.83H241.446V531.4Z" transform="translate(-241.446 -531.402)" fill="none" stroke="#ddd" stroke-linecap="round" stroke-linejoin="round" stroke-width="2.3"/>
          <path id="Path_299" data-name="Path 299" d="M286.393,572.969l-2.75,8.249-2.763-4.567-2.772-4.567Z" transform="translate(-232.621 -521.609)" fill="none" stroke="#ddd" stroke-linecap="round" stroke-linejoin="round" stroke-width="2.3"/>
          <path id="Path_300" data-name="Path 300" d="M285.615,575.765l2.763,4.567L261.22,596.781h-.013l-2.567-4.215-.2-.34h.013Z" transform="translate(-237.356 -520.723)" fill="none" stroke="#ddd" stroke-linecap="round" stroke-linejoin="round" stroke-width="2.3"/>
          <path id="Path_301" data-name="Path 301" d="M286.151,576.651l-27.168,16.46h-.013l-2.75-4.564-.013-.013,27.171-16.449Z" transform="translate(-237.892 -521.609)" fill="none" stroke="#ddd" stroke-linecap="round" stroke-linejoin="round" stroke-width="2.3"/>
          <path id="Path_302" data-name="Path 302" d="M259.935,590.26l2.567,4.215-.506.315-2.024,1.235a2.889,2.889,0,0,1-3.951-.969l-2.555-4.238a2.878,2.878,0,0,1,.967-3.938l2.534-1.537.012.014,2.751,4.563Z" transform="translate(-238.651 -518.417)" fill="none" stroke="#ddd" stroke-linecap="round" stroke-linejoin="round" stroke-width="2.3"/>
        </g>
        <g id="Group_155" data-name="Group 155" transform="translate(0 0)">
          <path id="Path_303" data-name="Path 303" d="M312.419,610.112V531.4H241.446v96.54h53.227V610.112Z" transform="translate(-241.446 -531.402)" fill="none" stroke="#ddd" stroke-linecap="round" stroke-linejoin="round" stroke-width="2.3"/>
          <line id="Line_1" data-name="Line 1" x1="17.746" y2="17.805" transform="translate(53.249 78.735)" fill="none" stroke="#ddd" stroke-linecap="round" stroke-linejoin="round" stroke-width="2.3"/>
          <line id="Line_2" data-name="Line 2" x2="47.796" transform="translate(11.159 17.782)" fill="none" stroke="#ddd" stroke-linecap="round" stroke-linejoin="round" stroke-width="2.3"/>
          <line id="Line_3" data-name="Line 3" x2="47.796" transform="translate(11.159 30.61)" fill="none" stroke="#ddd" stroke-linecap="round" stroke-linejoin="round" stroke-width="2.3"/>
          <line id="Line_4" data-name="Line 4" x2="47.796" transform="translate(11.159 43.412)" fill="none" stroke="#ddd" stroke-linecap="round" stroke-linejoin="round" stroke-width="2.3"/>
          <path id="Path_304" data-name="Path 304" d="M262.5,597.667l-.506.315-2.024,1.235a2.889,2.889,0,0,1-3.951-.969l-2.555-4.238a2.878,2.878,0,0,1,.967-3.938l2.534-1.537,27.171-16.45,8.286.885-2.751,8.248-27.157,16.45" transform="translate(-238.651 -521.609)" fill="none" stroke="#ddd" stroke-linecap="round" stroke-linejoin="round" stroke-width="2.3"/>
          <path id="Path_305" data-name="Path 305" d="M261.754,594.485v-.012h-.013l-2.567-4.215-.2-.34-2.75-4.564" transform="translate(-237.89 -518.415)" fill="none" stroke="#ddd" stroke-linecap="round" stroke-linejoin="round" stroke-width="2.3"/>
          <path id="Path_306" data-name="Path 306" d="M283.642,581.217l-2.763-4.567-2.772-4.567" transform="translate(-232.62 -521.609)" fill="none" stroke="#ddd" stroke-linecap="round" stroke-linejoin="round" stroke-width="2.3"/>
          <line id="Line_5" data-name="Line 5" y1="16.46" x2="27.168" transform="translate(21.092 55.041)" fill="none" stroke="#ddd" stroke-linecap="round" stroke-linejoin="round" stroke-width="2.3"/>
        </g>
      </g>
    </g>
  </g>
</svg>
