<svg viewBox="0 0 631.11 871.06" xmlns="http://www.w3.org/2000/svg" xmlns:xlink="http://www.w3.org/1999/xlink"><radialGradient id="a" cx="190.51" cy="140.07" gradientUnits="userSpaceOnUse" r="123.78"><stop offset="0" stop-color="#2e3192"/><stop offset=".06" stop-color="#282d7c"/><stop offset=".15" stop-color="#212860"/><stop offset=".25" stop-color="#1b254a"/><stop offset=".36" stop-color="#17223b"/><stop offset=".48" stop-color="#152032"/><stop offset=".67" stop-color="#14202f"/><stop offset="1" stop-color="#14202e"/></radialGradient><radialGradient id="b" cx="155.64" cy="202.21" r="371.42" xlink:href="#a"/><linearGradient id="c" gradientUnits="userSpaceOnUse" x1="299.5" x2="265.9" y1="510.62" y2="899.6"><stop offset=".19" stop-color="#b3b3b3"/><stop offset=".9" stop-color="#230028" stop-opacity="0"/></linearGradient><path d="m56.38 491.49c2.1 9.86 8.37 28.41 21.91 28.77s17.59-9.37 17.59-9.37l-11.4-22.08z" fill="#599b61"/><path d="m62.51 490.91-6.14.58c2.1 9.86 8.37 28.41 21.91 28.77a23.34 23.34 0 0 0 2.76-.18c-12.33-8.5-15.68-21.31-18.53-29.17z" fill="#599b61"/><path d="m378.91 403.89s18.74 24.16 30.74 23c17.46-1.63 16.1-34.28 7.4-36.38s-23.42-9.91-23.42-9.91z" fill="#599b61"/><path d="m423.11 409.84c-.67-5.94-2.91-10.79-6.07-11.55-8.68-2.11-23.39-9.9-23.39-9.9l-12 18.88c-1.73-2-2.78-3.37-2.78-3.37l14.75-23.26s14.71 7.8 23.39 9.9c4.54 1.1 7.11 10.37 6.1 19.3z" fill="#599b61"/><path d="m409.66 382.7-29.33 26.55-4.55 4.13c-16.1-18-32.66-32.7-49.31-37.13 0 0-3.92 144.47-84 231.37l-35.7-2.11-9.36-81-1.39 81-35.74 2.11s-48.78-33.38-78.91-110.75l-28.53 5.61s-47.24-83.57-3.58-160.9c22.84-40.5 62.67-66.75 132.79-71.81 89.89-6.54 167.31 30.67 227.61 112.93z" fill="#f2f2f2"/><g fill="#599b61"><path d="m160.27 607.63 2.8 8.9-11.87 8.1 45.52-1.51-.73-17.61z"/><path d="m306.15 290.88c-11.9 1.13-30.79 30-24.41 58.15.93 4.09 7.29 1.8 7.52-2 1.27-21.85 15.11-43.76 26.84-47.57 8.55-2.82-6.68-8.89-9.95-8.58z"/><path d="m81.35 299.42c11.74 3.81 25.57 25.72 26.84 47.57.22 3.84 6.59 6.12 7.52 2 6.38-28.12-12.51-57-24.41-58.15-3.3-.27-18.5 5.8-9.95 8.58z"/><path d="m159 624.37c2.31-1.55 4.57-3.18 6.86-4.79 2.75-1.94 5.08-2.86 3.13-6.3-1.17-2.06-3-3.81-4.37-5.78l-.06-.12-4.31.26 2.8 8.9-11.87 8.1z"/><path d="m242.46 607.63-2.8 8.9 11.87 8.1-45.52-1.51.73-17.61z"/><path d="m216.33 606.08-9.59-.57-.74 17.61 14.64.49a41.24 41.24 0 0 1 -4.31-17.53z"/><path d="m237.93 607.36c-1.77 2.93-3.64 5.79-5.6 8.6a89.17 89.17 0 0 1 10.31 8.37l8.9.3-11.87-8.1 2.8-8.9z"/></g><path d="m281.38 488.57c-12.22 13.32-169 9.4-176.75-1.31-6.74-9.31-9.15-55.46-8.72-103.67.3 40.54 2.91 75.9 8.72 83.91 7.75 10.7 164.53 14.67 176.75 1.31 5.14-5.61 7.92-44.25 8.22-88.16.46 51.49-2.32 101.47-8.22 107.92z" fill="#777676" opacity=".2"/><path d="m76.51 264a57.75 57.75 0 0 0 -7.65 32.07c70.43 26.71 172.82 26.71 243.25 0a57.75 57.75 0 0 0 -7.65-32.07l-82.54.86-31.44 21.14-31.48-21.13z" fill="#f7764c"/><path d="m190.48 286c62.78 0 114-9.88 114-22s-51.2-22-114-22-114 9.88-114 22 51.22 22 114 22z" fill="#ce6245"/><path d="m161.89 404.86v-18.78l-7.39 18.77h-5.11l-7.39-18.53v18.53h-6v-28.31h8.23l7.77 19.13 7.39-19.13h8.67v28.32z" fill="#599b61"/><path d="m178.46 393.39 4.67-.72c1.08-.16 1.44-.68 1.44-1.36 0-1.16-1-2.16-2.92-2.16a3.19 3.19 0 0 0 -3.39 2.92l-5.26-1.07c.24-2.84 2.88-6.59 8.71-6.59 6.43 0 8.79 3.59 8.79 7.67v9.7a19.52 19.52 0 0 0 .24 3.08h-5.47a9.71 9.71 0 0 1 -.2-2.24 6.26 6.26 0 0 1 -5.59 2.8c-4.35 0-6.87-2.88-6.87-6-.02-3.55 2.57-5.55 5.85-6.03zm6.11 3.67v-.88l-3.75.6c-1.28.2-2.24.8-2.24 2.2 0 1 .68 2 2.36 2s3.63-.84 3.63-3.91z" fill="#599b61"/><path d="m208.21 391a8.24 8.24 0 0 0 -1.92-.2c-2.44 0-4.63 1.44-4.63 5.39v8.67h-6.07v-19.86h5.87v2.68c1-2.24 3.55-2.88 5.15-2.88a6 6 0 0 1 1.6.2z" fill="#599b61"/><path d="m219.79 385h3.87v5.31h-3.87v7.43c0 1.64.88 2.08 2.2 2.08a7.57 7.57 0 0 0 1.6-.2v5a7.2 7.2 0 0 1 -3.16.56c-4.11 0-6.63-2.44-6.63-6.39v-8.51h-3.51v-5.28h1a2.92 2.92 0 0 0 3.08-3.23v-2.56h5.43z" fill="#599b61"/><path d="m231 375.38a3.55 3.55 0 1 1 -3.51 3.55 3.57 3.57 0 0 1 3.51-3.55zm-3 29.47v-19.85h6v19.85z" fill="#599b61"/><path d="m244.85 404.86h-6.07v-19.86h5.87v2.28a6.51 6.51 0 0 1 5.55-2.8c5 0 7.23 3.55 7.23 7.91v12.46h-6.07v-11.42c0-2-1-3.43-3.24-3.43a3.22 3.22 0 0 0 -3.27 3.47z" fill="#599b61"/><ellipse cx="190.48" cy="145.01" fill="#f2f2f2" rx="153.44" ry="145.01"/><path d="m190.48 27.53c152 0 203.74 223.1 0 225.07-202.08 1.96-153.76-225.07 0-225.07z" fill="url(#a)"/><path d="m190.48 27.53c45.09 0 81.35 19.62 104.74 47.28 35.84 65.42 6.07 152.19-129.22 153.39-37.64.34-67.11-6.3-89.3-17.48-53.14-65.11 2.89-183.19 113.78-183.19z" fill="url(#b)"/><path d="m415.48 93.85c1.75 0 3.17 2.63 3.17 5.85v510.88h-6.34v-510.89c0-3.21 1.42-5.83 3.17-5.84z" fill="#f2f2f2"/><path d="m415.93 132.07c89.12-46.32 104.69 41.22 215.18 39.35l-7 89.92c-123.57 34.5-117.94-73.85-208.22-17.87z" fill="#f78154"/><path d="m239.66 629.88c2.35.94 4.62 1.91 6.83 2.88h.07q3.17 1.4 6.16 2.86l1.17.58c1.6.79 3.18 1.59 4.7 2.39l1.51.82c1.36.74 2.7 1.48 4 2.23l1.61 1c1.21.72 2.41 1.44 3.57 2.17l1.6 1q1.67 1.08 3.27 2.17l1.51 1q1.55 1.09 3 2.19l1.4 1c1 .75 1.93 1.5 2.87 2.25l1.23 1c1 .79 1.87 1.57 2.77 2.36l1 .89c1 .86 1.88 1.71 2.78 2.57l.73.68q1.58 1.52 3 3l.19.2a107.18 107.18 0 0 1 8.37 9.88l.4.55c.63.85 1.24 1.7 1.82 2.53l.52.77c.51.75 1 1.5 1.48 2.24l.54.86c.44.7.86 1.4 1.27 2.09l.44.76a22.61 22.61 0 0 1 2.7 1.11 12.72 12.72 0 0 1 1.13.64 6.54 6.54 0 0 1 1.48 1.24 3.22 3.22 0 0 1 .39.58 1.72 1.72 0 0 1 .21 1 1.9 1.9 0 0 1 -2.31 1.32 2.92 2.92 0 0 1 -.57-.14c.28.59.54 1.16.8 1.73l.33.73c.27.62.52 1.22.77 1.82l.26.63c.25.63.48 1.23.7 1.82l.18.47c.24.68.47 1.33.68 2l.06.18c.46 1.39.83 2.67 1.13 3.82l.09.34c.11.43.21.84.3 1.23 0 .2.08.38.13.57s.12.55.17.8l.12.62.1.53c0 .24.08.44.11.65v.25c0 .25.07.46.09.65.07.55.1.87.1.87 15.65-1.54 31.23-6.66 46.37-12.89l4.28 1.43 1.62.54 1.47-.61c1.08-.45 2.33-.94 3.68-1.45s2.82-1 4.35-1.53c2.19-.72 4.51-1.39 6.83-1.92l-44.48-67.72 7.72 1.38 44.18 65.21c.75 0 1.49-.05 2.2 0s1.64.1 2.4.19l.89.11 1 .18a20 20 0 0 1 2.06.5c3.72 1.13 5.7 3.05 6.28 5v-.09a4.53 4.53 0 0 1 0 2.52 4.69 4.69 0 0 1 -.38 1c0 .07-.09.13-.13.2a5.13 5.13 0 0 1 -.5.72c-.1.12-.23.23-.35.34a5.73 5.73 0 0 1 -.51.47 6.37 6.37 0 0 1 -.66.42c-.14.08-.27.18-.42.26a7.26 7.26 0 0 1 -1 .39l-.27.1a8.37 8.37 0 0 1 -1.48.27l-1.1.11 14.91 23.56c10-1.05 29.57-2 59.39 1.13 36.89 3.92 52.03-12.34 52.03-12.34 10.95 6.61 15.16 19.18 22.27 30.55.66 1.05 1.33 2.1 2 3.12 0 0-1 .46-2.82 1.19-.62.24-1.33.52-2.13.81s-1.71.61-2.7.94-2.07.68-3.24 1-2.43.72-3.77 1.08a152.47 152.47 0 0 1 -39.26 5.11c-4.69 0-9.61-.19-14.75-.64-10.27-.92-18.75-1.24-25.69-1.22q-2.6 0-4.92.08a118.91 118.91 0 0 0 -14.37 1.24c-6.1.94-8.47 2-8.47 2l-21.4-33 .42-.08-13.77-21.7a336 336 0 0 1 -69.87 25.31q-7.91 2-16.08 3.63c1.71.44.58 1-1.56 1.49.38.15.72.31 1.06.47a6.07 6.07 0 0 1 2.7 2.18v.18a2.05 2.05 0 0 1 .22.89s0 0 0 .07 0 .06 0 .09a2.2 2.2 0 0 1 -.24.9 3.36 3.36 0 0 1 -.33.48 3.43 3.43 0 0 1 -.2.28 6 6 0 0 1 -1.28 1.06c43.82 12.95 71.92 32.85 71.92 55.18 0 39-85.69 70.66-191.39 70.66s-191.35-31.67-191.35-70.7c0-22.33 28.1-42.24 71.92-55.18a6 6 0 0 1 -1.28-1.05c-.07-.08-.1-.15-.16-.23a3.22 3.22 0 0 1 -.38-.55 2.2 2.2 0 0 1 -.2-.72c0-.09-.07-.17-.07-.25a2.21 2.21 0 0 1 .11-.4 2.05 2.05 0 0 1 .14-.55c.72-1.54 3.14-2.86 6.55-3.68a35.29 35.29 0 0 1 8.19-.91h3.37c.84-.1 1.7-.25 2.55-.42l.6-.13c-14.05-3.84-25-8.58-33.36-14.08-18.66-12.2-19.64-24.84-15.19-35 5.35-12.21 18.54-20.85 18.54-20.85l6 .43.43-.43a21.24 21.24 0 0 1 5.92-3.87 29.06 29.06 0 0 1 11.59-2.31h1.1 1.49a45.05 45.05 0 0 1 7.68.81l.88.19c28.16-21.85 65.93-31.39 65.93-31.39l2.63-3.09-11.14-2.73 43-.71-.86 7.34 1.31 28.14 8.8-28.14-.52-7.35 41.2.73h1.43l-11.2 2.78 2.63 3.09m153.59 87.74 3 1.13-.85-1.52z" fill="url(#c)" opacity=".58"/></svg>