<svg viewBox="0 0 490.27 155.99" xmlns="http://www.w3.org/2000/svg"><g fill="#14202c"><path d="m66.12 1.16h12.51l-14.91 54.76h-12.59l-11.66-36.3-11.74 36.3h-12.82l-14.91-54.76h13l9 35.07 11.37-35.07h12.51l11.35 35.14z"/><path d="m91.3 33.75 9-1.39c2.09-.31 2.78-1.31 2.78-2.63 0-2.24-1.93-4.17-5.64-4.17a6.18 6.18 0 0 0 -6.57 5.64l-10.2-2.09c.46-5.48 5.56-12.74 16.84-12.74 12.44 0 17 7 17 14.83v18.8a37.77 37.77 0 0 0 .46 5.95h-10.54a18.76 18.76 0 0 1 -.43-4.35c-2 3.24-5.67 5.4-10.77 5.4-8.42 0-13.29-5.56-13.29-11.66.01-6.8 5.06-10.66 11.36-11.59zm11.82 7.11v-1.7l-7.26 1.16c-2.47.39-4.33 1.54-4.33 4.25 0 2 1.31 3.94 4.56 3.94 3.48 0 7.03-1.7 7.03-7.65z"/><path d="m136.18 55.92h-11.74v-38.39h11.36v4.4c2.08-3.63 6.8-5.41 10.74-5.41 9.66 0 14 6.88 14 15.29v24.1h-11.77v-22.08c0-3.78-2-6.64-6.26-6.64-3.86 0-6.33 2.86-6.33 6.72z"/><path d="m184.46 17.53h7.54v10.28h-7.49v14.36c0 3.17 1.7 4 4.25 4a14.51 14.51 0 0 0 3.09-.39v9.73a14 14 0 0 1 -6.1 1.08c-8 0-12.82-4.71-12.82-12.36v-16.42h-6.8v-10.28h1.87c4 0 5.95-2.7 5.95-6.26v-4.94h10.5z"/><path d="m233 17.53h7.49v10.28h-7.49v14.36c0 3.17 1.7 4 4.25 4a14.5 14.5 0 0 0 3.09-.39v9.73a14 14 0 0 1 -6.1 1.08c-8 0-12.82-4.71-12.82-12.36v-16.42h-6.8v-10.28h1.93c4 0 5.95-2.7 5.95-6.26v-4.94h10.5z"/><path d="m286.34 36.69c0 11.89-8.88 20.39-20.39 20.39s-20.39-8.5-20.39-20.39 9-20.31 20.39-20.31 20.39 8.41 20.39 20.31zm-11.74 0c0-6.49-4.17-9.5-8.65-9.5s-8.65 3-8.65 9.5 4.25 9.58 8.65 9.58 8.65-3.09 8.65-9.58z"/><path d="m312.92 55.92v-55.92h11.74v55.92z"/><path d="m369.92 44.88c-1.85 6.64-8 12.2-17.69 12.2-10.58 0-20-7.57-20-20.47 0-12.36 9.19-20.24 19.16-20.24 11.89 0 19.23 7.34 19.23 19.7a24.52 24.52 0 0 1 -.23 3.63h-26.73c.23 4.33 4.17 7.42 8.73 7.42 4.25 0 6.64-2 7.72-5zm-10.66-12.75c-.15-2.93-2.16-6.49-7.72-6.49a7.31 7.31 0 0 0 -7.65 6.49z"/><path d="m387.23 33.75 9-1.39c2.09-.31 2.78-1.31 2.78-2.63 0-2.24-1.93-4.17-5.64-4.17a6.18 6.18 0 0 0 -6.57 5.64l-10.2-2.09c.46-5.48 5.56-12.74 16.84-12.74 12.44 0 17 7 17 14.83v18.8a37.77 37.77 0 0 0 .46 5.95h-10.54a18.76 18.76 0 0 1 -.36-4.35c-2 3.24-5.71 5.41-10.81 5.41-8.42 0-13.29-5.56-13.29-11.66-.03-6.81 4.99-10.67 11.33-11.6zm11.77 7.11v-1.7l-7.26 1.16c-2.47.39-4.33 1.54-4.33 4.25 0 2 1.31 3.94 4.56 3.94 3.52 0 7.03-1.7 7.03-7.65z"/><path d="m444.77 29.12a16 16 0 0 0 -3.71-.39c-4.71 0-9 2.78-9 10.43v16.76h-11.69v-38.39h11.35v5.18c2-4.33 6.87-5.56 10-5.56a11.62 11.62 0 0 1 3.09.39z"/><path d="m463.62 55.92h-11.74v-38.39h11.35v4.4c2.08-3.63 6.8-5.41 10.74-5.41 9.66 0 14 6.88 14 15.29v24.1h-11.76v-22.08c0-3.78-2-6.64-6.26-6.64-3.86 0-6.33 2.86-6.33 6.72z"/><path d="m38.46 141.24v-38.39h11.2v4.4c1.93-3.4 6.87-5.56 11-5.56 5.48 0 9.42 2.24 11.35 6 3-4.33 6.72-6 11.9-6 7.26 0 14.21 4.25 14.21 14.68v24.87h-11.3v-22.24c0-3.63-1.93-6.49-6.1-6.49a6.24 6.24 0 0 0 -6.41 6.57v22.17h-11.59v-22.25c0-3.63-1.93-6.49-6.18-6.49-4.09 0-6.33 3.17-6.33 6.64v22.09z"/><path d="m146.06 122c0 11.89-8.88 20.39-20.39 20.39s-20.39-8.5-20.39-20.39 9-20.31 20.39-20.31 20.39 8.42 20.39 20.31zm-11.74 0c0-6.49-4.17-9.5-8.65-9.5s-8.65 3-8.65 9.5 4.25 9.58 8.65 9.58 8.65-3.09 8.65-9.58z"/><path d="m178 114.43a16 16 0 0 0 -3.71-.39c-4.71 0-9 2.78-9 10.43v16.76h-11.65v-38.38h11.36v5.15c2-4.33 6.88-5.56 10-5.56a11.62 11.62 0 0 1 3.09.39z"/><path d="m219.6 130.19c-1.85 6.64-8 12.2-17.69 12.2-10.58 0-20-7.57-20-20.47 0-12.36 9.19-20.24 19.15-20.24 11.9 0 19.23 7.34 19.23 19.7a24.52 24.52 0 0 1 -.23 3.63h-26.72c.23 4.33 4.17 7.42 8.73 7.42 4.25 0 6.64-2 7.72-5zm-10.66-12.75c-.15-2.93-2.16-6.49-7.72-6.49a7.31 7.31 0 0 0 -7.65 6.49z"/><path d="m260.93 102.85h7.49v10.27h-7.49v14.37c0 3.17 1.7 4 4.25 4a14.49 14.49 0 0 0 3.09-.39v9.73a14 14 0 0 1 -6.1 1.08c-8 0-12.82-4.71-12.82-12.36v-16.43h-6.8v-10.27h1.93c4 0 5.95-2.7 5.95-6.26v-4.94h10.51z"/><path d="m314.3 122c0 11.89-8.88 20.39-20.39 20.39s-20.39-8.5-20.39-20.39 9-20.31 20.39-20.31 20.39 8.42 20.39 20.31zm-11.74 0c0-6.49-4.17-9.5-8.65-9.5s-8.65 3-8.65 9.5 4.25 9.58 8.65 9.58 8.65-3.09 8.65-9.58z"/><path d="m359.65 134.36c0 3.48.23 6 .31 6.87h-11.28a26.3 26.3 0 0 1 -.31-3.71c-1.78 2.63-5.64 4.56-10.27 4.56-10.81 0-19-8.34-19-20.16 0-11.43 7.72-20 18.61-20 6.57 0 9.42 2.47 10.35 3.94v-20.55h11.59zm-20.08-2.78c4.56 0 8.65-3.24 8.65-9.58s-4.09-9.5-8.65-9.5-8.65 3.09-8.65 9.5 4.08 9.58 8.65 9.58z"/><path d="m378.88 119.07 9-1.39c2.09-.31 2.78-1.31 2.78-2.63 0-2.24-1.93-4.17-5.64-4.17a6.18 6.18 0 0 0 -6.57 5.64l-10.2-2.09c.46-5.48 5.56-12.74 16.84-12.74 12.44 0 17 7 17 14.83v18.77a37.71 37.71 0 0 0 .46 5.95h-10.55a18.79 18.79 0 0 1 -.39-4.33c-2 3.24-5.72 5.41-10.81 5.41-8.42 0-13.29-5.56-13.29-11.66.02-6.8 5.04-10.66 11.37-11.59zm11.82 7.11v-1.7l-7.26 1.16c-2.47.39-4.33 1.54-4.33 4.25 0 2 1.31 3.94 4.56 3.94 3.48-.01 7.03-1.71 7.03-7.66z"/><path d="m413.57 156 8.73-19.93-16.14-33.21h13.13l9.35 20.55 8.5-20.55h12.44l-23.65 53.14z"/><path d="m466.09 124.09a15.91 15.91 0 0 1 -.31-3.4c0-3.63 1.47-7.57 5.87-10.89l3.94-2.94a6.33 6.33 0 0 0 2.78-5.41c0-3-2.24-5.95-6.87-5.95a7.06 7.06 0 0 0 -7.11 7.26 12.11 12.11 0 0 0 .23 2.86l-10.81-.39a15.83 15.83 0 0 1 -.31-3.24c0-9 6.72-16.68 18-16.68 12.51 0 18.77 7.49 18.77 15.22 0 6.18-2.86 10.43-7.49 13.9l-2.94 2.16c-2.7 2-4.56 4-4.56 7.49zm4.87 4.56a6.68 6.68 0 1 1 .04 13.35 6.68 6.68 0 0 1 0-13.36z"/></g></svg>