<svg xmlns="http://www.w3.org/2000/svg" viewBox="0 0 918.45 875.81"><defs><style>.cls-1{fill:#65ad59;}.cls-2{fill:gray;}.cls-3{fill:#f7764c;}.cls-4{fill:#b3b3b3;}.cls-5{fill:#efc09a;}.cls-6{fill:#ccc;}.cls-7{fill:#e6e6e6;}.cls-8{fill:#fff;}.cls-9{fill:#355389;}.cls-10{fill:#f7cc7f;}.cls-11{fill:#548e47;}</style></defs><title>Asset 3</title><g id="Layer_2" data-name="Layer 2"><g id="Layer_1-2" data-name="Layer 1"><polygon class="cls-1" points="257.93 176.79 247.96 179.85 241.26 164.34 226.13 167.02 219.22 156.24 213.76 159.74 223 174.16 237.35 171.62 244.31 187.75 259.32 183.14 257.93 176.79"/><polygon class="cls-1" points="858.33 562.89 848.36 565.96 841.66 550.45 826.53 553.13 819.62 542.35 814.16 545.85 823.4 560.26 837.74 557.73 844.71 573.86 859.72 569.25 858.33 562.89"/><path class="cls-2" d="M638.06,277.13h-.23a3.76,3.76,0,0,1-3.26-2.3h0l-9.19-21.74-23.12-4.75a3.78,3.78,0,0,1-1.71-6.56l17.84-15.46-2.63-23.46a3.78,3.78,0,0,1,5.71-3.66l20.22,12.19,21.5-9.75a3.78,3.78,0,0,1,5.24,4.3l-5.34,23L679,246.35a3.78,3.78,0,0,1-2.47,6.31l-23.52,2-11.66,20.52A3.76,3.76,0,0,1,638.06,277.13Zm-2.57-2.7a2.78,2.78,0,0,0,5,.29l11.92-21,24-2.07a2.78,2.78,0,0,0,1.82-4.64L662,229.2l5.46-23.51a2.78,2.78,0,0,0-3.86-3.16l-22,10-.23-.13L620.94,200a2.78,2.78,0,0,0-4.2,2.69l2.69,24-18.23,15.81a2.78,2.78,0,0,0,1.26,4.82l23.64,4.86,9.4,22.23Z"/><polygon class="cls-3" points="829.27 144.41 825.45 159.8 800.01 156.39 791.65 178.2 772.19 178.76 772.47 188.61 798.5 187.87 806.42 167.19 832.89 170.74 838.64 147.58 829.27 144.41"/><path class="cls-4" d="M668.31,333.29l20.33-5.35L674.85,511.7l-24.39.81L662.77,340A7.45,7.45,0,0,1,668.31,333.29Z"/><path class="cls-4" d="M676.68,516.94a6.64,6.64,0,0,1-1.39,0c-4-.48-7-4.49-6.67-9l13.53-172.79c.35-4.48,3.9-7.72,7.95-7.24s7,4.49,6.67,9L683.23,509.68A7.59,7.59,0,0,1,676.68,516.94Z"/><path class="cls-4" d="M489.59,526.15c0,.13,0,.25,0,.38h0c.64,7,6.08,12.29,12.17,11.74l171.68-15.36c6.08-.54,10.5-6.68,9.86-13.71,0-.3-.07-.59-.11-.88Z"/><path class="cls-5" d="M609.13,711.75c-11.24,6.23-45.6-4.7-45.6-5.68-.49,9.39-38.48,101.31-38.48,101.31l0,28.28s78.27,3.73,77.14-3.18-5.33-2.42-20.95-15.48c-1.39-1.16-23.31-6.25-17.37-19.22C575.85,771.63,601.22,728.06,609.13,711.75Z"/><path class="cls-1" d="M522.51,836.66l85.67,0c3.09-.32,3.81-2.83,2.72-4.36-2.25-3.15-18.67-10.58-29.7-15.5-19.23,2.25-53-5.15-56.11-9.53C517,818.2,520.79,836.31,522.51,836.66Z"/><path class="cls-6" d="M503.72,645.76c-1.16-3.48,73.76-35.27,77.12-31.64,5.93,6.43-40.54,127-40.54,127l53.39,16.31s55.5-139.35,53.19-164.84-30.12-54.45-90.37-35.91S503.72,645.76,503.72,645.76Z"/><path class="cls-5" d="M658.84,727.6c-12.65-2.3-29-3-42.16-3.19,1.55,11.68,9.06,71.6,7.68,75.28a45,45,0,0,1-17.9,21.89s58.18,52.49,61.69,46.43-2.59-5.25-6.39-25.25c-.34-1.78-8.75-29.69-9.27-44.75C651.49,769.3,658.41,743.55,658.84,727.6Z"/><path class="cls-6" d="M640.17,531.6c-8.12-4.33-29.19-4.48-52.35-3a531.57,531.57,0,0,0-132.72,26l-28.75,9.52.09-29.48s-91.46-15.3-94.65,7.37C327,576.22,333,645.52,363.43,661c94.66,48,227.31-76.55,227.79-60.24.64,21.89,19.1,103.36,23.82,139,13.12.23,35.67.22,45.45-2C662.38,667.87,663.28,543.92,640.17,531.6Z"/><path class="cls-1" d="M604.69,822.82l65.4,52.24c2.59,1.72,4.74.23,4.87-1.65.26-3.86-7.74-20-13.15-30.82-16.3-10.45-37.78-37.69-37.4-43C617.51,805.37,603.58,821.45,604.69,822.82Z"/><path class="cls-3" d="M456.67,246.67c-2.2-20.08-4.51-40.24-21.16-55C422,179.8,404.91,177.79,388,184.16c-48,18.06-23.26,60.67-84.45,103.64-19,13.35-40,22.49-54.28,40.47-20,25.17-12.47,55.44,5.79,75.65C342.4,500.62,440,370,447,338.67,452.17,315.35,458.08,259.6,456.67,246.67Z"/><path class="cls-6" d="M438.92,359.59A266.75,266.75,0,0,0,424.43,336c-7.4-13.16-26.53-19.82-26.53-19.82s-6.4.13-13.74.49a5.82,5.82,0,0,1-1.39,2.44c-2.76,2.07-18.58-.6-28.8,6.34-34.25,29.36-24.78,171.68-22.09,216.64l104.32,1s-13.15-96.72,8-121.57C459,404.19,449.51,379.11,438.92,359.59Z"/><path class="cls-5" d="M391.9,268s-5.73,41-9.74,50.9,22,31.24,43.68,37.7-6.62-22-5.72-32.62S425,263,425,263Z"/><path class="cls-5" d="M402.26,193.23a37.54,37.54,0,0,0-21.07,15.21c-8,12.28-13.56,48.41,12.93,65.28s47.1-7,47.44-30.26S436.92,189.12,402.26,193.23Z"/><ellipse class="cls-5" cx="441.7" cy="233.79" rx="10.96" ry="6.39" transform="translate(59.9 556.25) rotate(-68.08)"/><path class="cls-3" d="M406.17,192.46S389.57,229.72,375,233s-14.38,22.07-14.38,22.07.33-43.29,14-53.22S406.17,192.46,406.17,192.46Z"/><ellipse class="cls-5" cx="373.37" cy="243.14" rx="7.77" ry="11.49" transform="translate(-56.07 124.39) rotate(-17.62)"/><path class="cls-5" d="M567.37,509.73c-6.26-2.26-15.58-2.54-15.42-3.37.63-3.35,28.28,7.38,24.54,2.5-2.08-2.72-22.77-12.34-27.8-10.75-4.88,1.54-36.93,10.54-36.93,10.54l-87.58-20.53s-22.11-50.24-24.27-93.4c-18.27,2.47-30.72,7-46.6,15.8,7.66,41.27,26.28,108.18,46.86,120.73,8.66,5.28,112-6.32,112-6.32s22.78-1.61,26.5-3c2.82-1.09,10.09-5.18,14-6.3,9-2.54,25,3.84,25,2.08C577.83,516.4,573.76,512,567.37,509.73Z"/><path class="cls-6" d="M400.44,348.6c-.84-13.28-5.87-26.1-20-30.23-8.76-2.56-18.58-.11-25.58,5.61-8.33,6.8-10.65,17.71-10.61,28,.09,23.44,1.69,47.75,6,70.83,15.88-8.82,34.42-14.11,52.7-16.58C402.9,406.12,401.56,366.15,400.44,348.6Z"/><polygon class="cls-7" points="634.98 144.26 611.73 150.61 606.72 122.43 614.33 121.08 617.86 140.93 632.94 136.81 634.98 144.26"/><path class="cls-6" d="M304.64,93.06,158.72,145.11a9,9,0,0,1-11.55-5.48l-26.93-75.5a9,9,0,0,1,5.48-11.55L271.63.53A9,9,0,0,1,283.18,6l26.93,75.5A9,9,0,0,1,304.64,93.06Z"/><circle class="cls-8" cx="180.68" cy="83.37" r="28.92" transform="translate(-17.51 65.55) rotate(-19.63)"/><circle class="cls-6" cx="176.8" cy="72.47" r="8.53" transform="translate(-14.07 63.61) rotate(-19.63)"/><path class="cls-6" d="M198.72,93.39l-25.67,9.16-1-2.88a10.1,10.1,0,0,1,6.12-12.91l6.63-2.37a10.1,10.1,0,0,1,12.91,6.12Z"/><path class="cls-8" d="M211.52,57.87a3.69,3.69,0,0,1-1.24-7.16L274.06,28a3.69,3.69,0,0,1,2.48,6.95L212.76,57.66A3.67,3.67,0,0,1,211.52,57.87Z"/><path class="cls-8" d="M228.74,73.77a3.69,3.69,0,0,1-1.24-7.16l49.82-17.77a3.69,3.69,0,1,1,2.48,6.95L230,73.56A3.68,3.68,0,0,1,228.74,73.77Z"/><path class="cls-3" d="M531.36,662.56H179a19.81,19.81,0,0,0-19.81,19.81V699A19.81,19.81,0,0,0,179,718.85H531.36l-.18-.19A40.34,40.34,0,0,1,531.36,662.56Z"/><path class="cls-3" d="M525.12,670.89H336.77A19.81,19.81,0,0,0,317,690.71h0a19.81,19.81,0,0,0,19.81,19.81H525.12A40.4,40.4,0,0,1,525.12,670.89Z"/><path class="cls-6" d="M27.18,440.79l-26.71-67a6.57,6.57,0,0,1,3.67-8.54l96.11-38.31a6.57,6.57,0,0,1,8.54,3.67l26.71,67a6.57,6.57,0,0,1-3.67,8.54l-96.1,38.31A6.57,6.57,0,0,1,27.18,440.79Z"/><path class="cls-8" d="M117.84,402l-24-60.21a1.89,1.89,0,0,1,1.05-2.45h0a1.89,1.89,0,0,1,2.45,1.05l24,60.21a1.88,1.88,0,0,1-1.05,2.45h0A1.88,1.88,0,0,1,117.84,402Z"/><path class="cls-8" d="M106.4,394.11,86.7,344.68a1.89,1.89,0,0,1,1.05-2.45h0a1.89,1.89,0,0,1,2.45,1.05l19.7,49.44a1.88,1.88,0,0,1-1.05,2.45h0A1.89,1.89,0,0,1,106.4,394.11Z"/><path class="cls-8" d="M103.56,407.74l-24-60.21a1.89,1.89,0,0,1,1.05-2.45h0a1.89,1.89,0,0,1,2.45,1.05l24,60.21a1.88,1.88,0,0,1-1.05,2.45h0A1.89,1.89,0,0,1,103.56,407.74Z"/><path class="cls-8" d="M90.94,396.84,72.42,350.37a1.88,1.88,0,0,1,1.05-2.45h0A1.89,1.89,0,0,1,75.92,349l18.52,46.47a1.89,1.89,0,0,1-1.05,2.45h0A1.89,1.89,0,0,1,90.94,396.84Z"/><path class="cls-9" d="M117.19,335.41l-.48-1.21a.85.85,0,0,0-1.08-.51l-9.12,3.64a.84.84,0,0,0-.44,1.11l.48,1.21a.85.85,0,0,0,1.08.51l9.12-3.64A.84.84,0,0,0,117.19,335.41Z"/><path class="cls-9" d="M119.26,340.6l-.48-1.21a.85.85,0,0,0-1.08-.51l-9.12,3.64a.84.84,0,0,0-.44,1.11l.48,1.21a.84.84,0,0,0,1.08.5l9.12-3.63A.85.85,0,0,0,119.26,340.6Z"/><path class="cls-9" d="M121.32,345.78l-.48-1.21a.84.84,0,0,0-1.08-.51l-9.12,3.64a.84.84,0,0,0-.44,1.11l.48,1.21a.85.85,0,0,0,1.08.51l9.12-3.64A.84.84,0,0,0,121.32,345.78Z"/><path class="cls-9" d="M123.39,351l-.48-1.21a.85.85,0,0,0-1.08-.51l-9.12,3.64a.85.85,0,0,0-.44,1.11l.48,1.21a.84.84,0,0,0,1.08.5l9.12-3.63A.85.85,0,0,0,123.39,351Z"/><path class="cls-9" d="M125.46,356.16l-.48-1.21a.85.85,0,0,0-1.08-.51l-9.12,3.64a.85.85,0,0,0-.44,1.11l.48,1.21a.85.85,0,0,0,1.08.51l9.12-3.64A.85.85,0,0,0,125.46,356.16Z"/><path class="cls-9" d="M127.53,361.34l-.48-1.21a.85.85,0,0,0-1.08-.51l-9.12,3.64a.85.85,0,0,0-.44,1.11l.48,1.21a.84.84,0,0,0,1.08.51l9.12-3.63A.85.85,0,0,0,127.53,361.34Z"/><path class="cls-9" d="M129.59,366.53l-.48-1.21a.84.84,0,0,0-1.08-.51l-9.12,3.64a.85.85,0,0,0-.44,1.11l.48,1.21a.84.84,0,0,0,1.08.51l9.12-3.64A.85.85,0,0,0,129.59,366.53Z"/><path class="cls-9" d="M131.66,371.72l-.48-1.21a.84.84,0,0,0-1.08-.51L121,373.63a.85.85,0,0,0-.44,1.11L121,376a.84.84,0,0,0,1.08.51l9.12-3.63A.85.85,0,0,0,131.66,371.72Z"/><path class="cls-9" d="M133.73,376.9l-.48-1.21a.84.84,0,0,0-1.08-.51L123,378.82a.85.85,0,0,0-.44,1.11l.48,1.21a.85.85,0,0,0,1.08.51l9.12-3.64A.85.85,0,0,0,133.73,376.9Z"/><path class="cls-9" d="M135.79,382.09l-.48-1.21a.85.85,0,0,0-1.08-.51L125.11,384a.85.85,0,0,0-.44,1.11l.48,1.21a.85.85,0,0,0,1.08.51l9.12-3.63A.85.85,0,0,0,135.79,382.09Z"/><path class="cls-9" d="M137.86,387.27l-.48-1.21a.84.84,0,0,0-1.08-.5l-9.12,3.64a.85.85,0,0,0-.44,1.11l.48,1.21a.85.85,0,0,0,1.08.51l9.12-3.64A.85.85,0,0,0,137.86,387.27Z"/><path class="cls-9" d="M139.93,392.46l-.48-1.21a.85.85,0,0,0-1.08-.51l-9.12,3.64a.84.84,0,0,0-.44,1.11l.48,1.21a.84.84,0,0,0,1.08.51l9.12-3.64A.84.84,0,0,0,139.93,392.46Z"/><path class="cls-3" d="M165.13,387.12,127,441.44a1.49,1.49,0,0,0-.2.4l-3.89,11.93a1.49,1.49,0,0,0,2.32,1.66l10.21-7.69a1.48,1.48,0,0,0,.32-.33L174,392.94a1.49,1.49,0,0,0-.42-2.12l-6.42-4.1A1.49,1.49,0,0,0,165.13,387.12Z"/><path class="cls-10" d="M135.71,447.45l-.09.13L125.77,455l-2.69-1.8,3.69-11.31C129.65,443.48,133.11,445.1,135.71,447.45Z"/><path class="cls-1" d="M442.49,31.78c5.49,4.38,15,18.48,27.23,28.38,7.13,5.79,12.62,4.32,21.72,5.42,43.17,5.22,31.47,14,36.65,14.91-1.47,3.38-14.92,32-17.43,37.75-2.32,5.33-6.33,7.72-12.13,6.91-8.93-1.23-17.94-2.15-26.73-4.06-22.53-4.89-35.07-16.16-51.22-29.84-4.28-3.63-5.34-8.16-3.12-13.29C427.79,54.08,441.36,34,442.49,31.78Z"/><path class="cls-1" d="M532.76,114.88c-.19,9.41.53,11.3-3.51,9.87a56.8,56.8,0,0,1-7.09-3.16c-1.62-.84-1.68-1.94-.37-3.26,1.92-1.92,3.88-3.8,5.8-5.67a8.33,8.33,0,0,1,3.66-10c.7-.41.19.46,6.2-13.37-19.88-2.45-33.91-4.1-58.17-7.08A32.62,32.62,0,0,1,462,74.68q-26-21.74-52-43.5a4.79,4.79,0,0,1-.78-7.07c1.43-1.7,3.32-1.78,5.35-1.52,5.54.69,59.81,7.44,65.32,8.08a35.69,35.69,0,0,1,19.22,8.26q25.53,21.38,51.13,42.68c2.34,2,3,3.74,2.15,5.91-.9,2.39-2.87,3.52-5.85,2.88-2.15-.46-3.1.18-3.84,2.18-3.34,9-5.67,11-4.87,14.28C538.5,109.39,535.49,113.78,532.76,114.88Z"/><path class="cls-11" d="M712.45,573.29l9.89,9.43a262.92,262.92,0,0,1,56.28,78l1.52,3.21s25.9,2.29,29.52-21.13h0a391.43,391.43,0,0,1-56.87-83.52l-4.68-11Z"/><path class="cls-1" d="M748.08,548.29c1.27,1.82-5.68,8.87-15.52,15.73s-18.89,11-20.17,9.21,5.72-8.95,15.56-15.81S746.81,546.46,748.08,548.29Z"/><path class="cls-11" d="M748.12,548.35l0,0S728.37,565,720.25,566.71l2.51,3.42a104.14,104.14,0,0,0,9.81-6.11C742.29,557.23,749.19,550.27,748.12,548.35Z"/><path class="cls-6" d="M774.46,596.81c0,2.88-1.06,15.29-21.72,20.48q2,2.78,4,5.6c13.08-3.87,19-10.58,21.6-15.69.42-.81.92-1.89,1.26-2.73Q777,600.67,774.46,596.81Z"/><polygon class="cls-6" points="754.59 613.61 724.19 612.53 731.39 618.64 727.09 626.46 755.87 619.12 754.59 613.61"/><polygon class="cls-6" points="757.36 620.68 746.56 639.5 754.16 636.61 757.08 642.59 762.16 622.79 757.36 620.68"/><ellipse class="cls-6" cx="760.78" cy="615.83" rx="9.69" ry="9.99" transform="translate(-41.57 55.23) rotate(-4.05)"/><path class="cls-1" d="M818.2,332.55l-64-57.14c-4.16-3.71-2.43-11.35,3.31-14.6l51.1-28.94c3.27-1.85,7-1.68,9.33.44l64,57.14c4.16,3.71,2.43,11.35-3.31,14.6L827.53,333C824.26,334.84,820.58,334.67,818.2,332.55Z"/><path class="cls-8" d="M815.17,287.1l-5.34-43.9a3.94,3.94,0,0,1,2.73-4,2.54,2.54,0,0,1,3.47,2.08l4.91,40.4,48.55,11.74c1.58.38,2.31,2.09,1.63,3.81a3.76,3.76,0,0,1-4.11,2.42Z"/><polygon class="cls-7" points="25.99 123.73 32.61 136.82 47.56 136.34 53.94 151.54 69.71 146.11 77.68 162.99 92.82 159.78 103.14 174.76 97.47 178.67 89.75 167.47 73.78 170.85 66.12 154.63 50.08 160.15 43.04 143.37 28.44 143.85 22.31 131.71 12.78 134.03 11.16 127.33 25.99 123.73"/><polygon class="cls-7" points="826.76 458.66 840.35 464.18 851.3 454 866.1 461.27 874.42 446.82 891.52 454.3 900.82 441.94 918.45 446.45 916.74 453.12 903.56 449.75 893.75 462.79 877.31 455.6 868.85 470.29 852.52 462.27 841.82 472.22 829.23 467.1 823.57 475.1 817.94 471.12 826.76 458.66"/></g></g></svg>