<svg xmlns="http://www.w3.org/2000/svg" viewBox="0 0 837.48 709.78"><defs><style>.cls-1{fill:#f7d4b2;}.cls-2{fill:#f7764c;}.cls-3{fill:#999;}.cls-4{fill:#ccc;}.cls-5{fill:#f88763;}.cls-6{fill:#65ad59;}</style></defs><title>Asset 1</title><g id="Layer_2" data-name="Layer 2"><g id="Layer_1-2" data-name="Layer 1"><path class="cls-1" d="M598,437.15c7.14,1.16,6.72,2.32,7.64,2.45,1.09.15,14-6.33,14-6.33s38.13-18.82,40.15-19.91l27.52-34.62,21.21,9.78s-31,36.81-32.91,38.43S619,447.75,614.23,449.59c0,0-4.79,4.38-7.89,7s-7.25,3.69-8.24,4.3a34.66,34.66,0,0,1-8.4,2.95c-4.17.91-.69-1.92-.69-1.92s7.37-3.11,7-3.67-4.2,1.51-8.8,2.56l-3.42.77c-2.82.61-4.06-1-1.23-2.13a27.56,27.56,0,0,1,3.95-1.28,22.77,22.77,0,0,0,3.62-1.42,29.83,29.83,0,0,0,3.72-1.49c-.11-.1.2-.58-1.07-.34-1.52.3-4.59,1.67-6.86,1.92-1.29.15-4,.62-4,.62s-4.73.45-4.76-.21c-.07-1.45,2.84-2.26,4.63-2.22a18.61,18.61,0,0,1,4-1s5.49-2.17,5.17-3c-.13-.32-3.45.17-7,.42-3.73.26-6.42.25-6.62-.47-.31-1.15,2.65-1.58,2.65-1.58s2.61-.38,3.47-.58,3.95-1.15,3.95-1.15,10.09-3.71,9.73-4.45-2-2.3-2.74-2.3-2,.71-2.7.72-2.24-.13-2.35-1,3.84-2.75,3.84-2.75A11.19,11.19,0,0,1,598,437.15Z"/><path class="cls-2" d="M668.16,400.18s6.87,6.24,9.72,8.29c2.37,1.71,13.94,7.28,13.94,7.28s11.51-17.62,16.54-26.46c6.11-10.72,10.33-26.67,8.89-27.1-4.05-1.21-9.62-2-14.77.41C684.68,370.77,668.16,400.18,668.16,400.18Z"/><path class="cls-1" d="M622.13,488.2c-3.06.48-6.18-.1-7.53-2.9C614.29,488.62,619.32,490.26,622.13,488.2Z"/><path class="cls-3" d="M591.51,610c-1.37,0-2.73,0-4.11-.1l-201-9.4L390.52,512a24.16,24.16,0,0,0-9.71-20.5,23.11,23.11,0,0,0-21.73-3.42,18.58,18.58,0,0,0-2.1.86,38.87,38.87,0,0,1-43.9-63,38.88,38.88,0,0,1,47.55-4.77,16.94,16.94,0,0,0,2,1.07A22.66,22.66,0,0,0,384.22,421a23.7,23.7,0,0,0,11.45-19.2l4.17-89.2,89.2,4.17a27.19,27.19,0,0,1,22,13.13,26.11,26.11,0,0,1,1.41,24.9,21.42,21.42,0,0,1-1.27,2.35,35.33,35.33,0,0,0-5.41,17.2h0a35.38,35.38,0,0,0,35.39,37h0a35.38,35.38,0,0,0,31.59-51.19,21.88,21.88,0,0,1-1-2.46,26.29,26.29,0,0,1,3.81-24.78,27.31,27.31,0,0,1,23.27-11L687.73,326l-9.4,201A87.07,87.07,0,0,1,591.51,610ZM390,597.14l197.54,9.24a83.47,83.47,0,0,0,87.28-79.48l9.24-197.54-85.43-4a23.88,23.88,0,0,0-20.3,9.64A22.85,22.85,0,0,0,575,356.54a17.27,17.27,0,0,0,.87,2.06,38.87,38.87,0,0,1-34.7,56.25h0a38.87,38.87,0,0,1-32.93-59.58,17.38,17.38,0,0,0,1.06-2,22.66,22.66,0,0,0-1.23-21.62,23.7,23.7,0,0,0-19.2-11.45l-85.72-4-4,85.72A27.19,27.19,0,0,1,386,424a26.11,26.11,0,0,1-24.9,1.41,21,21,0,0,1-2.36-1.28,35.38,35.38,0,1,0-3.32,61.73,22.43,22.43,0,0,1,2.49-1,26.55,26.55,0,0,1,25,3.93A27.64,27.64,0,0,1,394,512.17Z"/><path class="cls-3" d="M82.2,302.31l-10.11-201a87.05,87.05,0,0,1,82.48-91.21L355.57,0,360,88.43a24.15,24.15,0,0,0,11.64,19.46,23.13,23.13,0,0,0,22,1.31,19,19,0,0,0,2-1.07A38.87,38.87,0,1,1,398.55,176a17.53,17.53,0,0,0-2.06-.87,22.68,22.68,0,0,0-21.4,3.32,23.7,23.7,0,0,0-9.54,20.22L370,287.83l-89.19,4.49a27.3,27.3,0,0,1-23.19-10.94,26.1,26.1,0,0,1-3.81-24.65,21.26,21.26,0,0,1,1-2.46,35.38,35.38,0,1,0-61.59,2.93,21.61,21.61,0,0,1,1.27,2.36,26.28,26.28,0,0,1-1.39,25,27.37,27.37,0,0,1-22.09,13.25ZM352.26,3.66,154.75,13.59a83.56,83.56,0,0,0-79.17,87.55l9.93,197.51,85.41-4.29a23.88,23.88,0,0,0,19.28-11.57A22.85,22.85,0,0,0,191.42,261a18,18,0,0,0-1.07-2,38.87,38.87,0,1,1,71.74-22.61h0A38.85,38.85,0,0,1,258,255.84a17.35,17.35,0,0,0-.87,2.06,22.66,22.66,0,0,0,3.32,21.4,23.66,23.66,0,0,0,20.22,9.54l85.7-4.31-4.31-85.7A27.19,27.19,0,0,1,373,175.64a26.11,26.11,0,0,1,24.65-3.81,21.79,21.79,0,0,1,2.46,1,35.38,35.38,0,1,0,15.89-67h-.79a35.34,35.34,0,0,0-17.77,5.23,22.34,22.34,0,0,1-2.38,1.27,26.57,26.57,0,0,1-25.23-1.49,27.64,27.64,0,0,1-13.32-22.27Z"/><path class="cls-1" d="M776.65,672s.75,13.38.76,13.41c.28,1.7,1.37,5.9,1.37,7.44,0,5.8-25.74-4.92-20-7.5.52-.23,3.26-2,3.43-4,.26-3,.94-9.2.94-9.2Z"/><path class="cls-1" d="M758.56,685.43a92.42,92.42,0,0,0,9.14,2.22c3.1.44,7.18-3.29,9.37-2.28,2.41,1.11,2.32,11.11,2.32,11.11s-32.41,2.85-41.52-.1C734.25,695.21,746.21,689.57,758.56,685.43Z"/><path class="cls-1" d="M819.51,671.33s.76,13.38.76,13.41c.28,1.7,1.37,5.9,1.37,7.44,0,5.8-25.74-4.93-20-7.5.52-.23,4.07-3.31,4.24-5.28.26-3,.12-7.88.12-7.88Z"/><path class="cls-1" d="M801.74,684.63a92.58,92.58,0,0,0,9.14,2.22c3.09.44,7.18-3.29,9.36-2.28,2.41,1.11,2.51,11.11,2.51,11.11s-32.18,1.32-41.71-.1C777.28,695,789.38,688.76,801.74,684.63Z"/><path class="cls-4" d="M816.39,455.31s4.4,22.76,2.61,40-1.93,78.57-1.93,78.57L825.33,672l-17.66.41s-19.25-98-18.89-95.53-6.45-69-6.45-69l22.95-54.65Z"/><path class="cls-4" d="M810.23,440.61s19.93,21,12.52,43.92c-3,9.21-30.75,97.19-31.11,104.38s-9.39,86.68-9.39,86.68L763.37,675l-4.08-88.37,5.39-119.07,11.46-20.08Z"/><path class="cls-2" d="M689.24,372.28C695.76,365,710,354.64,710,354.64s8.46-7.23,11.91-8.42c5.08-1.75,13.77-6.42,26.35,12.64,9,13.64,65.8,84.28,75.12,86.65l-60.88,29.13c-1.67-13.91-31.76-40.2-36.09-45.1C716.7,418.59,683.06,379.18,689.24,372.28Z"/><path class="cls-1" d="M692.08,342.69l19,11.1s.53,16.19-5.67,20.39c-5.2,3.53-9.16-4.94-9.16-4.94s-7.05-9.77-12.41-12.82S692.08,342.69,692.08,342.69Z"/><path class="cls-1" d="M682.2,314.86c.32-.39,15.91,19,14,28.12s-11.35,17.41-17.9,15.13c-7.25-2.53-20.72-25.37-15.89-36.47S682.2,314.86,682.2,314.86Z"/><path class="cls-2" d="M665.13,308.74c6.8-3.78,17.88-4.87,26.17-.53,10.18,5.33,12.5,18.75,9.32,26.93s.46,12.81.46,12.81l-5.4-3.16s-3.16-4.93-3.57-8.85-6.14-3.23-8.93-5c-2.15-1.37-4.9-5.83-8.38-8.14,0,0-8.77-1.08-13.08,1.34C654.35,328.27,655.39,314.16,665.13,308.74Z"/><ellipse class="cls-1" cx="690.71" cy="334.26" rx="5.27" ry="3.17" transform="translate(345.14 1019.39) rotate(-89.06)"/><path class="cls-1" d="M650.85,472.44c2.07-3,3-7.38,5.83-10.7a25.48,25.48,0,0,1,4.23-3.63c13.75-8,49.58-28.79,51-30.4,1.65-1.91,26.1-42.53,26.1-42.53l-22-5-21.46,37.89c-1.79,1.42-35.86,26.6-35.86,26.6s-6.77,5.29-10.48,7.77a29.39,29.39,0,0,1-5.27,2.35,33.54,33.54,0,0,0-6.58,3.27c-.89.79-2.69,2.47-3.75,3.5s-2.36,2.19-2.85,2.8a7.54,7.54,0,0,1-1.94,1.23A1.27,1.27,0,0,0,628,468c1,.29,2.45-.36,3.33-.77,2.47-1.16,5.48-4.29,5.64-3.9s-2.9,7.09-3.2,7.88-3.81,8.6-4,10.34.87,2.14,1.65,1.51,6.32-11,6.32-11,.72-1.33,1-.57-4.83,10.24-5.33,11.8-.1,2.83,1.34,2.29c1.75-.66,6.58-11.12,6.58-11.12s.63-1.3,1.06-.85-4.05,8.45-4.1,9.37a1.2,1.2,0,0,0,2,1.06c1.42-.91,5.66-10.28,5.66-10.28s.52-.62.69-.18-3.17,7.52-2.92,8.56a.83.83,0,0,0,1,.7C646.49,482.8,648.78,475.46,650.85,472.44Z"/><path class="cls-2" d="M732,406.63s-7.15-2.28-11.74-4.38c-3.07-1.41-16.47-8.07-16.47-8.07s5.78-24.37,9.68-33.13c14.33-32.16,30.62-10,32.83-4.81C751.21,367.8,732,406.63,732,406.63Z"/><path class="cls-5" d="M335.44,709.16c-.92.28-.36.77,2.21.46l1.77-1Z"/><path class="cls-5" d="M352.9,709.4c3-.66,6.45-1.67,4.43-2.3-2.95,1.06-3.7.78-6.86,2-2.58.3-4.52.08-4.11-.28-.9.29-4,.12-5.37.77a39.47,39.47,0,0,0,12.07-.8C354,708.92,353.1,709.22,352.9,709.4Z"/><path class="cls-5" d="M605.19,690.38l-1.63.1C604,690.48,604.57,690.45,605.19,690.38Z"/><path class="cls-5" d="M524,675.87a4.69,4.69,0,0,0,1.75-.17C524.67,675.74,523.76,675.79,524,675.87Z"/><path class="cls-5" d="M497.27,674.69l1.58.07A6.05,6.05,0,0,0,497.27,674.69Z"/><path class="cls-5" d="M605.19,690.38l4.2-.28C609.65,689.78,607.23,690.2,605.19,690.38Z"/><path class="cls-5" d="M387.52,704.59a20.7,20.7,0,0,0-2.25.41l2.12-.26A.72.72,0,0,1,387.52,704.59Z"/><path class="cls-5" d="M536.38,697.07l-1.27.1a8.69,8.69,0,0,0-1,.43Z"/><path class="cls-5" d="M483.52,701.35c1.2-.06,1.55-.83,2-1.18a7.57,7.57,0,0,1-2.57.71C482.93,701,483.1,701.17,483.52,701.35Z"/><path class="cls-5" d="M399.58,706.63l-1.48.22Z"/><path class="cls-5" d="M574.24,694.27a1,1,0,0,0,.51.22C574.73,694.4,574.54,694.33,574.24,694.27Z"/><path class="cls-5" d="M775.78,659.38c0,.05,0,.09,0,.13C776.09,659.44,776.18,659.38,775.78,659.38Z"/><path class="cls-5" d="M837.22,663.36l-.85,0a.84.84,0,0,0-.19.41Z"/><path class="cls-5" d="M448.28,673.5h.22C449.79,673.44,449.06,673.45,448.28,673.5Z"/><path class="cls-5" d="M6.83,662.93c0-.07-.66.1-.62,0s-.1-.1,0-.22c.44-.28.44-.55,1-.62,1.83-.23,3-.47-.49-.81.13.07-.11.15-.32.42a2.47,2.47,0,0,1-.48.43,4.49,4.49,0,0,0-.38.49c-.16.16,0,.22,0,.27l0,0-.1-.09.11.1c.35.26,0,.27.32.23a1.89,1.89,0,0,0,.37-.12A2.77,2.77,0,0,1,6.83,662.93Z"/><path class="cls-5" d="M388.9,704.58l2.17-.18C390.08,704.45,389.41,704.51,388.9,704.58Z"/><path class="cls-5" d="M6.73,661.32h0c-.18-.05-.34.07-.5.09C6.43,661.37,6.54,661.27,6.73,661.32Z"/><path class="cls-5" d="M335.44,673.8a4.76,4.76,0,0,0,1.15.32C336.55,674.05,336.29,674,335.44,673.8Z"/><path class="cls-5" d="M419.5,674.94l-2.08-.1C418.24,674.91,418.91,674.93,419.5,674.94Z"/><path class="cls-5" d="M291.79,674.69a18.94,18.94,0,0,0-3.06-.07l.47.09A9.51,9.51,0,0,1,291.79,674.69Z"/><path class="cls-5" d="M246.38,674.33l.84.16,1.44,0Z"/><path class="cls-5" d="M637.71,659a9.17,9.17,0,0,1,2.09.67C639.11,659.1,645.78,659,637.71,659Z"/><path class="cls-5" d="M387.58,705a2.62,2.62,0,0,1,1.32-.42l-1.5.16C387.27,704.86,387.25,705,387.58,705Z"/><path class="cls-5" d="M289.92,680.48l-7.22-.14C284.71,680.42,287.34,680.47,289.92,680.48Z"/><path class="cls-5" d="M311.79,657.24l1.66-.08A8.19,8.19,0,0,0,311.79,657.24Z"/><path class="cls-5" d="M261.26,680.26a32.09,32.09,0,0,0-4.06-.55,5,5,0,0,0-.84.18Z"/><path class="cls-5" d="M639.82,659.64h0Z"/><path class="cls-5" d="M687.37,658.16c-6.88-.06-3.24.93-4.7,1.47-8.21.23-3.79-.73-6.59-1.24-5.13.23-9.06,1.09-12.89,1-.28-.16-1-.22-.15-.42-5.42.74-16.09-.05-22.41.88a2.61,2.61,0,0,1-.82-.24c1,.49,1.17,1,1,1.33-3.08,0-5.72.58-6.88-.06a7.72,7.72,0,0,0,2.93-.42l-3.23.26c-2.9-.92,4.41-.29,4.42-1-6.3.26-13.65,1-18.47.69-1-.89,11.29-.24,4.85-1.06l7.47.38c-5.7-1.43,4.54.12-.7-1.4-9.83-.31-11,.39-20.8.08-2.21.48.73.73-1.49,1.22-13.94.81-11-2.29-21.21-1.17-2.66.58-3.69,1.69-11,1.06l2.49-1c-9.52-.15-5.44,1.41-15.4.68,1.77-.38,7.48-.29,6-.42-6.45-.83-4.57.54-9.53.52l-1-.89c-10.13.08-21.3.66-32.52.76.62-.26,2.55-.53-.08-.81-14.15.37-30.21-.28-43.86-.88l-5.22.74c-1.21,0-2.25-.36-.93-.5-5.32-.32-.28.49-2.84.77-3,0-4-.46-2.08-.68-9.39.6-26.75,1.25-36.64.37L437,658c-7.7-.35-8.7,1.52-15.84.77l1.37-.13c-16.71-.43-35.19.17-47.94-1.06-2.43,1.09-16.54-.59-17.63,1-9.54-.82-6.81-1.08-20.25-1.67-3.59-.09-5.36.93-9.8,1.07l-.1-.81-6,.81-3.2-1-4.16.18c1.66.06,3.52.38,3.27.61-6.51.33-15.85-.65-16-1.06l-15.39.6c.34-.32,2.92-.42,5-.61-8.22.78-1.49-.86-9-.15,1,.19-.55.48-.72.64-3.75-.51-12.29-.56-18.61-.39l1.22-.55c-11.41-.21-24.06.13-36.87,0,4.59.28,3.53,1.24-.22,1.31l-1.5-.86c-2.43.51,3.92.34-1.06,1-4.78-.13-3.21-1-.46-1.25l-5.82.26c-.34-.26,1-.38,1.38-.7-2.39.52-10-.91-13.48,0l-.33-.26c-12.8-.08-18.61.18-29,.17-.21.73-4.29.55-7.4,1.13-7.66-.28-16.17-.9-25.4-.89-6.49.33-1.9.61-4.82,1-.47-.67-9.7-.66-4.91-1.12-11.09.08-14.15,0-28.19.65,1.52.26,3.23.37,2.35.61-2.55.13-5.79-.24-5.43-.57l.67-.07c-15.74,1.11-36.36-1.71-48.89-.24l.7-.07-13,.81c-6-.08,3.58-.53-.86-.91-14.05,1.21-22.07,0-33.81.8-.4,0-1-.26-1.43,0l-1.47.47a6.21,6.21,0,0,0-3.2,2.3,4.22,4.22,0,0,0,.21,4.84,6.68,6.68,0,0,0,2,1.76A16.4,16.4,0,0,0,6,667.72a60.35,60.35,0,0,0,12.27,2.05c8.32.62,17,1.18,23,2.34l-.66-.53c3.15-.18,3.74.6,6,.91-.3-.39-3.34-.72-1.39-.8,13.2.9,26.81,1.78,40.49,3.07,13.69,1,27.47,2.15,41,3,9.9.48,5.72-2.2,18.16-.64l-3.58.73c20-.21,40.88,1.27,60.47.88a10,10,0,0,1-3.12.39c4.12.73,15.29.28,15.36-.22,3,.11.7.47,2.57.76,4.14.44,10.42-.64,12.61,0,.37.11-1.17.19-1.93.22,2.71-.26,12.59.28,10-.49,7.34.45,14.05-.18,19.91.31,3.83-.77,12.57.5,13.79-.63-.54,1.18,12.87,1.07,17.51.52-1.56.35,4,.39,2.21.88,5.3,0,10.16-.19,9.23-.8,9.76,1.45,19.62-1,25.11.77,15.74-.61,30.3-1,44.46-1.28-.51,1.18-15.65.1-15,1.34,13.43-.46,21.18-1.48,34.49-1.19,3.45.16-2,.51-3.12.71,13.42-.48,25.94.13,37.87-.5a11.52,11.52,0,0,1-2.54.32c2.35,0,5.47.18,5.21-.36l-2.29.14c-3.75-.78,9.34-1.61,9.77-2-4,1.53,11.79.4,5.44,2.33,1.55-.1,3.49-.35,3.14-.71,2.3.11,3,.32.69.72,8.43-.26,5.43-.84,13.07-.8,0,.26-1.57.35-2.36.66a76.44,76.44,0,0,1,14.2-.74c-.39.15.36.36-1.57.35,11.08,0,18.89-1.29,31-.68-3.59,1.1,4.13.41,4.77,1.39l6.54-.24-2.62-.5c5.72.06,10.79-.6,15.71-.24l-4.26.37,10.73-.07-6.07-.44c5.8-.45-.61-1.25,7-.88-1.55.08,5.73.1,8.7.71h0a54.22,54.22,0,0,1,10-.25c1.09.33-.9,1.07-.19,1.28,2.81-.77,13.41,0,17-.85-1.18.19-1.25.7-.87.81l2.36-.62c2.65.27,3,.39,2.59.78,8,.31-2.51-1.3,6.94-.54-.74,0-.39.14-1.94.21,9.5.5,18.37,0,27.1.53,2.55,1-7.64.06-4.71,1,12.59.08,26.1-.34,38.27.27l-2.27-.19c1.25-1,5.39,0,9.92.41l-.77-2.37c-1.31.77-2.82,1.52-4.35,2.23,1.35-.59,1.42-1.42,1.16-1.11-7.39,2.69-16,4.75-28.36,7l1.5-.57c-4.89.39-12.83,1.48-18.12,1.85-1.53.52-4.55.75-2.67,1.09-16.48-.52-31.06,3.59-45.69,3.09,1.73-.14,4.1-.63,2.72-.53l-12.32,1.29c1,.53,1.65.24,4.28.5a46,46,0,0,1-8.05,1.27c5.52-.83-.13-1-2.56-1.11.42.15-.39.42-.17.59-6.54-.57-1,1.3-9.85,1.26l.44-.35c-3.28.42-6.28,1.08-9.85,1.26-1.53-.58,3.48-.6,3.66-1.19-5,.43-9.74,2.09-14.32,1.75,2.1-.36,5.15-.6,7.26-1a47.8,47.8,0,0,0-9.21,0h.36l-8.48.29L491,697c-6.1,2.31-12.69,1.33-21,3.18,8.09-1.77,1.3-.76,1.86-1.6-2.17-.05-5.45,0-4.54-.34-3.93.95-6.68,0-12.22,1.39-.27-.23-4.26.31-3.41-.4-5.16.61,1.26.35.85.7-7.9,1.49-18.81.41-30.19,2.51-9.85,1.27-11.61,2.27-20.76,3.41-3.13-.16,2.47-1.12,2.47-1.12a91.16,91.16,0,0,0-13.46,1c.94-.3-.06-.41-1.51-.58-3.77.36-2.46,1.12-7.47,1.14a19.75,19.75,0,0,1,3.7-1.32l-13.39,2c-1.25-.35,2.73-.89,4.34-1.31-5.17.61-13.39,1.45-14.94,2.28h3.34c-1.89.18-1-.53.37-.76,4.4-.9,6.42-.26,6.69,0l-3.27.42c3.47,1.23,13.17-1.27,19.78-1.7l-2.68,1.3,6.71-1.43c1.46.17,2.49.7-.76,1.12,4.78.16,4.17-.71,8.28-.44.46.06.26.13-.16.2l4.61-.69c-.89.3.83.71-2,.77,8.35,0,13.34-1.86,16.53-1.29l-.69.12c11.5-1.27,1.06-.88,9.63-2.5l6,1.51,1.07-.88c1.19-.06,3.55-.19,3.14.16,4.38-.89-.78-.29,1.75-1,5.78.28,15.76-1.58,17.14-.41,2-.77-5.51,0,.57-.94,1.85,1.23,7-.79,12.32-.57-1.55.83-6.53.85-1.25,1.06,3.06-1.44,10.2-.54,14.6-1.11.13-1,9.56-1.15,16.93-2-.44.36,14-.57,20.89-.77l-.19.17c1.25-1.06,8.37-1.44,13.53-2-.15.59-1.07.89-3.84,1.36l4.86-.39a27.08,27.08,0,0,1,5.77-1l-1.16.81c6.47-.55,13-1.86,21.33-2,.41-.7-6.79-1.34,2-2.47.36.33.74.93-1.55,1.25a25.54,25.54,0,0,1,4.2-.48l-3.46.88c3.81,0,1.94-.66,5-.84,0,.52,2.28.19,1.88.63a31.48,31.48,0,0,0-3.81.29,54.82,54.82,0,0,1,9,.09c-.32-.27-.06-.69,2.43-1,6.47-.54,2.27.45,6.07.41,1.53-.46,5.7-.51,5.74-1.27a6.91,6.91,0,0,1,3,.27c3.32-.63,15.63-1.85,11.76-2.22l-.86.05.54-.1h0c10.82-2.15,22.82-2.48,33.41-6.1l.06.25a26.37,26.37,0,0,0,6.53-3.32l2.61-2-3.29,0c-4.62-.07-9.17-.15-12.26.11-1.93-.07-4.53-.63-3.7-.91a84.65,84.65,0,0,1-12.74-.37c5-.28-1.72-.46,5.15-.16-6.47-.44-7.92-.91-14.9-.43,2.39-.61-4.85-.95-7.94-.82l4.53.58c-3.46,0-6.49-.11-9.56-.24l1.69-.83c-13.24-1.34-23.95,1.19-34-.7-3.52.56,7.19.53,4,1.2-6.09-.21-12.43-1.55-14.34-1.58-8.35-.6-7.81,1.16-16.55.7,1.11.33,2.16,1.17-4.38,1.37-6.1-.2-7.49-1.37-3.63-1.6,1.46,0,2.17.1,2.11.2,2-.08,4.56-.18,2.15-.55l-.8.3c-3-.37-11.42-.39-9.44-.88-4.61.26-2,.49,1.44.68-7.82-.51-12.23-.11-20.28-.48,1.28.18,2.46.56,1.18.54-11.81-.48-5.21.55-13.21.61-4.55-.51,1.64-1.13-6.42-.77-4.92-.34-1-.83.92-1.07-7.35.57-13.72-.45-17.91-.57l3.87-.23c-2.31.14-4.21.13-6.14.12l2.21.63c-2.27-.12-4.19-.13-4.15-.39-2.34.4,1.79,1-2.86,1.58-3-.33-9.22.3-10.26-.53,9.52.32-1-.83,7-.93a52.9,52.9,0,0,1-5.73,0c-.34-.09.32-.17.94-.21-9.11-.77-4.19.92-13.63.88,1.2-.46-2.19-.88-3.73-.79,3.81,0,1.82.78-1.67,1.13-6.05-.37-6.58.26-9.75.21l3.62.17c-1.23.46-4.25.4-8.47.54-.36-.36,3.83-.24,2.33-.4-4.69.81-10.59-.86-17.12-.32-3-.32-.29-.87-3-1.09-7.32.6-7.93-.64-15.63-.15,2.22.62,2.61.47-2.81,1.08l12.65-.43-8.12.9c3.82,0,8.06-.39,10.35-.28-3.87.51-3.47.35-1.64.87-5.22-.94-10.36.54-16.4-.1l.19-1.54c-9.08-.69-16.13.78-27.92.37l3.79.27c-1.58.61-7.28.07-11.1.32.36-.52-2-.71-3.66-1,.2.38-8.63,0-9.7,1l-5.26-.69c-9.52-.32-10.87,1.42-20,1.21,2.76-.55-1.4-.93,4.73-1.31-3.06,0-5.8-.13-5.85.23-1.78-.33-8.47.66-11.28.16a14.56,14.56,0,0,1-5.14.7c-.37-.11,0-.25,0-.25,0,.25-5.37.32-2.38.91-9.4-1.68-26.3-.12-34.48-1.58-6.67.13-14.7.15-20.75.09.39-.15,0-.26,1.17-.19-8.34-.61-5.15,1.4-14.65.71-4.84-.91,5.05-.37,2-.73-1.29-1.73-11.47.08-17.84-1.07l1.55-.06c-4.87-.7-11.93.35-19.91,0,0,0,.39-.14.05-.26-5.48.7-15.82.82-23.51.74,2.41-.58,3.5-.23,2.06-1-3.44,0,1,1.12-5.9,1.06-2.22-.44-7.16-.94-7.79-1.69l6.48.2c-3.28-1.05-8.38-.27-11.79-.56l.45-.39c-9.93-.27-10.11.88-20.77.25l1.09.36c-5.87.72-4.86-.82-10.71-.35l-1.71-1.12c-3.85,0-13.52.34-20.42.14,3.95-.53,12-.54,17.05-.73-3.81-.2-12.95-.58-15-.17a32.38,32.38,0,0,1,5,.06,97.16,97.16,0,0,1-18.48,0c1.48-1.93-19.74-1.79-25.11-3.82-6.72-.23-13.35-.9-20.25-1.67s-14.29-1.31-21.28-3c2.3,1.35,1.28,1.14-.28.76l-2.14-.59c-.56-.12-.76-.08-.91.32a.59.59,0,0,1-.22-.15h0c-.09.06-.3.15-.26.15a.3.3,0,0,1-.19.12h0a.59.59,0,0,1,.31.15c.08.2.13,0,.18,0a3.74,3.74,0,0,1,.93-.6c.68-.27.8-.36,1-.27l10.89.88c2.63.45-3.46.38-3.12.73,8,.07,3.37.66,8.66,1-1.1-.56,2.76-.84,7.31-.65l-6.43-.7c11.15-.92,9.68,1.28,20.91.36l-3.55.53c5.77-.33,21.29-.13,26.94-1.45,1,.18,2.38.61-.16.74,13.8.1,30.71-1.57,41.44-.85l-1,.4c2.57-.13,4.48-.77,7.71-.38-.17.16-1,.38.15.41a75.91,75.91,0,0,1,10.26-.4l-2.92.42c13.47.59,20.68-1,32-1.16,0,1.15,10.56,1.58,15.85,1.8l-.19.16c15.69.23,26.65-.81,41.18-1.18,9,1.3,30.55.69,45,1.47-2.21-.22.37-.89,2.94-1,3.4.25,9.41-.75,8.86.31l-1.21,0c2.56,1,9.55.81,15,.87l.91-1.38c14.26,2.09,37.41-.53,45.19,1.31,3.45-.33,7.71-.3,11.13-.62l-.19.74c9.54.24,14.31.36,26.11.25l-2.41.52c6.65.08,8.41-2.09,14.55-2.1l1.84,1.11c11.61,0,23.36,1.08,34.83.15-.19.16-.53.48-2.41.51,5.47.06,21.14.87,19.16-.66.13,1,12,.16,18.25-.24l-1,.72a61.09,61.09,0,0,1,12.86-1.37c1.75.1,1.53.59-.79.39,5.83.41,4.55-.66,11.63-.24l-2.64.45c6,.09,5.53-.16,8.84-.69,3.78-.27,11.39.25,12.27.91a21.57,21.57,0,0,1,7.64-.71c.48.25-.81.4-1.46.47,10,.55,14.93-.76,21.84,0,.14.24.59.37,1.16.44-8-.06-14.4-.14-13.8-.19,0,.67,6.44.83,1.31,1.72,5.18-.48,14-1.53,20.3-1.18a4.32,4.32,0,0,1,.83.24l-.65.07a28.16,28.16,0,0,0,4-.09c2,.12,3.28.21,5.2.23.74.56,7.39.34,10.6.39-.26-.74,3.94-.59,0-1.22.51.06-.61.08-2.74.1-.48,0-1.05,0-1.37.07l.22-.06h-8a31.29,31.29,0,0,1,8.74-.23c1.65-.46,3.47-.94,4.49-1.16,4.39,1,12.86,1.65,14,2.29,9.81-.36,23.11-.14,29.29-1.49a8.92,8.92,0,0,1,4.25.64c-1.61.13-3.53.1-4.4.29,5.58-.32,16.52,0,17.86-1,7,.47-4,.87,5.7.76l-1.31.29c19,1.65,30.9-2.29,52-.19a9.49,9.49,0,0,1-2.49-.35c24,1,49.5-.54,73.19,1,6.73.32,7.47-.3,11.58-.74l1.45.8,7-.87c10-.61,17.25,2,29.88.84l-1.63-.54c4.53.13,14.36-.23,13.6.37a6.85,6.85,0,0,1,3.26-.26l.14.41,11.14-.65c8.63.35-1.36,1.63,11.23,1.78,4.68-.13,13.34-1.13,11.58-1.41-1.89,0-4.83-.28-5-.7l4.28-.19c.78-1.21,4.08-2.44-6.42-3.35l-7.33.7-2.36-.6h6.16a24.2,24.2,0,0,0-8.2.23,8.57,8.57,0,0,0-3.07-.67l-7.2,1.12c-.87-.48,3.23-.93-1.59-1.22-3.37.52,3.22,1.09-2.35,1.41-3.5-.57-2.48-1-6.59-.57-.58-.32.3-.51,1.93-.64-3.66.36-9.69.11-11.58.74-3.65-.7-12.36.11-12-1a71.54,71.54,0,0,1-9.82.9c6.15-1.35-12.59-.15-11-1.62-4.55,1.21-16.43.46-24.48,1.1a7.41,7.41,0,0,1,2-.22c-4.53-.13-5.85-.51-8.76-.76-.59,1-7.65,1.22-11.46,1.83-5.55-1,3.38-1.18,1.64-2.14.27.83-9.66.77-7.77,1.48-4.25-.64-3.66-.32-5.84-1.18-.75,1.28-4,.2-7.49,1-6.14-.67-1.58-1.21-8.33-.86C681.36,658.58,687.37,658.16,687.37,658.16Zm-160.65,1.32h0l3.32,0Zm-13.5-.06,5.86.06c.47.26,0,.51-1.4.49C518.42,659.8,515.24,659.64,513.22,659.41Zm28.53,5.25c-2.14.09-2.85-.06-3.14-.21l3.74-.07.25-.09A2.32,2.32,0,0,1,541.75,664.66Z"/><path class="cls-5" d="M545.6,663.72l.88,0-1.27-.17-.76.23Z"/><path class="cls-5" d="M603.27,690.5l.29,0a3.65,3.65,0,0,1-.61,0A2.79,2.79,0,0,1,603.27,690.5Z"/><polygon class="cls-5" points="326.83 656.96 326.85 657.15 328.03 656.99 326.83 656.96"/><path class="cls-5" d="M528.94,694.3a3.48,3.48,0,0,0-1-.11A4.57,4.57,0,0,0,528.94,694.3Z"/><path class="cls-5" d="M496.92,696.65l-4.55.09C494.34,696.74,495.77,696.7,496.92,696.65Z"/><path class="cls-5" d="M472.27,698.21a1.12,1.12,0,0,0-.46.35h0Z"/><path class="cls-5" d="M421.19,679.86l-1,0C418,680,419.52,680,421.19,679.86Z"/><path class="cls-5" d="M538,678.86c-1.24.12-2.47.23-3.76.29C536.34,679.24,538,679.28,538,678.86Z"/><path class="cls-5" d="M290.71,680.49h-.79Z"/><path class="cls-5" d="M528.83,679.06a39.56,39.56,0,0,0,5.43.09C532.55,679.08,530.55,679,528.83,679.06Z"/><path class="cls-5" d="M365.57,706.24l-1.19.06s0,.09-.13.13Z"/><path class="cls-5" d="M364.25,706.43l-1.31.19A5.11,5.11,0,0,0,364.25,706.43Z"/><path class="cls-5" d="M360.18,707l2.76-.4A11.08,11.08,0,0,0,360.18,707Z"/><path class="cls-5" d="M398.18,704l.35-.3C398.33,703.8,398.21,703.9,398.18,704Z"/><path class="cls-5" d="M408.08,703.17c-2.37.12-6-.1-9.25.32l-.29.24C400.05,703.21,405.87,703.8,408.08,703.17Z"/><path class="cls-5" d="M449.66,703.22l-8.32.44c1.47.17,3.41.4-.36.76C451.51,704.45,438.77,704,449.66,703.22Z"/><path class="cls-5" d="M475.43,701.61c-4.45.48.08.41-.14.59C478.1,701.72,478.78,701.6,475.43,701.61Z"/><path class="cls-5" d="M624.45,678.07l.47-.65C621.47,677.4,624.88,677.68,624.45,678.07Z"/><polygon class="cls-5" points="588.71 680.48 592.05 680.97 593.66 680.4 588.71 680.48"/><polygon class="cls-5" points="567.75 675.23 569.26 675.17 563.5 675.29 567.75 675.23"/><path class="cls-5" d="M254.46,673.76l1,.83C257.83,674.46,258.32,673.54,254.46,673.76Z"/><path class="cls-5" d="M119.33,671.26a22.86,22.86,0,0,0-7.59-.65C114.77,670.82,117.78,671.29,119.33,671.26Z"/><polygon class="cls-5" points="290.92 663.37 288.2 663.63 293.33 663.43 290.92 663.37"/><path class="cls-4" d="M439.33,188.28a36.91,36.91,0,0,1-18.3-4.82,19.33,19.33,0,0,0-2.21-1.07c-16.47-6.76-34.49,5.76-34.49,23.57v87.56h87.56c17.8,0,30.33,18,23.57,34.49a19.33,19.33,0,0,1-1.07,2.21,37.12,37.12,0,1,0,64.86.46,20.59,20.59,0,0,1-1.05-2.25c-6.71-16.74,6-34.91,24-34.91H669V94A85.21,85.21,0,0,0,583.83,8.8H384.33V96.06c0,17.89,18.08,30.49,34.65,23.75a19.77,19.77,0,0,0,2.22-1.06,37.12,37.12,0,1,1,18.13,69.52Z"/><path class="cls-6" d="M314.29,422.82a36.92,36.92,0,0,1,18.3,4.82,19.42,19.42,0,0,0,2.21,1.07c16.47,6.76,34.49-5.76,34.49-23.57V317.58H281.73c-17.8,0-30.33-18-23.57-34.49a19.34,19.34,0,0,1,1.07-2.21,37.12,37.12,0,1,0-64.86-.46,20.57,20.57,0,0,1,1.05,2.25c6.71,16.74-6,34.91-24,34.91H84.57v199.5a85.21,85.21,0,0,0,85.21,85.21h199.5V515c0-17.89-18.08-30.49-34.65-23.75a19.71,19.71,0,0,0-2.22,1.06,37.12,37.12,0,1,1-18.13-69.52Z"/></g></g></svg>