<svg xmlns="http://www.w3.org/2000/svg" viewBox="0 0 812.43 617.51"><defs><style>.cls-1{fill:#999;}.cls-2{fill:#e6e6e6;}.cls-3{fill:#b3b3b3;}.cls-4{fill:#65ad59;}.cls-5{fill:#f88763;}</style></defs><title>Asset 2</title><g id="Layer_2" data-name="Layer 2"><g id="Layer_1-2" data-name="Layer 1"><path class="cls-1" d="M603.44,608.65a19.76,19.76,0,0,1-7.62-1.52C450.48,546.74,290,528.59,131.66,554.64h0c-22.53,3.68-46.06-14.32-52.44-40.14C47.91,383.45,21.41,249.24.45,115.6c-3.8-23.2,16.65-47,45.59-53,247-51.43,502.35-34.13,738.55,50,11.94,4.25,21.24,12.56,25.49,22.79a27.7,27.7,0,0,1-.17,22.71c-65.18,140.16-125.8,284.57-180.16,429.21-3.45,9-9.8,16.1-17.42,19.37A22.48,22.48,0,0,1,603.44,608.65ZM272.69,539.86a844.64,844.64,0,0,1,324.36,64.3,17.66,17.66,0,0,0,14-.38c6.82-2.93,12.54-9.33,15.68-17.56C681.13,441.51,741.78,297,807,156.78a24.53,24.53,0,0,0,.11-20.11c-3.9-9.39-12.5-17-23.59-21C547.87,31.71,293.08,14.45,46.7,65.76,19.42,71.43.11,93.55,3.63,115.09c20.94,133.57,47.42,267.7,78.72,398.66,6,24.22,27.89,41.14,48.79,37.73h0A871.83,871.83,0,0,1,272.69,539.86Z"/><path class="cls-2" d="M436.4,185.4q-3.31,20.29-6.46,40.59c-1,6.2,3.79,11.93,10.5,12.81q22.57,3,44.95,6.77c6.51,1.11,12.75-2.75,14.06-8.75q4.56-21.11,9.31-42.19c1.44-6.34-3.54-12.57-10.89-13.5Q474,178.1,450,176C443.32,175.41,437.34,179.56,436.4,185.4Z"/><path class="cls-2" d="M269.59,229.63q23-.37,46,.15c6.67.15,12.35-4.58,12.78-10.7q1.27-18.33,2.66-36.66c.5-6.44-5.29-11.87-12.68-11.77q-24.14.3-48.3,1.54c-6.83.35-12.25,5.34-12.34,11.3q-.29,17.5-.47,35C257.17,224.77,262.75,229.74,269.59,229.63Z"/><path class="cls-2" d="M307.21,412.23q-18.49-.42-37.08-.16c-6.24.09-11.11,5.62-10.9,12.32q.56,18.73,1.25,37.44c.26,6.65,5.13,12,10.93,12.15q17.47.4,34.81,1.46c5.93.36,10.9-4.91,11.06-11.76q.42-19.38,1-38.75C318.48,418.12,313.52,412.38,307.21,412.23Z"/><path class="cls-2" d="M247.9,461.47q-.91-18.29-1.69-36.59c-.27-6.69-5.58-12-11.84-11.65q-18.84,1-37.73,2.62c-6.17.55-10.6,6.33-9.92,12.88q1.79,17.57,3.7,35.12c.72,6.5,5.93,11.4,11.7,11.11q17.86-.92,35.63-1.15C243.65,473.73,248.22,468.21,247.9,461.47Z"/><path class="cls-2" d="M242.32,296.1q-.27-15.05-.45-30.12c-.07-7.27-6.56-13-14.4-12.49q-20.8,1.25-41.62,3.25c-7.6.73-13.27,7-12.76,14q1,14.36,2.11,28.71a13.16,13.16,0,0,0,14.19,11.84q19.9-1.28,39.73-1.83A13.41,13.41,0,0,0,242.32,296.1Z"/><path class="cls-2" d="M244.61,383.54q-.8-23-1.39-46a12,12,0,0,0-12.32-11.64q-20,.53-40.07,1.82a13,13,0,0,0-12.22,14q2,23.14,4.13,46.24a12,12,0,0,0,12.82,11q19.18-1.89,38.34-3A11.74,11.74,0,0,0,244.61,383.54Z"/><path class="cls-2" d="M355.41,231.38q22.84,1.3,45.54,3.49c6.6.64,12.57-3.67,13.44-9.74q2.81-19.81,5.77-39.61c1-6.38-4.39-12.22-11.75-12.66q-24-1.46-48.11-2c-6.81-.15-12.55,4.43-13.07,10.37q-1.71,19.07-3.27,38.14C343.46,225.62,348.62,231,355.41,231.38Z"/><path class="cls-2" d="M319.68,382.41q.8-21.5,1.78-43a12.12,12.12,0,0,0-11.54-12.72q-20-.94-40.2-1.13a12.19,12.19,0,0,0-12.34,12.34q.29,22.18.76,44.35c.16,6.86,5.63,12.3,12.09,12.14q18.9-.46,37.73-.21C314.23,394.25,319.42,389.07,319.68,382.41Z"/><path class="cls-2" d="M399.92,256q-24.36-2.2-48.87-3.35c-5.39-.25-10,3.61-10.36,8.64q-1.53,20.66-2.89,41.32a9.36,9.36,0,0,0,8.68,9.86q23.2,1.85,46.18,4.68a9.44,9.44,0,0,0,10.54-8.13q2.67-21.33,5.51-42.66A9.39,9.39,0,0,0,399.92,256Z"/><path class="cls-2" d="M423.32,269.87q-2.86,19.52-5.57,39.05a11.76,11.76,0,0,0,9.89,13.16q20.43,3.2,40.65,7.16A11.83,11.83,0,0,0,482.16,320q4-20,8.14-40.05c1.34-6.41-3.17-12.68-10-13.79Q458.73,262.67,437,260C430.32,259.18,424.22,263.59,423.32,269.87Z"/><path class="cls-2" d="M266.49,309.09q23.49.15,46.82,1.3a9.51,9.51,0,0,0,10-8.87q1.07-20.11,2.29-40.23c.33-5.2-4-9.61-9.58-9.71q-24.6-.41-49.3.23c-5.43.14-9.78,4.33-9.78,9.38q0,19.36.07,38.71A9.38,9.38,0,0,0,266.49,309.09Z"/><path class="cls-2" d="M388.14,333.21q-19.74-2.38-39.64-4a12.1,12.1,0,0,0-13.07,11.41q-1.22,20.86-2.27,41.72c-.33,6.85,4.69,12.67,11.1,13q18.74.92,37.37,2.54c6.18.53,11.7-4.26,12.43-10.88q2.21-20.11,4.57-40.22A12.1,12.1,0,0,0,388.14,333.21Z"/><path class="cls-2" d="M466.38,345.62q-20.71-4.08-41.66-7.35a10.66,10.66,0,0,0-12.17,9.25q-2.73,20.86-5.29,41.73c-.73,6,3.3,11.5,8.91,12.18Q436,403.84,455.6,407c5.39.87,10.55-3,11.62-8.81q3.66-20,7.48-40A10.71,10.71,0,0,0,466.38,345.62Z"/><path class="cls-2" d="M189.66,233.1q17.56-1.48,35.1-2.43c9.31-.51,16.75-7.62,16.76-16.13q0-13.2,0-26.4c0-8-7.6-14.14-16.76-13.33q-20.4,1.8-40.78,4.28c-9.26,1.12-16.15,8.43-15.68,16.5q.62,11,1.29,22C170.19,227.09,179.25,234,189.66,233.1Z"/><path class="cls-2" d="M173.76,431.33c-.81-7.16-7-12.4-13.73-11.54q-6.51.82-13,1.72c-9.92,1.38-16.79,9.64-15.38,18.33q2,12.58,4.05,25.14c1.44,8.61,10,14.55,19.31,13.61q6.64-.68,13.27-1.26c6-.52,10.19-6.39,9.39-13.08Q175.66,447.79,173.76,431.33Z"/><path class="cls-2" d="M578.16,456.81q-11.78-3.7-23.67-7.1c-5.84-1.67-11.95,2.26-13.64,8.74q-6.09,23.06-12,46.16c-1.63,6.46,1.35,13,6.64,14.71q10.86,3.58,21.59,7.43a15.71,15.71,0,0,0,20.45-10q6.11-19.51,12.38-39C592.73,469.25,587.47,459.73,578.16,456.81Z"/><path class="cls-2" d="M145.52,405.13q6.44-1,12.89-1.83a12.73,12.73,0,0,0,10.67-14.16q-2.49-23.26-4.76-46.56a12.88,12.88,0,0,0-14.26-11.5q-7,.71-13.94,1.51c-11,1.26-19,9.78-17.74,18.66q2.86,20.28,5.87,40.52C125.61,400.73,135.24,406.65,145.52,405.13Z"/><path class="cls-2" d="M133.64,316.33q8.85-1,17.68-1.9a10.19,10.19,0,0,0,9.33-10.84q-1.52-16.84-2.92-33.7c-.45-5.49-5.69-9.41-11.63-8.63q-9.31,1.22-18.61,2.6c-11.31,1.67-19.45,10.08-18.32,18.73q1.3,10.23,2.64,20.45C113,311.77,122.73,317.59,133.64,316.33Z"/><path class="cls-2" d="M658,213.53q-15.09-4.13-30.28-7.87c-6.86-1.69-13.7,1.67-15.56,7.58Q605,235.76,598,258.32c-1.9,6.24,2.07,12.84,8.78,14.75q14.59,4.14,29.05,8.66c10.76,3.36,21.76-.38,24.83-8.61q6.84-18.52,13.83-37C677.86,227.4,670.3,216.9,658,213.53Z"/><path class="cls-2" d="M379.5,416.54q-18.27-1.77-36.66-2.85c-6.17-.37-11.38,4.8-11.65,11.49q-.84,20-1.53,40c-.21,6.65,4.2,12.36,9.91,12.91q17.19,1.68,34.21,4c5.82.79,11.1-4.11,11.75-10.93q1.91-20.57,4-41.13C390.22,423.24,385.73,417.14,379.5,416.54Z"/><path class="cls-2" d="M628.42,300.44q-14-4.25-28.17-8.14c-6.46-1.78-13.09,1.72-14.89,7.8q-6.42,21.51-12.65,43.06a11.73,11.73,0,0,0,7.76,14.43q13.23,4.12,26.33,8.57c10.08,3.42,20.68-.54,23.68-9q6.1-17.45,12.34-34.87C645.89,313.76,639.44,303.78,628.42,300.44Z"/><path class="cls-2" d="M602.22,382q-13.4-4.57-26.95-8.78A10.56,10.56,0,0,0,562,380.61q-5,17.78-9.85,35.59c-1.59,5.86,1.57,11.85,7,13.33q13,3.55,25.84,7.45c9.22,2.79,18.73-1.43,21.52-9.7q4-12.08,8.12-24.14C617.48,394.81,612,385.29,602.22,382Z"/><path class="cls-2" d="M488.16,361.38q-4,19.35-7.77,38.72c-1.16,6,2.44,11.7,8,12.79q19.47,3.83,38.73,8.42c5.29,1.26,10.69-2.25,12.18-8q4.78-18.44,9.69-36.85a10.69,10.69,0,0,0-7.33-13.18q-20.22-5.55-40.73-10.31A10.6,10.6,0,0,0,488.16,361.38Z"/><path class="cls-2" d="M520.68,440.69q-17.59-4.36-35.38-8.06c-6-1.25-11.81,3.11-13,9.71q-4.17,22.18-8.14,44.38c-1.16,6.56,2.31,12.84,7.76,14.2q16.41,4.1,32.59,8.79c5.54,1.61,11.38-2.5,13-9.16q5.42-22.57,11.06-45.09C530.2,448.85,526.69,442.18,520.68,440.69Z"/><path class="cls-2" d="M126,240.21q9.21-1.28,18.43-2.42c5.88-.73,10.27-5.54,9.88-10.89q-1.24-16.51-2.37-33c-.37-5.63-6.12-9.57-12.56-8.54q-10.15,1.61-20.28,3.39c-11.63,2-19.9,10.35-18.93,18.77q1.1,9.82,2.24,19.63C103.5,236.08,114.15,241.86,126,240.21Z"/><path class="cls-2" d="M450.74,426.07q-17.66-3-35.47-5.41c-6.43-.86-12.27,4.18-13.06,11.21q-2.38,20.82-4.59,41.64c-.69,6.62,3.27,12.63,8.86,13.6q16.83,2.91,33.46,6.43c5.69,1.2,11.27-3.3,12.41-10.07q3.59-21.63,7.36-43.24C460.89,433.52,456.88,427.11,450.74,426.07Z"/><path class="cls-2" d="M524.81,196.11q-5.11,21.38-10,42.79c-1.45,6.36,3,12.66,9.87,14.08q21.71,4.48,43.21,9.78c6.64,1.64,13.39-1.9,15.2-8q6.43-21.9,13-43.76c2-6.43-2.66-13.24-10.16-14.81q-23-4.82-46.16-8.75C532.82,186.23,526.24,190.08,524.81,196.11Z"/><path class="cls-2" d="M505,282.06q-4.55,20.59-8.93,41.21a11.74,11.74,0,0,0,8.84,13.84q20,4.65,39.76,10a11.77,11.77,0,0,0,14.42-8.23q5.78-21,11.74-42c1.8-6.3-2.23-12.87-9-14.48q-21.16-5-42.53-9.27C512.78,271.89,506.4,275.86,505,282.06Z"/><path class="cls-2" d="M110.37,154q1.92,6.75,3.82,13.5c1.23,4.32,6,7,11.18,6.4l.76-.09c5.85-.69,10.29-5.29,9.93-10.33q-.52-7.11-1-14.22c-.38-5.51-6.45-9.15-12.92-7.66l-3.36.78C112.74,143.82,109,149.1,110.37,154Z"/><path class="cls-2" d="M186.25,141.62q1.51,6.85,3,13.7c1,4.39,5.52,7.36,10.73,7.06l.76,0c5.85-.33,10.54-4.66,10.48-9.71q-.1-7.13-.17-14.26c0-5.53-5.87-9.52-12.39-8.42l-3.39.57C189.21,131.56,185.14,136.6,186.25,141.62Z"/><path class="cls-2" d="M279.93,138.16q1,6.94,2,13.89c.64,4.45,4.92,7.75,10.11,7.84h.76c5.82.1,10.76-3.87,11.07-8.91q.42-7.12.86-14.23c.35-5.51-5.13-9.93-11.66-9.31l-3.39.32C283.59,128.35,279.2,133.08,279.93,138.16Z"/><path class="cls-2" d="M371,136.9q.5,7,1,14c.32,4.48,4.35,8.08,9.5,8.54l.75.07c5.78.51,11-3.09,11.65-8.09q.92-7.07,1.87-14.13c.74-5.47-4.39-10.27-10.93-10.12l-3.4.08C375.28,127.38,370.58,131.78,371,136.9Z"/><path class="cls-2" d="M465.11,135.92q0,7-.05,14c0,4.49,3.75,8.38,8.87,9.22l.75.12c5.74.94,11.22-2.26,12.25-7.21q1.45-7,2.91-14c1.15-5.41-3.64-10.56-10.19-10.91l-3.41-.17C470.14,126.75,465.11,130.78,465.11,135.92Z"/><path class="cls-2" d="M562.06,154.66q-.57,7-1.14,14c-.36,4.48,3.07,8.65,8.08,9.87l.73.18c5.63,1.38,11.31-1.39,12.72-6.24q2-6.85,4-13.69c1.56-5.3-2.79-10.81-9.26-11.66l-3.37-.43C567.77,145.91,562.46,149.55,562.06,154.66Z"/><path class="cls-2" d="M643.13,173.39q-1,6.94-2.06,13.88c-.66,4.44,2.49,8.83,7.41,10.38l.72.23c5.52,1.75,11.37-.65,13.1-5.39q2.43-6.7,4.87-13.4c1.91-5.19-2.07-11-8.47-12.24l-3.33-.65C649.4,165,643.87,168.31,643.13,173.39Z"/><path class="cls-1" d="M603.89,139.35a14.8,14.8,0,0,1-3.48-.42c-9.58-2.33-16-9.43-15-16.51,3.66-24.86,16.24-82.24,53.58-78.13,29.27,3.41,38.12,24.06,40.78,36.07L681,86l-8.36-3c-5.63-2-11.45-4.09-17.28-5.62l-1-.27-.67-.84A15.41,15.41,0,0,0,645,71.14,13.47,13.47,0,0,0,634.42,74c-9.64,7.36-17.22,28.62-20.79,58.35a7.75,7.75,0,0,1-5,6.11A12.35,12.35,0,0,1,603.89,139.35Zm31.43-88.82c-29.53,0-40.24,50.54-43.53,72.83-.53,3.65,4,7.82,10.13,9.31a7.15,7.15,0,0,0,4.22-.16c.71-.29,1.06-.67,1.09-.92,2.22-18.48,8.19-51.2,23.28-62.7A19.85,19.85,0,0,1,646,64.77v.07A21,21,0,0,1,658,71.49c4.69,1.28,9.3,2.85,13.79,4.44-4-11.2-13.12-22.87-33.55-25.24A27.15,27.15,0,0,0,635.33,50.53Z"/><path class="cls-1" d="M447.83,114.31a15.29,15.29,0,0,1-1.79-.11c-9.81-1.16-17.07-7.42-16.91-14.58C429.76,74.49,435.28,16,473,15.57h.32c30.71,0,41.67,21,45.47,33.47l1.44,4.73-4.91-.6c-5.25-.64-12.18-1.53-19.18-2.66l-1.54-.25-.76-1.36c-3.74-6.67-11.14-7.38-11.62-7.42A13.56,13.56,0,0,0,472,45.63c-8.7,8.49-13.66,30.52-13.6,60.45a7.66,7.66,0,0,1-4.26,6.68A12.92,12.92,0,0,1,447.83,114.31ZM473.32,22H473c-32.07.37-36.88,54.51-37.45,77.77-.09,3.69,4.95,7.29,11.22,8a7.22,7.22,0,0,0,4.19-.66c.68-.38,1-.8,1-1,0-18.61,1.93-51.8,15.54-65.08a19.89,19.89,0,0,1,14.9-6h0s10.24.38,16.19,9.33c4.29.67,8.53,1.25,12.31,1.74C506,34.2,495.53,22,473.32,22Z"/><path class="cls-1" d="M289,108.33c-9.88,0-17.83-5.33-18.52-12.44-2.41-25-4-83.76,33.6-88.75,31.68-4,45.14,16.53,50.34,29.1l1.83,4.43-4.79,0c-7.28,0-14.5-.51-20-1l-1.52-.13-.86-1.26c-4.48-6.55-12.1-6.56-12.74-6.55a13.67,13.67,0,0,0-9.68,5.39c-7.64,9.51-9.91,32-6.23,61.64a7.65,7.65,0,0,1-3.45,7.15,13.56,13.56,0,0,1-7.89,2.4Zm22.65-95.24a54.14,54.14,0,0,0-6.75.44c-32,4.25-30.25,58.58-28,81.75.36,3.66,5.78,6.62,12.12,6.62h.08a7.32,7.32,0,0,0,4.13-1.17c.63-.46.88-.91.85-1.15-2.28-18.44-4.33-51.59,7.6-66.46a20.07,20.07,0,0,1,14.18-7.77v0a21.87,21.87,0,0,1,17.65,8c3.76.32,8.22.65,12.85.78C341.22,24.63,331,13.08,311.62,13.08Z"/><path class="cls-1" d="M127.94,122.33c-8.45,0-15.37-4.1-16.74-10.3-5.44-24.56-14.08-82.7,22.95-92.26h0c30.79-7.73,46.72,10.5,53.47,22l2.57,4.4-5.08.43c-3.78.32-7.59.43-11.27.53-3,.08-6,.17-9,.37l-1.44.1-1-1c-5.27-5.14-12.47-4-12.9-4a13.88,13.88,0,0,0-9.15,6.63c-6.47,10.42-6,33,1.22,61.93a7.64,7.64,0,0,1-2.59,7.52,13.76,13.76,0,0,1-7.59,3.34A27.15,27.15,0,0,1,127.94,122.33ZM135.75,26c-31.58,8.17-23.29,61.91-18.26,84.63.8,3.62,6.66,5.9,13.05,5.08a7.52,7.52,0,0,0,4-1.68c.57-.53.77-1,.72-1.23-4.5-18-10.55-50.6-.45-66.89a20.28,20.28,0,0,1,13.29-9.53h0A22.19,22.19,0,0,1,165.76,41c2.64-.15,5.28-.22,7.91-.3,1.79-.05,3.62-.1,5.44-.18C172.08,31.07,158.69,20.26,135.75,26Z"/><path class="cls-2" d="M806.45,157.44h0L805,159.2l1.5-1.73h0A406.54,406.54,0,0,1,594.76,534.36l-24.4,13.28a109.58,109.58,0,0,1-89.78-71.14l7.35-26.79A406.53,406.53,0,0,1,806.45,157.44Z"/><path class="cls-3" d="M600.5,531.1c-1.92,1.08-3.8,2.2-5.74,3.26l-24.4,13.28a109.58,109.58,0,0,1-89.78-71.14l7.35-26.79c.58-2.13,1.24-4.22,1.86-6.34A140,140,0,0,0,600.5,531.1Z"/><path class="cls-3" d="M754.17,223.49A121,121,0,0,1,721.34,183a406.19,406.19,0,0,1,85.11-25.54L805,159.2l1.5-1.73h0a406.25,406.25,0,0,1-5.41,88.71,121,121,0,0,1-46.53-22.39Z"/><path class="cls-4" d="M722.65,258.93a19.67,19.67,0,1,1-27.64,3.2,19.67,19.67,0,0,1,27.64-3.2m3.3-4.16a25,25,0,1,0,4.07,35.1,25,25,0,0,0-4.07-35.1Z"/><path class="cls-3" d="M609,526.3A494,494,0,0,0,702,450l-7.37,41.46a138.5,138.5,0,0,1-50,84.07l-52.68,42Z"/><path class="cls-3" d="M492.11,438.89a494,494,0,0,1,50.4-109.26l-38.27,17.58a138.5,138.5,0,0,0-68.74,69.61L408.14,478.4Z"/><path class="cls-5" d="M578.77,1.07c-.08-.63-1-1.53-1.53-.8l.8,2.07Z"/><path class="cls-5" d="M571.73,1.48c-.19,1.44,0,3.61,1.68,4.76-.43-2.24.28-1.71-.33-4.32a1.2,1.2,0,0,1,2,.34c-.09-.62,1.36-.45.92-1.8-1.9-.63-3.08.19-3.45,2.19C572,2.47,571.91,1.84,571.73,1.48Z"/><path class="cls-5" d="M502.6,51.43l.59-.15A1,1,0,0,0,502.6,51.43Z"/><path class="cls-5" d="M461.33,84.51c.27-.3.26-.57.15-.73C461.29,84.13,461.14,84.43,461.33,84.51Z"/><path class="cls-5" d="M453,88.67c.19-.08.33-.16.5-.24C453.18,88.42,453,88.47,453,88.67Z"/><path class="cls-5" d="M502.6,51.43l-1.52.37C501.44,52.4,502,51.74,502.6,51.43Z"/><path class="cls-5" d="M565.53,12.7a1.82,1.82,0,0,0,.27-.91,5.49,5.49,0,0,1-.43.62Z"/><path class="cls-5" d="M519.67,35.46l.33-.27a6.28,6.28,0,0,0-.26-.9Z"/><path class="cls-5" d="M533.53,24.16c-.37.19.64,1.7,1,2.42a1.72,1.72,0,0,1-.07-1.52A4.8,4.8,0,0,0,533.53,24.16Z"/><path class="cls-5" d="M557.89,9.3l.25-.5C558.08,8.94,557.95,9.13,557.89,9.3Z"/><path class="cls-5" d="M509.45,43.19a2.12,2.12,0,0,0-.53-.4A1.48,1.48,0,0,0,509.45,43.19Z"/><path class="cls-5" d="M181.79,359.18c.09-.09.13-.17.2-.25C181.8,359,181.69,359.09,181.79,359.18Z"/><path class="cls-5" d="M171.52,338.84l.28.12c.25-.23.5-.46.72-.71Z"/><path class="cls-5" d="M439,97.91l.08,0C439.26,97.44,439.1,97.63,439,97.91Z"/><path class="cls-5" d="M333.61,208.05c2.36-.29-.22,3.47,2.85,2.63C335.76,210.42,335.82,207.08,333.61,208.05Z"/><path class="cls-5" d="M565,12.79a4.57,4.57,0,0,1-.57.46A1.31,1.31,0,0,0,565,12.79Z"/><path class="cls-5" d="M336.46,210.69h0l.3-.1Z"/><path class="cls-5" d="M411.67,124.68a2.34,2.34,0,0,0,.83.3A1.53,1.53,0,0,0,411.67,124.68Z"/><path class="cls-5" d="M434.26,107.19l-.68.29A1.67,1.67,0,0,0,434.26,107.19Z"/><path class="cls-5" d="M402.79,136.76c-.37.17-.64.08-.85.61a.92.92,0,0,0,.27,0C402.18,137.12,402.28,136.86,402.79,136.76Z"/><path class="cls-5" d="M391.88,147.59a3.49,3.49,0,0,0,.46.05l.27-.42Z"/><path class="cls-5" d="M221.83,385a5.84,5.84,0,0,1,.18-1.77C221.58,384.5,219.35,383.75,221.83,385Z"/><path class="cls-5" d="M564.9,11.89c.21.42.24.68.11.89a4.14,4.14,0,0,0,.34-.39A1,1,0,0,0,564.9,11.89Z"/><path class="cls-5" d="M412.33,147.4l-1.92,1.48A10,10,0,0,0,412.33,147.4Z"/><path class="cls-5" d="M285.72,300.27l-.11.58A.49.49,0,0,0,285.72,300.27Z"/><path class="cls-5" d="M405.48,154.08a3.51,3.51,0,0,0-1.83.08,1.6,1.6,0,0,0,.13.53Z"/><path class="cls-5" d="M222,383.24v0Z"/><path class="cls-5" d="M205.74,378.4c2,1.33,2.2-1.36,3.36-2.24,2.74.94.17,2.18.34,3.73,1.85.4,4.15-.75,5.22,0-.12.39,0,.64-.48.91,2.57-.66,4.81,2.78,7.89,1.78a1.5,1.5,0,0,1,0,.65,9.27,9.27,0,0,1,1.33-3c.9.47,2.47-.32,2.25,1.34-.68-.44-1,.09-1.6.32l1.55.11c.36,2.77-2.2-.35-2.81,1.19a44.42,44.42,0,0,0,4.64.89,6.52,6.52,0,0,1,3.57,1.41c.48,2.73-4.92-1.83-2.29,1.8l-3.25-2.7c1.65,4.82-2.2-1.47-.8,3.49a20,20,0,0,0,5.7,2.79,19.31,19.31,0,0,1,5.57,2.7c.8-1-.82-2.47-.12-3.47a4.86,4.86,0,0,1,1.86.53,6,6,0,0,1,.81.51c.19,0,.28-.26.43-.31.55-.36,1.17-.11,1.78.09,1.2.46,2.47.53,2.74-3.74-.32-2.91-2.23-5.51.32-7.78q.76,1.37,1.45,2.92c1.21-2.53.77-3.77.44-4.81a3,3,0,0,1-.17-1.61,2.62,2.62,0,0,1,1.08-1.58,2.18,2.18,0,0,1,.2,1.61c-.14.63-.39,1.32-.08,1,.86-.77,1.05-.83,1.14-1.14a.91.91,0,0,0-.29-.77c-.42-.52-1.1-1.08-.78-1.84l2.15.53c1-3.23,1-7.27,2.09-10.88.51.46.89,1.32,1.84.79a18.92,18.92,0,0,1,2.79-6.8,56.4,56.4,0,0,1,4.73-5.75l-.94-2.37a.76.76,0,0,1,1.24.25c1.43-1.27-1-.6-1.33-1.69a.94.94,0,0,1,1.8.1c-.06-3.48.86-9.51,4.13-11.55l.21.83c1.82-1.94-2.16-4.37.47-5.7l.09.56a30.22,30.22,0,0,0,2.11-3.69l2.06-3.71c1.39-2.4,2.92-4.53,5.22-5.68-2-2,3.77-4.19.65-6.38,3.2-1.84,3.34-.7,6.64-4,.74-.95-1.17-2.75-.78-4.24l1.72,1-.8-2.81,2.56.29c.09-.48.15-1,.26-1.46a1.56,1.56,0,0,1-1.8.18c.33-2.34,4-3.75,4.89-3.27l1.33-5.2c.62.52.39,1.39.46,2.23-.25-3.37,2,.69,1.81-2.4-.56,0-.9-.78-1.21-1,1.69-.42,3.22-2.8,3.93-4.84l.93,1.08c2.33-3,3.75-7.09,6.06-10.66-1.35.93-3.14-.67-2.65-1.86l2,.74c-.64-1.4-1.36.66-1.79-1.62,1.06-1.21,2.56.43,2.63,1.58.15-.67.27-1.37.46-2,.58.26.6.81,1.19,1.36-.62-1.38,3.67-1.54,2.46-3.74l.58.26c2.47-3.46,3-5.44,4.92-8.33-1.44-1.1-.33-2-.92-3.67,2-1.75,4.75-3.23,6.4-5.83.52-2.29-.87-1.42-1.18-2.85,1.42.84,3.08-1.75,3.11.25a45,45,0,0,0,4.31-8.5c-.85,0-1.44.27-1.7-.3a1.56,1.56,0,0,1,2.3-.53v.28c1.28-5.67,11.24-6.61,11.1-12v.29l1.26-4.54c1.45-1.4.23,1.72,1.93,1.19.68-5.45,4.94-5.49,6-9.6,5.67.84,6.58-8.29,11.55-9.35l-1-.57c-.18-1.52,1.31-.53,2-.94-.74-.5-1.51.19-1.56-.71,4.54-7.73,13.27-12.55,20.09-18.5,2.45-2.22-3.1-5.4,1.72-6.62l.76,2.32c1.32-3.32,3.62-5.84,6-8.28s4.87-4.71,6.37-7.8c.08.62.53,1.07.08,1.52,2.08.09,3.62-3.59,2.73-4.49.81-.63,1,.63,1.88.63,1.62-.35,1-3.86,2.63-3.31.27.09.09.63,0,.89.1-1.17,3.07-2.87,1.2-3.5,2.32-1.15,2.72-3.92,4.83-4.57-.51-2.33,3.6-2.33,1.93-4.59,1.92,2.19,4.75-1.31,4.91-3.37.24,1,1.61-.28,2,1,1.25-1.26,2-2.77.77-3.63,4.77.24,2.78-6.57,7.2-4.63A95.41,95.41,0,0,1,429,126.27c1.83,2.21-3.61,3.82-1.37,5.9,2.38-4,2.67-7.52,6.43-10,1.12-.49.37,1.37.42,2,2.51-3.91,6.59-5.66,8.48-9.52.17.21.05.72-.1,1.16.52-.6,1.64-.92.69-1.84l-.33.78c-2.22-.57-.37-5.08-.94-5.93,1.55,3.71,3.56-2,5.19,3a1.77,1.77,0,0,0-.4-2c.74-.33,1.27-.11,1.36,1.16,1.6-2.44-.07-2.81,1.84-4.51.42.48.2,1,.51,1.75.13-1.79.24-3.63,2.25-4.64.16.37.68.58.19,1,2.67-2.58,2.59-6.65,6.46-8.43.92,2.88,1.65-.22,3.4,1.45l1.18-2-1.43-.3c1.48-1.23,1.61-3.67,3.37-4.16l-.43,1.69,2.42-2.71-2.13.65c.66-2.21-2.15-2.16.22-3.34-.23.53,1.47-1.24,3.15-.83h0c.22-1.2.44-2.46,1.9-2.94.78.34,1.5,2.21,2,2.44-.59-2.13,3-3.39,2.56-5.77A2.9,2.9,0,0,0,477,82.08l-.45-1.75c1-.17,1.29-.06,1.83.8,2.25-1.49-2.63-1.78.67-2.82-.11.26.14.37-.1.89,2.9-1.52,4.07-4.75,6.85-6,2.22,1.3-1.59,2.1.48,3,3-3,4.87-7.84,8.38-10l-.76.28c-1.74-3,3.42-.65,4-3.22-.23.52.69,1.89.56,1.51,2.49-1.39,3.87-4.31,6.52-7.8l.14,1c1.78-.43,3.68-2.38,5.32-3.19-.14-1,.75-1.54-.54-2.15,7.42.43,6.51-8.68,12.92-8.5-.45.37-.61,1.47-.24,1.19l2.74-3.24c-1.18-1-1-.36-2.39-.72A3.48,3.48,0,0,1,524,38.39c-.85,1.95,1.5,1.86,2.65,2-.39-.27-.48-.84-.83-1.16,3.36.73-1.57-2.57,1.88-3l.36.71c.63-1,.8-2.44,1.88-3,1.46,1-.44,1.36.38,2.52,1.26-1.12.6-4.61,2.86-4.2-.27.82-1.07,1.46-1.34,2.27,2.56.56,2.39,0,3.56-.47l-.12,0,2.81-1-.91,0c-1.11-4.83,2.87-3.29,3.3-7.35-.46,3.89.63,1.55,1.66,3.22.9,0,2.15-.22,2.24.41.09-2.07,2.52-.4,2.6-3.38.45.44,1.17-.84,1.9.6,1.07-1.46-1-.61-1.36-1.32.81-3.34,6.55-1.85,7.84-6.52,1.91-3,1.11-5,2.93-7.76,1.44.16.71,2.33.71,2.33a4.49,4.49,0,0,0,3.63-2.73c.08.63.62.8,1.44,1.06.91-.9-.71-2.33,1.19-2.62a9.19,9.19,0,0,1,.52,2.78c.84-1.37,1.31-3.2,2.2-4.6,1,.62.26,1.89.26,2.79,1.09-1.45,3-3.54,2.37-5.24l-1.27.19c.46-.45,1.16,1,1,1.52-.37,2-2.08.83-2.53.38l.64-1c-3.14-2.24-3.18,3.17-5.08,4.36l-.89-2.69L562,10.66c-.81-.26-2-1.24-1.35-2.23-2.08-.08-.55,1.62-2.54,1.28-.26-.09-.28-.23-.24-.4l-.76,1.58c-.1-.63-1.36-1.34-.36-1.62-3.17.48-2.37,4.34-4.45,3.38l.09-.27c-2.54,3.08.9,1.79,0,5.39l-4.52-2.64.9,1.79c-.36.19-1.08.56-1.44-.15-.35,2,.72.52.82,2.06-2.62-.22-3.68,3.95-5.95,1.74.37,1.61,2.16-.23,1.18,1.86-2.53-2.3-1.53,1.93-3.87,1.8-.64-1.7,1.24-2-1.1-2.14,1,3-3.11,1.61-3.94,3,1.39,1.88-2,2.77-3.44,4.92-.36-.72-4.5,1.89-6.86,2.66l-.19-.35c1.12,2.14-1.07,3.25-2.12,4.74a2.73,2.73,0,0,1-.58-2.88l-1.27,1a2.64,2.64,0,0,1-.64,2.35l-.78-1.64c-1.65,1.45-2.14,4.39-5.07,5.24.91,1.39,4.61,2.18,3,4.9-.64-.63-1.68-1.75-1.31-2.52-.12.25-.24,1.15-.88,1.17V42.78c-1.41.29.26,1.4-.62,1.93-.78-1-1.16-.23-1.68-1.11.13-.26,1-.15,1-.79a4.5,4.5,0,0,1-3.57.38c.53.5,1.07,1.33.52,2-1.65,1.45-1.54-.72-2.95-.43.14,1-1.52,1.19-.35,2.69-.51.39-1.16-.22-1.67-.46-.36,1.36-4,3.51-1.7,4.27l.31-.08c0,.06-.07.11-.09.18h0c-1.69,3.8-6.71,4-9,7l-.4-.5c-1.23,2-3.49,3.47-3.82,5.53a1.69,1.69,0,0,1-2.19-.67c-1,1.45-.67,2.11-3.21,2.86.59-1.94-1.08-.38.81-1.73-2,1-3.06.52-3.75,3.35-.43-1.76-2.58-.52-3.07.52l1.92-.09a9.26,9.26,0,0,1-2.51,2l-.95-2c-5.12.89-3.34,8.55-8.76,7.43.07,1.91,2.53-.78,2.86,1.25-1.75,1.11-5.36.2-5.86.61-2.91,1,.05,4.1-2.71,5.43A2.44,2.44,0,0,1,464.08,86c-1.74,1.14-4-.76-3.43-2.08.33-.37.67-.35.82-.14.32-.65.77-1.47-.39-1.56l.3.75c-1.28.08-3.37,2-3.69.62-.7,1.57.32,1.38,1.45.93-2.72.9-3.14,2.69-5.68,3.91.6,0,1.5.45,1.17.72-3.64,1.91-.37,2.24-2.19,4.27-1.93.13-1.42-2.45-2.83.07-1.78.5-1.61-1.29-1.52-2.19-.9,2.73-4.14,2.32-5.4,3.05l.58-1.32a4.63,4.63,0,0,1-1.32,1.64l1.57.64c-.75.31-1.23.75-1.65.27.08,1.28,2.14,1.49,1.89,3.57-1.27.11-1.74,2.72-3.36,1.45,2.84-1.66-1.62-1.28.17-3.36a2.56,2.56,0,0,1-1.46,1.28c-.24-.09-.2-.39-.12-.61-3.49.73.48,2.66-1.91,4.78-.47-1.12-2-1.11-2.22-.58,1-.85,1.73,1,1.45,2.44-2.11.72-1.2,2-2.06,2.63l1.18-.51c.46,1.13-.39,1.7-1.2,2.93-.69-.58.54-1.33-.1-1.27.19,2.55-4,.88-4.77,3.36-1.28.12-1.53-1.51-2.55-1.29-.83,2.76-3,.66-4.14,3.32,1.6.62,1.44.26,1.11,2.59l2.43-3.68-.51,3.49c1-.85,1.36-2.54,2.1-2.87-.12,1.8-.28,1.43,1,2-2.87-.5-1.67,3.34-4.23,3.57l-2.55-2.83c-3.45.81-2.67,5.14-6.19,7.21l1.38-.41c.65,1.47-1.63,1.86-2.14,3.2-.79-1-1.69-.78-2.63-1,.7.64-2.17,2-.67,4.05l-2.44,0c-2.8,1.74-.13,5.16-2.66,7-.29-1.64-1.93-1.31-1.13-3.46-.75.71-1.59,1.19-1,1.83-1-.15-.87,3.21-2.4,3,.08.7.91,1.75,0,2.48a1,1,0,0,1-.44-.45c.44.45-.71,1.87,1,2.17-5.12-.66-6.11,6.44-10.44,6a55.31,55.31,0,0,1-4.25,5.67c-.18-.36-.45-.45-.08-.63-2.82,1.19,1.39,3.79-1.79,5.16-2.62-.26.4-2-.88-1.81-3.31-2.6-2.3,3.17-5.57,3l.19-.55c-2.18.2-1.68,4-3.78,5.71a1,1,0,0,0-.45-.45c.22,2.76-1.62,5.83-2.93,8.15-.65-1.71.16-1.46-1.38-2.24-.61,1,2.18,1.58,1,3.6-1.16-.06-2.87.65-4.32-.39l1.41-1.69c-2.44-.73-1.86,2.15-2.93,2.73l-.64-.79c-2,2.71-.2,4.45-2.77,7l.81.24c.52,3.14-2.16.27-2.11,3l-2.29-1.26c-.43,1.37-1.25,5-2.46,7-.52-2.23.61-4.89.92-6.89-.89.94-2.83,3.37-2.34,4.7.17-.55.15-1.45.78-1.57a7.31,7.31,0,0,1-2,6.55c-3.42-3.62-5.27,4.29-9.37,3.21-1.57,4.67-6.45,6.41-9.68,10.67,4.16,1-.92,1.26,2.32,3.52-.6,1.1-1,1.42-1.23,1.34l-4.24,1.36c-1.46,0,.09-1.45-.67-1.92-2,1.88-2-.19-4,.53,1.34.62.92,2-.43,2.87.91-.2,1.84-.38,2.78-.55-.77,4.26-4.61.5-5.36,4.81l-.22-1.73c-.64,2-4.49,5.72-3.19,9.19-.57,0-1.7-.31-1.39-1.17-3.27,3.43-3.76,10.3-7.54,12l-.55-.86c-.32.86.51,2.29-.94,2.57-.28-.28-.55-.85-.85-.57,0,.57-.1,2.83-1.2,3.46l-.29-1.46c-3.67,3-1.95,7.31-3.62,10.81-2.29-1.67-5.13.74-6.55,2l-.29-.28c-3.39,4.17-3.33,8.76-5.26,13.41-4.37.75-6.71,8-10.85,11.21.84-.36,1.79,1.3,1.56,2.19-1.11.67-.06,3.75-2.16,2.2l.26-.32c-2.62-.63-3.33,1.75-4.4,3.28l2.72,2.06c-3.4.73-4.74,3.67-5.86,6.39s-1.83,5.35-4.43,5.36c.15,1.45-.57,2.71-.41,4.15l-1.54-1a28.8,28.8,0,0,0-4.62,7.62l-.73-1.36c-1.23,1.93,3.17,5.07,2.24,6.93l-2.69-.77c-1.87,3.47-6.08,5.77-5.66,10.43-.32-.24-1-.72-.78-1.34-.89,1.63-4.85,5.63-1.23,6.73-2.18-1.07-2,3.56-2,5.94l-1.46-1.1c1.25,2.64,1.79,3,1.24,5.5-.47.43-1.52-.17-.76-.67-1.72,1.36.84,2.13-1.08,3.86l-.63-1.3c-1,1.77-.41,1.89.3,3.47.08,1.46-2.12,3.26-3.72,2.84.77.67,1.48,2.23.52,3.1a1.1,1.1,0,0,1-.85-.94c-2.68,2.52-.21,5.47-2.76,6.89a1.5,1.5,0,0,0-1.13-.07c1.1-2.48,2-4.45,2.08-4.21-1.5-.69-2.63,1.21-4-1.35.44,2.16,1.73,6,.19,7.69a2.07,2.07,0,0,1-.63,0l-.08-.28a1.51,1.51,0,0,0-.28,1.35,4.91,4.91,0,0,0-1.15,1.43c-1.35-.31-1.66,2-2.15,3,1.7.63.87,1.83,2.77,1.19-.19.11-.12-.28.1-1a1.21,1.21,0,0,0,0-.5l.12.13,1-2.55c.51,1.16.86,2.3-.53,3,.85,1,1.71,2,2.09,2.55-2.9.37-5.29,2.5-6.88,2.27,0,.43-.12.88-.21,1.33s0,.43,0,.7l.07,1.26a26,26,0,0,0,1.09,4.93c0,1.12-.86-.48-1.22-1a5.28,5.28,0,0,0-.16-1.61,5.06,5.06,0,0,1-.05,1.29l-.11.65c0,.2,0,.56-.19.47-.45.08-.83.4-.69,1.83-1.6-2.08.18-2.41-1.4-2.8l.12-.77c-1.55-3-1.44-1.21-4.55-1.39s-6-.45-7.74-4.36c.26.51.39.75.27,1.15-5.65-6-15.07-7.17-19.5-14.6-1.4-1.87-2.49-.78-4.28-.67l.77-1.85-3.21.39c-3.68-.72-1.64-7.25-6.82-7.44l-.4,1.36c-1-1.12-4.2-2.43-3-3.43-.27.09-1.25.73-1.27-.17l.62-.81-4-1.07c-1.7-2.44,3-2.76,0-5.64-1.41-.72-5.27-.71-5.29.18a1.86,1.86,0,0,1,.14,2.33L171.8,339c-2.19,2.06-5.11,3.58-3.79,7.55l3.1.29-.34,1.63-1.66-1.33c0,1.83,1.38,1.42,2.57,1.35a2.44,2.44,0,0,0-.24,1.9l3.73-.57c-.52,1.09-2.35,1.06-1.49,2.63,1.75-.28.84-2.72,2.87-2.17,0,1.81-.93,2.44.9,2.45a1.31,1.31,0,0,1-1.53.81c1.55.1,2.83,1.82,4.34,1-.08,2.1,3.58,2.31,1.73,4.45a6.51,6.51,0,0,1,4.11.22c-3.75,1.41,3.32,2.78.69,5.34,3.08-1.49,5.38,2.3,8.63,2.52-.27.11-.8.33-.91.07,1.13,1.11,1,2.12,1.46,3.17,1.61-1.94,3.93-1,5.88-1.6.21,3.09-2.62,1.8-3.45,4.06,1.08-1.74,3.9.19,4.31-1.59.38,2.06.64,1.3.11,3.46,2-2.49,1.44.3,3.51-.65.92,2.46-1.15,2.78,1.34,3.23C208.1,378.58,205.74,378.4,205.74,378.4Zm44.64-15.86h0l-.34,1.06Zm1.73-4.16a14.2,14.2,0,0,0-.83,1.77c-.63-.11-1.15-.53-.94-.94C250.63,359.61,251.37,358.78,252.11,358.38Zm-15.23,3.79c.05-.77.47-.86.85-.8a9.14,9.14,0,0,0-.3,1.26l.17.17A3.09,3.09,0,0,1,236.88,362.17Z"/><path class="cls-5" d="M238.55,364.31a1,1,0,0,1,0,.33,3.65,3.65,0,0,0,.54-.24l-.42-.46Z"/><path class="cls-5" d="M503.29,51.25l-.1,0a.7.7,0,0,1,.32.07A1.39,1.39,0,0,1,503.29,51.25Z"/><polygon class="cls-5" points="283.98 305.05 283.58 304.82 283.73 305.37 283.98 305.05"/><path class="cls-5" d="M526.67,40.4a.88.88,0,0,0,.55.16A1.15,1.15,0,0,0,526.67,40.4Z"/><path class="cls-5" d="M535.43,34.06l1.6-.43A6.66,6.66,0,0,0,535.43,34.06Z"/><path class="cls-5" d="M542.52,29.65a3.71,3.71,0,0,0-.35-.71h0Z"/><path class="cls-5" d="M442.83,115.76a.93.93,0,0,0-.18.28C442.33,116.8,442.61,116.36,442.83,115.76Z"/><path class="cls-5" d="M469.39,86.62a7,7,0,0,1-.39,1.48C469.61,87.74,470,87.41,469.39,86.62Z"/><path class="cls-5" d="M412.54,147.24l0,0-.19.19Z"/><path class="cls-5" d="M467.6,89.27a1.93,1.93,0,0,0,1.4-1.17A2.88,2.88,0,0,0,467.6,89.27Z"/><path class="cls-5" d="M571.51,8.34l.36-.18a.66.66,0,0,1-.14-.26Z"/><path class="cls-5" d="M571.73,7.89l.22-.44C571.79,7.58,571.66,7.7,571.73,7.89Z"/><path class="cls-5" d="M572.42,6.52l-.47.93C572.21,7.26,572.57,7.06,572.42,6.52Z"/><path class="cls-5" d="M562.27,14.35l.3.6A1.68,1.68,0,0,0,562.27,14.35Z"/><path class="cls-5" d="M559.73,16.52c.72-.37,2.44-.1,3.07-1.1l-.24-.48C562.75,16,559.66,15.19,559.73,16.52Z"/><path class="cls-5" d="M543.72,18.63l2.53-1.31c-.81-.25-1.9-.6-1-1.52C541.19,16.33,546.79,16.59,543.72,18.63Z"/><path class="cls-5" d="M536.24,23.19c1-1.19-.64-.79-.82-1.15C535.06,23.14,535,23.4,536.24,23.19Z"/><path class="cls-5" d="M487.2,62.62l-.94-1.36C485.52,62.18,486.67,61.75,487.2,62.62Z"/><polygon class="cls-5" points="483.45 76.84 484.97 76.9 484.41 75.4 483.45 76.84"/><polygon class="cls-5" points="470.42 72.43 470.66 71.92 469.56 73.62 470.42 72.43"/><path class="cls-5" d="M392.66,144.5l1.68,1.18C394.64,144.86,393.14,143.13,392.66,144.5Z"/><path class="cls-5" d="M362.56,179.08c-1.09-.32-2.44.2-2.24,1.45C361.13,179.87,362.4,179.64,362.56,179.08Z"/><polygon class="cls-5" points="276.38 286.32 276.3 285.18 275.84 286.96 276.38 286.32"/></g></g></svg>