<svg id="Group_2644" data-name="Group 2644" xmlns="http://www.w3.org/2000/svg" width="124.408" height="13.385" viewBox="0 0 124.408 13.385">
  <path id="Path_1943" data-name="Path 1943" d="M110.832,25.695c.671,0,.873.444.444.945l-4.525,5.269,4.768,5.519c.461.5.242.945-.428.945h-2.2a1.236,1.236,0,0,1-.945-.444l-2.917-3.451V37.6a.679.679,0,0,1-.808.808h-1.7a.679.679,0,0,1-.808-.808V26.454a.679.679,0,0,1,.808-.808h1.7a.679.679,0,0,1,.808.808v3.119l2.982-3.451a1.1,1.1,0,0,1,.945-.428Z" transform="translate(-101.701 -25.339)" fill="#e6e6e6"/>
  <path id="Path_1944" data-name="Path 1944" d="M140.225,38.385a.679.679,0,0,1-.808-.808V32.486l-3.653-5.867c-.323-.533-.121-.929.517-.929h2.069a1.05,1.05,0,0,1,.929.517l1.786,2.861,1.786-2.861a1.051,1.051,0,0,1,.929-.517h2.044c.638,0,.857.4.517.929l-3.636,5.867v5.131a.679.679,0,0,1-.808.808Z" transform="translate(-108.208 -25.35)" fill="#e6e6e6"/>
  <path id="Path_1945" data-name="Path 1945" d="M180.9,29.848a4.186,4.186,0,0,1-1.438,3.273,1.616,1.616,0,0,1-.364.242,1.81,1.81,0,0,0-.2.089l1.713,4.041c.226.533,0,.889-.6.889h-1.883a.905.905,0,0,1-.889-.6l-1.511-3.927h-1.56v3.758a.679.679,0,0,1-.808.808h-1.7a.679.679,0,0,1-.808-.808V26.454a.679.679,0,0,1,.808-.808h5.212a4.041,4.041,0,0,1,2.748.962,3.847,3.847,0,0,1,.808,1.2A5.027,5.027,0,0,1,180.9,29.848Zm-3.135,0a.962.962,0,0,0-1.026-1.042h-2.57v2.125h2.424a1.091,1.091,0,0,0,1.164-1.083Z" transform="translate(-114.968 -25.339)" fill="#e6e6e6"/>
  <path id="Path_1946" data-name="Path 1946" d="M211.247,38.616a6.663,6.663,0,1,1,6.683-6.651,6.57,6.57,0,0,1-1.956,4.7A6.707,6.707,0,0,1,211.247,38.616Zm0-10.085a3.426,3.426,0,1,0,2.424,1.01A3.426,3.426,0,0,0,211.247,28.531Z" transform="translate(-121.443 -25.273)" fill="#e6e6e6"/>
  <path id="Path_1947" data-name="Path 1947" d="M249.533,35.25a.7.7,0,0,0,.323-.533.582.582,0,0,0-.154-.477c-.048-.048-.121-.105-.2-.17a4.178,4.178,0,0,0-1.115-.461c-.307-.089-.687-.17-1.148-.259-1.867-.4-3.515-1.115-4.186-2.077a3.419,3.419,0,0,1-.549-1.616,3.709,3.709,0,0,1,.154-1.422,3.879,3.879,0,0,1,1.843-2.158,6.465,6.465,0,0,1,3.232-.808,9.1,9.1,0,0,1,2.586.38,7.322,7.322,0,0,1,1.681.808.647.647,0,0,1,.178,1.018l-.929,1.285a.711.711,0,0,1-1.067.226,4.986,4.986,0,0,0-2.424-.719,2.683,2.683,0,0,0-1.317.291,1.01,1.01,0,0,0-.461.5c-.137.339,0,.582.323.808a4.574,4.574,0,0,0,1.317.428c2.675.533,4.113,1.236,4.752,2.061a3.693,3.693,0,0,1,.655,2.982,3.467,3.467,0,0,1-1.358,2.263A5.81,5.81,0,0,1,248,38.644h-.307a2.3,2.3,0,0,1-.339,0,9.9,9.9,0,0,1-4.558-1.317.655.655,0,0,1-.2-1.083l1.1-1.5a.727.727,0,0,1,1.083-.186,5.932,5.932,0,0,0,2.554.889A3.628,3.628,0,0,0,249.533,35.25Z" transform="translate(-128.698 -25.269)" fill="#e6e6e6"/>
</svg>
