<svg xmlns="http://www.w3.org/2000/svg" viewBox="0 0 478.74 537.29"><defs><style>.cls-1{opacity:0.37;}.cls-2{fill:#999;}.cls-3,.cls-5{fill:#ccc;}.cls-3{opacity:0.34;}.cls-4{fill:#f7d4b2;}.cls-6{fill:#14202c;}.cls-7{fill:#65ad59;}.cls-8{fill:#feb98e;}.cls-9{fill:none;stroke:#666;stroke-miterlimit:10;stroke-width:0.5px;}.cls-10{fill:#e6e6e6;}.cls-11{fill:#f2f2f2;}</style></defs><title>Asset 1</title><g id="Layer_2" data-name="Layer 2"><g id="Layer_1-2" data-name="Layer 1"><g class="cls-1"><path class="cls-2" d="M391.82,54.45a5.86,5.86,0,0,1-2.71,1.87c-1.52.52-1.89,1.53-1.84,3,0,1.21.46,2.46,0,3.75a5.16,5.16,0,0,1-2.12-1.61,2.58,2.58,0,0,0-3.55-.83,25,25,0,0,1-3.05,1.07,19.22,19.22,0,0,1,.87-4.41,2.52,2.52,0,0,0-.36-2.14c-.77-1.17-1.37-2.46-2.12-3.83a5.25,5.25,0,0,1,2.8-.06,3.11,3.11,0,0,0,3.44-1.86c.38-.65.7-1.59,1.52-1.53.66.05.72,1,.91,1.61.62,2,1.5,3.55,3.84,3.87A5,5,0,0,1,391.82,54.45Z"/><path class="cls-2" d="M442,63.28a1.12,1.12,0,0,1,.25-.21c3-1.21,3.4-3.79,3.58-6.54,0-.73-.09-1.81.63-2s1.37.62,1.78,1.23c1.69,2.5,3.89,3.12,6.77,2.37,1.78-.47,2-.07,1.29,1.6a7.59,7.59,0,0,1-.71,1.48c-1.27,1.77-1,3.42.27,5.06a10,10,0,0,1,.86,1.58c.19.39.4.85.07,1.23s-.79.18-1.2,0c-1.32-.53-2.66-1-4-1.6-.72-.32-1.15-.31-1.6.45-.74,1.27-1.6,2.48-2.44,3.68-.33.47-.65,1.17-1.35,1s-.45-.9-.49-1.43-.09-1-.11-1.47c-.08-3-.08-3-3-3.8-.71-.19-1.6-.06-2-.91C440.48,64.57,440.62,64.42,442,63.28Zm5.76-5.16c-.34,2.66-.94,4.75-3.24,5.93,1,.59,2.15.32,2.49,1.33a21.8,21.8,0,0,1,.53,2.65l1.36-2a1.82,1.82,0,0,1,2.54-.73,3.26,3.26,0,0,0,2.21.59c-1.78-2.11-.84-4,.39-6C451.55,60.91,449.48,60.83,447.77,58.12Z"/><path class="cls-2" d="M127.29,33c.14-2.16.16-4.11.43-6a2.25,2.25,0,0,0-1.49-2.71,14.83,14.83,0,0,1-1.93-.9c-.33-.2-.91-.31-.86-.86s.47-.58.8-.75c1.38-.75,2.76-1.52,4.18-2.2a1.52,1.52,0,0,0,.94-1c.36-1.76,1.34-3.34,1.53-5.37a14.83,14.83,0,0,1,3.23,4,1.45,1.45,0,0,0,1.71.87c1.29-.19,2.58-.35,3.86-.56.5-.08,1-.25,1.39.15s.06,1.16-.21,1.49c-.56.69-.74,1.55-1.32,2.24a3,3,0,0,0-.34,3.61,22.67,22.67,0,0,1,1.33,3.5c.28.81,0,1.13-.88,1A14.14,14.14,0,0,1,136,28.31a2.87,2.87,0,0,0-3.55.6A31.35,31.35,0,0,1,127.29,33Z"/><path class="cls-2" d="M456.8,221.13a5.86,5.86,0,0,1-2.71,1.87c-1.52.52-1.89,1.53-1.84,3,0,1.21.46,2.46,0,3.75a5.16,5.16,0,0,1-2.12-1.61,2.58,2.58,0,0,0-3.55-.83,25,25,0,0,1-3.05,1.07,19.22,19.22,0,0,1,.87-4.41,2.52,2.52,0,0,0-.36-2.14c-.77-1.17-1.37-2.46-2.12-3.83a5.25,5.25,0,0,1,2.8-.06,3.11,3.11,0,0,0,3.44-1.86c.38-.65.7-1.59,1.52-1.53.66.05.72,1,.91,1.61.62,2,1.5,3.55,3.84,3.87A5,5,0,0,1,456.8,221.13Z"/><path class="cls-2" d="M214.8,44.95a5.86,5.86,0,0,1-2.71,1.87c-1.52.52-1.89,1.53-1.84,3,0,1.21.46,2.46,0,3.75A5.16,5.16,0,0,1,208.11,52a2.58,2.58,0,0,0-3.55-.83,25,25,0,0,1-3.05,1.07,19.22,19.22,0,0,1,.87-4.41,2.52,2.52,0,0,0-.36-2.14c-.77-1.17-1.37-2.46-2.12-3.83a5.25,5.25,0,0,1,2.8-.06,3.11,3.11,0,0,0,3.44-1.86c.38-.65.7-1.59,1.52-1.53.66.05.72,1,.91,1.61.62,2,1.5,3.55,3.84,3.87A5,5,0,0,1,214.8,44.95Z"/><path class="cls-2" d="M379.11,151.42c-.94.65-1.9,1.28-2.82,2a1.41,1.41,0,0,0-.43,2c.67,1.36,1.18,2.79,1.81,4.16a1.07,1.07,0,0,1-.1,1.22c-.37.44-.84.14-1.19-.07-.88-.53-1.75-1.1-2.58-1.71s-1.77-1-2.71,0a18.74,18.74,0,0,1-2,1.72c-1,.79-1.6.57-1.74-.68a27.35,27.35,0,0,1-.2-3.74,3.15,3.15,0,0,0-1.07-2.43,24.36,24.36,0,0,0-3-2.74c-.41-.3-.79-.62-.67-1.2s.75-.58,1.19-.66c1.32-.27,2.65-.5,4-.66a1.16,1.16,0,0,0,1.16-.87,34.24,34.24,0,0,1,1.67-3.49c.48-.93.9-1,1.53-.11a15.52,15.52,0,0,1,1.92,3.21,1.72,1.72,0,0,0,1.51,1.2c1.18.2,2.37.34,3.56.53.57.09,1.32,0,1.53.7s-.57,1-.95,1.37a2.12,2.12,0,0,1-.4.28ZM369.37,157c1.8-2,3.34-.72,5,.19-1.35-4.69-1.88-3.57,1.53-6.23-.79-.88-2.1-.41-3-1.18s-.47-2.19-1.87-2.85c-.16,2.73-1.85,4-4.61,4.28C368,153,369.86,154.31,369.37,157Z"/></g><path class="cls-3" d="M107.06,273.51c1.61.07,3.21.09,4.82.08,6,0,37,2.21,22.79,54.56C119,386,97.71,439.45,173.87,483s198.33.12,230.84-77.37c34.24-81.6,44.2-133.65,30.6-214.92C416.15,76.2,218.59.43,127.65,46.92,37.65,92.92-12.43,268.17,107.06,273.51Z"/><polygon class="cls-4" points="450.75 417.71 470.94 424.13 472.61 415.73 454.3 405.11 450.75 417.71"/><polygon class="cls-4" points="341.62 479.93 347.29 503.59 353.93 503.59 353.93 478.37 341.62 479.93"/><path class="cls-5" d="M353.93,499.17s-1.64,4.31-7.19,2.16c0,0-13.12,12.77-8.87,14.24s19.93-6.1,20.12-7.15S356.7,498.54,353.93,499.17Z"/><path class="cls-5" d="M471.7,415.2s.1,6.9-3.28,8.13c0,0,.56,17.06,4.12,17.2s7.51-21.16,5.78-23.82S471.7,415.2,471.7,415.2Z"/><path class="cls-6" d="M314.47,302.64S309.63,359.39,324,414c11.1,42.15,15.54,64.49,17,72.5a3.57,3.57,0,0,0,3.76,3.14l7.59-.86a3.82,3.82,0,0,0,3.14-4.05c-.56-22.48-3.2-140.58,2.48-153.12,0,0,26.12,69.8,96,88a1.74,1.74,0,0,0,2-1l4.37-9.33a2.35,2.35,0,0,0-.74-2.93c-9-5.89-52.92-37.62-60.75-103C398.84,303.34,351.78,261.44,314.47,302.64Z"/><path class="cls-7" d="M336.42,182.7c13.47-6.71,32.27-8.15,46.93-3.13l.09,0a13.29,13.29,0,0,1,8.82,11l7.16,113.62c-50.69,16-85.88,3.2-85.88,3.2l8.29-89.91,12.38-33.79C335,183.41,335.69,183.06,336.42,182.7Z"/><path class="cls-8" d="M250.19,130.88s.13-12.46,0-13.48-1.92,6.19-1.92,6.19-4.21-9.07-5.16-9.63,3,9.32,3,9.32-5.16-9.38-6.5-9.2,4.5,9.6,4.5,9.6-5-6.2-6-6.15,4,7,4,7-4.77-3-5.74-3,3.84,3.86,5.22,5a2.6,2.6,0,0,1,.62.72l3.18,5.73Z"/><path class="cls-7" d="M251.34,129.57A167.32,167.32,0,0,0,266.19,152a57.67,57.67,0,0,0,44.7,21.72l38.32.33a21.28,21.28,0,0,1,10,4.09c4.73,3.6,9,10,1.48,19.95-12.69,16.84-51,7.72-51,7.72-7.39-1.32-17.61-4.64-30.66-12.27-30.05-17.57-36.7-60.81-36.7-60.81Z"/><path class="cls-4" d="M350.56,142.29s-15.91,27.28,5.29,28.07c0,0,12-1.79,15.26-11,0,0,3.24-8.32-5-2.46C366.09,156.87,370,137.88,350.56,142.29Z"/><path class="cls-6" d="M348.78,145.74s-11.76-3.31-1.22-13.15,43.08,7.26,22.13,29.6c0,0,4.85-9.65-3.6-5.33C366.09,156.87,366.8,139.53,348.78,145.74Z"/><path class="cls-4" d="M352.41,163.42l2.67,18.29a2.16,2.16,0,0,0,1.85,1.82c3.43.47,11.46.88,15.8-4.63a2.08,2.08,0,0,0,.36-1.75l-4.65-20.56Z"/><path class="cls-4" d="M269.09,162.57s-3.82-11.87-4.28-12.78.14,6.48.14,6.48-6.86-7.27-7.94-7.5,5.77,7.9,5.77,7.9-7.87-7.26-9.07-6.67,7.31,7.68,7.31,7.68-6.71-4.3-7.68-3.92,6,5.32,6,5.32-5.49-1.38-6.38-1,4.87,2.45,6.52,3.06a2.6,2.6,0,0,1,.82.49l4.83,4.43Z"/><path class="cls-7" d="M268.77,161.29a167.32,167.32,0,0,0,20.44,17.45,57.67,57.67,0,0,0,49,8.58l36.93-10.23a21.28,21.28,0,0,1,10.76,1.17c5.54,2.16,11.37,7.18,6.91,18.77-7.56,19.68-46.91,21.46-46.91,21.46-7.47.77-18.21.39-32.86-3.35-33.73-8.62-52-48.37-52-48.37Z"/><path class="cls-9" d="M231,502.48l-45.2-372.23H149.1L103.55,502c-1,5.64,1.38,11.35,4.66,11.35h0c2,0,3.74-2.12,4.5-5.39l44.45-332.47,2.16,352.91c0,4.78,2.22,8.62,4.88,8.62h1c2.56,0,4.68-3.55,4.87-8.14l9.08-352.59,40.86,332c.75,3.5,2.66,5.75,4.74,5.61l1.84-.13C229.76,513.58,232,508,231,502.48Z"/><rect class="cls-10" x="322.29" y="135.94" width="15.01" height="25.76" transform="translate(573.73 -118.39) rotate(108.11)"/><polygon class="cls-10" points="109.29 108.33 83.09 98.7 104.41 33.02 130.61 42.65 109.29 108.33"/><path class="cls-5" d="M108.24,27.92,29.55.33A5.91,5.91,0,0,0,22,4.09L.29,70.89A5.91,5.91,0,0,0,4,78.3L82.91,106a9.25,9.25,0,0,0,11.82-6.09L114.1,40.2A9.78,9.78,0,0,0,108.24,27.92Z"/><path class="cls-5" d="M330.5,126.59,325.84,125,312.6,165.73l4.38,1.54a6.21,6.21,0,0,0,8-3.94l9.4-29A6.21,6.21,0,0,0,330.5,126.59Z"/><polygon class="cls-10" points="312.6 165.73 248.09 143.11 261.33 102.34 325.84 124.95 312.6 165.73"/><polygon class="cls-5" points="252.31 144.59 231.09 137.03 244.32 96.26 265.55 103.82 252.31 144.59"/><path class="cls-10" d="M243.11,82.08,130.61,42.65l-21.32,65.68,112.5,39.43a12.43,12.43,0,0,0,15.88-8.18l13.3-41A13.15,13.15,0,0,0,243.11,82.08Z"/><ellipse class="cls-11" cx="167.36" cy="121.65" rx="22.08" ry="22.95"/><ellipse class="cls-5" cx="167.36" cy="121.65" rx="11.75" ry="12.21"/></g></g></svg>