<svg viewBox="0 0 53.18 53.18" xmlns="http://www.w3.org/2000/svg"><path d="m53.18 26.59a26.59 26.59 0 1 0 -30.74 26.27v-18.58h-6.76v-7.69h6.75v-5.86c0-6.66 4-10.35 10-10.35a40.88 40.88 0 0 1 6 .52v6.54h-3.35c-3.3 0-4.33 2-4.33 4.15v5h7.37l-1.18 7.69h-6.2v18.58a26.6 26.6 0 0 0 22.44-26.27z" fill="#65ad59"/><path d="m36.94 34.28 1.18-7.69h-7.38v-5c0-2.1 1-4.15 4.33-4.15h3.35v-6.53a40.88 40.88 0 0 0 -6-.52c-6.07 0-10 3.68-10 10.35v5.86h-6.74v7.69h6.75v18.57a26.87 26.87 0 0 0 8.31 0v-18.58z" fill="#fff"/></svg>