<svg xmlns="http://www.w3.org/2000/svg" viewBox="0 0 53.18 53.18"><defs><style>.cls-1{fill:#65ad59;}.cls-2{fill:#fff;}</style></defs><title>Asset 3</title><g id="Layer_2" data-name="Layer 2"><g id="Layer_1-2" data-name="Layer 1"><circle class="cls-1" cx="26.59" cy="26.59" r="26.59"/><circle class="cls-2" cx="34.84" cy="18.36" r="1.83"/><path class="cls-2" d="M26.72,18.87a7.68,7.68,0,1,0,7.68,7.68A7.69,7.69,0,0,0,26.72,18.87Zm0,12.6a4.92,4.92,0,1,1,4.92-4.92A4.92,4.92,0,0,1,26.72,31.47Z"/><path class="cls-2" d="M32.81,42.14H20.37A9.38,9.38,0,0,1,11,32.78V20.33A9.37,9.37,0,0,1,20.37,11H32.81a9.38,9.38,0,0,1,9.37,9.36V32.78A9.38,9.38,0,0,1,32.81,42.14ZM20.37,13.9a6.44,6.44,0,0,0-6.43,6.43V32.78a6.44,6.44,0,0,0,6.43,6.43H32.81a6.44,6.44,0,0,0,6.43-6.43V20.33a6.44,6.44,0,0,0-6.43-6.43Z"/></g></g></svg>