<svg xmlns="http://www.w3.org/2000/svg" viewBox="0 0 53.18 53.18"><defs><style>.cls-1{fill:#65ad59;}.cls-2{fill:#fff;}</style></defs><title>Asset 5</title><g id="Layer_2" data-name="Layer 2"><g id="Layer_1-2" data-name="Layer 1"><circle class="cls-1" cx="26.59" cy="26.59" r="26.59"/><path class="cls-2" d="M40.83,22.72a6.39,6.39,0,0,0-6.38-6.38H18.11a6.39,6.39,0,0,0-6.38,6.38v7.6a6.38,6.38,0,0,0,6.38,6.38H34.44a6.38,6.38,0,0,0,6.38-6.38Zm-9.6,4.37L23.9,30.71c-.29.16-1.26-.05-1.26-.38V22.9c0-.33,1-.54,1.27-.37l7,3.81C31.21,26.51,31.52,26.93,31.22,27.09Z"/></g></g></svg>