<svg xmlns="http://www.w3.org/2000/svg" viewBox="0 0 505 101.09"><defs><style>.cls-1{fill:#e6e6e6;}.cls-2{fill:#65ad59;}</style></defs><title>Asset 3</title><g id="Layer_2" data-name="Layer 2"><g id="Layer_1-2" data-name="Layer 1"><path class="cls-1" d="M147.21,79.19a8.71,8.71,0,1,1-8.58,8.7A8.68,8.68,0,0,1,147.21,79.19Zm0,15.7a7,7,0,1,0-6.74-7A6.78,6.78,0,0,0,147.21,94.89Zm-2.76-7c0,2.12,1.32,3.25,2.83,3.25a2.52,2.52,0,0,0,2.57-1.91l1.6.71a4.26,4.26,0,0,1-4.17,2.88,4.68,4.68,0,0,1-4.67-4.93,4.63,4.63,0,0,1,4.64-4.9,4,4,0,0,1,4.13,2.95l-1.65.68a2.41,2.41,0,0,0-2.48-2C145.79,84.61,144.45,85.7,144.45,87.84Z"/><path class="cls-1" d="M157.93,86.19a5.43,5.43,0,0,1,0-.61,4.93,4.93,0,0,1,5.28-4.95c3.28,0,5.16,2.14,5.16,4.69A5.56,5.56,0,0,1,165.48,90l-3,1.93a3.74,3.74,0,0,0-1.86,2.15h7.85v2.14h-10.7c0-2.5,1-4.41,3.63-6.08l2.55-1.65a3.82,3.82,0,0,0,2.1-3.18,2.64,2.64,0,0,0-2.88-2.69,2.82,2.82,0,0,0-2.95,3.14c0,.21,0,.45,0,.68Z"/><path class="cls-1" d="M171.94,83.08a5.71,5.71,0,0,1,9.38,0,9.83,9.83,0,0,1,1.37,5.54,9.83,9.83,0,0,1-1.37,5.54,5.71,5.71,0,0,1-9.38,0,9.84,9.84,0,0,1-1.37-5.54A9.84,9.84,0,0,1,171.94,83.08Zm2.26,10.49a3.47,3.47,0,0,0,4.86,0c.92-1,1.34-2.62,1.34-5s-.42-4-1.34-5a3.47,3.47,0,0,0-4.86,0c-.92,1-1.34,2.62-1.34,5S173.28,92.6,174.2,93.57Z"/><path class="cls-1" d="M184.88,86.19a5.43,5.43,0,0,1,0-.61,4.93,4.93,0,0,1,5.28-4.95c3.28,0,5.16,2.14,5.16,4.69A5.56,5.56,0,0,1,192.42,90l-3,1.93a3.74,3.74,0,0,0-1.86,2.15h7.85v2.14h-10.7c0-2.5,1-4.41,3.63-6.08l2.55-1.65a3.82,3.82,0,0,0,2.1-3.18,2.64,2.64,0,0,0-2.88-2.69,2.82,2.82,0,0,0-2.95,3.14c0,.21,0,.45,0,.68Z"/><path class="cls-1" d="M200.86,96.26V85.48h-3.7V83.86A3.81,3.81,0,0,0,201.1,81h2V96.26Z"/><path class="cls-1" d="M217.6,88.67l-2.38,2.55v5h-2.31V79.54h2.31v8.6l7.83-8.6h3l-7,7.45,7,9.26h-2.92Z"/><path class="cls-1" d="M227.41,101l2.83-6-4.88-10.09h2.55l3.54,7.83,3.39-7.83h2.38L229.84,101Z"/><path class="cls-1" d="M245.64,87.16a6.93,6.93,0,0,0-1-.07c-1.86,0-3.11,1-3.11,3.49v5.68h-2.22V84.92h2.17v2a3.55,3.55,0,0,1,3.39-2.17,4.23,4.23,0,0,1,.73.07Z"/><path class="cls-1" d="M258.53,90.57a5.8,5.8,0,1,1-5.8-6A5.72,5.72,0,0,1,258.53,90.57Zm-2.26,0c0-2.62-1.65-4-3.54-4s-3.54,1.41-3.54,4,1.65,4.05,3.54,4.05S256.27,93.21,256.27,90.57Z"/><path class="cls-1" d="M262.31,92.6a2.42,2.42,0,0,0,2.64,2.12c1.25,0,1.93-.71,1.93-1.51s-.52-1.25-1.46-1.46l-1.93-.43a3.23,3.23,0,0,1-2.83-3.18,3.86,3.86,0,0,1,4-3.58c3.11,0,4.08,2,4.31,3l-2,.73a2.2,2.2,0,0,0-2.36-1.89A1.71,1.71,0,0,0,262.8,88c0,.68.43,1.18,1.3,1.37l1.84.4c2.05.45,3.14,1.7,3.14,3.37s-1.34,3.51-4.15,3.51c-3.11,0-4.43-2-4.62-3.3Z"/><path class="cls-1" d="M273.41,93.1a1.64,1.64,0,0,1,1.65,1.65,1.62,1.62,0,0,1-1.65,1.63,1.6,1.6,0,0,1-1.63-1.63A1.62,1.62,0,0,1,273.41,93.1Z"/><path class="cls-1" d="M281.33,89.77l3.06-.45c.68-.09.87-.45.87-.85,0-1.11-.73-2-2.45-2a2.41,2.41,0,0,0-2.57,2.29l-2.12-.5c.24-2.17,2.19-3.68,4.64-3.68,3.39,0,4.71,1.93,4.71,4.15v5.68a10.83,10.83,0,0,0,.14,1.86h-2.17a8.42,8.42,0,0,1-.12-1.53,4.13,4.13,0,0,1-3.65,1.89,3.53,3.53,0,0,1-3.79-3.39C277.89,91.19,279.37,90.06,281.33,89.77Zm3.94,1.63v-.52l-3.46.52a1.69,1.69,0,0,0-1.65,1.7A1.72,1.72,0,0,0,282,94.75C283.81,94.75,285.27,93.87,285.27,91.4Z"/><path class="cls-1" d="M292,79a1.59,1.59,0,1,1-1.58,1.6A1.59,1.59,0,0,1,292,79Zm-1.08,17.23V84.92h2.19V96.26Z"/><path class="cls-1" d="M298.28,93.1a1.64,1.64,0,0,1,1.65,1.65,1.62,1.62,0,0,1-1.65,1.63,1.6,1.6,0,0,1-1.63-1.63A1.62,1.62,0,0,1,298.28,93.1Z"/><path class="cls-1" d="M319.36,91.59H312l-1.77,4.67h-2.48l6.65-16.71H317l6.65,16.71h-2.5Zm-6.58-2.15h5.75l-2.9-7.49Z"/><path class="cls-1" d="M325.79,96.26V79.19H328V96.26Z"/><path class="cls-1" d="M331.78,96.26V79.19H334V96.26Z"/><path class="cls-1" d="M350,87.16a6.93,6.93,0,0,0-1-.07c-1.86,0-3.11,1-3.11,3.49v5.68h-2.22V84.92h2.17v2a3.55,3.55,0,0,1,3.39-2.17,4.23,4.23,0,0,1,.73.07Z"/><path class="cls-1" d="M353.4,79a1.59,1.59,0,1,1-1.58,1.6A1.59,1.59,0,0,1,353.4,79Zm-1.08,17.23V84.92h2.19V96.26Z"/><path class="cls-1" d="M359.6,96.37a3,3,0,0,0,3.09,2.78c2.38,0,3.46-1.23,3.46-3.68V93.85a3.77,3.77,0,0,1-3.46,1.86,5.51,5.51,0,0,1,0-11,3.58,3.58,0,0,1,3.49,1.79V84.92h2.19V95.41c0,2.88-1.41,5.68-5.68,5.68a5,5,0,0,1-5.23-4.22Zm6.65-6.15c0-2.19-1.32-3.63-3.23-3.63s-3.28,1.44-3.28,3.63S361,93.85,363,93.85,366.25,92.41,366.25,90.22Z"/><path class="cls-1" d="M374.13,96.26h-2.22V79.19h2.22v7a4,4,0,0,1,3.44-1.65c2.71,0,4.05,2,4.05,4.48v7.19h-2.22V89.44c0-1.58-.66-2.85-2.64-2.85-1.7,0-2.59,1.32-2.64,3Z"/><path class="cls-1" d="M388.13,84.92h2.45v2h-2.45v5.89c0,1,.42,1.56,1.58,1.56a4.49,4.49,0,0,0,.87-.09v1.89a4.86,4.86,0,0,1-1.51.21,2.94,2.94,0,0,1-3.16-3.23V86.92h-2.17v-2h.61a1.59,1.59,0,0,0,1.74-1.74V81.33h2Z"/><path class="cls-1" d="M394.59,92.6a2.42,2.42,0,0,0,2.64,2.12c1.25,0,1.93-.71,1.93-1.51s-.52-1.25-1.46-1.46l-1.93-.43a3.23,3.23,0,0,1-2.83-3.18,3.86,3.86,0,0,1,4-3.58c3.11,0,4.08,2,4.31,3l-2,.73A2.2,2.2,0,0,0,397,86.45,1.71,1.71,0,0,0,395.09,88c0,.68.43,1.18,1.3,1.37l1.84.4c2.05.45,3.14,1.7,3.14,3.37s-1.34,3.51-4.15,3.51c-3.11,0-4.43-2-4.62-3.3Z"/><path class="cls-1" d="M416.49,87.16a6.93,6.93,0,0,0-1-.07c-1.86,0-3.11,1-3.11,3.49v5.68H410.2V84.92h2.17v2a3.55,3.55,0,0,1,3.39-2.17,4.23,4.23,0,0,1,.73.07Z"/><path class="cls-1" d="M428.61,93a5.14,5.14,0,0,1-5.09,3.58c-3,0-5.71-2.21-5.71-6.06a5.66,5.66,0,0,1,5.42-6c3.49,0,5.44,2.4,5.44,5.94a5.06,5.06,0,0,1,0,.71H420.1a3.37,3.37,0,0,0,3.42,3.44,3.09,3.09,0,0,0,3.18-2.29Zm-2.24-3.61a2.86,2.86,0,0,0-3.11-2.9,3.05,3.05,0,0,0-3.09,2.9Z"/><path class="cls-1" d="M432.45,92.6a2.42,2.42,0,0,0,2.64,2.12c1.25,0,1.93-.71,1.93-1.51s-.52-1.25-1.46-1.46l-1.93-.43a3.22,3.22,0,0,1-2.83-3.18,3.86,3.86,0,0,1,4-3.58c3.11,0,4.08,2,4.31,3l-2,.73a2.2,2.2,0,0,0-2.36-1.89A1.71,1.71,0,0,0,432.95,88c0,.68.42,1.18,1.3,1.37l1.84.4c2.05.45,3.13,1.7,3.13,3.37s-1.34,3.51-4.15,3.51c-3.11,0-4.43-2-4.62-3.3Z"/><path class="cls-1" d="M451.93,93a5.14,5.14,0,0,1-5.09,3.58c-3,0-5.71-2.21-5.71-6.06a5.66,5.66,0,0,1,5.42-6C450,84.56,452,87,452,90.5a5.06,5.06,0,0,1,0,.71h-8.53a3.37,3.37,0,0,0,3.42,3.44A3.09,3.09,0,0,0,450,92.37Zm-2.24-3.61a2.86,2.86,0,0,0-3.11-2.9,3.05,3.05,0,0,0-3.09,2.9Z"/><path class="cls-1" d="M461.12,87.16a6.9,6.9,0,0,0-1-.07c-1.86,0-3.11,1-3.11,3.49v5.68h-2.22V84.92H457v2a3.55,3.55,0,0,1,3.39-2.17,4.19,4.19,0,0,1,.73.07Z"/><path class="cls-1" d="M469,96.26h-2.24l-4.6-11.34h2.5l3.23,8.75,3.25-8.75h2.38Z"/><path class="cls-1" d="M485.19,93a5.14,5.14,0,0,1-5.09,3.58c-3,0-5.71-2.21-5.71-6.06a5.66,5.66,0,0,1,5.42-6c3.49,0,5.44,2.4,5.44,5.94a5.06,5.06,0,0,1,0,.71h-8.53a3.37,3.37,0,0,0,3.42,3.44,3.09,3.09,0,0,0,3.18-2.29ZM483,89.42a2.86,2.86,0,0,0-3.11-2.9,3.05,3.05,0,0,0-3.09,2.9Z"/><path class="cls-1" d="M496,94.53a3.8,3.8,0,0,1-3.51,2c-3.32,0-5.37-2.64-5.37-6,0-3.21,2.17-5.94,5.37-5.94A3.48,3.48,0,0,1,496,86.52V79.19h2.19v15a17.75,17.75,0,0,0,.12,2.1h-2.15a9.51,9.51,0,0,1-.12-1.53Zm-3.3.07c2,0,3.28-1.77,3.28-4.1s-1.23-3.94-3.25-3.94-3.35,1.65-3.35,4S490.62,94.61,492.74,94.61Z"/><path class="cls-1" d="M503.35,93.1A1.64,1.64,0,0,1,505,94.75a1.62,1.62,0,0,1-1.65,1.63,1.6,1.6,0,0,1-1.63-1.63A1.62,1.62,0,0,1,503.35,93.1Z"/><path class="cls-1" d="M.43,90.87.34,91a2.87,2.87,0,0,0,.91,3.74,3,3,0,0,0,1.71.5H23.58A1.25,1.25,0,0,0,24.83,94V53.5a.49.49,0,0,0-.9-.26Z"/><path class="cls-1" d="M112.56,90.86l.08.14a2.87,2.87,0,0,1-.91,3.74,3,3,0,0,1-1.71.5H89.41A1.25,1.25,0,0,1,88.16,94V53.5a.49.49,0,0,1,.9-.26Z"/><path class="cls-1" d="M59.11,1.38A2.86,2.86,0,0,0,56.66,0h0a2.86,2.86,0,0,0-2.45,1.39l-20,32.09a.49.49,0,0,0,.41.75H78.91a.49.49,0,0,0,.41-.75Z"/><path class="cls-2" d="M74.12,46.53v0a2.27,2.27,0,0,0-.52-1.3,2.4,2.4,0,0,0-3-.55A54.4,54.4,0,0,1,62.92,48c-.94.35-1.93.69-3,1.06-7.74,2.7-17.38,6.07-20.17,14-1.55,4.43-.78,9.54,2.35,15.55a1.32,1.32,0,0,0,2.08.35c2.57-2.45,5.22-5.13,8-8.13s5.59-6.11,8.32-9.3A1.09,1.09,0,0,1,62,61.42a1,1,0,0,1,.26,1.3l-.56,1c-.58,1-1.22,2.07-2,3.36-1.29,2.1-2.7,4.24-4.32,6.56-2.21,3.15-4.53,6.17-6.93,9a1,1,0,0,0,.47,1.58,25,25,0,0,0,6.93,1.07,15.27,15.27,0,0,0,9.33-2.94C75.49,74.72,74.87,54.76,74.12,46.53Z"/><path class="cls-1" d="M154.21,42.45A6.53,6.53,0,0,1,152,47.57a2.51,2.51,0,0,1-.56.37,3.14,3.14,0,0,0-.32.13l2.68,6.29c.35.83,0,1.39-.94,1.39h-2.94a1.41,1.41,0,0,1-1.39-.94l-2.36-6.13h-2.44v5.86a1.06,1.06,0,0,1-1.2,1.2h-2.65a1.06,1.06,0,0,1-1.2-1.2V37.16a1.06,1.06,0,0,1,1.2-1.2H148a6.33,6.33,0,0,1,4.28,1.5,6,6,0,0,1,1.31,1.87A7.85,7.85,0,0,1,154.21,42.45Zm-4.9,0a1.5,1.5,0,0,0-1.61-1.63h-4v3.32h3.83A1.7,1.7,0,0,0,149.31,42.45Z"/><path class="cls-1" d="M169,36a1.06,1.06,0,0,1,1.2,1.2V54.55a1.06,1.06,0,0,1-1.2,1.2h-2.65a1.06,1.06,0,0,1-1.2-1.2V37.16a1.06,1.06,0,0,1,1.2-1.2Z"/><path class="cls-1" d="M192.41,51a1.09,1.09,0,0,0,.51-.83.92.92,0,0,0-.24-.75,4.18,4.18,0,0,0-.32-.27,6.48,6.48,0,0,0-1.74-.72c-.48-.13-1.07-.27-1.79-.4-2.92-.62-5.49-1.74-6.53-3.24a5.33,5.33,0,0,1-.86-2.54,5.79,5.79,0,0,1,.24-2.22,6.05,6.05,0,0,1,2.89-3.35,10.09,10.09,0,0,1,5-1.26,14.18,14.18,0,0,1,4,.59,11.45,11.45,0,0,1,2.62,1.26,1,1,0,0,1,.27,1.66l-1.45,2a1.11,1.11,0,0,1-1.66.35,7.78,7.78,0,0,0-3.83-1.12,4.18,4.18,0,0,0-2.06.46,1.58,1.58,0,0,0-.72.78c-.21.54,0,.91.51,1.2a7.14,7.14,0,0,0,2.06.67c4.17.83,6.42,1.93,7.41,3.21a5.76,5.76,0,0,1,1,4.66,5.4,5.4,0,0,1-2.11,3.53A9.07,9.07,0,0,1,190,56.29h-.48a3.64,3.64,0,0,1-.54,0,15.43,15.43,0,0,1-7.12-2.06,1,1,0,0,1-.32-1.69l1.79-2.25A1.13,1.13,0,0,1,185,50a9.24,9.24,0,0,0,4,1.39A5.66,5.66,0,0,0,192.41,51Z"/><path class="cls-1" d="M213.31,48.18V50.7h7.63a1.06,1.06,0,0,1,1.2,1.2v2.65a1.06,1.06,0,0,1-1.2,1.2H209.46a1.06,1.06,0,0,1-1.2-1.2V37.16a1.06,1.06,0,0,1,1.2-1.2h11.48a1.06,1.06,0,0,1,1.2,1.2v2.65a1.06,1.06,0,0,1-1.2,1.2h-7.63V43.5h5.62a1.06,1.06,0,0,1,1.2,1.2V47a1.06,1.06,0,0,1-1.2,1.2Z"/><path class="cls-1" d="M254.78,55.75a1.24,1.24,0,0,1-1.34-1.07l-3.83-17.45c-.19-.83.21-1.31,1.07-1.31h2.73A1.24,1.24,0,0,1,254.75,37l1.85,8.7L259,36.94a1.26,1.26,0,0,1,1.34-1h2.92a1.26,1.26,0,0,1,1.34,1l2.38,8.7L268.8,37a1.24,1.24,0,0,1,1.34-1.07h2.7c.86,0,1.26.48,1.07,1.31l-3.8,17.45a1.24,1.24,0,0,1-1.34,1.07h-3.1a1.26,1.26,0,0,1-1.34-1l-2.54-9.31-2.54,9.31a1.33,1.33,0,0,1-1.36,1Z"/><path class="cls-1" d="M287.9,36a1.06,1.06,0,0,1,1.2,1.2V54.55a1.06,1.06,0,0,1-1.2,1.2h-2.65a1.06,1.06,0,0,1-1.2-1.2V37.16a1.06,1.06,0,0,1,1.2-1.2Z"/><path class="cls-1" d="M306,55.75a1.06,1.06,0,0,1-1.2-1.2V41h-4.12a1.06,1.06,0,0,1-1.2-1.2V37.16a1.06,1.06,0,0,1,1.2-1.2H314a1.06,1.06,0,0,1,1.2,1.2v2.65A1.06,1.06,0,0,1,314,41H309.9V54.55a1.06,1.06,0,0,1-1.2,1.2Z"/><path class="cls-1" d="M341,54.55a1.06,1.06,0,0,1-1.2,1.2h-2.65a1.06,1.06,0,0,1-1.2-1.2V48.39h-5.49v6.16a1.06,1.06,0,0,1-1.2,1.2h-2.65a1.06,1.06,0,0,1-1.2-1.2V37.16a1.06,1.06,0,0,1,1.2-1.2h2.65a1.06,1.06,0,0,1,1.2,1.2v6.15h5.49V37.16a1.06,1.06,0,0,1,1.2-1.2h2.65a1.06,1.06,0,0,1,1.2,1.2Z"/><path class="cls-1" d="M381.89,36c1,0,1.36.7.7,1.47l-7.06,8.22L383,54.28c.72.78.37,1.47-.67,1.47h-3.43a1.93,1.93,0,0,1-1.47-.7l-4.55-5.38v4.87a1.06,1.06,0,0,1-1.2,1.2H369a1.06,1.06,0,0,1-1.2-1.2V37.16A1.06,1.06,0,0,1,369,36h2.65a1.06,1.06,0,0,1,1.2,1.2V42l4.66-5.38A1.71,1.71,0,0,1,379,36Z"/><path class="cls-1" d="M400.51,55.75a1.06,1.06,0,0,1-1.2-1.2v-8l-5.7-9.15c-.51-.83-.19-1.45.8-1.45h3.18a1.63,1.63,0,0,1,1.45.8l2.78,4.47,2.78-4.47a1.63,1.63,0,0,1,1.45-.8h3.18c1,0,1.34.62.8,1.45l-5.67,9.15v8a1.06,1.06,0,0,1-1.2,1.2Z"/><path class="cls-1" d="M436.29,42.45A6.53,6.53,0,0,1,434,47.57a2.51,2.51,0,0,1-.56.37,3.15,3.15,0,0,0-.32.13l2.68,6.29c.35.83,0,1.39-.94,1.39H432a1.41,1.41,0,0,1-1.39-.94l-2.36-6.13h-2.44v5.86a1.06,1.06,0,0,1-1.2,1.2h-2.65a1.06,1.06,0,0,1-1.2-1.2V37.16a1.06,1.06,0,0,1,1.2-1.2h8.13a6.33,6.33,0,0,1,4.28,1.5,6,6,0,0,1,1.31,1.87A7.85,7.85,0,0,1,436.29,42.45Zm-4.9,0a1.5,1.5,0,0,0-1.61-1.63h-4v3.32h3.83A1.7,1.7,0,0,0,431.39,42.45Z"/><path class="cls-1" d="M456.41,56.24A10.42,10.42,0,0,1,449,53.18a10.4,10.4,0,0,1,7.36-17.74,10.41,10.41,0,0,1,10.41,10.41,10.24,10.24,0,0,1-3.05,7.33A10.47,10.47,0,0,1,456.41,56.24Zm0-15.73a5.34,5.34,0,1,0,3.77,1.58A5.34,5.34,0,0,0,456.41,40.5Z"/><path class="cls-1" d="M487.68,51a1.09,1.09,0,0,0,.51-.83.92.92,0,0,0-.24-.75,4.18,4.18,0,0,0-.32-.27,6.47,6.47,0,0,0-1.74-.72c-.48-.13-1.07-.27-1.79-.4-2.92-.62-5.49-1.74-6.53-3.24a5.33,5.33,0,0,1-.86-2.54A5.79,5.79,0,0,1,477,40a6.05,6.05,0,0,1,2.89-3.35,10.09,10.09,0,0,1,5-1.26,14.18,14.18,0,0,1,4,.59,11.44,11.44,0,0,1,2.62,1.26,1,1,0,0,1,.27,1.66l-1.45,2a1.11,1.11,0,0,1-1.66.35,7.78,7.78,0,0,0-3.83-1.12,4.18,4.18,0,0,0-2.06.46,1.58,1.58,0,0,0-.72.78c-.21.54,0,.91.51,1.2a7.14,7.14,0,0,0,2.06.67c4.17.83,6.42,1.93,7.41,3.21a5.76,5.76,0,0,1,1,4.66A5.4,5.4,0,0,1,491,54.66a9.07,9.07,0,0,1-5.73,1.63h-.48a3.64,3.64,0,0,1-.54,0,15.43,15.43,0,0,1-7.12-2.06,1,1,0,0,1-.32-1.69l1.79-2.25a1.13,1.13,0,0,1,1.69-.29,9.24,9.24,0,0,0,4,1.39A5.66,5.66,0,0,0,487.68,51Z"/></g></g></svg>