<svg xmlns="http://www.w3.org/2000/svg" viewBox="0 0 882.25 106.42"><defs><style>.cls-1{fill:#f7764c;}.cls-2{fill:#f2f2f2;}</style></defs><title>Asset 4</title><g id="Layer_2" data-name="Layer 2"><g id="Layer_1-2" data-name="Layer 1"><path class="cls-1" d="M750.22,36.8Q424.2,26.68,96.83,24.54V94.07c114.8-2.63,230,2,344.91,2s229.89-1.95,344.71-4c48.39-.85,88.45-12.58,95-30.14,5.89-15.76-21.82-35.08-69.3-38.14C696.81,16.42,578.86,16,462.08,14.12L124.57,8.66V78.19l313.67,2.07,156.84,1c52,.34,111.28,3,160.94-3.67,38.84-5.2,73-17.42,71-33.52-1.79-14.36-28.39-30.74-71-33.52C614.64,1.36,470.88-2.05,327.44,1.21,277,2.35,228.26,16.38,230.7,36c2.23,17.85,42.65,36,96.74,34.76q100.12-2.27,200.46-.4,47.89.93,95.58,2.86c8.74.35,18.47.4,27,1.18-25.52-2.35-5.66-.26,1.1.1q26.58,1.41,53,3.15v-67c-5.46.73-10.67,1.24-16.31,1.75-16.81,1.53,17-.25,4.9-.3-11.29,0-22.61.21-33.93.15q-37.43-.21-74.85-.49l-153.27-1-306.54-2C73.94,8.32,25.52,24.89,27.83,43.42,30.26,63,70.34,77.31,124.57,78.19L455,83.54q81.45,1.32,162.91,2.65c26.73.47,53.45,1,80.12,1.83,12,.37,30.2-.11,41.23,1.54L727.12,89q5.08.25,10.14.53,11.77.64,23.47,1.41l25.72-68.29c-114.82,2-229.72,4-344.71,4s-230.11-4.66-344.91-2C46.43,25.7-2.36,39.71.09,59.31c2.38,19.12,42.5,34.4,96.74,34.76Q424,96.25,750.22,106.33c50.56,1.57,98.94-17.11,96.74-34.76-2.51-20.18-42.59-33.08-96.74-34.76Z"/><path class="cls-2" d="M38,80.52V11.66H53.35v54.2H83.07V80.52Z"/><path class="cls-2" d="M136.3,66.63C134,75,126.29,82,114.06,82,100.75,82,88.9,72.46,88.9,56.24c0-15.54,11.56-25.45,24.09-25.45,15,0,24.18,9.23,24.18,24.77a30.75,30.75,0,0,1-.29,4.57H103.28c.29,5.44,5.24,9.32,11,9.32,5.34,0,8.35-2.52,9.71-6.31Zm-13.4-16c-.19-3.69-2.72-8.16-9.71-8.16-6.22,0-9.32,4.56-9.62,8.16Z"/><path class="cls-2" d="M158.05,52.64l11.36-1.75c2.62-.39,3.5-1.65,3.5-3.3,0-2.82-2.43-5.24-7.09-5.24-5.15,0-8,3.5-8.26,7.09l-12.82-2.62c.58-6.9,7-16,21.17-16,15.64,0,21.37,8.74,21.37,18.65V73a47.4,47.4,0,0,0,.58,7.48H174.56a23.59,23.59,0,0,1-.49-5.44c-2.53,4.08-7.19,6.8-13.6,6.8-10.59,0-16.71-7-16.71-14.67C143.78,58.67,150.09,53.81,158.05,52.64Zm14.86,8.94V59.44l-9.13,1.46c-3.11.49-5.44,1.94-5.44,5.34,0,2.53,1.65,5,5.73,5C168.45,71.2,172.91,69.06,172.91,61.58Z"/><path class="cls-2" d="M230.41,46.82a20,20,0,0,0-4.66-.49c-5.92,0-11.27,3.5-11.27,13.11V80.52H199.72V32.25H214v6.51c2.52-5.44,8.64-7,12.53-7a14.59,14.59,0,0,1,3.89.49Z"/><path class="cls-2" d="M254.11,80.52H239.34V32.25h14.28v5.54c2.62-4.56,8.55-6.8,13.5-6.8,12.14,0,17.58,8.64,17.58,19.23v30.3H269.94V52.74c0-4.76-2.53-8.35-7.87-8.35-4.86,0-8,3.59-8,8.45Z"/><path class="cls-2" d="M321,80.52V32.25h14.08v5.54c2.43-4.27,8.64-7,13.89-7,6.9,0,11.85,2.82,14.28,7.58,3.79-5.44,8.45-7.58,15-7.58,9.13,0,17.87,5.34,17.87,18.45V80.52H381.83v-28c0-4.56-2.43-8.16-7.67-8.16s-8.06,4-8.06,8.26V80.52H351.52v-28c0-4.56-2.43-8.16-7.77-8.16-5.15,0-8,4-8,8.35V80.52Z"/><path class="cls-2" d="M456.32,56.34c0,15-11.17,25.64-25.64,25.64S405,71.29,405,56.34s11.27-25.54,25.64-25.54S456.32,41.38,456.32,56.34Zm-14.76,0c0-8.16-5.25-11.95-10.88-11.95S419.8,48.18,419.8,56.34s5.34,12,10.88,12S441.56,64.49,441.56,56.34Z"/><path class="cls-2" d="M496.53,46.82a20,20,0,0,0-4.66-.49c-5.92,0-11.27,3.5-11.27,13.11V80.52H465.84V32.25h14.28v6.51c2.52-5.44,8.64-7,12.53-7a14.59,14.59,0,0,1,3.89.49Z"/><path class="cls-2" d="M548.78,66.63C546.45,75,538.78,82,526.54,82c-13.31,0-25.16-9.52-25.16-25.74,0-15.54,11.56-25.45,24.09-25.45,15,0,24.18,9.23,24.18,24.77a30.75,30.75,0,0,1-.29,4.57H515.76c.29,5.44,5.24,9.32,11,9.32,5.34,0,8.35-2.52,9.71-6.31Zm-13.4-16c-.19-3.69-2.72-8.16-9.71-8.16-6.22,0-9.32,4.56-9.62,8.16Z"/><path class="cls-2" d="M600.74,32.25h9.42V45.17h-9.42V63.23c0,4,2.14,5.05,5.34,5.05A18.23,18.23,0,0,0,610,67.8V80c-.58.29-3,1.36-7.67,1.36-10,0-16.12-5.92-16.12-15.54V45.17h-8.55V32.25h2.43c5.05,0,7.48-3.4,7.48-7.87V18.16h13.21Z"/><path class="cls-2" d="M667.85,56.34c0,15-11.17,25.64-25.64,25.64s-25.64-10.68-25.64-25.64,11.27-25.54,25.64-25.54S667.85,41.38,667.85,56.34Zm-14.76,0c0-8.16-5.25-11.95-10.88-11.95s-10.88,3.79-10.88,11.95,5.34,12,10.88,12S653.09,64.49,653.09,56.34Z"/><path class="cls-2" d="M724.87,71.88c0,4.37.29,7.58.39,8.64H711.08a33.24,33.24,0,0,1-.39-4.66c-2.23,3.3-7.09,5.73-12.92,5.73-13.6,0-23.89-10.49-23.89-25.35,0-14.37,9.71-25.16,23.41-25.16,8.26,0,11.85,3.11,13,5V10.2h14.57Zm-25.25-3.5c5.73,0,10.88-4.08,10.88-12s-5.15-11.95-10.88-11.95-10.88,3.89-10.88,11.95S693.88,68.38,699.61,68.38Z"/><path class="cls-2" d="M749.05,52.64l11.36-1.75c2.62-.39,3.5-1.65,3.5-3.3,0-2.82-2.43-5.24-7.09-5.24-5.15,0-8,3.5-8.26,7.09l-12.82-2.62c.58-6.9,7-16,21.17-16,15.64,0,21.37,8.74,21.37,18.65V73a47.4,47.4,0,0,0,.58,7.48H765.56a23.59,23.59,0,0,1-.49-5.44c-2.53,4.08-7.19,6.8-13.6,6.8-10.59,0-16.71-7-16.71-14.67C734.77,58.67,741.09,53.81,749.05,52.64Zm14.86,8.94V59.44l-9.13,1.46c-3.11.49-5.44,1.94-5.44,5.34,0,2.53,1.65,5,5.73,5C759.44,71.2,763.91,69.06,763.91,61.58Z"/><path class="cls-2" d="M792.66,99.07l11-25.06-20.3-41.76h16.51L811.6,58.08l10.68-25.84h15.64L808.2,99.07Z"/><path class="cls-2" d="M861.13,59H850.25l-3.4-47.3h17.68Zm-5.54,5.73a8.4,8.4,0,1,1,0,16.8,8.4,8.4,0,0,1,0-16.8Z"/></g></g></svg>