<svg xmlns="http://www.w3.org/2000/svg" viewBox="0 0 310.93 221.25"><defs><style>.cls-1{fill:#65ad59;}.cls-2{fill:#e6e6e6;}</style></defs><title>Asset 2</title><g id="Layer_2" data-name="Layer 2"><g id="Layer_1-2" data-name="Layer 1"><path class="cls-1" d="M181.3,70.54v0a3.44,3.44,0,0,0-.79-2,3.64,3.64,0,0,0-4.58-.84,82.48,82.48,0,0,1-11.6,5.15c-1.43.52-2.93,1-4.51,1.6-11.74,4.1-26.34,9.2-30.58,21.29-2.35,6.71-1.19,14.46,3.56,23.57a2,2,0,0,0,3.15.54c3.89-3.71,7.91-7.78,12.17-12.33s8.48-9.27,12.61-14.1a1.65,1.65,0,0,1,2.19-.29,1.51,1.51,0,0,1,.4,2l-.84,1.5c-.88,1.52-1.85,3.14-3.06,5.1-2,3.18-4.1,6.43-6.55,9.95-3.35,4.78-6.87,9.36-10.5,13.68a1.49,1.49,0,0,0,.71,2.4,38,38,0,0,0,10.51,1.62,23.15,23.15,0,0,0,14.14-4.45C183.38,113.28,182.44,83,181.3,70.54Z"/><path class="cls-2" d="M69.58,137.75l-.13.22a4.34,4.34,0,0,0,1.38,5.66,4.6,4.6,0,0,0,2.6.75h31.26a1.89,1.89,0,0,0,1.89-1.89V81.11a.74.74,0,0,0-1.36-.39Z"/><path class="cls-2" d="M239.58,137.75l.13.22a4.34,4.34,0,0,1-1.38,5.66,4.6,4.6,0,0,1-2.6.75H204.47a1.89,1.89,0,0,1-1.89-1.89V81.11a.74.74,0,0,1,1.36-.39Z"/><path class="cls-2" d="M158.55,2.09A4.34,4.34,0,0,0,154.84,0h0a4.34,4.34,0,0,0-3.71,2.1L120.72,50.75a.74.74,0,0,0,.63,1.13h67.22a.74.74,0,0,0,.62-1.13Z"/><path class="cls-2" d="M22.61,188.68c1.67,0,2.19,1.12,1.12,2.36L12.4,204.21,24.33,218c1.16,1.24.6,2.36-1.07,2.36H17.76a3.09,3.09,0,0,1-2.36-1.12l-7.29-8.62v7.81a1.71,1.71,0,0,1-1.93,1.93H1.93A1.71,1.71,0,0,1,0,218.46V190.57a1.71,1.71,0,0,1,1.93-1.93H6.18a1.71,1.71,0,0,1,1.93,1.93v7.81l7.47-8.62a2.75,2.75,0,0,1,2.36-1.07Z"/><path class="cls-2" d="M79.93,220.39A1.71,1.71,0,0,1,78,218.46V205.63L68.86,191c-.82-1.33-.3-2.32,1.29-2.32h5.11a2.62,2.62,0,0,1,2.32,1.29L82,197.09l4.46-7.17a2.62,2.62,0,0,1,2.32-1.29h5.11c1.59,0,2.14,1,1.29,2.32l-9.1,14.67v12.83a1.71,1.71,0,0,1-1.93,1.93Z"/><path class="cls-2" d="M164.75,199.06a10.47,10.47,0,0,1-3.6,8.19,4.07,4.07,0,0,1-.9.6,4.4,4.4,0,0,0-.51.21L164,218.16c.56,1.33,0,2.23-1.5,2.23H157.8a2.27,2.27,0,0,1-2.23-1.5l-3.78-9.83h-3.9v9.4a1.71,1.71,0,0,1-1.93,1.93h-4.25a1.71,1.71,0,0,1-1.93-1.93V190.57a1.71,1.71,0,0,1,1.93-1.93h13a10.14,10.14,0,0,1,6.87,2.4,9.64,9.64,0,0,1,2.1,3A12.58,12.58,0,0,1,164.75,199.06Zm-7.85,0a2.4,2.4,0,0,0-2.57-2.62h-6.44v5.32H154A2.73,2.73,0,0,0,156.9,199.06Z"/><path class="cls-2" d="M224.47,221.16a16.71,16.71,0,0,1-11.8-4.89,16.67,16.67,0,0,1,11.8-28.45,16.7,16.7,0,0,1,16.69,16.69,16.43,16.43,0,0,1-4.89,11.76A16.78,16.78,0,0,1,224.47,221.16Zm0-25.23a8.57,8.57,0,1,0,6,2.53A8.56,8.56,0,0,0,224.47,195.93Z"/><path class="cls-2" d="M302.08,212.75a1.74,1.74,0,0,0,.82-1.33,1.47,1.47,0,0,0-.39-1.2c-.13-.13-.3-.26-.51-.43a10.39,10.39,0,0,0-2.79-1.16c-.77-.21-1.72-.43-2.87-.64-4.68-1-8.8-2.79-10.47-5.19a8.55,8.55,0,0,1-1.37-4.08,9.28,9.28,0,0,1,.39-3.56,9.7,9.7,0,0,1,4.63-5.36,16.17,16.17,0,0,1,8.07-2,22.75,22.75,0,0,1,6.48.94,18.33,18.33,0,0,1,4.2,2,1.62,1.62,0,0,1,.43,2.66l-2.32,3.22a1.77,1.77,0,0,1-2.66.56,12.47,12.47,0,0,0-6.14-1.8,6.71,6.71,0,0,0-3.3.73,2.53,2.53,0,0,0-1.16,1.24c-.34.86,0,1.46.82,1.93a11.46,11.46,0,0,0,3.3,1.07c6.69,1.33,10.3,3.09,11.89,5.15a9.24,9.24,0,0,1,1.63,7.47,8.67,8.67,0,0,1-3.39,5.66c-2,1.59-5,2.62-9.18,2.62h-.77a5.72,5.72,0,0,1-.86,0,24.76,24.76,0,0,1-11.41-3.3,1.63,1.63,0,0,1-.51-2.7l2.87-3.6a1.82,1.82,0,0,1,2.7-.47,14.85,14.85,0,0,0,6.39,2.23C299,213.65,301.18,213.39,302.08,212.75Z"/><path class="cls-2" d="M158.55,2.09A4.34,4.34,0,0,0,154.84,0h0a4.34,4.34,0,0,0-3.71,2.1L120.72,50.75a.74.74,0,0,0,.63,1.13h67.22a.74.74,0,0,0,.62-1.13Z"/></g></g></svg>