<svg xmlns="http://www.w3.org/2000/svg" viewBox="0 0 431.7 268.84"><defs><style>.cls-1{isolation:isolate;}.cls-2{fill:#fff;}.cls-3{opacity:0.34;mix-blend-mode:luminosity;}</style></defs><title>Asset 4</title><g class="cls-1"><g id="Layer_2" data-name="Layer 2"><g id="Layer_1-2" data-name="Layer 1"><path class="cls-2" d="M420.72,268.84l-.82-.82c-.07-.07-7.06-7-9.95-8.24s-12.71-1.45-12.81-1.45l-1.15,0,.8-.82c.07-.07,7-7.18,8.21-10.1s1.51-12.86,1.51-13l0-1.16.82.82c.07.07,7.06,7,9.95,8.24s12.71,1.45,12.81,1.45l1.15,0-.8.82c-.07.07-7,7.18-8.21,10.1s-1.51,12.86-1.51,13ZM398.3,257.37c2.73.1,9.57.44,12,1.5s7.48,5.75,9.45,7.65c.11-2.75.49-9.67,1.55-12.18s5.75-7.6,7.64-9.6c-2.73-.1-9.57-.44-12-1.5s-7.48-5.75-9.45-7.65c-.11,2.75-.49,9.67-1.55,12.18S400.19,255.37,398.3,257.37Z"/><path class="cls-2" d="M24.72,143.84,23.9,143c-.07-.07-7.06-7-9.95-8.24s-12.71-1.45-12.81-1.45l-1.15,0,.8-.82c.07-.07,7-7.18,8.21-10.1s1.51-12.86,1.51-13l0-1.16.82.82c.07.07,7.06,7,9.95,8.24s12.71,1.45,12.81,1.45l1.15,0-.8.82c-.07.07-7,7.18-8.21,10.1s-1.51,12.86-1.51,13ZM2.3,132.37c2.73.1,9.57.44,12,1.5s7.48,5.75,9.45,7.65c.11-2.75.49-9.67,1.55-12.18s5.75-7.6,7.64-9.6c-2.73-.1-9.57-.44-12-1.5s-7.48-5.75-9.45-7.65c-.11,2.75-.49,9.67-1.55,12.18S4.19,130.37,2.3,132.37Z"/><g class="cls-3 cls-2"><path d="M278.6,161a81.39,81.39,0,0,1-11.49-.82,79.7,79.7,0,0,1-33.45-12.81L233,147v0a80.11,80.11,0,0,1-34.72-59.17,80.42,80.42,0,0,1,32-71.73A80.46,80.46,0,0,1,358.15,91.88h0c0,.19-.06.39-.09.58A80.53,80.53,0,0,1,278.6,161ZM234,145.25l.61.41A78.5,78.5,0,0,0,356.09,92.1c0-.2.06-.36.08-.5h0A78.51,78.51,0,1,0,234,145.25Z"/><path d="M335.61,130.55a454.43,454.43,0,0,1-63.81-4.74,449.73,449.73,0,0,1-67.5-14.73c-51.06-15.6-81.14-36.78-78.5-55.28,1-6.71,6-12.58,15.08-17.43,16.46-8.83,44.94-13.71,80.2-13.75h2.41l-1.69,1.71c-.54.54-1.07,1.11-1.58,1.67l-.28.3-.41,0c-31.3,1.83-51.71,9.78-53.27,20.74-1.34,9.37,10.72,20.3,33.09,30,19.2,8.35,44.56,15.06,71.42,18.89,32,4.55,62.88,4.56,84.85,0,17.68-3.68,28-10,29.14-17.75,1.35-9.46-11-20.5-33.75-30.27l-.37-.16-.16-.37c-.53-1.24-1.08-2.43-1.69-3.62-.24-.48-.48-.94-.73-1.41l-1.12-2.1,2.29.67c53.5,15.69,85,37.31,82.32,56.42-2.63,18.43-37.25,30.37-90.35,31.14Q338.41,130.55,335.61,130.55ZM214.3,26.69c-31.79.61-57.36,5.33-72.48,13.44-8.46,4.54-13.18,9.91-14,16-2.45,17.19,27.82,38,77.1,53.08a447.74,447.74,0,0,0,67.2,14.66,446,446,0,0,0,69.08,4.68c51.26-.75,86-12.3,88.4-29.42,2.5-17.52-28.31-38.45-78.67-53.56.44.9.86,1.8,1.26,2.73,23.8,10.27,36.08,21.71,34.58,32.23C385.47,89.28,374.85,96,356,99.92c-22.18,4.59-53.36,4.59-85.54,0-27-3.85-52.58-10.61-71.93-19-23.59-10.21-35.77-21.61-34.27-32.1C165.9,37.29,184.48,29.15,214.3,26.69Z"/></g></g></g></g></svg>