<svg xmlns="http://www.w3.org/2000/svg" viewBox="0 0 746.31 264.04"><defs><style>.cls-1{fill:#f7764c;}.cls-2{fill:#e6e6e6;}</style></defs><title>Asset 3</title><g id="Layer_2" data-name="Layer 2"><g id="Layer_1-2" data-name="Layer 1"><path class="cls-1" d="M518.6,164.44Q293.24,158.31,66.94,157v42.13c79.36-1.59,159,1.19,238.42,1.23s158.91-1.18,238.29-2.4c33.45-.51,61.14-7.63,65.68-18.27,4.07-9.55-15.08-21.26-47.9-23.11-79.75-4.51-161.28-4.75-242-5.9L86.11,147.38v42.13l216.83,1.25,108.42.63c36,.21,76.92,1.81,111.26-2.22,26.85-3.15,50.48-10.56,49.1-20.31-1.24-8.7-19.63-18.63-49.1-20.31-97.73-5.59-197.11-7.66-296.26-5.68-34.84.69-68.56,9.19-66.87,21.07C161,174.75,189,185.75,226.35,185q69.21-1.38,138.57-.24,33.11.56,66.07,1.73c6,.21,12.77.24,18.66.71-17.64-1.42-3.91-.16.76.06q18.38.86,36.65,1.91V148.55c-3.78.44-7.37.75-11.28,1.06-11.62.93,11.76-.15,3.38-.18-7.8,0-15.63.13-23.46.09q-25.87-.13-51.74-.3l-106-.61-211.9-1.23c-35-.2-68.47,9.83-66.87,21.07,1.68,11.84,29.38,20.53,66.87,21.07l228.4,3.24q56.31.8,112.61,1.61c18.48.28,37,.61,55.38,1.11,8.29.23,20.88-.07,28.5.93l-8.37-.36,7,.32q8.13.39,16.22.85l17.78-41.38c-79.37,1.22-158.8,2.44-238.29,2.4S146.29,155.41,66.94,157c-34.84.7-68.56,9.19-66.87,21.07,1.65,11.59,29.38,20.85,66.87,21.07q226.16,1.32,451.66,7.43c34.95,1,68.4-10.37,66.87-21.07-1.74-12.23-29.44-20-66.87-21.07Z"/><path class="cls-2" d="M51.73,116.78h-17l-4.06,10.72H25L40.26,89.12h6.12l15.26,38.37H55.9Zm-15.1-4.93H49.84L43.18,94.64Z"/><path class="cls-2" d="M97.41,88.31c9.63,0,19.27,7.14,19.27,20s-9.63,20-19.27,20-19.27-7.2-19.27-20S87.77,88.31,97.41,88.31Zm0,35.13c7.14,0,13.86-5.14,13.86-15.15s-6.71-15.1-13.86-15.1-13.86,5.09-13.86,15.1S90.26,123.44,97.41,123.44Z"/><path class="cls-2" d="M128.53,127.49h-5.09v-26h5v3.73a8.92,8.92,0,0,1,8-4.49c6.22,0,9.31,4.49,9.31,10.28v16.51h-5.09V111.85c0-3.63-1.52-6.55-6.06-6.55-4,0-6.06,3.19-6.06,7.14Z"/><path class="cls-2" d="M176.53,120.08a11.8,11.8,0,0,1-11.69,8.23c-7,0-13.1-5.09-13.1-13.91,0-8.17,5.9-13.75,12.45-13.75,8,0,12.5,5.52,12.5,13.64a11.42,11.42,0,0,1-.11,1.62H157a7.73,7.73,0,0,0,7.85,7.9,7.09,7.09,0,0,0,7.31-5.25Zm-5.14-8.28c-.11-3.73-2.54-6.66-7.14-6.66a7,7,0,0,0-7.09,6.66Z"/><path class="cls-2" d="M181.29,114.18v-4.44H196v4.44Z"/><path class="cls-2" d="M204.89,119.11c.32,2.71,2.38,4.87,6.06,4.87,2.87,0,4.44-1.62,4.44-3.46,0-1.62-1.19-2.87-3.36-3.36l-4.44-1c-4.06-.87-6.49-3.63-6.49-7.31,0-4.44,4.17-8.23,9.25-8.23,7.14,0,9.36,4.65,9.9,7l-4.49,1.68a5.05,5.05,0,0,0-5.41-4.33c-2.6,0-4.33,1.68-4.33,3.46,0,1.57,1,2.71,3,3.14l4.22.92c4.71,1,7.2,3.9,7.2,7.74,0,3.68-3.08,8.06-9.53,8.06-7.14,0-10.18-4.6-10.61-7.58Z"/><path class="cls-2" d="M234,101.46h5.63v4.6H234v13.53c0,2.38,1,3.57,3.63,3.57a10.29,10.29,0,0,0,2-.22v4.33a11.15,11.15,0,0,1-3.46.49c-4.44,0-7.25-2.71-7.25-7.41V106.06h-5v-4.6h1.41c2.81,0,4-1.73,4-4V93.23H234Z"/><path class="cls-2" d="M270.59,114.45c0,8-5.52,13.86-13.31,13.86S244,122.41,244,114.45s5.52-13.8,13.31-13.8S270.59,106.55,270.59,114.45Zm-5.2,0c0-6-3.79-9.26-8.12-9.26s-8.12,3.25-8.12,9.26,3.79,9.31,8.12,9.31S265.4,120.51,265.4,114.45Z"/><path class="cls-2" d="M277.09,137.78V101.46H282v4.06c1.41-2.6,4.49-4.65,8.71-4.65,7.79,0,12,6,12,13.58,0,7.74-4.49,13.75-12.12,13.75a9.68,9.68,0,0,1-8.44-4.22v13.8Zm12.72-32.42c-4.65,0-7.74,3.9-7.74,9.09,0,5.36,3.08,9.2,7.74,9.2s7.69-3.84,7.69-9.2C297.49,109.26,294.57,105.36,289.81,105.36Z"/><path class="cls-2" d="M26.89,171c0-12.83,9.53-20,19.05-20,8.77,0,14.94,4.76,16.89,12.18l-4.93,1.73c-1.46-5.79-5.68-9-12-9-7,0-13.64,5.09-13.64,15.1S39,186.16,45.94,186.16c6.55,0,10.66-4,12.23-9.2l4.71,1.73C60.82,185.89,54.76,191,45.94,191,36,191,26.89,183.83,26.89,171Z"/><path class="cls-2" d="M92.76,177.18c0,8-5.52,13.86-13.31,13.86s-13.31-5.9-13.31-13.86,5.52-13.8,13.31-13.8S92.76,169.27,92.76,177.18Zm-5.2,0c0-6-3.79-9.26-8.12-9.26s-8.12,3.25-8.12,9.26,3.79,9.31,8.12,9.31S87.56,183.24,87.56,177.18Z"/><path class="cls-2" d="M99.25,190.22V151h5.09v39.19Z"/><path class="cls-2" d="M113,190.22V151h5.09v39.19Z"/><path class="cls-2" d="M149.42,182.81A11.8,11.8,0,0,1,137.73,191c-7,0-13.1-5.09-13.1-13.91,0-8.17,5.9-13.75,12.45-13.75,8,0,12.5,5.52,12.5,13.64a11.42,11.42,0,0,1-.11,1.62H129.88a7.73,7.73,0,0,0,7.85,7.9,7.09,7.09,0,0,0,7.31-5.25Zm-5.14-8.28c-.11-3.73-2.54-6.66-7.14-6.66a7,7,0,0,0-7.09,6.66Z"/><path class="cls-2" d="M159.11,190.49a6.92,6.92,0,0,0,7.09,6.39c5.47,0,8-2.81,8-8.44V184.7c-1.24,2.38-4.06,4.28-8,4.28-6.93,0-12-5.25-12-12.61,0-7,4.82-12.66,12-12.66,4,0,6.71,1.52,8,4.11v-3.63h5v24.08c0,6.6-3.25,13-13,13-6.49,0-11.37-4.11-12-9.69Zm15.26-14.13c0-5-3-8.33-7.42-8.33s-7.52,3.3-7.52,8.33,2.92,8.33,7.52,8.33C171.34,184.7,174.37,181.4,174.37,176.36Z"/><path class="cls-2" d="M210,182.81A11.8,11.8,0,0,1,198.34,191c-7,0-13.1-5.09-13.1-13.91,0-8.17,5.9-13.75,12.45-13.75,8,0,12.5,5.52,12.5,13.64a11.42,11.42,0,0,1-.11,1.62H190.49a7.73,7.73,0,0,0,7.85,7.9,7.09,7.09,0,0,0,7.31-5.25Zm-5.14-8.28c-.11-3.73-2.54-6.66-7.14-6.66a7,7,0,0,0-7.09,6.66Z"/><path class="cls-2" d="M236.06,174.52v15.7h-5.3V151.85h14c7.09,0,11.85,4.93,11.85,11.37s-4.76,11.31-11.85,11.31Zm7.69-4.76c4.6,0,7.42-2.54,7.42-6.49s-2.81-6.66-7.42-6.66h-7.69v13.15Z"/><path class="cls-2" d="M276.17,169.33a15.93,15.93,0,0,0-2.22-.16c-4.28,0-7.14,2.27-7.14,8v13h-5.09v-26h5v4.55a8.15,8.15,0,0,1,7.79-5,9.56,9.56,0,0,1,1.68.16Z"/><path class="cls-2" d="M304,182.81A11.8,11.8,0,0,1,292.3,191c-7,0-13.1-5.09-13.1-13.91,0-8.17,5.9-13.75,12.45-13.75,8,0,12.5,5.52,12.5,13.64a11.42,11.42,0,0,1-.11,1.62H284.45a7.73,7.73,0,0,0,7.85,7.9,7.09,7.09,0,0,0,7.31-5.25Zm-5.14-8.28c-.11-3.73-2.54-6.66-7.14-6.66a7,7,0,0,0-7.09,6.66Z"/><path class="cls-2" d="M310.64,200.5V164.19h4.92v4.06c1.41-2.6,4.49-4.65,8.71-4.65,7.79,0,12,6,12,13.58,0,7.74-4.49,13.75-12.12,13.75a9.68,9.68,0,0,1-8.44-4.22v13.8Zm12.72-32.42c-4.65,0-7.74,3.9-7.74,9.09,0,5.36,3.08,9.2,7.74,9.2s7.69-3.84,7.69-9.2C331,172,328.12,168.08,323.36,168.08Z"/><path class="cls-2" d="M362.11,174.52v15.7h-5.3V151.85h14c7.09,0,11.85,4.93,11.85,11.37s-4.76,11.31-11.85,11.31Zm7.69-4.76c4.6,0,7.42-2.54,7.42-6.49s-2.81-6.66-7.42-6.66h-7.69v13.15Z"/><path class="cls-2" d="M388,190.22V151h5.09v39.19Z"/><path class="cls-2" d="M408.06,175.34l7-1c1.57-.22,2-1,2-1.95,0-2.54-1.68-4.65-5.63-4.65a5.52,5.52,0,0,0-5.9,5.25l-4.87-1.14c.54-5,5-8.44,10.66-8.44,7.79,0,10.82,4.44,10.82,9.53v13a24.47,24.47,0,0,0,.32,4.28h-5a19,19,0,0,1-.27-3.52,9.49,9.49,0,0,1-8.39,4.33c-5.3,0-8.71-3.68-8.71-7.79C400.16,178.58,403.56,176,408.06,175.34Zm9,3.73v-1.19l-8,1.19c-2.17.32-3.79,1.57-3.79,3.9a4,4,0,0,0,4.22,3.79C413.74,186.76,417.1,184.75,417.1,179.07Z"/><path class="cls-2" d="M436.9,164.19h5.63v4.6H436.9v13.53c0,2.38,1,3.57,3.63,3.57a10.29,10.29,0,0,0,2-.22V190a11.15,11.15,0,0,1-3.46.49c-4.44,0-7.25-2.71-7.25-7.41V168.79h-5v-4.6h1.41c2.81,0,4-1.73,4-4V156h4.65Z"/><path class="cls-2" d="M456.12,168.79v21.43h-5.25V168.79H446v-4.6h4.82V159.8c0-5.79,3.84-8.93,8.55-8.93a6.58,6.58,0,0,1,3,.54V156a5.87,5.87,0,0,0-2.22-.32c-1.79,0-4.11.87-4.11,4.44v4.11h6.28v4.6Z"/><path class="cls-2" d="M491.24,177.18c0,8-5.52,13.86-13.31,13.86s-13.31-5.9-13.31-13.86,5.52-13.8,13.31-13.8S491.24,169.27,491.24,177.18Zm-5.2,0c0-6-3.79-9.26-8.12-9.26s-8.12,3.25-8.12,9.26,3.79,9.31,8.12,9.31S486,183.24,486,177.18Z"/><path class="cls-2" d="M512.18,169.33a15.93,15.93,0,0,0-2.22-.16c-4.28,0-7.14,2.27-7.14,8v13h-5.09v-26h5v4.55a8.15,8.15,0,0,1,7.79-5,9.56,9.56,0,0,1,1.68.16Z"/><path class="cls-2" d="M517.6,190.22v-26h4.87v3.46a9,9,0,0,1,7.9-4.22,8.13,8.13,0,0,1,7.79,4.93,9.34,9.34,0,0,1,8.71-4.93c4.55,0,9,3.08,9,9.9v16.89h-5V173.88c0-3.41-1.68-6-5.52-6-3.57,0-6,2.81-6,6.55v15.75h-5.09V173.88c0-3.36-1.62-6-5.52-6-3.63,0-6.06,2.71-6.06,6.6v15.7Z"/><path class="cls-2" d="M567.39,183.13c2.33,0,4.38,1.73,4.38,5.14,0,7.14-4.65,10.12-8,10.55V196a6.14,6.14,0,0,0,4.49-5.85,2.36,2.36,0,0,1-1.19.27,3.48,3.48,0,0,1-3.63-3.68A3.78,3.78,0,0,1,567.39,183.13Z"/><path class="cls-2" d="M28.08,263.23V226h8v2.76c1.14-1.73,4.06-3.41,7.9-3.41,7.79,0,12.5,6,12.5,14,0,8.23-5.3,14.13-12.83,14.13-3.46,0-6.06-1.19-7.31-2.71v12.39Zm14.18-30.42c-3.19,0-6.06,2.17-6.06,6.66s2.87,6.71,6.06,6.71,6.12-2.22,6.12-6.71S45.51,232.81,42.26,232.81Z"/><path class="cls-2" d="M88.37,239.47a14.29,14.29,0,0,1-28.58,0,13.9,13.9,0,0,1,14.29-14.23A13.87,13.87,0,0,1,88.37,239.47Zm-8.23,0c0-4.55-2.92-6.66-6.06-6.66S68,234.92,68,239.47s3,6.71,6.06,6.71S80.14,244,80.14,239.47Z"/><path class="cls-2" d="M116.89,226l5.25,16,4.49-16h8.06l-8.33,26.9h-8.17l-5.85-17.37-5.74,17.37H98.27L89.83,226h8.55L102.87,242l5.3-15.91Z"/><path class="cls-2" d="M162.57,245.21c-1.3,4.65-5.57,8.55-12.39,8.55-7.42,0-14-5.3-14-14.34,0-8.66,6.44-14.18,13.42-14.18,8.33,0,13.48,5.14,13.48,13.8a17.18,17.18,0,0,1-.16,2.54H144.17c.16,3,2.92,5.2,6.12,5.2,3,0,4.65-1.41,5.41-3.52Zm-7.47-8.93c-.11-2.06-1.52-4.55-5.41-4.55a5.12,5.12,0,0,0-5.36,4.55Z"/><path class="cls-2" d="M185.46,234.16a11.17,11.17,0,0,0-2.6-.27c-3.3,0-6.28,1.95-6.28,7.31v11.74h-8.23V226h8v3.63c1.41-3,4.82-3.9,7-3.9a8.12,8.12,0,0,1,2.17.27Z"/><path class="cls-2" d="M214.58,245.21c-1.3,4.65-5.57,8.55-12.39,8.55-7.42,0-14-5.3-14-14.34,0-8.66,6.44-14.18,13.42-14.18,8.33,0,13.48,5.14,13.48,13.8a17.18,17.18,0,0,1-.16,2.54H196.18c.16,3,2.92,5.2,6.12,5.2,3,0,4.65-1.41,5.41-3.52Zm-7.47-8.93c-.11-2.06-1.52-4.55-5.41-4.55a5.12,5.12,0,0,0-5.36,4.55Z"/><path class="cls-2" d="M246.83,248.13c0,2.44.16,4.22.22,4.82h-7.9a18.5,18.5,0,0,1-.22-2.6c-1.24,1.84-4,3.19-7.2,3.19-7.58,0-13.31-5.85-13.31-14.13,0-8,5.41-14,13-14,4.6,0,6.6,1.73,7.25,2.76v-14.4h8.12Zm-14.07-1.95c3.19,0,6.06-2.27,6.06-6.71s-2.87-6.66-6.06-6.66-6.06,2.17-6.06,6.66S229.57,246.18,232.76,246.18Z"/><path class="cls-2" d="M267.56,252.95V213.76h8.06v14.83c1.14-1.68,4.11-3.19,7.79-3.19,7.79,0,12.5,6,12.5,14,0,8.23-5.3,14.13-12.83,14.13-3.57,0-6.33-1.57-7.58-3.63v3Zm14.07-20.13c-3.19,0-6.12,2.11-6.12,6.66s2.92,6.71,6.12,6.71,6.06-2.22,6.06-6.71S284.83,232.81,281.63,232.81Z"/><path class="cls-2" d="M301.77,263.28l6.12-14L296.57,226h9.2l6.55,14.4,6-14.4H327l-16.56,37.24Z"/><path class="cls-2" d="M368,245.15H353.13l-2.76,7.79h-9l14.45-38.37h9.9L380,252.95h-9.31Zm-12-7.79h9.31l-4.6-13.26Z"/><path class="cls-2" d="M384.73,252.95V214.57h8.66v38.37Z"/><path class="cls-2" d="M432.19,222.74v30.2h-8.55v-30.2h-11.8v-8.17H444v8.17Z"/><path class="cls-2" d="M468,245.21c-1.3,4.65-5.57,8.55-12.39,8.55-7.42,0-14-5.3-14-14.34,0-8.66,6.44-14.18,13.42-14.18,8.33,0,13.48,5.14,13.48,13.8a17.18,17.18,0,0,1-.16,2.54H449.62c.16,3,2.92,5.2,6.12,5.2,3,0,4.65-1.41,5.41-3.52Zm-7.47-8.93c-.11-2.06-1.52-4.55-5.41-4.55a5.12,5.12,0,0,0-5.36,4.55Z"/><path class="cls-2" d="M480,239.52c0,4.28,2.87,6.66,6.28,6.66a5.55,5.55,0,0,0,5.57-4l7.25,2.22c-1.19,4.71-5.63,9.36-12.83,9.36-8,0-14.45-5.9-14.45-14.23A13.89,13.89,0,0,1,486,225.23c7.42,0,11.74,4.55,12.94,9.36l-7.36,2.22a5.29,5.29,0,0,0-5.41-4C482.8,232.81,480,235.19,480,239.52Z"/><path class="cls-2" d="M512.4,252.95h-8.23V213.76h8.23v14a10.1,10.1,0,0,1,6.87-2.44c7,0,10.18,4.82,10.18,10.72v16.89h-8.23V237.47c0-2.65-1.41-4.65-4.38-4.65a4.33,4.33,0,0,0-4.44,4.33Z"/><path class="cls-2" d="M544.6,252.95h-8.23V226h8v3.08c1.46-2.54,4.76-3.79,7.52-3.79,6.77,0,9.8,4.82,9.8,10.72v16.89h-8.23V237.47c0-2.65-1.41-4.65-4.38-4.65a4.37,4.37,0,0,0-4.44,4.71Z"/><path class="cls-2" d="M595.2,239.47a14.29,14.29,0,1,1-14.29-14.23A13.91,13.91,0,0,1,595.2,239.47Zm-8.23,0c0-4.55-2.92-6.66-6.06-6.66s-6.06,2.11-6.06,6.66,3,6.71,6.06,6.71S587,244,587,239.47Z"/><path class="cls-2" d="M600.51,252.95V213.76h8.23v39.19Z"/><path class="cls-2" d="M642.61,239.47a14.29,14.29,0,1,1-14.29-14.23A13.91,13.91,0,0,1,642.61,239.47Zm-8.23,0c0-4.55-2.92-6.66-6.06-6.66s-6.06,2.11-6.06,6.66,3,6.71,6.06,6.71S634.39,244,634.39,239.47Z"/><path class="cls-2" d="M653.27,252.4a5.63,5.63,0,0,0,5.79,4.49c4.11,0,6.66-2,6.66-6.87v-1.24c-1,1.46-3.3,3-7.2,3-7.14,0-12.5-5.63-12.5-13.1,0-7.09,5.14-13.15,12.5-13.15,4.38,0,6.71,1.95,7.47,3.36V226h7.85v23.54c0,7.74-4.33,14.45-14.4,14.45-7.74,0-12.66-4.76-13.42-9.58Zm12.5-13.69a5.77,5.77,0,1,0-11.53,0,5.58,5.58,0,0,0,5.79,6C663.4,244.66,665.78,242.39,665.78,238.71Z"/><path class="cls-2" d="M684.83,213a4.82,4.82,0,1,1-4.76,4.82A4.84,4.84,0,0,1,684.83,213Zm-4.06,39.94V226H689v26.9Z"/><path class="cls-2" d="M720.66,245.21c-1.3,4.65-5.57,8.55-12.39,8.55-7.42,0-14-5.3-14-14.34,0-8.66,6.44-14.18,13.42-14.18,8.33,0,13.48,5.14,13.48,13.8a17.15,17.15,0,0,1-.16,2.54H702.25c.16,3,2.92,5.2,6.12,5.2,3,0,4.65-1.41,5.41-3.52Zm-7.47-8.93c-.11-2.06-1.52-4.55-5.41-4.55a5.12,5.12,0,0,0-5.36,4.55Z"/><path class="cls-2" d="M731.21,244.07c.11,1.84,1.41,3.63,4.22,3.63,2.11,0,3.14-1.14,3.14-2.33,0-1-.65-1.79-2.65-2.22l-3.08-.7c-5.74-1.24-8-4.49-8-8.28,0-4.93,4.33-8.93,10.34-8.93,7.79,0,10.5,4.87,10.77,8l-6.82,1.24a3.53,3.53,0,0,0-3.84-3.3c-1.57,0-2.92.92-2.92,2.33,0,1.14.92,1.79,2.11,2l3.57.7c5.57,1.14,8.28,4.49,8.28,8.44,0,4.6-3.52,9.09-10.72,9.09-8.44,0-11.15-5.47-11.37-8.44Z"/><path class="cls-2" d="M48.39,33.82l-6.08,6.76V55h-12V1.14h12V23.79L62,1.14H77.81l-21,23.33L77.88,55h-15Z"/><path class="cls-2" d="M80.77,69.54l8.59-19.61L73.47,17.25H86.39l9.2,20.22,8.36-20.22h12.24L92.93,69.54Z"/><path class="cls-2" d="M146,28.65a15.69,15.69,0,0,0-3.65-.38c-4.64,0-8.82,2.74-8.82,10.26V55H122V17.25H133.2v5.09c2-4.26,6.76-5.47,9.8-5.47a11.41,11.41,0,0,1,3,.38Z"/><path class="cls-2" d="M190,36.1c0,11.7-8.74,20.06-20.06,20.06s-20.07-8.36-20.07-20.06,8.82-20,20.07-20S190,24.4,190,36.1Zm-11.55,0c0-6.38-4.1-9.35-8.51-9.35s-8.51,3-8.51,9.35,4.18,9.42,8.51,9.42S178.42,42.49,178.42,36.1Z"/><path class="cls-2" d="M204.11,42.56c.15,2.58,2,5.09,5.93,5.09,3,0,4.41-1.6,4.41-3.27,0-1.37-.91-2.51-3.72-3.12l-4.33-1c-8.06-1.75-11.25-6.31-11.25-11.63,0-6.92,6.08-12.54,14.52-12.54,10.94,0,14.74,6.84,15.12,11.25l-9.58,1.75c-.3-2.51-1.9-4.64-5.4-4.64-2.2,0-4.1,1.29-4.1,3.27,0,1.6,1.29,2.51,3,2.81l5,1c7.83,1.6,11.63,6.31,11.63,11.86,0,6.46-4.94,12.77-15,12.77-11.86,0-15.66-7.68-16-11.86Z"/><path class="cls-2" d="M251.53,69.47V17.25H262.7v3.88c1.6-2.43,5.7-4.79,11.1-4.79,10.94,0,17.56,8.36,17.56,19.69,0,11.55-7.45,19.84-18,19.84-4.86,0-8.51-1.67-10.26-3.8V69.47Zm19.91-42.71c-4.48,0-8.51,3-8.51,9.35s4,9.42,8.51,9.42S280,42.41,280,36.1,276,26.75,271.44,26.75Z"/><path class="cls-2" d="M322.82,28.65a15.69,15.69,0,0,0-3.65-.38c-4.64,0-8.82,2.74-8.82,10.26V55H298.8V17.25H310v5.09c2-4.26,6.76-5.47,9.8-5.47a11.41,11.41,0,0,1,3,.38Z"/><path class="cls-2" d="M366.74,36.1c0,11.7-8.74,20.06-20.06,20.06s-20.07-8.36-20.07-20.06,8.82-20,20.07-20S366.74,24.4,366.74,36.1Zm-11.55,0c0-6.38-4.1-9.35-8.51-9.35s-8.51,3-8.51,9.35,4.18,9.42,8.51,9.42S355.19,42.49,355.19,36.1Z"/><path class="cls-2" d="M411.35,48.26c0,3.42.23,5.93.3,6.76h-11.1a26,26,0,0,1-.3-3.65c-1.75,2.58-5.55,4.48-10.11,4.48-10.64,0-18.7-8.21-18.7-19.84,0-11.25,7.6-19.69,18.32-19.69,6.46,0,9.27,2.43,10.18,3.88V0h11.4Zm-19.76-2.74c4.48,0,8.51-3.19,8.51-9.42s-4-9.35-8.51-9.35-8.51,3-8.51,9.35S387.11,45.53,391.59,45.53Z"/><path class="cls-2" d="M445.78,51.23c-2,3.27-6.31,4.64-10.11,4.64-9.2,0-14.36-6.69-14.36-14.74V17.25h11.55V38.69c0,3.65,2,6.54,6.08,6.54,3.88,0,6.31-2.66,6.31-6.46V17.25H456.8v31a59.33,59.33,0,0,0,.38,6.76h-11.1A27.45,27.45,0,0,1,445.78,51.23Z"/><path class="cls-2" d="M475.64,36.18c0,6,4,9.35,8.82,9.35a7.79,7.79,0,0,0,7.83-5.62L502.47,43c-1.67,6.61-7.9,13.15-18,13.15-11.25,0-20.29-8.28-20.29-20S473,16.11,484.08,16.11c10.41,0,16.49,6.38,18.17,13.15l-10.34,3.12a7.43,7.43,0,0,0-7.6-5.62C479.52,26.75,475.64,30.1,475.64,36.18Z"/><path class="cls-2" d="M523.37,17.25h7.37V27.36h-7.37V41.5c0,3.12,1.67,4,4.18,4a14.26,14.26,0,0,0,3-.38v9.58a13.75,13.75,0,0,1-6,1.06c-7.83,0-12.62-4.64-12.62-12.16V27.36h-6.69V17.25h1.9c4,0,5.85-2.66,5.85-6.16V6.23h10.34Z"/></g></g></svg>