<svg xmlns="http://www.w3.org/2000/svg" viewBox="0 0 692.53 319.9"><defs><style>.cls-1{fill:#f7764c;}.cls-2{fill:#e6e6e6;}</style></defs><title>Asset 2</title><g id="Layer_2" data-name="Layer 2"><g id="Layer_1-2" data-name="Layer 1"><path class="cls-1" d="M537.14,174.26q-102.18-4.91-204.8-5.95v33.74c36-1.28,72.1,1,108.11,1s72.06-.94,108-1.92c15.17-.41,27.72-6.11,29.78-14.63,1.85-7.65-6.84-17-21.72-18.51-36.16-3.61-73.13-3.81-109.73-4.72L341,160.61v33.74l98.32,1,49.16.5c16.3.17,34.88,1.45,50.45-1.78,12.17-2.52,22.89-8.45,22.26-16.27-.56-7-8.9-14.92-22.26-16.27A992.31,992.31,0,0,0,404.62,157c-15.8.56-31.09,7.36-30.32,16.87.7,8.66,13.37,17.47,30.32,16.87q31.38-1.1,62.83-.19,15,.45,30,1.39c2.74.17,5.79.19,8.46.57-8-1.14-1.78-.13.34,0q8.33.68,16.62,1.53V161.54c-1.71.35-3.34.6-5.11.85-5.27.74,5.33-.12,1.53-.14-3.54,0-7.09.1-10.64.07q-11.73-.1-23.46-.24l-48-.49-96.08-1c-15.87-.16-31,7.88-30.32,16.87C311.48,187,324,193.92,341,194.35l103.56,2.6q25.53.64,51.06,1.29c8.38.23,16.75.49,25.11.89,3.76.18,9.47-.05,12.92.75l-3.8-.29,3.18.26q3.69.31,7.36.68l8.06-33.14c-36,1-72,2-108,1.92s-72.13-2.26-108.11-1c-15.8.56-31.09,7.36-30.32,16.87.75,9.28,13.32,16.69,30.32,16.87q102.55,1.06,204.8,5.95c15.85.76,31-8.3,30.32-16.87-.79-9.79-13.35-16.05-30.32-16.87Z"/><path class="cls-2" d="M2.46,110.08V85.22H6v24.86Z"/><path class="cls-2" d="M15.22,110.08h-3.3V93.21h3.23v2.42a5.78,5.78,0,0,1,5.19-2.91c4,0,6,2.91,6,6.66v10.69h-3.3V99.94c0-2.35-1-4.24-3.93-4.24-2.59,0-3.93,2.07-3.93,4.63Z"/><path class="cls-2" d="M44.46,100.44,49,99.77c1-.14,1.3-.67,1.3-1.26,0-1.65-1.09-3-3.65-3a3.58,3.58,0,0,0-3.82,3.4l-3.16-.74c.35-3.23,3.26-5.47,6.91-5.47,5,0,7,2.88,7,6.17v8.45a15.83,15.83,0,0,0,.21,2.77H50.59a12.34,12.34,0,0,1-.17-2.28A6.15,6.15,0,0,1,45,110.6c-3.44,0-5.65-2.38-5.65-5C39.33,102.54,41.54,100.86,44.46,100.44Zm5.86,2.42v-.77l-5.15.77a2.52,2.52,0,0,0-2.46,2.52,2.56,2.56,0,0,0,2.74,2.45C48.14,107.83,50.31,106.54,50.31,102.85Z"/><path class="cls-2" d="M70.54,107.52a5.65,5.65,0,0,1-5.22,3c-4.94,0-8-3.93-8-8.94,0-4.77,3.23-8.84,8-8.84,3,0,4.59,1.47,5.15,2.84V84.69h3.26V107a26.61,26.61,0,0,0,.18,3.12H70.71a14.24,14.24,0,0,1-.17-2.28Zm-4.91.1c3,0,4.87-2.63,4.87-6.1s-1.82-5.86-4.84-5.86-5,2.45-5,5.93S62.47,107.62,65.63,107.62Z"/><path class="cls-2" d="M91.15,107.52a5.65,5.65,0,0,1-5.22,3c-4.94,0-8-3.93-8-8.94,0-4.77,3.23-8.84,8-8.84,3,0,4.59,1.47,5.15,2.84V84.69h3.26V107a26.61,26.61,0,0,0,.18,3.12H91.33a14.24,14.24,0,0,1-.17-2.28Zm-4.91.1c3,0,4.87-2.63,4.87-6.1s-1.82-5.86-4.84-5.86-5,2.45-5,5.93S83.09,107.62,86.24,107.62Z"/><path class="cls-2" d="M101.56,84.45a2.37,2.37,0,1,1-2.35,2.38A2.36,2.36,0,0,1,101.56,84.45ZM100,110.08V93.21h3.26v16.87Z"/><path class="cls-2" d="M113.24,93.21h3.65v3h-3.65V105c0,1.54.63,2.31,2.35,2.31a6.7,6.7,0,0,0,1.3-.14v2.81a7.22,7.22,0,0,1-2.24.32c-2.87,0-4.7-1.75-4.7-4.8V96.19h-3.23v-3h.91a2.36,2.36,0,0,0,2.59-2.59V87.88h3Z"/><path class="cls-2" d="M122.88,84.45a2.37,2.37,0,1,1-2.35,2.38A2.36,2.36,0,0,1,122.88,84.45Zm-1.61,25.63V93.21h3.26v16.87Z"/><path class="cls-2" d="M146,101.63c0,5.15-3.58,9-8.63,9s-8.63-3.82-8.63-9,3.58-8.94,8.63-8.94S146,96.51,146,101.63Zm-3.37,0c0-3.89-2.45-6-5.26-6s-5.26,2.1-5.26,6,2.46,6,5.26,6S142.62,105.55,142.62,101.63Z"/><path class="cls-2" d="M153.48,110.08h-3.3V93.21h3.23v2.42a5.78,5.78,0,0,1,5.19-2.91c4,0,6,2.91,6,6.66v10.69h-3.3V99.94c0-2.35-1-4.24-3.93-4.24-2.59,0-3.93,2.07-3.93,4.63Z"/><path class="cls-2" d="M183.07,93.21h3.65v3h-3.65V105c0,1.54.63,2.31,2.35,2.31a6.7,6.7,0,0,0,1.3-.14v2.81a7.22,7.22,0,0,1-2.24.32c-2.87,0-4.7-1.75-4.7-4.8V96.19h-3.23v-3h.91a2.36,2.36,0,0,0,2.59-2.59V87.88h3Z"/><path class="cls-2" d="M206.77,101.63c0,5.15-3.58,9-8.63,9s-8.63-3.82-8.63-9,3.58-8.94,8.63-8.94S206.77,96.51,206.77,101.63Zm-3.37,0c0-3.89-2.45-6-5.26-6s-5.26,2.1-5.26,6,2.46,6,5.26,6S203.41,105.55,203.41,101.63Z"/><path class="cls-2" d="M219.74,110.08V84.69H223V95.6a6.15,6.15,0,0,1,5.58-2.87c5.12,0,7.75,3.93,7.75,8.84s-2.84,9-7.85,9a6,6,0,0,1-5.47-2.91v2.45ZM228,95.63c-2.91,0-5,2.28-5,5.93s2.1,6,5,6,5-2.38,5-6S231,95.63,228,95.63Z"/><path class="cls-2" d="M255.22,105.27a7.64,7.64,0,0,1-7.57,5.33c-4.52,0-8.49-3.3-8.49-9,0-5.29,3.82-8.91,8.07-8.91,5.19,0,8.1,3.58,8.1,8.84a7.39,7.39,0,0,1-.07,1.05H242.57a5,5,0,0,0,5.08,5.12,4.6,4.6,0,0,0,4.73-3.4Zm-3.33-5.37a4.25,4.25,0,0,0-4.63-4.31,4.54,4.54,0,0,0-4.59,4.31Z"/><path class="cls-2" d="M261.15,84.45a2.37,2.37,0,1,1-2.35,2.38A2.36,2.36,0,0,1,261.15,84.45Zm-1.61,25.63V93.21h3.26v16.87Z"/><path class="cls-2" d="M271.7,110.08h-3.3V93.21h3.23v2.42a5.78,5.78,0,0,1,5.19-2.91c4,0,6,2.91,6,6.66v10.69h-3.3V99.94c0-2.35-1-4.24-3.93-4.24-2.59,0-3.93,2.07-3.93,4.63Z"/><path class="cls-2" d="M290.07,110.25a4.48,4.48,0,0,0,4.59,4.14c3.54,0,5.15-1.82,5.15-5.47V106.5a5.62,5.62,0,0,1-5.15,2.77c-4.49,0-7.75-3.4-7.75-8.17,0-4.56,3.12-8.21,7.75-8.21,2.59,0,4.35,1,5.19,2.67V93.21h3.26v15.6c0,4.28-2.1,8.45-8.45,8.45-4.21,0-7.36-2.67-7.78-6.28ZM300,101.1c0-3.26-2-5.4-4.8-5.4s-4.87,2.14-4.87,5.4,1.89,5.4,4.87,5.4S300,104.36,300,101.1Z"/><path class="cls-2" d="M321.2,100.44l4.56-.67c1-.14,1.3-.67,1.3-1.26,0-1.65-1.09-3-3.65-3a3.58,3.58,0,0,0-3.82,3.4l-3.16-.74c.35-3.23,3.26-5.47,6.91-5.47,5,0,7,2.88,7,6.17v8.45a15.83,15.83,0,0,0,.21,2.77h-3.23a12.34,12.34,0,0,1-.17-2.28,6.15,6.15,0,0,1-5.44,2.81c-3.44,0-5.65-2.38-5.65-5C316.08,102.54,318.29,100.86,321.2,100.44Zm5.86,2.42v-.77l-5.15.77a2.52,2.52,0,0,0-2.46,2.52,2.56,2.56,0,0,0,2.74,2.45C324.88,107.83,327.06,106.54,327.06,102.85Z"/><path class="cls-2" d="M360.08,101.63c0,5.15-3.58,9-8.63,9s-8.63-3.82-8.63-9,3.58-8.94,8.63-8.94S360.08,96.51,360.08,101.63Zm-3.37,0c0-3.89-2.45-6-5.26-6s-5.26,2.1-5.26,6,2.46,6,5.26,6S356.71,105.55,356.71,101.63Z"/><path class="cls-2" d="M367.58,110.08h-3.3V93.21h3.23v2.42a5.78,5.78,0,0,1,5.19-2.91c4,0,6,2.91,6,6.66v10.69h-3.3V99.94c0-2.35-1-4.24-3.93-4.24-2.59,0-3.93,2.07-3.93,4.63Z"/><path class="cls-2" d="M398.68,105.27a7.64,7.64,0,0,1-7.57,5.33c-4.52,0-8.49-3.3-8.49-9,0-5.29,3.82-8.91,8.07-8.91,5.19,0,8.1,3.58,8.1,8.84a7.39,7.39,0,0,1-.07,1.05H386a5,5,0,0,0,5.08,5.12,4.6,4.6,0,0,0,4.73-3.4Zm-3.33-5.37a4.25,4.25,0,0,0-4.63-4.31,4.54,4.54,0,0,0-4.59,4.31Z"/><path class="cls-2" d="M401.76,101.45V98.58h9.5v2.88Z"/><path class="cls-2" d="M417,104.64A3.59,3.59,0,0,0,421,107.8c1.86,0,2.88-1.05,2.88-2.24s-.77-1.86-2.17-2.17l-2.87-.63c-2.63-.56-4.21-2.35-4.21-4.73,0-2.87,2.7-5.33,6-5.33,4.63,0,6.07,3,6.42,4.52l-2.91,1.09a3.27,3.27,0,0,0-3.51-2.81,2.54,2.54,0,0,0-2.8,2.24c0,1,.63,1.75,1.93,2l2.73.6c3.05.67,4.66,2.52,4.66,5s-2,5.22-6.17,5.22c-4.63,0-6.59-3-6.87-4.91Z"/><path class="cls-2" d="M435.91,93.21h3.65v3h-3.65V105c0,1.54.63,2.31,2.35,2.31a6.7,6.7,0,0,0,1.3-.14v2.81a7.22,7.22,0,0,1-2.24.32c-2.87,0-4.7-1.75-4.7-4.8V96.19h-3.23v-3h.91a2.36,2.36,0,0,0,2.59-2.59V87.88h3Z"/><path class="cls-2" d="M459.61,101.63c0,5.15-3.58,9-8.63,9s-8.63-3.82-8.63-9,3.58-8.94,8.63-8.94S459.61,96.51,459.61,101.63Zm-3.37,0c0-3.89-2.45-6-5.26-6s-5.26,2.1-5.26,6,2.46,6,5.26,6S456.24,105.55,456.24,101.63Z"/><path class="cls-2" d="M463.81,116.74V93.21H467v2.63a6.22,6.22,0,0,1,5.65-3c5,0,7.75,3.89,7.75,8.8s-2.91,8.91-7.85,8.91a6.27,6.27,0,0,1-5.47-2.74v8.94Zm8.24-21c-3,0-5,2.52-5,5.89s2,6,5,6,5-2.49,5-6S475.14,95.74,472.05,95.74Z"/><path class="cls-2" d="M492.14,97.63c0-8.31,6.17-12.94,12.34-12.94,5.68,0,9.68,3.09,10.94,7.89l-3.19,1.12c-.95-3.75-3.68-5.86-7.75-5.86-4.52,0-8.84,3.3-8.84,9.78s4.31,9.82,8.84,9.82a7.9,7.9,0,0,0,7.92-6l3,1.12c-1.33,4.66-5.26,8-11,8C498.07,110.6,492.14,105.94,492.14,97.63Z"/><path class="cls-2" d="M534.81,101.63c0,5.15-3.58,9-8.63,9s-8.63-3.82-8.63-9,3.58-8.94,8.63-8.94S534.81,96.51,534.81,101.63Zm-3.37,0c0-3.89-2.45-6-5.26-6s-5.26,2.1-5.26,6,2.46,6,5.26,6S531.44,105.55,531.44,101.63Z"/><path class="cls-2" d="M539,110.08V84.69h3.3v25.39Z"/><path class="cls-2" d="M547.92,110.08V84.69h3.3v25.39Z"/><path class="cls-2" d="M571.51,105.27a7.64,7.64,0,0,1-7.57,5.33c-4.52,0-8.49-3.3-8.49-9,0-5.29,3.82-8.91,8.07-8.91,5.19,0,8.1,3.58,8.1,8.84a7.39,7.39,0,0,1-.07,1.05H558.86a5,5,0,0,0,5.08,5.12,4.6,4.6,0,0,0,4.73-3.4Zm-3.33-5.37a4.25,4.25,0,0,0-4.63-4.31A4.54,4.54,0,0,0,559,99.91Z"/><path class="cls-2" d="M577.79,110.25a4.48,4.48,0,0,0,4.59,4.14c3.54,0,5.15-1.82,5.15-5.47V106.5a5.62,5.62,0,0,1-5.15,2.77c-4.49,0-7.75-3.4-7.75-8.17,0-4.56,3.12-8.21,7.75-8.21,2.59,0,4.35,1,5.19,2.67V93.21h3.26v15.6c0,4.28-2.1,8.45-8.45,8.45-4.21,0-7.36-2.67-7.78-6.28Zm9.89-9.15c0-3.26-2-5.4-4.8-5.4S578,97.84,578,101.1s1.89,5.4,4.87,5.4S587.67,104.36,587.67,101.1Z"/><path class="cls-2" d="M610.78,105.27a7.64,7.64,0,0,1-7.57,5.33c-4.52,0-8.49-3.3-8.49-9,0-5.29,3.82-8.91,8.07-8.91,5.19,0,8.1,3.58,8.1,8.84a7.39,7.39,0,0,1-.07,1.05H598.12a5,5,0,0,0,5.08,5.12,4.6,4.6,0,0,0,4.73-3.4Zm-3.33-5.37a4.25,4.25,0,0,0-4.63-4.31,4.54,4.54,0,0,0-4.59,4.31Z"/><path class="cls-2" d="M627.64,99.91v10.17H624.2V85.22h9c4.59,0,7.68,3.19,7.68,7.36s-3.09,7.33-7.68,7.33Zm5-3.09c3,0,4.8-1.65,4.8-4.21s-1.82-4.31-4.8-4.31h-5v8.52Z"/><path class="cls-2" d="M653.62,96.54a10.32,10.32,0,0,0-1.44-.1c-2.77,0-4.63,1.47-4.63,5.19v8.45h-3.3V93.21h3.23v2.95a5.28,5.28,0,0,1,5-3.23,6.19,6.19,0,0,1,1.09.1Z"/><path class="cls-2" d="M671.64,105.27a7.64,7.64,0,0,1-7.57,5.33c-4.52,0-8.49-3.3-8.49-9,0-5.29,3.82-8.91,8.07-8.91,5.19,0,8.1,3.58,8.1,8.84a7.39,7.39,0,0,1-.07,1.05H659a5,5,0,0,0,5.08,5.12,4.6,4.6,0,0,0,4.73-3.4Zm-3.33-5.37a4.25,4.25,0,0,0-4.63-4.31,4.54,4.54,0,0,0-4.59,4.31Z"/><path class="cls-2" d="M675.95,116.74V93.21h3.19v2.63a6.22,6.22,0,0,1,5.65-3c5,0,7.75,3.89,7.75,8.8s-2.91,8.91-7.85,8.91a6.27,6.27,0,0,1-5.47-2.74v8.94Zm8.24-21c-3,0-5,2.52-5,5.89s2,6,5,6,5-2.49,5-6S687.27,95.74,684.19,95.74Z"/><path class="cls-2" d="M2.1,157.37V133.84H5.29v2.63a6.22,6.22,0,0,1,5.65-3c5,0,7.75,3.89,7.75,8.8s-2.91,8.91-7.85,8.91a6.27,6.27,0,0,1-5.47-2.74v8.94Zm8.24-21c-3,0-5,2.52-5,5.89s2,6,5,6,5-2.49,5-6S13.43,136.37,10.34,136.37Z"/><path class="cls-2" d="M22.89,150.71V125.32h3.3v25.39Z"/><path class="cls-2" d="M35.87,141.07l4.56-.67c1-.14,1.3-.67,1.3-1.26,0-1.65-1.09-3-3.65-3a3.58,3.58,0,0,0-3.82,3.4l-3.16-.74c.35-3.23,3.26-5.47,6.91-5.47,5,0,7,2.88,7,6.17v8.45a15.83,15.83,0,0,0,.21,2.77H42a12.34,12.34,0,0,1-.17-2.28,6.15,6.15,0,0,1-5.44,2.81c-3.44,0-5.65-2.38-5.65-5C30.75,143.17,33,141.49,35.87,141.07Zm5.86,2.42v-.77l-5.15.77A2.52,2.52,0,0,0,34.11,146a2.56,2.56,0,0,0,2.74,2.45C39.55,148.47,41.72,147.17,41.72,143.49Z"/><path class="cls-2" d="M54.55,133.84H58.2v3H54.55v8.77c0,1.54.63,2.31,2.35,2.31a6.7,6.7,0,0,0,1.3-.14v2.81a7.22,7.22,0,0,1-2.24.32c-2.87,0-4.7-1.75-4.7-4.8v-9.26H48v-3h.91a2.36,2.36,0,0,0,2.59-2.59v-2.73h3Z"/><path class="cls-2" d="M67,136.82v13.89H63.6V136.82H60.47v-3H63.6V131c0-3.75,2.49-5.79,5.54-5.79a4.27,4.27,0,0,1,2,.35v2.95a3.81,3.81,0,0,0-1.44-.21c-1.16,0-2.67.56-2.67,2.88v2.67h4.07v3Z"/><path class="cls-2" d="M89.75,142.26c0,5.15-3.58,9-8.63,9s-8.63-3.82-8.63-9,3.58-8.94,8.63-8.94S89.75,137.14,89.75,142.26Zm-3.37,0c0-3.89-2.45-6-5.26-6s-5.26,2.1-5.26,6,2.46,6,5.26,6S86.38,146.19,86.38,142.26Z"/><path class="cls-2" d="M103.32,137.17a10.32,10.32,0,0,0-1.44-.1c-2.77,0-4.63,1.47-4.63,5.19v8.45H94V133.84h3.23v2.95a5.28,5.28,0,0,1,5-3.23,6.19,6.19,0,0,1,1.09.1Z"/><path class="cls-2" d="M106.82,150.71V133.84H110v2.24a5.82,5.82,0,0,1,5.12-2.73,5.27,5.27,0,0,1,5,3.19,6.05,6.05,0,0,1,5.65-3.19c2.95,0,5.82,2,5.82,6.42v10.94h-3.26V140.12c0-2.21-1.09-3.86-3.58-3.86a3.93,3.93,0,0,0-3.89,4.24v10.2h-3.3V140.12c0-2.17-1.05-3.86-3.58-3.86-2.35,0-3.93,1.75-3.93,4.28v10.17Z"/><path class="cls-2" d="M145.17,157.37V133.28h5.15v1.79a6.2,6.2,0,0,1,5.12-2.21c5,0,8.1,3.86,8.1,9.08s-3.44,9.15-8.31,9.15a6.13,6.13,0,0,1-4.73-1.75v8Zm9.19-19.71c-2.07,0-3.93,1.4-3.93,4.31s1.86,4.35,3.93,4.35,4-1.44,4-4.35S156.46,137.67,154.36,137.67Z"/><path class="cls-2" d="M184.23,142a9.26,9.26,0,1,1-9.26-9.22A9,9,0,0,1,184.23,142Zm-5.33,0c0-2.95-1.89-4.31-3.93-4.31S171,139,171,142s1.93,4.35,3.93,4.35S178.9,144.92,178.9,142Z"/><path class="cls-2" d="M202.71,133.28l3.4,10.34L209,133.28h5.22l-5.4,17.43h-5.29l-3.79-11.26L196,150.71h-5.4l-5.47-17.43h5.54l2.91,10.31,3.44-10.31Z"/><path class="cls-2" d="M232.3,145.7c-.84,3-3.61,5.54-8,5.54a9.25,9.25,0,0,1-.39-18.48c5.4,0,8.73,3.33,8.73,8.94a11.14,11.14,0,0,1-.1,1.65H220.37a3.77,3.77,0,0,0,4,3.37,3.37,3.37,0,0,0,3.51-2.28Zm-4.84-5.79c-.07-1.33-1-2.95-3.51-2.95a3.32,3.32,0,0,0-3.47,2.95Z"/><path class="cls-2" d="M247.12,138.54a7.24,7.24,0,0,0-1.68-.18c-2.14,0-4.07,1.26-4.07,4.73v7.61H236V133.28h5.15v2.35a4.92,4.92,0,0,1,4.52-2.52,5.28,5.28,0,0,1,1.4.18Z"/><path class="cls-2" d="M266,145.7c-.84,3-3.61,5.54-8,5.54a9.25,9.25,0,0,1-.39-18.48c5.4,0,8.73,3.33,8.73,8.94a11.09,11.09,0,0,1-.11,1.65H254.06a3.77,3.77,0,0,0,4,3.37,3.37,3.37,0,0,0,3.51-2.28Zm-4.84-5.79c-.07-1.33-1-2.95-3.51-2.95a3.32,3.32,0,0,0-3.47,2.95Z"/><path class="cls-2" d="M286.88,147.59c0,1.58.11,2.73.14,3.12H281.9a12,12,0,0,1-.14-1.68,5.62,5.62,0,0,1-4.66,2.07c-4.91,0-8.63-3.79-8.63-9.15,0-5.19,3.51-9.08,8.45-9.08,3,0,4.28,1.12,4.7,1.79v-9.33h5.26Zm-9.12-1.26c2.07,0,3.93-1.47,3.93-4.35s-1.86-4.31-3.93-4.31-3.93,1.4-3.93,4.31S275.7,146.33,277.76,146.33Z"/><path class="cls-2" d="M300.3,150.71V125.32h5.22v9.61a6.26,6.26,0,0,1,5-2.07c5,0,8.1,3.86,8.1,9.08s-3.44,9.15-8.31,9.15a5.62,5.62,0,0,1-4.91-2.35v2Zm9.12-13c-2.07,0-4,1.37-4,4.31s1.89,4.35,4,4.35,3.93-1.44,3.93-4.35S311.49,137.67,309.42,137.67Z"/><path class="cls-2" d="M322.46,157.41l4-9-7.33-15.08h6l4.24,9.33,3.86-9.33h5.65l-10.73,24.12Z"/><path class="cls-2" d="M365.34,145.66h-9.61l-1.79,5h-5.82l9.36-24.86h6.42l9.26,24.86h-6Zm-7.78-5h6l-3-8.59Z"/><path class="cls-2" d="M376.2,150.71V125.85h5.61v24.86Z"/><path class="cls-2" d="M401.83,133.28h3.4v4.66h-3.4v6.52c0,1.44.77,1.82,1.93,1.82a6.6,6.6,0,0,0,1.4-.18v4.42a6.35,6.35,0,0,1-2.77.49c-3.61,0-5.82-2.14-5.82-5.61v-7.47h-3.09v-4.66h.88a2.56,2.56,0,0,0,2.7-2.84V128.2h4.77Z"/><path class="cls-2" d="M424.66,145.7c-.84,3-3.61,5.54-8,5.54a9.25,9.25,0,0,1-.39-18.48c5.4,0,8.73,3.33,8.73,8.94a11.14,11.14,0,0,1-.1,1.65H412.73a3.77,3.77,0,0,0,4,3.37,3.37,3.37,0,0,0,3.51-2.28Zm-4.84-5.79c-.07-1.33-1-2.95-3.51-2.95a3.32,3.32,0,0,0-3.47,2.95Z"/><path class="cls-2" d="M432.44,142a4,4,0,0,0,4.07,4.31,3.59,3.59,0,0,0,3.61-2.59l4.7,1.44a8.25,8.25,0,0,1-8.31,6.07,9.09,9.09,0,0,1-9.36-9.22,9,9,0,0,1,9.19-9.26c4.8,0,7.61,2.95,8.38,6.07l-4.77,1.44a3.43,3.43,0,0,0-3.51-2.59C434.22,137.67,432.44,139.21,432.44,142Z"/><path class="cls-2" d="M453.4,150.71h-5.33V125.32h5.33v9.08a6.55,6.55,0,0,1,4.45-1.58c4.56,0,6.59,3.12,6.59,6.94v10.94h-5.33v-10a2.7,2.7,0,0,0-2.84-3,2.81,2.81,0,0,0-2.88,2.81Z"/><path class="cls-2" d="M474.26,150.71h-5.33V133.28h5.15v2a5.71,5.71,0,0,1,4.87-2.45c4.38,0,6.35,3.12,6.35,6.94v10.94H480v-10a2.7,2.7,0,0,0-2.84-3,2.83,2.83,0,0,0-2.88,3.05Z"/><path class="cls-2" d="M507,142a9.26,9.26,0,1,1-9.26-9.22A9,9,0,0,1,507,142Zm-5.33,0c0-2.95-1.89-4.31-3.93-4.31s-3.93,1.37-3.93,4.31,1.93,4.35,3.93,4.35S501.71,144.92,501.71,142Z"/><path class="cls-2" d="M510.47,150.71V125.32h5.33v25.39Z"/><path class="cls-2" d="M537.75,142a9.26,9.26,0,1,1-9.26-9.22A9,9,0,0,1,537.75,142Zm-5.33,0c0-2.95-1.89-4.31-3.93-4.31s-3.93,1.37-3.93,4.31,1.93,4.35,3.93,4.35S532.42,144.92,532.42,142Z"/><path class="cls-2" d="M544.65,150.36a3.65,3.65,0,0,0,3.75,2.91c2.67,0,4.31-1.3,4.31-4.45V148c-.63.95-2.14,2-4.66,2-4.63,0-8.1-3.65-8.1-8.49,0-4.59,3.33-8.52,8.1-8.52,2.84,0,4.35,1.26,4.84,2.17v-1.86H558v15.25c0,5-2.81,9.36-9.33,9.36-5,0-8.21-3.09-8.7-6.21Zm8.1-8.87a3.74,3.74,0,1,0-7.47,0,3.62,3.62,0,0,0,3.75,3.86A3.57,3.57,0,0,0,552.75,141.49Z"/><path class="cls-2" d="M563.52,157.41l4-9-7.33-15.08h6l4.24,9.33,3.86-9.33h5.65l-10.73,24.12Z"/><path class="cls-2" d="M582.48,144.36c2.46,0,3.79,2.07,3.79,4.38,0,5.44-3.86,7.75-6.66,8.06v-2.49a4.29,4.29,0,0,0,3.51-3.79,1.75,1.75,0,0,1-1,.25,3,3,0,0,1-3.16-3.16A3.32,3.32,0,0,1,582.48,144.36Z"/><path class="cls-2" d="M9.43,180.05l-3.54,3.79v7.5H2.46V166.48H5.89v12.8l11.64-12.8h4.52L11.71,177.56,22.2,191.34H17.85Z"/><path class="cls-2" d="M24,198.39l4.21-8.91-7.26-15h3.79L30,186.12l5-11.64H38.6l-11,23.91Z"/><path class="cls-2" d="M51.12,177.81a10.32,10.32,0,0,0-1.44-.1c-2.77,0-4.63,1.47-4.63,5.19v8.45h-3.3V174.48H45v2.95a5.28,5.28,0,0,1,5-3.23,6.19,6.19,0,0,1,1.09.1Z"/><path class="cls-2" d="M70.29,182.89c0,5.15-3.58,9-8.63,9S53,188,53,182.89s3.58-8.94,8.63-8.94S70.29,177.77,70.29,182.89Zm-3.37,0c0-3.89-2.45-6-5.26-6s-5.26,2.1-5.26,6,2.46,6,5.26,6S66.93,186.82,66.93,182.89Z"/><path class="cls-2" d="M75.9,185.91a3.59,3.59,0,0,0,3.93,3.16c1.86,0,2.88-1.05,2.88-2.24s-.77-1.86-2.17-2.17L77.65,184c-2.63-.56-4.21-2.35-4.21-4.73,0-2.87,2.7-5.33,6-5.33,4.63,0,6.07,3,6.42,4.52l-2.91,1.09a3.27,3.27,0,0,0-3.51-2.81,2.54,2.54,0,0,0-2.8,2.24c0,1,.63,1.75,1.93,2l2.73.6c3.05.67,4.66,2.52,4.66,5s-2,5.22-6.17,5.22c-4.63,0-6.59-3-6.87-4.91Z"/><path class="cls-2" d="M103.18,181.7l4.56-.67c1-.14,1.3-.67,1.3-1.26,0-1.65-1.09-3-3.65-3a3.58,3.58,0,0,0-3.82,3.4l-3.16-.74c.35-3.23,3.26-5.47,6.91-5.47,5,0,7,2.88,7,6.17v8.45a15.83,15.83,0,0,0,.21,2.77h-3.23a12.34,12.34,0,0,1-.17-2.28,6.15,6.15,0,0,1-5.44,2.81c-3.44,0-5.65-2.38-5.65-5C98.06,183.8,100.27,182.12,103.18,181.7Zm5.86,2.42v-.77l-5.15.77a2.52,2.52,0,0,0-2.46,2.52,2.56,2.56,0,0,0,2.74,2.45C106.86,189.1,109,187.8,109,184.12Z"/><path class="cls-2" d="M117.44,191.34V166h3.3v25.39Z"/><path class="cls-2" d="M127.75,185.91a3.59,3.59,0,0,0,3.93,3.16c1.86,0,2.88-1.05,2.88-2.24s-.77-1.86-2.17-2.17L129.5,184c-2.63-.56-4.21-2.35-4.21-4.73,0-2.87,2.7-5.33,6-5.33,4.63,0,6.07,3,6.42,4.52l-2.91,1.09a3.27,3.27,0,0,0-3.51-2.81,2.54,2.54,0,0,0-2.8,2.24c0,1,.63,1.75,1.93,2l2.73.6c3.05.67,4.66,2.52,4.66,5s-2,5.22-6.17,5.22c-4.63,0-6.59-3-6.87-4.91Z"/><path class="cls-2" d="M157.87,182.89c0,5.15-3.58,9-8.63,9s-8.63-3.82-8.63-9,3.58-8.94,8.63-8.94S157.87,177.77,157.87,182.89Zm-3.37,0c0-3.89-2.45-6-5.26-6s-5.26,2.1-5.26,6,2.46,6,5.26,6S154.5,186.82,154.5,182.89Z"/><path class="cls-2" d="M170.84,198V174.48H174v2.63a6.22,6.22,0,0,1,5.65-3c5,0,7.75,3.89,7.75,8.8s-2.91,8.91-7.85,8.91a6.27,6.27,0,0,1-5.47-2.74V198Zm8.24-21c-3,0-5,2.52-5,5.89s2,6,5,6,5-2.49,5-6S182.16,177,179.08,177Z"/><path class="cls-2" d="M201,177.81a10.32,10.32,0,0,0-1.44-.1c-2.77,0-4.63,1.47-4.63,5.19v8.45h-3.3V174.48h3.23v2.95a5.28,5.28,0,0,1,5-3.23,6.19,6.19,0,0,1,1.09.1Z"/><path class="cls-2" d="M220.17,182.89c0,5.15-3.58,9-8.63,9s-8.63-3.82-8.63-9,3.58-8.94,8.63-8.94S220.17,177.77,220.17,182.89Zm-3.37,0c0-3.89-2.45-6-5.26-6s-5.26,2.1-5.26,6,2.46,6,5.26,6S216.8,186.82,216.8,182.89Z"/><path class="cls-2" d="M231.56,191.34h-3.33l-6.84-16.87h3.72l4.8,13,4.84-13h3.54Z"/><path class="cls-2" d="M243.06,165.71a2.37,2.37,0,1,1-2.35,2.38A2.36,2.36,0,0,1,243.06,165.71Zm-1.61,25.63V174.48h3.26v16.87Z"/><path class="cls-2" d="M262.13,188.78a5.65,5.65,0,0,1-5.22,3c-4.94,0-8-3.93-8-8.94,0-4.77,3.23-8.84,8-8.84,3,0,4.59,1.47,5.15,2.84V166h3.26v22.27a26.61,26.61,0,0,0,.18,3.12H262.3a14.24,14.24,0,0,1-.17-2.28Zm-4.91.1c3,0,4.87-2.63,4.87-6.1s-1.82-5.86-4.84-5.86-5,2.45-5,5.93S254.06,188.89,257.22,188.89Z"/><path class="cls-2" d="M285.62,186.54a7.64,7.64,0,0,1-7.57,5.33c-4.52,0-8.49-3.3-8.49-9,0-5.29,3.82-8.91,8.07-8.91,5.19,0,8.1,3.58,8.1,8.84a7.39,7.39,0,0,1-.07,1.05H273A5,5,0,0,0,278,189a4.6,4.6,0,0,0,4.73-3.4Zm-3.33-5.37a4.25,4.25,0,0,0-4.63-4.31,4.54,4.54,0,0,0-4.59,4.31Z"/><path class="cls-2" d="M291.33,185.91a3.59,3.59,0,0,0,3.93,3.16c1.86,0,2.88-1.05,2.88-2.24s-.77-1.86-2.17-2.17l-2.87-.63c-2.63-.56-4.21-2.35-4.21-4.73,0-2.87,2.7-5.33,6-5.33,4.63,0,6.07,3,6.42,4.52l-2.91,1.09a3.27,3.27,0,0,0-3.51-2.81,2.54,2.54,0,0,0-2.8,2.24c0,1,.63,1.75,1.93,2l2.73.6c3.05.67,4.66,2.52,4.66,5s-2,5.22-6.17,5.22c-4.63,0-6.59-3-6.87-4.91Z"/><path class="cls-2" d="M320.46,173.91h3.4v4.66h-3.4v6.52c0,1.44.77,1.82,1.93,1.82a6.6,6.6,0,0,0,1.4-.18v4.42a6.35,6.35,0,0,1-2.77.49c-3.61,0-5.82-2.14-5.82-5.61v-7.47h-3.09v-4.66H313a2.56,2.56,0,0,0,2.7-2.84v-2.24h4.77Z"/><path class="cls-2" d="M330.28,165.46a3.12,3.12,0,1,1-3.09,3.12A3.14,3.14,0,0,1,330.28,165.46Zm-2.63,25.88V173.91H333v17.43Z"/><path class="cls-2" d="M337.64,191.34V173.91h5.08v2a6.07,6.07,0,0,1,5-2.52c2.49,0,4.28,1,5.15,2.73a6,6,0,0,1,5.4-2.73c3.3,0,6.45,1.93,6.45,6.66v11.29h-5.15v-10.1a2.64,2.64,0,0,0-2.77-2.95,2.83,2.83,0,0,0-2.91,3v10.06h-5.26v-10.1a2.65,2.65,0,0,0-2.8-2.95,2.83,2.83,0,0,0-2.88,3v10Z"/><path class="cls-2" d="M385.08,186.33c-.84,3-3.61,5.54-8,5.54a9.25,9.25,0,0,1-.39-18.48c5.4,0,8.73,3.33,8.73,8.94a11.09,11.09,0,0,1-.11,1.65H373.15a3.77,3.77,0,0,0,4,3.37,3.37,3.37,0,0,0,3.51-2.28Zm-4.84-5.79c-.07-1.33-1-2.95-3.51-2.95a3.32,3.32,0,0,0-3.47,2.95Z"/><path class="cls-2" d="M388.83,191.34V166h5.33v25.39Z"/><path class="cls-2" d="M400.08,198l4-9-7.33-15.08h6l4.24,9.33,3.86-9.33h5.65L405.69,198Z"/><path class="cls-2" d="M430.82,185.59a2.48,2.48,0,0,0,2.74,2.35c1.37,0,2-.74,2-1.51s-.42-1.16-1.72-1.44l-2-.46c-3.72-.81-5.19-2.91-5.19-5.36,0-3.19,2.8-5.79,6.7-5.79,5,0,6.8,3.16,7,5.19l-4.42.81a2.29,2.29,0,0,0-2.49-2.14,1.7,1.7,0,0,0-1.89,1.51c0,.74.6,1.16,1.37,1.3l2.31.46c3.61.74,5.36,2.91,5.36,5.47,0,3-2.28,5.89-6.94,5.89-5.47,0-7.22-3.54-7.36-5.47Z"/><path class="cls-2" d="M459.89,186.33c-.84,3-3.61,5.54-8,5.54a9.25,9.25,0,0,1-.39-18.48c5.4,0,8.73,3.33,8.73,8.94a11.09,11.09,0,0,1-.11,1.65H448a3.77,3.77,0,0,0,4,3.37,3.37,3.37,0,0,0,3.51-2.28ZM455,180.54c-.07-1.33-1-2.95-3.51-2.95a3.32,3.32,0,0,0-3.47,2.95Z"/><path class="cls-2" d="M474.72,179.17A7.24,7.24,0,0,0,473,179c-2.14,0-4.07,1.26-4.07,4.73v7.61h-5.33V173.91h5.15v2.35a4.92,4.92,0,0,1,4.52-2.52,5.28,5.28,0,0,1,1.4.18Z"/><path class="cls-2" d="M489,191.34h-5.37l-7.15-17.43h5.79l4,10.83L490,173.91h5.61Z"/><path class="cls-2" d="M500.94,165.46a3.12,3.12,0,1,1-3.09,3.12A3.14,3.14,0,0,1,500.94,165.46Zm-2.63,25.88V173.91h5.33v17.43Z"/><path class="cls-2" d="M512.33,182.65A4,4,0,0,0,516.4,187a3.59,3.59,0,0,0,3.61-2.59l4.7,1.44a8.25,8.25,0,0,1-8.31,6.07,9.09,9.09,0,0,1-9.36-9.22,9,9,0,0,1,9.19-9.26c4.8,0,7.61,2.95,8.38,6.07l-4.77,1.44a3.43,3.43,0,0,0-3.51-2.59C514.12,178.3,512.33,179.84,512.33,182.65Z"/><path class="cls-2" d="M543.64,186.33c-.84,3-3.61,5.54-8,5.54a9.25,9.25,0,0,1-.39-18.48c5.4,0,8.73,3.33,8.73,8.94a11.09,11.09,0,0,1-.11,1.65H531.72a3.77,3.77,0,0,0,4,3.37,3.37,3.37,0,0,0,3.51-2.28Zm-4.84-5.79c-.07-1.33-1-2.95-3.51-2.95a3.32,3.32,0,0,0-3.47,2.95Z"/><path class="cls-2" d="M550.47,185.59a2.48,2.48,0,0,0,2.74,2.35c1.37,0,2-.74,2-1.51s-.42-1.16-1.72-1.44l-2-.46c-3.72-.81-5.19-2.91-5.19-5.36,0-3.19,2.8-5.79,6.7-5.79,5,0,6.8,3.16,7,5.19l-4.42.81a2.29,2.29,0,0,0-2.49-2.14,1.7,1.7,0,0,0-1.89,1.51c0,.74.6,1.16,1.37,1.3l2.31.46c3.61.74,5.36,2.91,5.36,5.47,0,3-2.28,5.89-6.94,5.89-5.47,0-7.22-3.54-7.36-5.47Z"/><path class="cls-2" d="M6.52,215.11h3.65v3H6.52v8.77c0,1.54.63,2.31,2.35,2.31a6.7,6.7,0,0,0,1.3-.14v2.81a7.22,7.22,0,0,1-2.24.32c-2.87,0-4.7-1.75-4.7-4.8v-9.26H0v-3H.91a2.36,2.36,0,0,0,2.59-2.59v-2.73h3Z"/><path class="cls-2" d="M30.22,223.52c0,5.15-3.58,9-8.63,9s-8.63-3.82-8.63-9,3.58-8.94,8.63-8.94S30.22,218.4,30.22,223.52Zm-3.37,0c0-3.89-2.45-6-5.26-6s-5.26,2.1-5.26,6,2.46,6,5.26,6S26.86,227.45,26.86,223.52Z"/><path class="cls-2" d="M46.49,232h-3.3V206.59h3.3v10.48a6,6,0,0,1,5.12-2.45c4,0,6,2.91,6,6.66V232h-3.3V221.84c0-2.35-1-4.24-3.93-4.24-2.52,0-3.86,2-3.93,4.45Z"/><path class="cls-2" d="M77.59,227.17A7.64,7.64,0,0,1,70,232.5c-4.52,0-8.49-3.3-8.49-9,0-5.29,3.82-8.91,8.07-8.91,5.19,0,8.1,3.58,8.1,8.84a7.39,7.39,0,0,1-.07,1.05H64.93A5,5,0,0,0,70,229.59a4.6,4.6,0,0,0,4.73-3.4Zm-3.33-5.37a4.25,4.25,0,0,0-4.63-4.31A4.54,4.54,0,0,0,65,221.8Z"/><path class="cls-2" d="M81.9,232V206.59h3.3V232Z"/><path class="cls-2" d="M90.8,238.64V215.11H94v2.63a6.22,6.22,0,0,1,5.65-3c5,0,7.75,3.89,7.75,8.8s-2.91,8.91-7.85,8.91a6.27,6.27,0,0,1-5.47-2.74v8.94Zm8.24-21c-3,0-5,2.52-5,5.89s2,6,5,6,5-2.49,5-6S102.13,217.63,99,217.63Z"/><path class="cls-2" d="M123.65,232h-3.3V206.59h3.3v10.48a6,6,0,0,1,5.12-2.45c4,0,6,2.91,6,6.66V232h-3.3V221.84c0-2.35-1-4.24-3.93-4.24-2.52,0-3.86,2-3.93,4.45Z"/><path class="cls-2" d="M141.67,206.34a2.37,2.37,0,1,1-2.35,2.38A2.36,2.36,0,0,1,141.67,206.34ZM140.06,232V215.11h3.26V232Z"/><path class="cls-2" d="M150.89,232.15a4.48,4.48,0,0,0,4.59,4.14c3.54,0,5.15-1.82,5.15-5.47V228.4a5.62,5.62,0,0,1-5.15,2.77c-4.49,0-7.75-3.4-7.75-8.17,0-4.56,3.12-8.21,7.75-8.21,2.59,0,4.35,1,5.19,2.67v-2.35h3.26v15.6c0,4.28-2.1,8.45-8.45,8.45-4.21,0-7.36-2.67-7.78-6.28Zm9.89-9.15c0-3.26-2-5.4-4.8-5.4s-4.87,2.14-4.87,5.4,1.89,5.4,4.87,5.4S160.78,226.26,160.78,223Z"/><path class="cls-2" d="M172.49,232h-3.3V206.59h3.3v10.48a6,6,0,0,1,5.12-2.45c4,0,6,2.91,6,6.66V232h-3.3V221.84c0-2.35-1-4.24-3.93-4.24-2.52,0-3.86,2-3.93,4.45Z"/><path class="cls-2" d="M199.06,226.54a3.59,3.59,0,0,0,3.93,3.16c1.86,0,2.88-1.05,2.88-2.24s-.77-1.86-2.17-2.17l-2.87-.63c-2.63-.56-4.21-2.35-4.21-4.73,0-2.87,2.7-5.33,6-5.33,4.63,0,6.07,3,6.42,4.52l-2.91,1.09a3.27,3.27,0,0,0-3.51-2.81,2.54,2.54,0,0,0-2.8,2.24c0,1,.63,1.75,1.93,2l2.73.6c3.05.67,4.66,2.52,4.66,5s-2,5.22-6.17,5.22c-4.63,0-6.59-3-6.87-4.91Z"/><path class="cls-2" d="M215.29,223.52c0,3.86,2.42,5.93,5.15,5.93a4.59,4.59,0,0,0,4.7-3.47l2.91,1.26a7.75,7.75,0,0,1-7.61,5.26c-4.91,0-8.52-3.86-8.52-9s3.68-8.94,8.49-8.94a7.34,7.34,0,0,1,7.5,5.36l-3,1.26a4.42,4.42,0,0,0-4.52-3.58C217.75,217.63,215.29,219.6,215.29,223.52Z"/><path class="cls-2" d="M235.2,232h-3.3V206.59h3.3v10.48a6,6,0,0,1,5.12-2.45c4,0,6,2.91,6,6.66V232h-3.3V221.84c0-2.35-1-4.24-3.93-4.24-2.52,0-3.86,2-3.93,4.45Z"/><path class="cls-2" d="M267.46,223.52c0,5.15-3.58,9-8.63,9s-8.63-3.82-8.63-9,3.58-8.94,8.63-8.94S267.46,218.4,267.46,223.52Zm-3.37,0c0-3.89-2.45-6-5.26-6s-5.26,2.1-5.26,6,2.46,6,5.26,6S264.09,227.45,264.09,223.52Z"/><path class="cls-2" d="M287.51,223.52c0,5.15-3.58,9-8.63,9s-8.63-3.82-8.63-9,3.58-8.94,8.63-8.94S287.51,218.4,287.51,223.52Zm-3.37,0c0-3.89-2.45-6-5.26-6s-5.26,2.1-5.26,6,2.46,6,5.26,6S284.15,227.45,284.15,223.52Z"/><path class="cls-2" d="M291.71,232V206.59H295V232Z"/><path class="cls-2" d="M315.31,227.17a7.64,7.64,0,0,1-7.57,5.33c-4.52,0-8.49-3.3-8.49-9,0-5.29,3.82-8.91,8.07-8.91,5.19,0,8.1,3.58,8.1,8.84a7.39,7.39,0,0,1-.07,1.05H302.65a5,5,0,0,0,5.08,5.12,4.6,4.6,0,0,0,4.73-3.4ZM312,221.8a4.25,4.25,0,0,0-4.63-4.31,4.54,4.54,0,0,0-4.59,4.31Z"/><path class="cls-2" d="M329,218.44a10.32,10.32,0,0,0-1.44-.1c-2.77,0-4.63,1.47-4.63,5.19V232h-3.3V215.11h3.23v2.95a5.28,5.28,0,0,1,5-3.23,6.19,6.19,0,0,1,1.09.1Z"/><path class="cls-2" d="M333.89,226.54a3.59,3.59,0,0,0,3.93,3.16c1.86,0,2.88-1.05,2.88-2.24s-.77-1.86-2.17-2.17l-2.87-.63c-2.63-.56-4.21-2.35-4.21-4.73,0-2.87,2.7-5.33,6-5.33,4.63,0,6.07,3,6.42,4.52l-2.91,1.09a3.27,3.27,0,0,0-3.51-2.81,2.54,2.54,0,0,0-2.8,2.24c0,1,.63,1.75,1.93,2l2.73.6c3.05.67,4.66,2.52,4.66,5s-2,5.22-6.17,5.22c-4.63,0-6.59-3-6.87-4.91Z"/><path class="cls-2" d="M358.5,226.54a3.59,3.59,0,0,0,3.93,3.16c1.86,0,2.88-1.05,2.88-2.24s-.77-1.86-2.17-2.17l-2.87-.63c-2.63-.56-4.21-2.35-4.21-4.73,0-2.87,2.7-5.33,6-5.33,4.63,0,6.07,3,6.42,4.52l-2.91,1.09a3.27,3.27,0,0,0-3.51-2.81,2.54,2.54,0,0,0-2.8,2.24c0,1,.63,1.75,1.93,2l2.73.6c3.05.67,4.66,2.52,4.66,5s-2,5.22-6.17,5.22c-4.63,0-6.59-3-6.87-4.91Z"/><path class="cls-2" d="M378.91,232.5c-3.93,0-6.31-2.95-6.31-6.77V215.11h3.3v10.13c0,2.31,1.05,4.35,3.82,4.35s4-1.75,4-4.31V215.11H387v13.75a28.3,28.3,0,0,0,.18,3.12H384a15.08,15.08,0,0,1-.14-2A5.5,5.5,0,0,1,378.91,232.5Z"/><path class="cls-2" d="M394.4,223.52c0,3.86,2.42,5.93,5.15,5.93a4.59,4.59,0,0,0,4.7-3.47l2.91,1.26a7.75,7.75,0,0,1-7.61,5.26c-4.91,0-8.52-3.86-8.52-9s3.68-8.94,8.49-8.94a7.34,7.34,0,0,1,7.5,5.36l-3,1.26a4.42,4.42,0,0,0-4.52-3.58C396.86,217.63,394.4,219.6,394.4,223.52Z"/><path class="cls-2" d="M412.81,223.52c0,3.86,2.42,5.93,5.15,5.93a4.59,4.59,0,0,0,4.7-3.47l2.91,1.26A7.75,7.75,0,0,1,418,232.5c-4.91,0-8.52-3.86-8.52-9s3.68-8.94,8.49-8.94a7.34,7.34,0,0,1,7.5,5.36l-3,1.26a4.42,4.42,0,0,0-4.52-3.58C415.26,217.63,412.81,219.6,412.81,223.52Z"/><path class="cls-2" d="M443.94,227.17a7.64,7.64,0,0,1-7.57,5.33c-4.52,0-8.49-3.3-8.49-9,0-5.29,3.82-8.91,8.07-8.91,5.19,0,8.1,3.58,8.1,8.84a7.39,7.39,0,0,1-.07,1.05H431.28a5,5,0,0,0,5.08,5.12,4.6,4.6,0,0,0,4.73-3.4Zm-3.33-5.37a4.25,4.25,0,0,0-4.63-4.31,4.54,4.54,0,0,0-4.59,4.31Z"/><path class="cls-2" d="M449.65,226.54a3.59,3.59,0,0,0,3.93,3.16c1.86,0,2.88-1.05,2.88-2.24s-.77-1.86-2.17-2.17l-2.87-.63c-2.63-.56-4.21-2.35-4.21-4.73,0-2.87,2.7-5.33,6-5.33,4.63,0,6.07,3,6.42,4.52l-2.91,1.09a3.27,3.27,0,0,0-3.51-2.81,2.54,2.54,0,0,0-2.8,2.24c0,1,.63,1.75,1.93,2l2.73.6c3.05.67,4.66,2.52,4.66,5s-2,5.22-6.17,5.22c-4.63,0-6.59-3-6.87-4.91Z"/><path class="cls-2" d="M465.5,226.54a3.59,3.59,0,0,0,3.93,3.16c1.86,0,2.88-1.05,2.88-2.24s-.77-1.86-2.17-2.17l-2.87-.63c-2.63-.56-4.21-2.35-4.21-4.73,0-2.87,2.7-5.33,6-5.33,4.63,0,6.07,3,6.42,4.52l-2.91,1.09a3.27,3.27,0,0,0-3.51-2.81,2.54,2.54,0,0,0-2.8,2.24c0,1,.63,1.75,1.93,2l2.73.6c3.05.67,4.66,2.52,4.66,5s-2,5.22-6.17,5.22c-4.63,0-6.59-3-6.87-4.91Z"/><path class="cls-2" d="M484.36,218.09V232H481V218.09h-3.12v-3H481v-2.84c0-3.75,2.49-5.79,5.54-5.79a4.27,4.27,0,0,1,2,.35v2.95a3.81,3.81,0,0,0-1.44-.21c-1.16,0-2.67.56-2.67,2.88v2.67h4.07v3Z"/><path class="cls-2" d="M497.93,232.5c-3.93,0-6.31-2.95-6.31-6.77V215.11h3.3v10.13c0,2.31,1.05,4.35,3.82,4.35s4-1.75,4-4.31V215.11H506v13.75a28.3,28.3,0,0,0,.18,3.12H503a15.08,15.08,0,0,1-.14-2A5.5,5.5,0,0,1,497.93,232.5Z"/><path class="cls-2" d="M511.63,232V206.59h3.3V232Z"/><path class="cls-2" d="M520.54,232V206.59h3.3V232Z"/><path class="cls-2" d="M530,239l4.21-8.91-7.26-15h3.79L536,226.75l5-11.64h3.54l-11,23.91Z"/><path class="cls-2" d="M559.84,232h-3.3V215.11h3.23v2.42a5.78,5.78,0,0,1,5.19-2.91c4,0,6,2.91,6,6.66V232h-3.3V221.84c0-2.35-1-4.24-3.93-4.24-2.59,0-3.93,2.07-3.93,4.63Z"/><path class="cls-2" d="M580.31,222.33l4.56-.67c1-.14,1.3-.67,1.3-1.26,0-1.65-1.09-3-3.65-3a3.58,3.58,0,0,0-3.82,3.4l-3.16-.74c.35-3.23,3.26-5.47,6.91-5.47,5,0,7,2.88,7,6.17v8.45a15.83,15.83,0,0,0,.21,2.77h-3.23a12.34,12.34,0,0,1-.17-2.28,6.15,6.15,0,0,1-5.44,2.81c-3.44,0-5.65-2.38-5.65-5C575.19,224.43,577.4,222.75,580.31,222.33Zm5.86,2.42V224l-5.15.77a2.52,2.52,0,0,0-2.46,2.52,2.56,2.56,0,0,0,2.74,2.45C584,229.73,586.17,228.43,586.17,224.75Z"/><path class="cls-2" d="M602.29,232H599l-6.84-16.87h3.72l4.8,13,4.84-13H609Z"/><path class="cls-2" d="M613.79,206.34a2.37,2.37,0,1,1-2.35,2.38A2.36,2.36,0,0,1,613.79,206.34ZM612.18,232V215.11h3.26V232Z"/><path class="cls-2" d="M623,232.15a4.48,4.48,0,0,0,4.59,4.14c3.54,0,5.15-1.82,5.15-5.47V228.4a5.62,5.62,0,0,1-5.15,2.77c-4.49,0-7.75-3.4-7.75-8.17,0-4.56,3.12-8.21,7.75-8.21,2.59,0,4.35,1,5.19,2.67v-2.35h3.26v15.6c0,4.28-2.1,8.45-8.45,8.45-4.21,0-7.36-2.67-7.78-6.28ZM632.9,223c0-3.26-2-5.4-4.8-5.4s-4.87,2.14-4.87,5.4,1.89,5.4,4.87,5.4S632.9,226.26,632.9,223Z"/><path class="cls-2" d="M645.21,222.33l4.56-.67c1-.14,1.3-.67,1.3-1.26,0-1.65-1.09-3-3.65-3a3.58,3.58,0,0,0-3.82,3.4l-3.16-.74c.35-3.23,3.26-5.47,6.91-5.47,5,0,7,2.88,7,6.17v8.45a15.83,15.83,0,0,0,.21,2.77h-3.23a12.34,12.34,0,0,1-.17-2.28,6.15,6.15,0,0,1-5.44,2.81c-3.44,0-5.65-2.38-5.65-5C640.08,224.43,642.29,222.75,645.21,222.33Zm5.86,2.42V224l-5.15.77a2.52,2.52,0,0,0-2.46,2.52,2.56,2.56,0,0,0,2.74,2.45C648.89,229.73,651.06,228.43,651.06,224.75Z"/><path class="cls-2" d="M663.89,215.11h3.65v3h-3.65v8.77c0,1.54.63,2.31,2.35,2.31a6.7,6.7,0,0,0,1.3-.14v2.81a7.22,7.22,0,0,1-2.24.32c-2.87,0-4.7-1.75-4.7-4.8v-9.26h-3.23v-3h.91a2.36,2.36,0,0,0,2.59-2.59v-2.73h3Z"/><path class="cls-2" d="M686.44,227.17a7.64,7.64,0,0,1-7.57,5.33c-4.52,0-8.49-3.3-8.49-9,0-5.29,3.82-8.91,8.07-8.91,5.19,0,8.1,3.58,8.1,8.84a7.39,7.39,0,0,1-.07,1.05H673.78a5,5,0,0,0,5.08,5.12,4.6,4.6,0,0,0,4.73-3.4Zm-3.33-5.37a4.25,4.25,0,0,0-4.63-4.31,4.54,4.54,0,0,0-4.59,4.31Z"/><path class="cls-2" d="M6.52,255.74h3.65v3H6.52v8.77c0,1.54.63,2.31,2.35,2.31a6.7,6.7,0,0,0,1.3-.14v2.81a7.22,7.22,0,0,1-2.24.32c-2.87,0-4.7-1.75-4.7-4.8v-9.26H0v-3H.91a2.36,2.36,0,0,0,2.59-2.59v-2.73h3Z"/><path class="cls-2" d="M17.85,272.6h-3.3V247.22h3.3V257.7A6,6,0,0,1,23,255.25c4,0,6,2.91,6,6.66V272.6H25.7V262.47c0-2.35-1-4.24-3.93-4.24-2.52,0-3.86,2-3.93,4.45Z"/><path class="cls-2" d="M43.61,259.07a10.32,10.32,0,0,0-1.44-.1c-2.77,0-4.63,1.47-4.63,5.19v8.45h-3.3V255.74h3.23v2.95a5.28,5.28,0,0,1,5-3.23,6.19,6.19,0,0,1,1.09.1Z"/><path class="cls-2" d="M62.79,264.15c0,5.15-3.58,9-8.63,9s-8.63-3.82-8.63-9,3.58-8.94,8.63-8.94S62.79,259,62.79,264.15Zm-3.37,0c0-3.89-2.45-6-5.26-6s-5.26,2.1-5.26,6,2.46,6,5.26,6S59.43,268.08,59.43,264.15Z"/><path class="cls-2" d="M73,273.13c-3.93,0-6.31-2.95-6.31-6.77V255.74h3.3v10.13c0,2.31,1.05,4.35,3.82,4.35s4-1.75,4-4.31V255.74h3.3v13.75a28.3,28.3,0,0,0,.18,3.12H78.08a15.08,15.08,0,0,1-.14-2A5.5,5.5,0,0,1,73,273.13Z"/><path class="cls-2" d="M88.45,272.78A4.48,4.48,0,0,0,93,276.92c3.54,0,5.15-1.82,5.15-5.47V269A5.62,5.62,0,0,1,93,271.8c-4.49,0-7.75-3.4-7.75-8.17,0-4.56,3.12-8.21,7.75-8.21,2.59,0,4.35,1,5.19,2.67v-2.35h3.26v15.6c0,4.28-2.1,8.45-8.45,8.45-4.21,0-7.36-2.67-7.78-6.28Zm9.89-9.15c0-3.26-2-5.4-4.8-5.4s-4.87,2.14-4.87,5.4,1.89,5.4,4.87,5.4S98.34,266.89,98.34,263.63Z"/><path class="cls-2" d="M110,272.6h-3.3V247.22H110V257.7a6,6,0,0,1,5.12-2.45c4,0,6,2.91,6,6.66V272.6h-3.3V262.47c0-2.35-1-4.24-3.93-4.24-2.52,0-3.86,2-3.93,4.45Z"/><path class="cls-2" d="M139.64,255.74h3.65v3h-3.65v8.77c0,1.54.63,2.31,2.35,2.31a6.7,6.7,0,0,0,1.3-.14v2.81a7.22,7.22,0,0,1-2.24.32c-2.87,0-4.7-1.75-4.7-4.8v-9.26h-3.23v-3H134a2.36,2.36,0,0,0,2.59-2.59v-2.73h3Z"/><path class="cls-2" d="M151,272.6h-3.3V247.22H151V257.7a6,6,0,0,1,5.12-2.45c4,0,6,2.91,6,6.66V272.6h-3.3V262.47c0-2.35-1-4.24-3.93-4.24-2.52,0-3.86,2-3.93,4.45Z"/><path class="cls-2" d="M182.06,267.8a7.64,7.64,0,0,1-7.57,5.33c-4.52,0-8.49-3.3-8.49-9,0-5.29,3.82-8.91,8.07-8.91,5.19,0,8.1,3.58,8.1,8.84a7.39,7.39,0,0,1-.07,1.05H169.4a5,5,0,0,0,5.08,5.12,4.6,4.6,0,0,0,4.73-3.4Zm-3.33-5.37a4.25,4.25,0,0,0-4.63-4.31,4.54,4.54,0,0,0-4.59,4.31Z"/><path class="cls-2" d="M197.1,264.15c0,3.86,2.42,5.93,5.15,5.93a4.59,4.59,0,0,0,4.7-3.47l2.91,1.26a7.75,7.75,0,0,1-7.61,5.26c-4.91,0-8.52-3.86-8.52-9s3.68-8.94,8.49-8.94a7.34,7.34,0,0,1,7.5,5.36l-3,1.26a4.42,4.42,0,0,0-4.52-3.58C199.55,258.26,197.1,260.23,197.1,264.15Z"/><path class="cls-2" d="M217,272.6h-3.3V247.22H217V257.7a6,6,0,0,1,5.12-2.45c4,0,6,2.91,6,6.66V272.6h-3.3V262.47c0-2.35-1-4.24-3.93-4.24-2.52,0-3.86,2-3.93,4.45Z"/><path class="cls-2" d="M237.48,263l4.56-.67c1-.14,1.3-.67,1.3-1.26,0-1.65-1.09-3-3.65-3a3.58,3.58,0,0,0-3.82,3.4l-3.16-.74c.35-3.23,3.26-5.47,6.91-5.47,5,0,7,2.88,7,6.17v8.45a15.83,15.83,0,0,0,.21,2.77h-3.23a12.34,12.34,0,0,1-.17-2.28,6.15,6.15,0,0,1-5.44,2.81c-3.44,0-5.65-2.38-5.65-5C232.36,265.07,234.57,263.38,237.48,263Zm5.86,2.42v-.77l-5.15.77a2.52,2.52,0,0,0-2.46,2.52,2.56,2.56,0,0,0,2.74,2.45C241.17,270.36,243.34,269.06,243.34,265.38Z"/><path class="cls-2" d="M251.75,272.6V247.22H255V272.6Z"/><path class="cls-2" d="M260.66,272.6V247.22H264V272.6Z"/><path class="cls-2" d="M284.25,267.8a7.64,7.64,0,0,1-7.57,5.33c-4.52,0-8.49-3.3-8.49-9,0-5.29,3.82-8.91,8.07-8.91,5.19,0,8.1,3.58,8.1,8.84a7.39,7.39,0,0,1-.07,1.05H271.59a5,5,0,0,0,5.08,5.12,4.6,4.6,0,0,0,4.73-3.4Zm-3.33-5.37a4.25,4.25,0,0,0-4.63-4.31,4.54,4.54,0,0,0-4.59,4.31Z"/><path class="cls-2" d="M291.86,272.6h-3.3V255.74h3.23v2.42a5.78,5.78,0,0,1,5.19-2.91c4,0,6,2.91,6,6.66V272.6h-3.3V262.47c0-2.35-1-4.24-3.93-4.24-2.59,0-3.93,2.07-3.93,4.63Z"/><path class="cls-2" d="M310.23,272.78a4.48,4.48,0,0,0,4.59,4.14c3.54,0,5.15-1.82,5.15-5.47V269a5.62,5.62,0,0,1-5.15,2.77c-4.49,0-7.75-3.4-7.75-8.17,0-4.56,3.12-8.21,7.75-8.21,2.59,0,4.35,1,5.19,2.67v-2.35h3.26v15.6c0,4.28-2.1,8.45-8.45,8.45-4.21,0-7.36-2.67-7.78-6.28Zm9.89-9.15c0-3.26-2-5.4-4.8-5.4s-4.87,2.14-4.87,5.4,1.89,5.4,4.87,5.4S320.12,266.89,320.12,263.63Z"/><path class="cls-2" d="M330.14,247a2.37,2.37,0,1,1-2.35,2.38A2.36,2.36,0,0,1,330.14,247Zm-1.61,25.63V255.74h3.26V272.6Z"/><path class="cls-2" d="M340.69,272.6h-3.3V255.74h3.23v2.42a5.78,5.78,0,0,1,5.19-2.91c4,0,6,2.91,6,6.66V272.6h-3.3V262.47c0-2.35-1-4.24-3.93-4.24-2.59,0-3.93,2.07-3.93,4.63Z"/><path class="cls-2" d="M359.06,272.78a4.48,4.48,0,0,0,4.59,4.14c3.54,0,5.15-1.82,5.15-5.47V269a5.62,5.62,0,0,1-5.15,2.77c-4.49,0-7.75-3.4-7.75-8.17,0-4.56,3.12-8.21,7.75-8.21,2.59,0,4.35,1,5.19,2.67v-2.35h3.26v15.6c0,4.28-2.1,8.45-8.45,8.45-4.21,0-7.36-2.67-7.78-6.28Zm9.89-9.15c0-3.26-2-5.4-4.8-5.4s-4.87,2.14-4.87,5.4,1.89,5.4,4.87,5.4S369,266.89,369,263.63Z"/><path class="cls-2" d="M388.09,264.15c0,3.86,2.42,5.93,5.15,5.93a4.59,4.59,0,0,0,4.7-3.47l2.91,1.26a7.75,7.75,0,0,1-7.61,5.26c-4.91,0-8.52-3.86-8.52-9s3.68-8.94,8.49-8.94a7.34,7.34,0,0,1,7.5,5.36l-3,1.26a4.42,4.42,0,0,0-4.52-3.58C390.54,258.26,388.09,260.23,388.09,264.15Z"/><path class="cls-2" d="M420.38,264.15c0,5.15-3.58,9-8.63,9s-8.63-3.82-8.63-9,3.58-8.94,8.63-8.94S420.38,259,420.38,264.15Zm-3.37,0c0-3.89-2.45-6-5.26-6s-5.26,2.1-5.26,6,2.46,6,5.26,6S417,268.08,417,264.15Z"/><path class="cls-2" d="M424.59,272.6V247.22h3.3V272.6Z"/><path class="cls-2" d="M433.49,272.6V247.22h3.3V272.6Z"/><path class="cls-2" d="M457.09,267.8a7.64,7.64,0,0,1-7.57,5.33c-4.52,0-8.49-3.3-8.49-9,0-5.29,3.82-8.91,8.07-8.91,5.19,0,8.1,3.58,8.1,8.84a7.39,7.39,0,0,1-.07,1.05H444.43a5,5,0,0,0,5.08,5.12,4.6,4.6,0,0,0,4.73-3.4Zm-3.33-5.37a4.25,4.25,0,0,0-4.63-4.31,4.54,4.54,0,0,0-4.59,4.31Z"/><path class="cls-2" d="M463.36,272.78a4.48,4.48,0,0,0,4.59,4.14c3.54,0,5.15-1.82,5.15-5.47V269A5.62,5.62,0,0,1,468,271.8c-4.49,0-7.75-3.4-7.75-8.17,0-4.56,3.12-8.21,7.75-8.21,2.59,0,4.35,1,5.19,2.67v-2.35h3.26v15.6c0,4.28-2.1,8.45-8.45,8.45-4.21,0-7.36-2.67-7.78-6.28Zm9.89-9.15c0-3.26-2-5.4-4.8-5.4s-4.87,2.14-4.87,5.4,1.89,5.4,4.87,5.4S473.25,266.89,473.25,263.63Z"/><path class="cls-2" d="M496.35,267.8a7.64,7.64,0,0,1-7.57,5.33c-4.52,0-8.49-3.3-8.49-9,0-5.29,3.82-8.91,8.07-8.91,5.19,0,8.1,3.58,8.1,8.84a7.39,7.39,0,0,1-.07,1.05H483.69a5,5,0,0,0,5.08,5.12,4.6,4.6,0,0,0,4.73-3.4ZM493,262.44a4.25,4.25,0,0,0-4.63-4.31,4.54,4.54,0,0,0-4.59,4.31Z"/><path class="cls-2" d="M509.42,279.27V255.74h3.19v2.63a6.22,6.22,0,0,1,5.65-3c5,0,7.75,3.89,7.75,8.8s-2.91,8.91-7.85,8.91a6.27,6.27,0,0,1-5.47-2.74v8.94Zm8.24-21c-3,0-5,2.52-5,5.89s2,6,5,6,5-2.49,5-6S520.75,258.26,517.66,258.26Z"/><path class="cls-2" d="M539.58,259.07a10.32,10.32,0,0,0-1.44-.1c-2.77,0-4.63,1.47-4.63,5.19v8.45h-3.3V255.74h3.23v2.95a5.28,5.28,0,0,1,5-3.23,6.19,6.19,0,0,1,1.09.1Z"/><path class="cls-2" d="M557.6,267.8a7.64,7.64,0,0,1-7.57,5.33c-4.52,0-8.49-3.3-8.49-9,0-5.29,3.82-8.91,8.07-8.91,5.19,0,8.1,3.58,8.1,8.84a7.39,7.39,0,0,1-.07,1.05H544.94a5,5,0,0,0,5.08,5.12,4.6,4.6,0,0,0,4.73-3.4Zm-3.33-5.37a4.25,4.25,0,0,0-4.63-4.31,4.54,4.54,0,0,0-4.59,4.31Z"/><path class="cls-2" d="M561.91,279.27V255.74h3.19v2.63a6.22,6.22,0,0,1,5.65-3c5,0,7.75,3.89,7.75,8.8s-2.91,8.91-7.85,8.91a6.27,6.27,0,0,1-5.47-2.74v8.94Zm8.24-21c-3,0-5,2.52-5,5.89s2,6,5,6,5-2.49,5-6S573.23,258.26,570.15,258.26Z"/><path class="cls-2" d="M6.17,303.59l4.56-.67c1-.14,1.3-.67,1.3-1.26,0-1.65-1.09-3-3.65-3a3.58,3.58,0,0,0-3.82,3.4l-3.16-.74c.35-3.23,3.26-5.47,6.91-5.47,5,0,7,2.88,7,6.17v8.45a15.83,15.83,0,0,0,.21,2.77H12.31a12.34,12.34,0,0,1-.17-2.28,6.15,6.15,0,0,1-5.44,2.81c-3.44,0-5.65-2.38-5.65-5C1.05,305.7,3.26,304,6.17,303.59ZM12,306v-.77L6.87,306a2.52,2.52,0,0,0-2.46,2.52A2.56,2.56,0,0,0,7.15,311C9.85,311,12,309.7,12,306Z"/><path class="cls-2" d="M23.74,313.24h-3.3V296.37h3.23v2.42a5.78,5.78,0,0,1,5.19-2.91c4,0,6,2.91,6,6.66v10.69h-3.3V303.1c0-2.35-1-4.24-3.93-4.24-2.59,0-3.93,2.07-3.93,4.63Z"/><path class="cls-2" d="M52,310.68a5.65,5.65,0,0,1-5.22,3c-4.94,0-8-3.93-8-8.94,0-4.77,3.23-8.84,8-8.84,3,0,4.59,1.47,5.15,2.84v-10.9h3.26v22.27a26.61,26.61,0,0,0,.18,3.12H52.13A14.24,14.24,0,0,1,52,311Zm-4.91.1c3,0,4.87-2.63,4.87-6.1s-1.82-5.86-4.84-5.86-5,2.45-5,5.93S43.89,310.78,47,310.78Z"/><path class="cls-2" d="M73.59,303.59l4.56-.67c1-.14,1.3-.67,1.3-1.26,0-1.65-1.09-3-3.65-3a3.58,3.58,0,0,0-3.82,3.4l-3.16-.74c.35-3.23,3.26-5.47,6.91-5.47,5,0,7,2.88,7,6.17v8.45a15.83,15.83,0,0,0,.21,2.77H79.72a12.34,12.34,0,0,1-.17-2.28,6.15,6.15,0,0,1-5.44,2.81c-3.44,0-5.65-2.38-5.65-5C68.47,305.7,70.68,304,73.59,303.59ZM79.44,306v-.77l-5.15.77a2.52,2.52,0,0,0-2.46,2.52A2.56,2.56,0,0,0,74.57,311C77.27,311,79.44,309.7,79.44,306Z"/><path class="cls-2" d="M87.86,319.9V296.37H91V299a6.22,6.22,0,0,1,5.65-3c5,0,7.75,3.89,7.75,8.8s-2.91,8.91-7.85,8.91A6.27,6.27,0,0,1,91.12,311v8.94Zm8.24-21c-3,0-5,2.52-5,5.89s2,6,5,6,5-2.49,5-6S99.18,298.9,96.09,298.9Z"/><path class="cls-2" d="M108.64,319.9V296.37h3.19V299a6.22,6.22,0,0,1,5.65-3c5,0,7.75,3.89,7.75,8.8s-2.91,8.91-7.85,8.91a6.27,6.27,0,0,1-5.47-2.74v8.94Zm8.24-21c-3,0-5,2.52-5,5.89s2,6,5,6,5-2.49,5-6S120,298.9,116.88,298.9Z"/><path class="cls-2" d="M129.43,313.24V287.85h3.3v25.39Z"/><path class="cls-2" d="M140,287.6A2.37,2.37,0,1,1,137.6,290,2.36,2.36,0,0,1,140,287.6Zm-1.61,25.63V296.37h3.26v16.87Z"/><path class="cls-2" d="M149.17,304.79c0,3.86,2.42,5.93,5.15,5.93a4.59,4.59,0,0,0,4.7-3.47l2.91,1.26a7.75,7.75,0,0,1-7.61,5.26c-4.91,0-8.52-3.86-8.52-9s3.68-8.94,8.49-8.94a7.34,7.34,0,0,1,7.5,5.36l-3,1.26a4.42,4.42,0,0,0-4.52-3.58C151.63,298.9,149.17,300.86,149.17,304.79Z"/><path class="cls-2" d="M169.68,303.59l4.56-.67c1-.14,1.3-.67,1.3-1.26,0-1.65-1.09-3-3.65-3a3.58,3.58,0,0,0-3.82,3.4l-3.16-.74c.35-3.23,3.26-5.47,6.91-5.47,5,0,7,2.88,7,6.17v8.45a15.83,15.83,0,0,0,.21,2.77h-3.23a12.34,12.34,0,0,1-.17-2.28,6.15,6.15,0,0,1-5.44,2.81c-3.44,0-5.65-2.38-5.65-5C164.56,305.7,166.77,304,169.68,303.59Zm5.86,2.42v-.77l-5.15.77a2.52,2.52,0,0,0-2.46,2.52,2.56,2.56,0,0,0,2.74,2.45C173.36,311,175.54,309.7,175.54,306Z"/><path class="cls-2" d="M188.37,296.37H192v3h-3.65v8.77c0,1.54.63,2.31,2.35,2.31a6.7,6.7,0,0,0,1.3-.14v2.81a7.22,7.22,0,0,1-2.24.32c-2.87,0-4.7-1.75-4.7-4.8v-9.26h-3.23v-3h.91a2.36,2.36,0,0,0,2.59-2.59V291h3Z"/><path class="cls-2" d="M198,287.6a2.37,2.37,0,1,1-2.35,2.38A2.36,2.36,0,0,1,198,287.6Zm-1.61,25.63V296.37h3.26v16.87Z"/><path class="cls-2" d="M221.11,304.79c0,5.15-3.58,9-8.63,9s-8.63-3.82-8.63-9,3.58-8.94,8.63-8.94S221.11,299.67,221.11,304.79Zm-3.37,0c0-3.89-2.45-6-5.26-6s-5.26,2.1-5.26,6,2.46,6,5.26,6S217.75,308.71,217.75,304.79Z"/><path class="cls-2" d="M228.61,313.24h-3.3V296.37h3.23v2.42a5.78,5.78,0,0,1,5.19-2.91c4,0,6,2.91,6,6.66v10.69h-3.3V303.1c0-2.35-1-4.24-3.93-4.24-2.59,0-3.93,2.07-3.93,4.63Z"/><path class="cls-2" d="M253.78,319.9V296.37H257V299a6.22,6.22,0,0,1,5.65-3c5,0,7.75,3.89,7.75,8.8s-2.91,8.91-7.85,8.91A6.27,6.27,0,0,1,257,311v8.94Zm8.24-21c-3,0-5,2.52-5,5.89s2,6,5,6,5-2.49,5-6S265.11,298.9,262,298.9Z"/><path class="cls-2" d="M283.93,299.7a10.32,10.32,0,0,0-1.44-.1c-2.77,0-4.63,1.47-4.63,5.19v8.45h-3.3V296.37h3.23v2.95a5.28,5.28,0,0,1,5-3.23,6.19,6.19,0,0,1,1.09.1Z"/><path class="cls-2" d="M303.11,304.79c0,5.15-3.58,9-8.63,9s-8.63-3.82-8.63-9,3.58-8.94,8.63-8.94S303.11,299.67,303.11,304.79Zm-3.37,0c0-3.89-2.45-6-5.26-6s-5.26,2.1-5.26,6,2.46,6,5.26,6S299.75,308.71,299.75,304.79Z"/><path class="cls-2" d="M309.28,304.79c0,3.86,2.42,5.93,5.15,5.93a4.59,4.59,0,0,0,4.7-3.47L322,308.5a7.75,7.75,0,0,1-7.61,5.26c-4.91,0-8.52-3.86-8.52-9s3.68-8.94,8.49-8.94a7.34,7.34,0,0,1,7.5,5.36l-3,1.26a4.42,4.42,0,0,0-4.52-3.58C311.73,298.9,309.28,300.86,309.28,304.79Z"/><path class="cls-2" d="M340.41,308.43a7.64,7.64,0,0,1-7.57,5.33c-4.52,0-8.49-3.3-8.49-9,0-5.29,3.82-8.91,8.07-8.91,5.19,0,8.1,3.58,8.1,8.84a7.39,7.39,0,0,1-.07,1.05H327.75a5,5,0,0,0,5.08,5.12,4.6,4.6,0,0,0,4.73-3.4Zm-3.33-5.37a4.25,4.25,0,0,0-4.63-4.31,4.54,4.54,0,0,0-4.59,4.31Z"/><path class="cls-2" d="M346.13,307.8a3.59,3.59,0,0,0,3.93,3.16c1.86,0,2.88-1.05,2.88-2.24s-.77-1.86-2.17-2.17l-2.87-.63c-2.63-.56-4.21-2.35-4.21-4.73,0-2.87,2.7-5.33,6-5.33,4.63,0,6.07,3,6.42,4.52l-2.91,1.09a3.27,3.27,0,0,0-3.51-2.81,2.54,2.54,0,0,0-2.8,2.24c0,1,.63,1.75,1.93,2l2.73.6c3.05.67,4.66,2.52,4.66,5s-2,5.22-6.17,5.22c-4.63,0-6.59-3-6.87-4.91Z"/><path class="cls-2" d="M362,307.8A3.59,3.59,0,0,0,365.9,311c1.86,0,2.88-1.05,2.88-2.24s-.77-1.86-2.17-2.17l-2.87-.63c-2.63-.56-4.21-2.35-4.21-4.73,0-2.87,2.7-5.33,6-5.33,4.63,0,6.07,3,6.42,4.52L369,301.46a3.27,3.27,0,0,0-3.51-2.81,2.54,2.54,0,0,0-2.8,2.24c0,1,.63,1.75,1.93,2l2.73.6c3.05.67,4.66,2.52,4.66,5s-2,5.22-6.17,5.22c-4.63,0-6.59-3-6.87-4.91Z"/><path class="cls-2" d="M378.48,308.54a2.44,2.44,0,0,1,2.45,2.45,2.41,2.41,0,0,1-2.45,2.42,2.38,2.38,0,0,1-2.42-2.42A2.41,2.41,0,0,1,378.48,308.54Z"/><path class="cls-2" d="M19,28.72l-5,5.57V46.18H4.12V1.81H14V20.46L30.21,1.81h13L26,21,43.29,46.18H31Z"/><path class="cls-2" d="M45.67,58.13,52.74,42,39.66,15.08H50.3l7.57,16.65,6.88-16.65H74.83L55.68,58.13Z"/><path class="cls-2" d="M99.41,24.47a12.9,12.9,0,0,0-3-.31c-3.82,0-7.26,2.25-7.26,8.45V46.18H79.64V15.08h9.2v4.19c1.63-3.5,5.57-4.51,8.07-4.51a9.41,9.41,0,0,1,2.5.31Z"/><path class="cls-2" d="M135.58,30.6a16.52,16.52,0,0,1-33,0c0-9.64,7.26-16.46,16.52-16.46S135.58,21,135.58,30.6Zm-9.51,0c0-5.26-3.38-7.7-7-7.7s-7,2.44-7,7.7,3.44,7.76,7,7.76S126.07,35.86,126.07,30.6Z"/><path class="cls-2" d="M147.22,35.92c.13,2.13,1.63,4.19,4.88,4.19,2.44,0,3.63-1.31,3.63-2.69,0-1.13-.75-2.06-3.07-2.57L149.09,34c-6.63-1.44-9.26-5.19-9.26-9.57,0-5.69,5-10.33,12-10.33,9,0,12.14,5.63,12.45,9.26l-7.88,1.44A4.09,4.09,0,0,0,151.91,21c-1.81,0-3.38,1.06-3.38,2.69,0,1.31,1.06,2.06,2.44,2.32l4.13.81c6.45,1.31,9.57,5.19,9.57,9.76,0,5.32-4.07,10.51-12.39,10.51-9.76,0-12.89-6.32-13.14-9.76Z"/><path class="cls-2" d="M191.76,35.92c.13,2.13,1.63,4.19,4.88,4.19,2.44,0,3.63-1.31,3.63-2.69,0-1.13-.75-2.06-3.07-2.57L193.64,34c-6.63-1.44-9.26-5.19-9.26-9.57,0-5.69,5-10.33,12-10.33,9,0,12.14,5.63,12.45,9.26l-7.88,1.44A4.09,4.09,0,0,0,196.46,21c-1.81,0-3.38,1.06-3.38,2.69,0,1.31,1.06,2.06,2.44,2.32l4.13.81c6.45,1.31,9.57,5.19,9.57,9.76,0,5.32-4.07,10.51-12.39,10.51-9.76,0-12.89-6.32-13.14-9.76Z"/><path class="cls-2" d="M243.64,37.23c-1.5,5.38-6.45,9.89-14.33,9.89-8.57,0-16.21-6.13-16.21-16.58,0-10,7.45-16.4,15.52-16.4,9.64,0,15.58,5.94,15.58,16A19.87,19.87,0,0,1,244,33H222.36c.19,3.5,3.38,6,7.07,6,3.44,0,5.38-1.63,6.26-4.07ZM235,26.91c-.12-2.38-1.75-5.26-6.26-5.26a5.92,5.92,0,0,0-6.2,5.26Z"/><path class="cls-2" d="M270.1,24.47a12.9,12.9,0,0,0-3-.31c-3.82,0-7.26,2.25-7.26,8.45V46.18h-9.51V15.08h9.2v4.19c1.63-3.5,5.57-4.51,8.07-4.51a9.41,9.41,0,0,1,2.5.31Z"/><path class="cls-2" d="M295.57,46.18H286l-12.77-31.1h10.33l7.2,19.34,6.63-19.34h10Z"/><path class="cls-2" d="M316.9,0a5.57,5.57,0,1,1-5.51,5.57A5.6,5.6,0,0,1,316.9,0Zm-4.69,46.18V15.08h9.51v31.1Z"/><path class="cls-2" d="M337.24,30.66c0,4.94,3.32,7.7,7.26,7.7a6.41,6.41,0,0,0,6.45-4.63l8.39,2.57c-1.38,5.44-6.51,10.83-14.83,10.83-9.26,0-16.71-6.82-16.71-16.46a16.05,16.05,0,0,1,16.4-16.52c8.57,0,13.58,5.26,15,10.83l-8.51,2.57a6.12,6.12,0,0,0-6.26-4.63C340.43,22.9,337.24,25.66,337.24,30.66Z"/><path class="cls-2" d="M393.12,37.23c-1.5,5.38-6.45,9.89-14.33,9.89-8.57,0-16.21-6.13-16.21-16.58,0-10,7.45-16.4,15.52-16.4,9.64,0,15.58,5.94,15.58,16a19.87,19.87,0,0,1-.19,2.94H371.84c.19,3.5,3.38,6,7.07,6,3.44,0,5.38-1.63,6.26-4.07Zm-8.64-10.33c-.12-2.38-1.75-5.26-6.26-5.26a5.92,5.92,0,0,0-6.2,5.26Z"/><path class="cls-2" d="M405.31,35.92c.13,2.13,1.63,4.19,4.88,4.19,2.44,0,3.63-1.31,3.63-2.69,0-1.13-.75-2.06-3.07-2.57L407.19,34c-6.63-1.44-9.26-5.19-9.26-9.57,0-5.69,5-10.33,12-10.33,9,0,12.14,5.63,12.45,9.26l-7.88,1.44A4.09,4.09,0,0,0,410,21c-1.81,0-3.38,1.06-3.38,2.69,0,1.31,1.06,2.06,2.44,2.32l4.13.81c6.45,1.31,9.57,5.19,9.57,9.76,0,5.32-4.07,10.51-12.39,10.51-9.76,0-12.89-6.32-13.14-9.76Z"/></g></g></svg>